<svg xmlns="http://www.w3.org/2000/svg" viewBox="0 0 64 64" data-mood="idle" role="img" aria-label="arcticfox pet sprite"><g id="tail"><path class="tail" d="M16,48 Q2,46 5,33 Q6,28 13,31" fill="none" stroke="currentColor" stroke-width="8" stroke-linecap="round"></path><circle cx="5.5" cy="31" r="4" fill="var(--pet-accent)" opacity=".7"></circle></g><g id="legs"><rect class="leg-back" x="22" y="49" width="6.5" height="11" rx="3.25" fill="currentColor"></rect><rect class="leg-front" x="35" y="49" width="6.5" height="11" rx="3.25" fill="currentColor"></rect></g><g id="body"><ellipse cx="28" cy="43" rx="14" ry="12" fill="currentColor"></ellipse><path d="M38,42 L52,35 L50,47 Z" fill="currentColor"></path><circle cx="46" cy="27" r="10" fill="currentColor"></circle><path d="M44,29 L52,31 L46,34 Z" fill="var(--pet-accent)" opacity=".5"></path><circle cx="46" cy="34" r="1.7" fill="var(--pet-eye)"></circle></g><g id="ears"><path d="M40,18 L35,8 L46,17 Z" fill="currentColor"></path><path d="M40.5,17.5 L37,11 L44,16 Z" fill="var(--pet-accent)"></path><path d="M52,17 L57,8 L46,17 Z" fill="currentColor"></path><path d="M51.5,16.5 L55,11 L48,16 Z" fill="var(--pet-accent)"></path></g><g id="face"><g class="mood m-idle" data-mood="idle"><circle cx="42" cy="26" r="2.6" fill="var(--pet-eye)"></circle><circle cx="49" cy="26" r="2.6" fill="var(--pet-eye)"></circle></g><g class="mood m-focused" data-mood="focused"><path d="M38.1,23.53 L43.56,26.26" fill="none" stroke="var(--pet-eye)" stroke-width="2.73" stroke-linecap="round" stroke-linejoin="round"></path><path d="M52.9,23.53 L47.44,26.26" fill="none" stroke="var(--pet-eye)" stroke-width="2.73" stroke-linecap="round" stroke-linejoin="round"></path><circle cx="42.26" cy="27.56" r="1.35" fill="var(--pet-eye)"></circle><circle cx="48.74" cy="27.56" r="1.35" fill="var(--pet-eye)"></circle><path d="M43.16,32.24 H47.84" fill="none" stroke="var(--pet-eye)" stroke-width="1.3" stroke-linecap="round" stroke-linejoin="round"></path></g><g class="mood m-happy" data-mood="happy"><path d="M39.4,26.91 L42,24.18 L44.6,26.91" fill="none" stroke="var(--pet-eye)" stroke-width="1.69" stroke-linecap="round" stroke-linejoin="round"></path><path d="M46.4,26.91 L49,24.18 L51.6,26.91" fill="none" stroke="var(--pet-eye)" stroke-width="1.69" stroke-linecap="round" stroke-linejoin="round"></path><path d="M42.64,31.46 Q45.5,35.1 48.36,31.46" fill="none" stroke="var(--pet-eye)" stroke-width="1.56" stroke-linecap="round" stroke-linejoin="round"></path></g><g class="mood m-celebrate" data-mood="celebrate"><path d="M42,23.01 Q42,26 44.99,26 Q42,26 42,28.99 Q42,26 39.01,26 Q42,26 42,23.01 Z" fill="var(--pet-accent)"></path><path d="M49,23.01 Q49,26 51.99,26 Q49,26 49,28.99 Q49,26 46.01,26 Q49,26 49,23.01 Z" fill="var(--pet-accent)"></path><path d="M55.76,14.52 Q55.76,16.6 57.84,16.6 Q55.76,16.6 55.76,18.68 Q55.76,16.6 53.68,16.6 Q55.76,16.6 55.76,14.52 Z" fill="var(--pet-accent)"></path><path d="M35.76,11.4 Q35.76,12.96 37.32,12.96 Q35.76,12.96 35.76,14.52 Q35.76,12.96 34.2,12.96 Q35.76,12.96 35.76,11.4 Z" fill="var(--pet-accent)"></path><path d="M42.64,31.46 Q45.5,35.62 48.36,31.46" fill="none" stroke="var(--pet-eye)" stroke-width="1.56" stroke-linecap="round" stroke-linejoin="round"></path></g><g class="mood m-sleep" data-mood="sleep"><path d="M39.4,26 Q42,28.86 44.6,26" fill="none" stroke="var(--pet-eye)" stroke-width="1.56" stroke-linecap="round" stroke-linejoin="round"></path><path d="M46.4,26 Q49,28.86 51.6,26" fill="none" stroke="var(--pet-eye)" stroke-width="1.56" stroke-linecap="round" stroke-linejoin="round"></path><path d="M55.76,19.2 h2.86 l-2.86,2.86 h2.86" fill="none" stroke="var(--pet-eye)" stroke-width="0.97" stroke-linecap="round" stroke-linejoin="round"></path><path d="M59.4,14 h3.64 l-3.64,3.64 h3.64" fill="none" stroke="var(--pet-eye)" stroke-width="1.24" stroke-linecap="round" stroke-linejoin="round"></path><path d="M63.82,8.8 h4.42 l-4.42,4.42 h4.42" fill="none" stroke="var(--pet-eye)" stroke-width="1.5" stroke-linecap="round" stroke-linejoin="round"></path></g><g class="mood m-confused" data-mood="confused"><circle cx="42" cy="26" r="2.47" fill="var(--pet-eye)"></circle><path d="M46.4,25.48 q1.3,-2.08 2.6,0 q1.3,2.08 2.6,0" fill="none" stroke="var(--pet-eye)" stroke-width="1.56" stroke-linecap="round" stroke-linejoin="round"></path><path d="M54.33,16.02 Q54.33,12.31 57.06,12.31 Q59.98,12.31 59.79,15.43 Q59.01,17.38 57.06,18.36" fill="none" stroke="var(--pet-eye)" stroke-width="1.33" stroke-linecap="round" stroke-linejoin="round"></path><circle cx="57.06" cy="20.89" r="0.78" fill="var(--pet-eye)"></circle></g><g class="mood m-tired" data-mood="tired"><path d="M39.4,25.74 Q42,22.88 44.6,25.74" fill="none" stroke="var(--pet-eye)" stroke-width="1.82" stroke-linecap="round" stroke-linejoin="round"></path><path d="M46.4,25.74 Q49,22.88 51.6,25.74" fill="none" stroke="var(--pet-eye)" stroke-width="1.82" stroke-linecap="round" stroke-linejoin="round"></path><circle cx="42" cy="26.39" r="1.09" fill="var(--pet-eye)"></circle><circle cx="49" cy="26.39" r="1.09" fill="var(--pet-eye)"></circle><path d="M40.18,29.38 Q42,30.94 43.82,29.38" fill="none" stroke="var(--pet-eye)" stroke-width="0.94" stroke-linecap="round" stroke-linejoin="round"></path><path d="M47.18,29.38 Q49,30.94 50.82,29.38" fill="none" stroke="var(--pet-eye)" stroke-width="0.94" stroke-linecap="round" stroke-linejoin="round"></path></g><g class="mood m-love" data-mood="love"><path d="M42,28.47 C38.54,25.26 40.77,23.16 42,25.21 C43.24,23.16 45.46,25.26 42,28.47 Z" fill="var(--pet-accent)"></path><path d="M49,28.47 C45.54,25.26 47.77,23.16 49,25.21 C50.24,23.16 52.46,25.26 49,28.47 Z" fill="var(--pet-accent)"></path><path d="M42.9,31.72 Q45.5,34.84 48.1,31.72" fill="none" stroke="var(--pet-eye)" stroke-width="1.43" stroke-linecap="round" stroke-linejoin="round"></path></g><g class="mood m-surprised" data-mood="surprised"><circle cx="42" cy="26" r="2.99" fill="none" stroke="var(--pet-eye)" stroke-width="1.3"></circle><circle cx="49" cy="26" r="2.99" fill="none" stroke="var(--pet-eye)" stroke-width="1.3"></circle><circle cx="42" cy="26" r="1.09" fill="var(--pet-eye)"></circle><circle cx="49" cy="26" r="1.09" fill="var(--pet-eye)"></circle><path d="M39.14,21.06 Q42,19.76 43.56,20.8" fill="none" stroke="var(--pet-eye)" stroke-width="1.17" stroke-linecap="round" stroke-linejoin="round"></path><path d="M47.44,20.8 Q49,19.76 51.86,21.06" fill="none" stroke="var(--pet-eye)" stroke-width="1.17" stroke-linecap="round" stroke-linejoin="round"></path><ellipse cx="45.5" cy="33.28" rx="1.82" ry="2.34" fill="var(--pet-eye)"></ellipse></g><g class="mood m-playful" data-mood="playful"><path d="M39.4,26.52 Q42,23.66 44.6,26.52" fill="none" stroke="var(--pet-eye)" stroke-width="1.69" stroke-linecap="round" stroke-linejoin="round"></path><circle cx="49" cy="26" r="2.6" fill="var(--pet-eye)"></circle><path d="M42.64,31.46 Q46.02,34.58 48.62,30.94" fill="none" stroke="var(--pet-eye)" stroke-width="1.43" stroke-linecap="round" stroke-linejoin="round"></path><path d="M46.02,33.02 Q46.93,35.36 47.97,33.41 Z" fill="var(--pet-accent)"></path></g></g></svg>