<svg xmlns="http://www.w3.org/2000/svg" viewBox="0 0 64 64" data-mood="idle" role="img" aria-label="bat pet sprite"><g id="tail"></g><g id="legs"><path class="leg-back" d="M22,36 Q4,30 6,46 Q10,42 16,44 Q12,48 18,48 Q24,44 24,38 Z" fill="currentColor"></path><path class="leg-front" d="M42,36 Q60,30 58,46 Q54,42 48,44 Q52,48 46,48 Q40,44 40,38 Z" fill="currentColor"></path></g><g id="body"><ellipse cx="32" cy="38" rx="10" ry="11" fill="currentColor"></ellipse><ellipse cx="32" cy="42" rx="6" ry="6" fill="var(--pet-accent)" opacity=".55"></ellipse><path d="M29,28 L31,33 L33,28 Z" fill="var(--pet-eye)"></path></g><g id="ears"><path d="M26,24 L22,12 L33,22 Z" fill="currentColor"></path><path d="M38,24 L42,12 L31,22 Z" fill="currentColor"></path></g><g id="face"><g class="mood m-idle" data-mood="idle"><circle cx="28" cy="32" r="2.6" fill="var(--pet-eye)"></circle><circle cx="36" cy="32" r="2.6" fill="var(--pet-eye)"></circle></g><g class="mood m-focused" data-mood="focused"><path d="M24.1,29.53 L29.56,32.26" fill="none" stroke="var(--pet-eye)" stroke-width="2.73" stroke-linecap="round" stroke-linejoin="round"></path><path d="M39.9,29.53 L34.44,32.26" fill="none" stroke="var(--pet-eye)" stroke-width="2.73" stroke-linecap="round" stroke-linejoin="round"></path><circle cx="28.26" cy="33.56" r="1.35" fill="var(--pet-eye)"></circle><circle cx="35.74" cy="33.56" r="1.35" fill="var(--pet-eye)"></circle><path d="M29.66,38.24 H34.34" fill="none" stroke="var(--pet-eye)" stroke-width="1.3" stroke-linecap="round" stroke-linejoin="round"></path></g><g class="mood m-happy" data-mood="happy"><path d="M25.4,32.91 L28,30.18 L30.6,32.91" fill="none" stroke="var(--pet-eye)" stroke-width="1.69" stroke-linecap="round" stroke-linejoin="round"></path><path d="M33.4,32.91 L36,30.18 L38.6,32.91" fill="none" stroke="var(--pet-eye)" stroke-width="1.69" stroke-linecap="round" stroke-linejoin="round"></path><path d="M29.14,37.46 Q32,41.1 34.86,37.46" fill="none" stroke="var(--pet-eye)" stroke-width="1.56" stroke-linecap="round" stroke-linejoin="round"></path></g><g class="mood m-celebrate" data-mood="celebrate"><path d="M28,29.01 Q28,32 30.99,32 Q28,32 28,34.99 Q28,32 25.01,32 Q28,32 28,29.01 Z" fill="var(--pet-accent)"></path><path d="M36,29.01 Q36,32 38.99,32 Q36,32 36,34.99 Q36,32 33.01,32 Q36,32 36,29.01 Z" fill="var(--pet-accent)"></path><path d="M42.76,21.52 Q42.76,23.6 44.84,23.6 Q42.76,23.6 42.76,25.68 Q42.76,23.6 40.68,23.6 Q42.76,23.6 42.76,21.52 Z" fill="var(--pet-accent)"></path><path d="M21.76,18.4 Q21.76,19.96 23.32,19.96 Q21.76,19.96 21.76,21.52 Q21.76,19.96 20.2,19.96 Q21.76,19.96 21.76,18.4 Z" fill="var(--pet-accent)"></path><path d="M29.14,37.46 Q32,41.62 34.86,37.46" fill="none" stroke="var(--pet-eye)" stroke-width="1.56" stroke-linecap="round" stroke-linejoin="round"></path></g><g class="mood m-sleep" data-mood="sleep"><path d="M25.4,32 Q28,34.86 30.6,32" fill="none" stroke="var(--pet-eye)" stroke-width="1.56" stroke-linecap="round" stroke-linejoin="round"></path><path d="M33.4,32 Q36,34.86 38.6,32" fill="none" stroke="var(--pet-eye)" stroke-width="1.56" stroke-linecap="round" stroke-linejoin="round"></path><path d="M42.76,26.2 h2.86 l-2.86,2.86 h2.86" fill="none" stroke="var(--pet-eye)" stroke-width="0.97" stroke-linecap="round" stroke-linejoin="round"></path><path d="M46.4,21 h3.64 l-3.64,3.64 h3.64" fill="none" stroke="var(--pet-eye)" stroke-width="1.24" stroke-linecap="round" stroke-linejoin="round"></path><path d="M50.82,15.8 h4.42 l-4.42,4.42 h4.42" fill="none" stroke="var(--pet-eye)" stroke-width="1.5" stroke-linecap="round" stroke-linejoin="round"></path></g><g class="mood m-confused" data-mood="confused"><circle cx="28" cy="32" r="2.47" fill="var(--pet-eye)"></circle><path d="M33.4,31.48 q1.3,-2.08 2.6,0 q1.3,2.08 2.6,0" fill="none" stroke="var(--pet-eye)" stroke-width="1.56" stroke-linecap="round" stroke-linejoin="round"></path><path d="M41.33,23.02 Q41.33,19.31 44.06,19.31 Q46.98,19.31 46.79,22.43 Q46.01,24.38 44.06,25.36" fill="none" stroke="var(--pet-eye)" stroke-width="1.33" stroke-linecap="round" stroke-linejoin="round"></path><circle cx="44.06" cy="27.89" r="0.78" fill="var(--pet-eye)"></circle></g><g class="mood m-tired" data-mood="tired"><path d="M25.4,31.74 Q28,28.88 30.6,31.74" fill="none" stroke="var(--pet-eye)" stroke-width="1.82" stroke-linecap="round" stroke-linejoin="round"></path><path d="M33.4,31.74 Q36,28.88 38.6,31.74" fill="none" stroke="var(--pet-eye)" stroke-width="1.82" stroke-linecap="round" stroke-linejoin="round"></path><circle cx="28" cy="32.39" r="1.09" fill="var(--pet-eye)"></circle><circle cx="36" cy="32.39" r="1.09" fill="var(--pet-eye)"></circle><path d="M26.18,35.38 Q28,36.94 29.82,35.38" fill="none" stroke="var(--pet-eye)" stroke-width="0.94" stroke-linecap="round" stroke-linejoin="round"></path><path d="M34.18,35.38 Q36,36.94 37.82,35.38" fill="none" stroke="var(--pet-eye)" stroke-width="0.94" stroke-linecap="round" stroke-linejoin="round"></path></g><g class="mood m-love" data-mood="love"><path d="M28,34.47 C24.54,31.26 26.77,29.16 28,31.21 C29.24,29.16 31.46,31.26 28,34.47 Z" fill="var(--pet-accent)"></path><path d="M36,34.47 C32.54,31.26 34.77,29.16 36,31.21 C37.24,29.16 39.46,31.26 36,34.47 Z" fill="var(--pet-accent)"></path><path d="M29.4,37.72 Q32,40.84 34.6,37.72" fill="none" stroke="var(--pet-eye)" stroke-width="1.43" stroke-linecap="round" stroke-linejoin="round"></path></g><g class="mood m-surprised" data-mood="surprised"><circle cx="28" cy="32" r="2.99" fill="none" stroke="var(--pet-eye)" stroke-width="1.3"></circle><circle cx="36" cy="32" r="2.99" fill="none" stroke="var(--pet-eye)" stroke-width="1.3"></circle><circle cx="28" cy="32" r="1.09" fill="var(--pet-eye)"></circle><circle cx="36" cy="32" r="1.09" fill="var(--pet-eye)"></circle><path d="M25.14,27.06 Q28,25.76 29.56,26.8" fill="none" stroke="var(--pet-eye)" stroke-width="1.17" stroke-linecap="round" stroke-linejoin="round"></path><path d="M34.44,26.8 Q36,25.76 38.86,27.06" fill="none" stroke="var(--pet-eye)" stroke-width="1.17" stroke-linecap="round" stroke-linejoin="round"></path><ellipse cx="32" cy="39.28" rx="1.82" ry="2.34" fill="var(--pet-eye)"></ellipse></g><g class="mood m-playful" data-mood="playful"><path d="M25.4,32.52 Q28,29.66 30.6,32.52" fill="none" stroke="var(--pet-eye)" stroke-width="1.69" stroke-linecap="round" stroke-linejoin="round"></path><circle cx="36" cy="32" r="2.6" fill="var(--pet-eye)"></circle><path d="M29.14,37.46 Q32.52,40.58 35.12,36.94" fill="none" stroke="var(--pet-eye)" stroke-width="1.43" stroke-linecap="round" stroke-linejoin="round"></path><path d="M32.52,39.02 Q33.43,41.36 34.47,39.41 Z" fill="var(--pet-accent)"></path></g></g></svg>