<svg xmlns="http://www.w3.org/2000/svg" viewBox="0 0 64 64" data-mood="idle" role="img" aria-label="bee pet sprite"><g id="legs"><path id="leg-back" class="leg-back" d="M27,25 Q14,12 13,25 Q15,33 29,30 Z" fill="var(--pet-accent)" opacity=".5"></path><path id="leg-front" class="leg-front" d="M37,25 Q50,12 51,25 Q49,33 35,30 Z" fill="var(--pet-accent)" opacity=".5"></path><path d="M27,50 L25,56 M32,51 L32,57 M37,50 L39,56" fill="none" stroke="var(--pet-eye)" stroke-width="1.4" stroke-linecap="round"></path></g><g id="body"><ellipse cx="32" cy="38" rx="16" ry="14" fill="currentColor"></ellipse><path d="M19,43 Q32,47 45,43 L44,47 Q32,51 20,47 Z" fill="var(--pet-accent)"></path><path d="M23,49 Q32,52 41,49 L39,52 Q32,54 25,52 Z" fill="var(--pet-accent)"></path><path d="M28,26 Q26,18 23,16 M36,26 Q38,18 41,16" fill="none" stroke="var(--pet-eye)" stroke-width="1.2" stroke-linecap="round"></path><circle cx="23" cy="16" r="1.5" fill="var(--pet-eye)"></circle><circle cx="41" cy="16" r="1.5" fill="var(--pet-eye)"></circle></g><g id="face"><g class="mood m-idle" data-mood="idle"><circle cx="27" cy="34" r="2.6" fill="var(--pet-eye)"></circle><circle cx="37" cy="34" r="2.6" fill="var(--pet-eye)"></circle></g><g class="mood m-focused" data-mood="focused"><path d="M24.2 31.4 L29.4 33.2" stroke="var(--pet-eye)" fill="none" stroke-linecap="round" stroke-linejoin="round" stroke-width="1.6"></path><path d="M39.8 31.4 L34.6 33.2" stroke="var(--pet-eye)" fill="none" stroke-linecap="round" stroke-linejoin="round" stroke-width="1.6"></path><circle cx="27" cy="34.4" r="1.35" fill="var(--pet-eye)"></circle><circle cx="37" cy="34.4" r="1.35" fill="var(--pet-eye)"></circle><path d="M29.4 42.4 H34.6" stroke="var(--pet-eye)" fill="none" stroke-linecap="round" stroke-linejoin="round" stroke-width="1.3"></path></g><g class="mood m-happy" data-mood="happy"><path d="M24.2 34.8 L27 31.4 L29.8 34.8" stroke="var(--pet-eye)" fill="none" stroke-linecap="round" stroke-linejoin="round" stroke-width="1.7"></path><path d="M34.2 34.8 L37 31.4 L39.8 34.8" stroke="var(--pet-eye)" fill="none" stroke-linecap="round" stroke-linejoin="round" stroke-width="1.7"></path><path d="M28.6 41.6 Q32 45.2 35.4 41.6" stroke="var(--pet-eye)" fill="none" stroke-linecap="round" stroke-linejoin="round" stroke-width="1.4"></path></g><g class="mood m-celebrate" data-mood="celebrate"><path d="M27 31 L27.96 33.04 L30 34 L27.96 34.96 L27 37 L26.04 34.96 L24 34 L26.04 33.04 Z" fill="var(--pet-accent)"></path><path d="M37 31 L37.96 33.04 L40 34 L37.96 34.96 L37 37 L36.04 34.96 L34 34 L36.04 33.04 Z" fill="var(--pet-accent)"></path><path d="M47 13.9 L47.67 15.33 L49.1 16 L47.67 16.67 L47 18.1 L46.33 16.67 L44.9 16 L46.33 15.33 Z" fill="var(--pet-accent)"></path><ellipse cx="32" cy="42.6" rx="2.2" ry="2" fill="var(--pet-eye)"></ellipse></g><g class="mood m-sleep" data-mood="sleep"><path d="M24.2 33.6 Q27 36.6 29.8 33.6" stroke="var(--pet-eye)" fill="none" stroke-linecap="round" stroke-linejoin="round" stroke-width="1.4"></path><path d="M34.2 33.6 Q37 36.6 39.8 33.6" stroke="var(--pet-eye)" fill="none" stroke-linecap="round" stroke-linejoin="round" stroke-width="1.4"></path><path d="M29.4 42 Q32 43.6 34.6 42" stroke="var(--pet-eye)" fill="none" stroke-linecap="round" stroke-linejoin="round" stroke-width="1.2"></path><g fill="none" stroke="var(--pet-eye)" stroke-width="1.1" stroke-linecap="round" stroke-linejoin="round"><path d="M47 16 h2.2 l-2.2 2.31 h2.2"></path><path d="M50.4 11.8 h2.8 l-2.8 2.94 h2.8"></path><path d="M54.4 7 h3.4 l-3.4 3.57 h3.4"></path></g></g><g class="mood m-confused" data-mood="confused"><circle cx="27" cy="34" r="2.6" fill="var(--pet-eye)"></circle><path d="M34.2 34 q1.4 -2 2.8 0 q1.4 2 2.8 0" stroke="var(--pet-eye)" fill="none" stroke-linecap="round" stroke-linejoin="round" stroke-width="1.5"></path><path d="M29.6 42.6 Q32 41.6 34.4 42.6" stroke="var(--pet-eye)" fill="none" stroke-linecap="round" stroke-linejoin="round" stroke-width="1.2"></path><path d="M46 16 Q46 12.4 49.4 12.4 Q52.9 12.4 52.9 15.4 Q52.9 18 49.4 19 V20.6" fill="none" stroke="var(--pet-eye)" stroke-width="1.7" stroke-linecap="round" stroke-linejoin="round"></path><circle cx="49.4" cy="23.4" r="1.15" fill="var(--pet-eye)"></circle></g><g class="mood m-tired" data-mood="tired"><path d="M24.2 33.6 Q27 35.4 29.8 33.6" stroke="var(--pet-eye)" fill="none" stroke-linecap="round" stroke-linejoin="round" stroke-width="1.8"></path><path d="M24.8 35.8 Q27 36.8 29.2 35.8" stroke="var(--pet-eye)" fill="none" stroke-linecap="round" stroke-linejoin="round" stroke-width="1"></path><path d="M34.2 33.6 Q37 35.4 39.8 33.6" stroke="var(--pet-eye)" fill="none" stroke-linecap="round" stroke-linejoin="round" stroke-width="1.8"></path><path d="M34.8 35.8 Q37 36.8 39.2 35.8" stroke="var(--pet-eye)" fill="none" stroke-linecap="round" stroke-linejoin="round" stroke-width="1"></path><path d="M29.4 42.6 Q32 43.3 34.6 42.6" stroke="var(--pet-eye)" fill="none" stroke-linecap="round" stroke-linejoin="round" stroke-width="1.2"></path></g><g class="mood m-love" data-mood="love"><path d="M27 36.55 C 24 33.4 25.35 31 27 33.25 C 28.65 31 30 33.4 27 36.55 Z" fill="var(--pet-accent)"></path><path d="M37 36.55 C 34 33.4 35.35 31 37 33.25 C 38.65 31 40 33.4 37 36.55 Z" fill="var(--pet-accent)"></path><path d="M28.6 41.6 Q32 45 35.4 41.6" stroke="var(--pet-eye)" fill="none" stroke-linecap="round" stroke-linejoin="round" stroke-width="1.4"></path></g><g class="mood m-surprised" data-mood="surprised"><circle cx="27" cy="34" r="2.99" fill="none" stroke="var(--pet-eye)" stroke-width="1.3"></circle><circle cx="37" cy="34" r="2.99" fill="none" stroke="var(--pet-eye)" stroke-width="1.3"></circle><circle cx="27" cy="34" r="1.09" fill="var(--pet-eye)"></circle><circle cx="37" cy="34" r="1.09" fill="var(--pet-eye)"></circle><path d="M24.14,29.06 Q27,27.76 28.56,28.8" fill="none" stroke="var(--pet-eye)" stroke-width="1.17" stroke-linecap="round" stroke-linejoin="round"></path><path d="M35.44,28.8 Q37,27.76 39.86,29.06" fill="none" stroke="var(--pet-eye)" stroke-width="1.17" stroke-linecap="round" stroke-linejoin="round"></path><ellipse cx="32" cy="41.28" rx="1.82" ry="2.34" fill="var(--pet-eye)"></ellipse></g><g class="mood m-playful" data-mood="playful"><path d="M24.4,34.52 Q27,31.66 29.6,34.52" fill="none" stroke="var(--pet-eye)" stroke-width="1.69" stroke-linecap="round" stroke-linejoin="round"></path><circle cx="37" cy="34" r="2.6" fill="var(--pet-eye)"></circle><path d="M29.14,39.46 Q32.52,42.58 35.12,38.94" fill="none" stroke="var(--pet-eye)" stroke-width="1.43" stroke-linecap="round" stroke-linejoin="round"></path><path d="M32.52,41.02 Q33.43,43.36 34.47,41.41 Z" fill="var(--pet-accent)"></path></g></g></svg>