<svg xmlns="http://www.w3.org/2000/svg" viewBox="0 0 64 64" data-mood="idle" role="img" aria-label="bird pet sprite"><g id="tail"><path id="tail" class="tail" d="M18,40 L5,35 L9,41 L4,47 L18,46 Z" fill="currentColor"></path></g><g id="legs"><path id="leg-back" class="leg-back" d="M29,52 L29,59" fill="none" stroke="var(--pet-accent)" stroke-width="2" stroke-linecap="round"></path><path id="leg-front" class="leg-front" d="M35,52 L35,59" fill="none" stroke="var(--pet-accent)" stroke-width="2" stroke-linecap="round"></path><path d="M26.5,60 H31.5 M32.5,60 H37.5" fill="none" stroke="var(--pet-accent)" stroke-width="1.6" stroke-linecap="round"></path></g><g id="body"><circle cx="32" cy="37" r="16" fill="currentColor"></circle><ellipse cx="34" cy="44" rx="9" ry="8" fill="var(--pet-accent)" opacity=".8"></ellipse><path d="M28,36 Q40,40 35,49" fill="none" stroke="var(--pet-eye)" stroke-width="1.3" stroke-linecap="round" opacity=".2"></path></g><g id="ears"><path d="M30,22 Q31,15 34,14 Q34.5,19 33,23 Z" fill="currentColor"></path></g><g id="face"><path d="M46,36 L55,39 L46,42 Z" fill="var(--pet-accent)"></path><g class="mood m-idle" data-mood="idle"><circle cx="35" cy="34" r="2.5" fill="var(--pet-eye)"></circle><circle cx="43" cy="34" r="2.5" fill="var(--pet-eye)"></circle></g><g class="mood m-focused" data-mood="focused"><path d="M32.3,32.4 L37.7,34.5" fill="none" stroke="var(--pet-eye)" stroke-width="2.6" stroke-linecap="round" stroke-linejoin="round"></path><path d="M40.3,34.5 L45.7,32.4" fill="none" stroke="var(--pet-eye)" stroke-width="2.6" stroke-linecap="round" stroke-linejoin="round"></path><circle cx="35.5" cy="36.5" r="1.3" fill="var(--pet-eye)"></circle><circle cx="42.5" cy="36.5" r="1.3" fill="var(--pet-eye)"></circle></g><g class="mood m-happy" data-mood="happy"><path d="M32.4,35.1 L35,32 L37.6,35.1" fill="none" stroke="var(--pet-eye)" stroke-width="2.4" stroke-linecap="round" stroke-linejoin="round"></path><path d="M40.4,35.1 L43,32 L45.6,35.1" fill="none" stroke="var(--pet-eye)" stroke-width="2.4" stroke-linecap="round" stroke-linejoin="round"></path><path d="M36,40 Q39,43.2 42,40" fill="none" stroke="var(--pet-eye)" stroke-width="1.8" stroke-linecap="round" stroke-linejoin="round"></path></g><g class="mood m-celebrate" data-mood="celebrate"><path transform="translate(35,34) scale(1)" d="M0,-3.2 Q0.7,-0.7 3.2,0 Q0.7,0.7 0,3.2 Q-0.7,0.7 -3.2,0 Q-0.7,-0.7 0,-3.2Z" fill="var(--pet-accent)"></path><path transform="translate(43,34) scale(1)" d="M0,-3.2 Q0.7,-0.7 3.2,0 Q0.7,0.7 0,3.2 Q-0.7,0.7 -3.2,0 Q-0.7,-0.7 0,-3.2Z" fill="var(--pet-accent)"></path><path d="M36.4,40 Q39,44.2 41.6,40 Q39,41 36.4,40Z" fill="var(--pet-eye)"></path><path transform="translate(31,21) scale(0.5)" d="M0,-3.2 Q0.7,-0.7 3.2,0 Q0.7,0.7 0,3.2 Q-0.7,0.7 -3.2,0 Q-0.7,-0.7 0,-3.2Z" fill="var(--pet-accent)"></path><path transform="translate(49,28) scale(0.55)" d="M0,-3.2 Q0.7,-0.7 3.2,0 Q0.7,0.7 0,3.2 Q-0.7,0.7 -3.2,0 Q-0.7,-0.7 0,-3.2Z" fill="var(--pet-accent)"></path></g><g class="mood m-sleep" data-mood="sleep"><path d="M32.5,33.5 Q35,36.4 37.5,33.5" fill="none" stroke="var(--pet-eye)" stroke-width="1.9" stroke-linecap="round" stroke-linejoin="round"></path><path d="M40.5,33.5 Q43,36.4 45.5,33.5" fill="none" stroke="var(--pet-eye)" stroke-width="1.9" stroke-linecap="round" stroke-linejoin="round"></path><path transform="translate(48,25) scale(0.7)" d="M0,0 H3.4 L0,3.6 H3.4" fill="none" stroke="var(--pet-eye)" stroke-width="1.1" stroke-linejoin="round" stroke-linecap="round"></path><path transform="translate(51,21) scale(0.9)" d="M0,0 H3.4 L0,3.6 H3.4" fill="none" stroke="var(--pet-eye)" stroke-width="1.1" stroke-linejoin="round" stroke-linecap="round"></path><path transform="translate(54.6,16) scale(1.15)" d="M0,0 H3.4 L0,3.6 H3.4" fill="none" stroke="var(--pet-eye)" stroke-width="1.1" stroke-linejoin="round" stroke-linecap="round"></path></g><g class="mood m-confused" data-mood="confused"><circle cx="35" cy="34" r="2.5" fill="var(--pet-eye)"></circle><path d="M40.7,34.3 Q43,32.8 45.3,34.3" fill="none" stroke="var(--pet-eye)" stroke-width="1.9" stroke-linecap="round" stroke-linejoin="round"></path><g transform="translate(43,18)"><path d="M-1.7,-2.2 Q-1.7,-4.7 0.2,-4.7 Q2.2,-4.7 2.2,-2.4 Q2.2,-0.6 0.2,0.1 L0.2,1.5" fill="none" stroke="var(--pet-eye)" stroke-width="1.5" stroke-linecap="round" stroke-linejoin="round"></path><circle cx="0.2" cy="3.5" r="1" fill="var(--pet-eye)"></circle></g></g><g class="mood m-tired" data-mood="tired"><path d="M32.6,33.8 Q35,36.7 37.4,33.8 Z" fill="var(--pet-eye)"></path><path d="M40.6,33.8 Q43,36.7 45.4,33.8 Z" fill="var(--pet-eye)"></path><path d="M32.2,32.9 Q35,33.9 37.8,32.7" fill="none" stroke="var(--pet-eye)" stroke-width="1.4" stroke-linecap="round" stroke-linejoin="round"></path><path d="M40.2,32.7 Q43,33.9 45.8,32.9" fill="none" stroke="var(--pet-eye)" stroke-width="1.4" stroke-linecap="round" stroke-linejoin="round"></path></g><g class="mood m-love" data-mood="love"><path transform="translate(35,34) scale(0.95)" d="M0,2.4 C0,0.6 -2.6,0.4 -2.6,-1 C-2.6,-2.4 -0.6,-2.6 0,-1.3 C0.6,-2.6 2.6,-2.4 2.6,-1 C2.6,0.4 0,0.6 0,2.4Z" fill="var(--pet-accent)"></path><path transform="translate(43,34) scale(0.95)" d="M0,2.4 C0,0.6 -2.6,0.4 -2.6,-1 C-2.6,-2.4 -0.6,-2.6 0,-1.3 C0.6,-2.6 2.6,-2.4 2.6,-1 C2.6,0.4 0,0.6 0,2.4Z" fill="var(--pet-accent)"></path><path d="M36,40 Q39,43.2 42,40" fill="none" stroke="var(--pet-eye)" stroke-width="1.8" stroke-linecap="round" stroke-linejoin="round"></path></g><g class="mood m-surprised" data-mood="surprised"><circle cx="35" cy="34" r="2.88" fill="none" stroke="var(--pet-eye)" stroke-width="1.25"></circle><circle cx="43" cy="34" r="2.88" fill="none" stroke="var(--pet-eye)" stroke-width="1.25"></circle><circle cx="35" cy="34" r="1.05" fill="var(--pet-eye)"></circle><circle cx="43" cy="34" r="1.05" fill="var(--pet-eye)"></circle><path d="M32.25,29.25 Q35,28 36.5,29" fill="none" stroke="var(--pet-eye)" stroke-width="1.13" stroke-linecap="round" stroke-linejoin="round"></path><path d="M41.5,29 Q43,28 45.75,29.25" fill="none" stroke="var(--pet-eye)" stroke-width="1.13" stroke-linecap="round" stroke-linejoin="round"></path><ellipse cx="39" cy="41" rx="1.75" ry="2.25" fill="var(--pet-eye)"></ellipse></g><g class="mood m-playful" data-mood="playful"><path d="M32.5,34.5 Q35,31.75 37.5,34.5" fill="none" stroke="var(--pet-eye)" stroke-width="1.63" stroke-linecap="round" stroke-linejoin="round"></path><circle cx="43" cy="34" r="2.5" fill="var(--pet-eye)"></circle><path d="M36.25,39.25 Q39.5,42.25 42,38.75" fill="none" stroke="var(--pet-eye)" stroke-width="1.38" stroke-linecap="round" stroke-linejoin="round"></path><path d="M39.5,40.75 Q40.38,43 41.38,41.13 Z" fill="var(--pet-accent)"></path></g></g></svg>