<svg xmlns="http://www.w3.org/2000/svg" viewBox="0 0 64 64" data-mood="idle" role="img" aria-label="butterfly pet sprite"><g id="legs"><path id="leg-back" class="leg-back" d="M30,38 Q13,42 18,56 Q29,52 31,42 Z" fill="currentColor"></path><path id="leg-front" class="leg-front" d="M34,38 Q51,42 46,56 Q35,52 33,42 Z" fill="currentColor"></path></g><g id="body"><path d="M30,33 Q11,17 16,30 Q18,41 31,38 Z" fill="currentColor"></path><path d="M34,33 Q53,17 48,30 Q46,41 33,38 Z" fill="currentColor"></path><circle cx="21" cy="28" r="3.1" fill="var(--pet-accent)"></circle><circle cx="43" cy="28" r="3.1" fill="var(--pet-accent)"></circle><circle cx="23" cy="48" r="2.6" fill="var(--pet-accent)"></circle><circle cx="41" cy="48" r="2.6" fill="var(--pet-accent)"></circle><ellipse cx="32" cy="35" rx="2.8" ry="14" fill="currentColor"></ellipse><path d="M31,21 Q28,13 25,12 M33,21 Q36,13 39,12" fill="none" stroke="currentColor" stroke-width="1.2" stroke-linecap="round"></path><circle cx="25" cy="12" r="1.5" fill="var(--pet-accent)"></circle><circle cx="39" cy="12" r="1.5" fill="var(--pet-accent)"></circle></g><g id="face"><g class="mood m-idle" data-mood="idle"><circle cx="29" cy="27" r="1.8" fill="var(--pet-eye)"></circle><circle cx="35" cy="27" r="1.8" fill="var(--pet-eye)"></circle></g><g class="mood m-focused" data-mood="focused"><path d="M26.2 24.4 L31.4 26.2" stroke="var(--pet-eye)" fill="none" stroke-linecap="round" stroke-linejoin="round" stroke-width="1.6"></path><path d="M37.8 24.4 L32.6 26.2" stroke="var(--pet-eye)" fill="none" stroke-linecap="round" stroke-linejoin="round" stroke-width="1.6"></path><circle cx="29" cy="27.4" r="1.35" fill="var(--pet-eye)"></circle><circle cx="35" cy="27.4" r="1.35" fill="var(--pet-eye)"></circle><path d="M29.4 33.4 H34.6" stroke="var(--pet-eye)" fill="none" stroke-linecap="round" stroke-linejoin="round" stroke-width="1.3"></path></g><g class="mood m-happy" data-mood="happy"><path d="M26.2 27.8 L29 24.4 L31.8 27.8" stroke="var(--pet-eye)" fill="none" stroke-linecap="round" stroke-linejoin="round" stroke-width="1.7"></path><path d="M32.2 27.8 L35 24.4 L37.8 27.8" stroke="var(--pet-eye)" fill="none" stroke-linecap="round" stroke-linejoin="round" stroke-width="1.7"></path><path d="M28.6 32.6 Q32 36.2 35.4 32.6" stroke="var(--pet-eye)" fill="none" stroke-linecap="round" stroke-linejoin="round" stroke-width="1.4"></path></g><g class="mood m-celebrate" data-mood="celebrate"><path d="M29 24 L29.96 26.04 L32 27 L29.96 27.96 L29 30 L28.04 27.96 L26 27 L28.04 26.04 Z" fill="var(--pet-accent)"></path><path d="M35 24 L35.96 26.04 L38 27 L35.96 27.96 L35 30 L34.04 27.96 L32 27 L34.04 26.04 Z" fill="var(--pet-accent)"></path><path d="M47 11.9 L47.67 13.33 L49.1 14 L47.67 14.67 L47 16.1 L46.33 14.67 L44.9 14 L46.33 13.33 Z" fill="var(--pet-accent)"></path><ellipse cx="32" cy="33.6" rx="2.2" ry="2" fill="var(--pet-eye)"></ellipse></g><g class="mood m-sleep" data-mood="sleep"><path d="M26.2 26.6 Q29 29.6 31.8 26.6" stroke="var(--pet-eye)" fill="none" stroke-linecap="round" stroke-linejoin="round" stroke-width="1.4"></path><path d="M32.2 26.6 Q35 29.6 37.8 26.6" stroke="var(--pet-eye)" fill="none" stroke-linecap="round" stroke-linejoin="round" stroke-width="1.4"></path><path d="M29.4 33 Q32 34.6 34.6 33" stroke="var(--pet-eye)" fill="none" stroke-linecap="round" stroke-linejoin="round" stroke-width="1.2"></path><g fill="none" stroke="var(--pet-eye)" stroke-width="1.1" stroke-linecap="round" stroke-linejoin="round"><path d="M47 14 h2.2 l-2.2 2.31 h2.2"></path><path d="M50.4 9.8 h2.8 l-2.8 2.94 h2.8"></path><path d="M54.4 5 h3.4 l-3.4 3.57 h3.4"></path></g></g><g class="mood m-confused" data-mood="confused"><circle cx="29" cy="27" r="1.8" fill="var(--pet-eye)"></circle><path d="M32.2 27 q1.4 -2 2.8 0 q1.4 2 2.8 0" stroke="var(--pet-eye)" fill="none" stroke-linecap="round" stroke-linejoin="round" stroke-width="1.5"></path><path d="M29.6 33.6 Q32 32.6 34.4 33.6" stroke="var(--pet-eye)" fill="none" stroke-linecap="round" stroke-linejoin="round" stroke-width="1.2"></path><path d="M46 14 Q46 10.4 49.4 10.4 Q52.9 10.4 52.9 13.4 Q52.9 16 49.4 17 V18.6" fill="none" stroke="var(--pet-eye)" stroke-width="1.7" stroke-linecap="round" stroke-linejoin="round"></path><circle cx="49.4" cy="21.4" r="1.15" fill="var(--pet-eye)"></circle></g><g class="mood m-tired" data-mood="tired"><path d="M26.2 26.6 Q29 28.4 31.8 26.6" stroke="var(--pet-eye)" fill="none" stroke-linecap="round" stroke-linejoin="round" stroke-width="1.8"></path><path d="M26.8 28.8 Q29 29.8 31.2 28.8" stroke="var(--pet-eye)" fill="none" stroke-linecap="round" stroke-linejoin="round" stroke-width="1"></path><path d="M32.2 26.6 Q35 28.4 37.8 26.6" stroke="var(--pet-eye)" fill="none" stroke-linecap="round" stroke-linejoin="round" stroke-width="1.8"></path><path d="M32.8 28.8 Q35 29.8 37.2 28.8" stroke="var(--pet-eye)" fill="none" stroke-linecap="round" stroke-linejoin="round" stroke-width="1"></path><path d="M29.4 33.6 Q32 34.3 34.6 33.6" stroke="var(--pet-eye)" fill="none" stroke-linecap="round" stroke-linejoin="round" stroke-width="1.2"></path></g><g class="mood m-love" data-mood="love"><path d="M29 29.55 C 26 26.4 27.35 24 29 26.25 C 30.65 24 32 26.4 29 29.55 Z" fill="var(--pet-accent)"></path><path d="M35 29.55 C 32 26.4 33.35 24 35 26.25 C 36.65 24 38 26.4 35 29.55 Z" fill="var(--pet-accent)"></path><path d="M28.6 32.6 Q32 36 35.4 32.6" stroke="var(--pet-eye)" fill="none" stroke-linecap="round" stroke-linejoin="round" stroke-width="1.4"></path></g><g class="mood m-surprised" data-mood="surprised"><circle cx="29" cy="27" r="2.07" fill="none" stroke="var(--pet-eye)" stroke-width="0.9"></circle><circle cx="35" cy="27" r="2.07" fill="none" stroke="var(--pet-eye)" stroke-width="0.9"></circle><circle cx="29" cy="27" r="0.76" fill="var(--pet-eye)"></circle><circle cx="35" cy="27" r="0.76" fill="var(--pet-eye)"></circle><path d="M27.02,23.58 Q29,22.68 30.08,23.4" fill="none" stroke="var(--pet-eye)" stroke-width="0.81" stroke-linecap="round" stroke-linejoin="round"></path><path d="M33.92,23.4 Q35,22.68 36.98,23.58" fill="none" stroke="var(--pet-eye)" stroke-width="0.81" stroke-linecap="round" stroke-linejoin="round"></path><ellipse cx="32" cy="32.04" rx="1.26" ry="1.62" fill="var(--pet-eye)"></ellipse></g><g class="mood m-playful" data-mood="playful"><path d="M27.2,27.36 Q29,25.38 30.8,27.36" fill="none" stroke="var(--pet-eye)" stroke-width="1.17" stroke-linecap="round" stroke-linejoin="round"></path><circle cx="35" cy="27" r="1.8" fill="var(--pet-eye)"></circle><path d="M30.02,30.78 Q32.36,32.94 34.16,30.42" fill="none" stroke="var(--pet-eye)" stroke-width="0.99" stroke-linecap="round" stroke-linejoin="round"></path><path d="M32.36,31.86 Q32.99,33.48 33.71,32.13 Z" fill="var(--pet-accent)"></path></g></g></svg>