<svg xmlns="http://www.w3.org/2000/svg" viewBox="0 0 64 64" data-mood="idle" role="img" aria-label="camel pet sprite"><g id="tail"><path class="tail" d="M14,40 Q8,42 9,49" fill="none" stroke="currentColor" stroke-width="3.2" stroke-linecap="round"></path></g><g id="legs"><rect class="leg-back" x="20" y="48" width="4.6" height="12" rx="2.3" fill="currentColor"></rect><rect class="leg-front" x="31" y="48" width="4.6" height="12" rx="2.3" fill="currentColor"></rect></g><g id="body"><path d="M14,42 Q14,32 22,32 Q26,22 32,32 Q42,32 42,42 Q42,48 28,48 Q14,48 14,42 Z" fill="currentColor"></path><path d="M40,40 Q44,24 48,18" fill="none" stroke="currentColor" stroke-width="7" stroke-linecap="round"></path><circle cx="50" cy="17" r="6.5" fill="currentColor"></circle><path d="M53,20 L58,22 L53,24 Z" fill="currentColor"></path><rect x="20" y="36" width="16" height="8" rx="2" fill="var(--pet-accent)" opacity=".7"></rect><path d="M22,36 V44 M28,36 V44 M34,36 V44" stroke="var(--pet-accent)" stroke-width="1" opacity=".6"></path></g><g id="ears"><path d="M48,13 L46,8 L51,11 Z" fill="currentColor"></path></g><g id="face"><g class="mood m-idle" data-mood="idle"><circle cx="48" cy="16" r="2.1" fill="var(--pet-eye)"></circle><circle cx="53" cy="16" r="2.1" fill="var(--pet-eye)"></circle></g><g class="mood m-focused" data-mood="focused"><path d="M44.85,14.01 L49.26,16.21" fill="none" stroke="var(--pet-eye)" stroke-width="2.21" stroke-linecap="round" stroke-linejoin="round"></path><path d="M56.15,14.01 L51.74,16.21" fill="none" stroke="var(--pet-eye)" stroke-width="2.21" stroke-linecap="round" stroke-linejoin="round"></path><circle cx="48.21" cy="17.26" r="1.09" fill="var(--pet-eye)"></circle><circle cx="52.79" cy="17.26" r="1.09" fill="var(--pet-eye)"></circle><path d="M48.61,21.04 H52.39" fill="none" stroke="var(--pet-eye)" stroke-width="1.05" stroke-linecap="round" stroke-linejoin="round"></path></g><g class="mood m-happy" data-mood="happy"><path d="M45.9,16.74 L48,14.53 L50.1,16.74" fill="none" stroke="var(--pet-eye)" stroke-width="1.37" stroke-linecap="round" stroke-linejoin="round"></path><path d="M50.9,16.74 L53,14.53 L55.1,16.74" fill="none" stroke="var(--pet-eye)" stroke-width="1.37" stroke-linecap="round" stroke-linejoin="round"></path><path d="M48.19,20.41 Q50.5,23.35 52.81,20.41" fill="none" stroke="var(--pet-eye)" stroke-width="1.26" stroke-linecap="round" stroke-linejoin="round"></path></g><g class="mood m-celebrate" data-mood="celebrate"><path d="M48,13.59 Q48,16 50.42,16 Q48,16 48,18.42 Q48,16 45.59,16 Q48,16 48,13.59 Z" fill="var(--pet-accent)"></path><path d="M53,13.59 Q53,16 55.42,16 Q53,16 53,18.42 Q53,16 50.59,16 Q53,16 53,13.59 Z" fill="var(--pet-accent)"></path><path d="M58.46,6.42 Q58.46,8.1 60.14,8.1 Q58.46,8.1 58.46,9.78 Q58.46,8.1 56.78,8.1 Q58.46,8.1 58.46,6.42 Z" fill="var(--pet-accent)"></path><path d="M42.96,3.9 Q42.96,5.16 44.22,5.16 Q42.96,5.16 42.96,6.42 Q42.96,5.16 41.7,5.16 Q42.96,5.16 42.96,3.9 Z" fill="var(--pet-accent)"></path><path d="M48.19,20.41 Q50.5,23.77 52.81,20.41" fill="none" stroke="var(--pet-eye)" stroke-width="1.26" stroke-linecap="round" stroke-linejoin="round"></path></g><g class="mood m-sleep" data-mood="sleep"><path d="M45.9,16 Q48,18.31 50.1,16" fill="none" stroke="var(--pet-eye)" stroke-width="1.26" stroke-linecap="round" stroke-linejoin="round"></path><path d="M50.9,16 Q53,18.31 55.1,16" fill="none" stroke="var(--pet-eye)" stroke-width="1.26" stroke-linecap="round" stroke-linejoin="round"></path><path d="M58.46,10.2 h2.31 l-2.31,2.31 h2.31" fill="none" stroke="var(--pet-eye)" stroke-width="0.79" stroke-linecap="round" stroke-linejoin="round"></path><path d="M61.4,6 h2.94 l-2.94,2.94 h2.94" fill="none" stroke="var(--pet-eye)" stroke-width="1" stroke-linecap="round" stroke-linejoin="round"></path><path d="M64.97,1.8 h3.57 l-3.57,3.57 h3.57" fill="none" stroke="var(--pet-eye)" stroke-width="1.21" stroke-linecap="round" stroke-linejoin="round"></path></g><g class="mood m-confused" data-mood="confused"><circle cx="48" cy="16" r="2" fill="var(--pet-eye)"></circle><path d="M50.9,15.58 q1.05,-1.68 2.1,0 q1.05,1.68 2.1,0" fill="none" stroke="var(--pet-eye)" stroke-width="1.26" stroke-linecap="round" stroke-linejoin="round"></path><path d="M57.31,7.63 Q57.31,4.63 59.51,4.63 Q61.87,4.63 61.72,7.15 Q61.09,8.73 59.51,9.52" fill="none" stroke="var(--pet-eye)" stroke-width="1.07" stroke-linecap="round" stroke-linejoin="round"></path><circle cx="59.51" cy="11.57" r="0.63" fill="var(--pet-eye)"></circle></g><g class="mood m-tired" data-mood="tired"><path d="M45.9,15.79 Q48,13.48 50.1,15.79" fill="none" stroke="var(--pet-eye)" stroke-width="1.47" stroke-linecap="round" stroke-linejoin="round"></path><path d="M50.9,15.79 Q53,13.48 55.1,15.79" fill="none" stroke="var(--pet-eye)" stroke-width="1.47" stroke-linecap="round" stroke-linejoin="round"></path><circle cx="48" cy="16.32" r="0.88" fill="var(--pet-eye)"></circle><circle cx="53" cy="16.32" r="0.88" fill="var(--pet-eye)"></circle><path d="M46.53,18.73 Q48,19.99 49.47,18.73" fill="none" stroke="var(--pet-eye)" stroke-width="0.76" stroke-linecap="round" stroke-linejoin="round"></path><path d="M51.53,18.73 Q53,19.99 54.47,18.73" fill="none" stroke="var(--pet-eye)" stroke-width="0.76" stroke-linecap="round" stroke-linejoin="round"></path></g><g class="mood m-love" data-mood="love"><path d="M48,18 C45.21,15.4 47,13.71 48,15.36 C49,13.71 50.79,15.4 48,18 Z" fill="var(--pet-accent)"></path><path d="M53,18 C50.21,15.4 52,13.71 53,15.36 C54,13.71 55.79,15.4 53,18 Z" fill="var(--pet-accent)"></path><path d="M48.4,20.62 Q50.5,23.14 52.6,20.62" fill="none" stroke="var(--pet-eye)" stroke-width="1.16" stroke-linecap="round" stroke-linejoin="round"></path></g><g class="mood m-surprised" data-mood="surprised"><circle cx="48" cy="16" r="2.42" fill="none" stroke="var(--pet-eye)" stroke-width="1.05"></circle><circle cx="53" cy="16" r="2.42" fill="none" stroke="var(--pet-eye)" stroke-width="1.05"></circle><circle cx="48" cy="16" r="0.88" fill="var(--pet-eye)"></circle><circle cx="53" cy="16" r="0.88" fill="var(--pet-eye)"></circle><path d="M45.69,12.01 Q48,10.96 49.26,11.8" fill="none" stroke="var(--pet-eye)" stroke-width="0.95" stroke-linecap="round" stroke-linejoin="round"></path><path d="M51.74,11.8 Q53,10.96 55.31,12.01" fill="none" stroke="var(--pet-eye)" stroke-width="0.95" stroke-linecap="round" stroke-linejoin="round"></path><ellipse cx="50.5" cy="21.88" rx="1.47" ry="1.89" fill="var(--pet-eye)"></ellipse></g><g class="mood m-playful" data-mood="playful"><path d="M45.9,16.42 Q48,14.11 50.1,16.42" fill="none" stroke="var(--pet-eye)" stroke-width="1.37" stroke-linecap="round" stroke-linejoin="round"></path><circle cx="53" cy="16" r="2.1" fill="var(--pet-eye)"></circle><path d="M48.19,20.41 Q50.92,22.93 53.02,19.99" fill="none" stroke="var(--pet-eye)" stroke-width="1.16" stroke-linecap="round" stroke-linejoin="round"></path><path d="M50.92,21.67 Q51.66,23.56 52.5,21.99 Z" fill="var(--pet-accent)"></path></g></g></svg>