<svg xmlns="http://www.w3.org/2000/svg" viewBox="0 0 64 64" data-mood="idle" role="img" aria-label="cat pet sprite"><g id="tail"><path id="tail" class="tail" d="M17,49 Q5,47 6,35 Q7,29 12,29" fill="none" stroke="currentColor" stroke-width="6" stroke-linecap="round"></path><circle cx="11" cy="29" r="3.4" fill="var(--pet-accent)"></circle></g><g id="legs"><rect id="leg-back" class="leg-back" x="20" y="49" width="7.5" height="11" rx="3.7" fill="currentColor"></rect><rect id="leg-front" class="leg-front" x="36" y="49" width="7.5" height="11" rx="3.7" fill="currentColor"></rect></g><g id="body"><ellipse cx="30" cy="42" rx="17" ry="14" fill="currentColor"></ellipse><circle cx="45" cy="26" r="13" fill="currentColor"></circle><ellipse cx="35" cy="46" rx="7.5" ry="6" fill="var(--pet-accent)" opacity=".85"></ellipse></g><g id="ears"><path d="M37,16 L33,5 L44,12 Z" fill="currentColor"></path><path d="M38.4,14.6 L36.4,8.5 L42,12 Z" fill="var(--pet-accent)"></path><path d="M51,11 L58,4 L58,15 Z" fill="currentColor"></path><path d="M52.2,11.8 L56,7.5 L56,13.6 Z" fill="var(--pet-accent)"></path></g><g id="face"><path d="M43.4,28 L46.6,28 L45,30 Z" fill="var(--pet-accent)"></path><g stroke="var(--pet-eye)" stroke-width=".7" stroke-linecap="round" opacity=".4"><line x1="49" y1="28.5" x2="57" y2="27"></line><line x1="49" y1="30.2" x2="57" y2="31"></line></g><g class="mood m-idle" data-mood="idle"><circle cx="41" cy="24" r="2.5" fill="var(--pet-eye)"></circle><circle cx="49" cy="24" r="2.5" fill="var(--pet-eye)"></circle></g><g class="mood m-focused" data-mood="focused"><path d="M38.3,22.4 L43.7,24.5" fill="none" stroke="var(--pet-eye)" stroke-width="2.6" stroke-linecap="round" stroke-linejoin="round"></path><path d="M46.3,24.5 L51.7,22.4" fill="none" stroke="var(--pet-eye)" stroke-width="2.6" stroke-linecap="round" stroke-linejoin="round"></path><circle cx="41.5" cy="26.5" r="1.3" fill="var(--pet-eye)"></circle><circle cx="48.5" cy="26.5" r="1.3" fill="var(--pet-eye)"></circle></g><g class="mood m-happy" data-mood="happy"><path d="M38.4,25.1 L41,22 L43.6,25.1" fill="none" stroke="var(--pet-eye)" stroke-width="2.4" stroke-linecap="round" stroke-linejoin="round"></path><path d="M46.4,25.1 L49,22 L51.6,25.1" fill="none" stroke="var(--pet-eye)" stroke-width="2.4" stroke-linecap="round" stroke-linejoin="round"></path><path d="M42,33 Q45,36.2 48,33" fill="none" stroke="var(--pet-eye)" stroke-width="1.8" stroke-linecap="round" stroke-linejoin="round"></path></g><g class="mood m-celebrate" data-mood="celebrate"><path transform="translate(41,24) scale(1)" d="M0,-3.2 Q0.7,-0.7 3.2,0 Q0.7,0.7 0,3.2 Q-0.7,0.7 -3.2,0 Q-0.7,-0.7 0,-3.2Z" fill="var(--pet-accent)"></path><path transform="translate(49,24) scale(1)" d="M0,-3.2 Q0.7,-0.7 3.2,0 Q0.7,0.7 0,3.2 Q-0.7,0.7 -3.2,0 Q-0.7,-0.7 0,-3.2Z" fill="var(--pet-accent)"></path><path d="M42.4,33 Q45,37.2 47.6,33 Q45,34 42.4,33Z" fill="var(--pet-eye)"></path><path transform="translate(43,9) scale(0.5)" d="M0,-3.2 Q0.7,-0.7 3.2,0 Q0.7,0.7 0,3.2 Q-0.7,0.7 -3.2,0 Q-0.7,-0.7 0,-3.2Z" fill="var(--pet-accent)"></path><path transform="translate(55,18) scale(0.55)" d="M0,-3.2 Q0.7,-0.7 3.2,0 Q0.7,0.7 0,3.2 Q-0.7,0.7 -3.2,0 Q-0.7,-0.7 0,-3.2Z" fill="var(--pet-accent)"></path></g><g class="mood m-sleep" data-mood="sleep"><path d="M38.5,23.5 Q41,26.4 43.5,23.5" fill="none" stroke="var(--pet-eye)" stroke-width="1.9" stroke-linecap="round" stroke-linejoin="round"></path><path d="M46.5,23.5 Q49,26.4 51.5,23.5" fill="none" stroke="var(--pet-eye)" stroke-width="1.9" stroke-linecap="round" stroke-linejoin="round"></path><path transform="translate(54,13) scale(0.7)" d="M0,0 H3.4 L0,3.6 H3.4" fill="none" stroke="var(--pet-eye)" stroke-width="1.1" stroke-linejoin="round" stroke-linecap="round"></path><path transform="translate(57,9) scale(0.9)" d="M0,0 H3.4 L0,3.6 H3.4" fill="none" stroke="var(--pet-eye)" stroke-width="1.1" stroke-linejoin="round" stroke-linecap="round"></path><path transform="translate(60.6,4) scale(1.15)" d="M0,0 H3.4 L0,3.6 H3.4" fill="none" stroke="var(--pet-eye)" stroke-width="1.1" stroke-linejoin="round" stroke-linecap="round"></path></g><g class="mood m-confused" data-mood="confused"><circle cx="41" cy="24" r="2.5" fill="var(--pet-eye)"></circle><path d="M46.7,24.3 Q49,22.8 51.3,24.3" fill="none" stroke="var(--pet-eye)" stroke-width="1.9" stroke-linecap="round" stroke-linejoin="round"></path><g transform="translate(55,6)"><path d="M-1.7,-2.2 Q-1.7,-4.7 0.2,-4.7 Q2.2,-4.7 2.2,-2.4 Q2.2,-0.6 0.2,0.1 L0.2,1.5" fill="none" stroke="var(--pet-eye)" stroke-width="1.5" stroke-linecap="round" stroke-linejoin="round"></path><circle cx="0.2" cy="3.5" r="1" fill="var(--pet-eye)"></circle></g></g><g class="mood m-tired" data-mood="tired"><path d="M38.6,23.8 Q41,26.7 43.4,23.8 Z" fill="var(--pet-eye)"></path><path d="M46.6,23.8 Q49,26.7 51.4,23.8 Z" fill="var(--pet-eye)"></path><path d="M38.2,22.9 Q41,23.9 43.8,22.7" fill="none" stroke="var(--pet-eye)" stroke-width="1.4" stroke-linecap="round" stroke-linejoin="round"></path><path d="M46.2,22.7 Q49,23.9 51.8,22.9" fill="none" stroke="var(--pet-eye)" stroke-width="1.4" stroke-linecap="round" stroke-linejoin="round"></path></g><g class="mood m-love" data-mood="love"><path transform="translate(41,24) scale(0.95)" d="M0,2.4 C0,0.6 -2.6,0.4 -2.6,-1 C-2.6,-2.4 -0.6,-2.6 0,-1.3 C0.6,-2.6 2.6,-2.4 2.6,-1 C2.6,0.4 0,0.6 0,2.4Z" fill="var(--pet-accent)"></path><path transform="translate(49,24) scale(0.95)" d="M0,2.4 C0,0.6 -2.6,0.4 -2.6,-1 C-2.6,-2.4 -0.6,-2.6 0,-1.3 C0.6,-2.6 2.6,-2.4 2.6,-1 C2.6,0.4 0,0.6 0,2.4Z" fill="var(--pet-accent)"></path><path d="M42,33 Q45,36.2 48,33" fill="none" stroke="var(--pet-eye)" stroke-width="1.8" stroke-linecap="round" stroke-linejoin="round"></path></g></g></svg>