<svg xmlns="http://www.w3.org/2000/svg" viewBox="0 0 64 64" data-mood="idle" role="img" aria-label="crab pet sprite"><g id="legs"><path id="leg-back" class="leg-back" d="M22,45 L15,53" fill="none" stroke="currentColor" stroke-width="2.4" stroke-linecap="round"></path><path id="leg-front" class="leg-front" d="M42,45 L49,53" fill="none" stroke="currentColor" stroke-width="2.4" stroke-linecap="round"></path><path d="M25,46 L19,52 M29,47 L25,55 M35,47 L39,55 M39,46 L45,52" fill="none" stroke="currentColor" stroke-width="2.1" stroke-linecap="round"></path></g><g id="body"><path d="M15,35 Q6,30 9,23 Q13,26 12,29 Q16,28 18,33 Z" fill="currentColor"></path><circle cx="9.5" cy="25" r="2" fill="var(--pet-accent)"></circle><path d="M49,35 Q58,30 55,23 Q51,26 52,29 Q48,28 46,33 Z" fill="currentColor"></path><circle cx="54.5" cy="25" r="2" fill="var(--pet-accent)"></circle><ellipse cx="32" cy="38" rx="20" ry="12" fill="currentColor"></ellipse><circle cx="25" cy="36" r="1.7" fill="var(--pet-accent)"></circle><circle cx="39" cy="36" r="1.7" fill="var(--pet-accent)"></circle><circle cx="32" cy="41" r="1.7" fill="var(--pet-accent)"></circle><path d="M26,29 L26,21" fill="none" stroke="currentColor" stroke-width="2" stroke-linecap="round"></path><path d="M38,29 L38,21" fill="none" stroke="currentColor" stroke-width="2" stroke-linecap="round"></path></g><g id="face"><g class="mood m-idle" data-mood="idle"><circle cx="26" cy="19" r="2.4" fill="var(--pet-eye)"></circle><circle cx="38" cy="19" r="2.4" fill="var(--pet-eye)"></circle></g><g class="mood m-focused" data-mood="focused"><path d="M23.2 16.4 L28.4 18.2" stroke="var(--pet-eye)" fill="none" stroke-linecap="round" stroke-linejoin="round" stroke-width="1.6"></path><path d="M40.8 16.4 L35.6 18.2" stroke="var(--pet-eye)" fill="none" stroke-linecap="round" stroke-linejoin="round" stroke-width="1.6"></path><circle cx="26" cy="19.4" r="1.35" fill="var(--pet-eye)"></circle><circle cx="38" cy="19.4" r="1.35" fill="var(--pet-eye)"></circle><path d="M29.4 40.4 H34.6" stroke="var(--pet-eye)" fill="none" stroke-linecap="round" stroke-linejoin="round" stroke-width="1.3"></path></g><g class="mood m-happy" data-mood="happy"><path d="M23.2 19.8 L26 16.4 L28.8 19.8" stroke="var(--pet-eye)" fill="none" stroke-linecap="round" stroke-linejoin="round" stroke-width="1.7"></path><path d="M35.2 19.8 L38 16.4 L40.8 19.8" stroke="var(--pet-eye)" fill="none" stroke-linecap="round" stroke-linejoin="round" stroke-width="1.7"></path><path d="M28.6 39.6 Q32 43.2 35.4 39.6" stroke="var(--pet-eye)" fill="none" stroke-linecap="round" stroke-linejoin="round" stroke-width="1.4"></path></g><g class="mood m-celebrate" data-mood="celebrate"><path d="M26 16 L26.96 18.04 L29 19 L26.96 19.96 L26 22 L25.04 19.96 L23 19 L25.04 18.04 Z" fill="var(--pet-accent)"></path><path d="M38 16 L38.96 18.04 L41 19 L38.96 19.96 L38 22 L37.04 19.96 L35 19 L37.04 18.04 Z" fill="var(--pet-accent)"></path><path d="M47 9.9 L47.67 11.33 L49.1 12 L47.67 12.67 L47 14.1 L46.33 12.67 L44.9 12 L46.33 11.33 Z" fill="var(--pet-accent)"></path><ellipse cx="32" cy="40.6" rx="2.2" ry="2" fill="var(--pet-eye)"></ellipse></g><g class="mood m-sleep" data-mood="sleep"><path d="M23.2 18.6 Q26 21.6 28.8 18.6" stroke="var(--pet-eye)" fill="none" stroke-linecap="round" stroke-linejoin="round" stroke-width="1.4"></path><path d="M35.2 18.6 Q38 21.6 40.8 18.6" stroke="var(--pet-eye)" fill="none" stroke-linecap="round" stroke-linejoin="round" stroke-width="1.4"></path><path d="M29.4 40 Q32 41.6 34.6 40" stroke="var(--pet-eye)" fill="none" stroke-linecap="round" stroke-linejoin="round" stroke-width="1.2"></path><g fill="none" stroke="var(--pet-eye)" stroke-width="1.1" stroke-linecap="round" stroke-linejoin="round"><path d="M47 12 h2.2 l-2.2 2.31 h2.2"></path><path d="M50.4 7.8 h2.8 l-2.8 2.94 h2.8"></path><path d="M54.4 3 h3.4 l-3.4 3.57 h3.4"></path></g></g><g class="mood m-confused" data-mood="confused"><circle cx="26" cy="19" r="2.4" fill="var(--pet-eye)"></circle><path d="M35.2 19 q1.4 -2 2.8 0 q1.4 2 2.8 0" stroke="var(--pet-eye)" fill="none" stroke-linecap="round" stroke-linejoin="round" stroke-width="1.5"></path><path d="M29.6 40.6 Q32 39.6 34.4 40.6" stroke="var(--pet-eye)" fill="none" stroke-linecap="round" stroke-linejoin="round" stroke-width="1.2"></path><path d="M46 12 Q46 8.4 49.4 8.4 Q52.9 8.4 52.9 11.4 Q52.9 14 49.4 15 V16.6" fill="none" stroke="var(--pet-eye)" stroke-width="1.7" stroke-linecap="round" stroke-linejoin="round"></path><circle cx="49.4" cy="19.4" r="1.15" fill="var(--pet-eye)"></circle></g><g class="mood m-tired" data-mood="tired"><path d="M23.2 18.6 Q26 20.4 28.8 18.6" stroke="var(--pet-eye)" fill="none" stroke-linecap="round" stroke-linejoin="round" stroke-width="1.8"></path><path d="M23.8 20.8 Q26 21.8 28.2 20.8" stroke="var(--pet-eye)" fill="none" stroke-linecap="round" stroke-linejoin="round" stroke-width="1"></path><path d="M35.2 18.6 Q38 20.4 40.8 18.6" stroke="var(--pet-eye)" fill="none" stroke-linecap="round" stroke-linejoin="round" stroke-width="1.8"></path><path d="M35.8 20.8 Q38 21.8 40.2 20.8" stroke="var(--pet-eye)" fill="none" stroke-linecap="round" stroke-linejoin="round" stroke-width="1"></path><path d="M29.4 40.6 Q32 41.3 34.6 40.6" stroke="var(--pet-eye)" fill="none" stroke-linecap="round" stroke-linejoin="round" stroke-width="1.2"></path></g><g class="mood m-love" data-mood="love"><path d="M26 21.55 C 23 18.4 24.35 16 26 18.25 C 27.65 16 29 18.4 26 21.55 Z" fill="var(--pet-accent)"></path><path d="M38 21.55 C 35 18.4 36.35 16 38 18.25 C 39.65 16 41 18.4 38 21.55 Z" fill="var(--pet-accent)"></path><path d="M28.6 39.6 Q32 43 35.4 39.6" stroke="var(--pet-eye)" fill="none" stroke-linecap="round" stroke-linejoin="round" stroke-width="1.4"></path></g><g class="mood m-surprised" data-mood="surprised"><circle cx="26" cy="19" r="2.76" fill="none" stroke="var(--pet-eye)" stroke-width="1.2"></circle><circle cx="38" cy="19" r="2.76" fill="none" stroke="var(--pet-eye)" stroke-width="1.2"></circle><circle cx="26" cy="19" r="1.01" fill="var(--pet-eye)"></circle><circle cx="38" cy="19" r="1.01" fill="var(--pet-eye)"></circle><path d="M23.36,14.44 Q26,13.24 27.44,14.2" fill="none" stroke="var(--pet-eye)" stroke-width="1.08" stroke-linecap="round" stroke-linejoin="round"></path><path d="M36.56,14.2 Q38,13.24 40.64,14.44" fill="none" stroke="var(--pet-eye)" stroke-width="1.08" stroke-linecap="round" stroke-linejoin="round"></path><ellipse cx="32" cy="25.72" rx="1.68" ry="2.16" fill="var(--pet-eye)"></ellipse></g><g class="mood m-playful" data-mood="playful"><path d="M23.6,19.48 Q26,16.84 28.4,19.48" fill="none" stroke="var(--pet-eye)" stroke-width="1.56" stroke-linecap="round" stroke-linejoin="round"></path><circle cx="38" cy="19" r="2.4" fill="var(--pet-eye)"></circle><path d="M29.36,24.04 Q32.48,26.92 34.88,23.56" fill="none" stroke="var(--pet-eye)" stroke-width="1.32" stroke-linecap="round" stroke-linejoin="round"></path><path d="M32.48,25.48 Q33.32,27.64 34.28,25.84 Z" fill="var(--pet-accent)"></path></g></g></svg>