<svg xmlns="http://www.w3.org/2000/svg" viewBox="0 0 64 64" data-mood="idle" role="img" aria-label="deer pet sprite"><g id="tail"><path id="tail" class="tail" d="M15,43 Q9,44 10,38" fill="none" stroke="currentColor" stroke-width="4.5" stroke-linecap="round"></path></g><g id="legs"><rect id="leg-back" class="leg-back" x="22" y="47" width="4.6" height="13" rx="2.3" fill="currentColor"></rect><rect id="leg-front" class="leg-front" x="34" y="47" width="4.6" height="13" rx="2.3" fill="currentColor"></rect></g><g id="body"><ellipse cx="26" cy="40" rx="14" ry="11" fill="currentColor"></ellipse><path d="M33,38 L40,22 L48,24 L42,42 Z" fill="currentColor"></path><circle cx="46" cy="22" r="8" fill="currentColor"></circle><ellipse cx="51" cy="25" rx="3.2" ry="2.6" fill="var(--pet-accent)" opacity=".85"></ellipse><ellipse cx="22" cy="39" rx="2.1" ry="1.5" fill="var(--pet-accent)"></ellipse><ellipse cx="29" cy="44" rx="1.9" ry="1.4" fill="var(--pet-accent)"></ellipse><ellipse cx="17" cy="43" rx="1.7" ry="1.3" fill="var(--pet-accent)"></ellipse></g><g id="ears"><path d="M40,17 L37,9 L43,15 Z" fill="currentColor"></path><path d="M50,16 L53,8 L55,15 Z" fill="currentColor"></path><path d="M44,15 L42,8 M42,11 L39,9" fill="none" stroke="currentColor" stroke-width="1.3" stroke-linecap="round"></path><path d="M49,14 L50,7 M50,10 L53,8" fill="none" stroke="currentColor" stroke-width="1.3" stroke-linecap="round"></path></g><g id="face"><g class="mood m-idle" data-mood="idle"><circle cx="43" cy="22" r="2.6" fill="var(--pet-eye)"></circle><circle cx="49.5" cy="22" r="2.6" fill="var(--pet-eye)"></circle></g><g class="mood m-focused" data-mood="focused"><path d="M40.2 19.4 L45.4 21.2" stroke="var(--pet-eye)" fill="none" stroke-linecap="round" stroke-linejoin="round" stroke-width="1.6"></path><path d="M52.3 19.4 L47.1 21.2" stroke="var(--pet-eye)" fill="none" stroke-linecap="round" stroke-linejoin="round" stroke-width="1.6"></path><circle cx="43" cy="22.4" r="1.35" fill="var(--pet-eye)"></circle><circle cx="49.5" cy="22.4" r="1.35" fill="var(--pet-eye)"></circle><path d="M43.65 27.4 H48.85" stroke="var(--pet-eye)" fill="none" stroke-linecap="round" stroke-linejoin="round" stroke-width="1.3"></path></g><g class="mood m-happy" data-mood="happy"><path d="M40.2 22.8 L43 19.4 L45.8 22.8" stroke="var(--pet-eye)" fill="none" stroke-linecap="round" stroke-linejoin="round" stroke-width="1.7"></path><path d="M46.7 22.8 L49.5 19.4 L52.3 22.8" stroke="var(--pet-eye)" fill="none" stroke-linecap="round" stroke-linejoin="round" stroke-width="1.7"></path><path d="M42.85 26.6 Q46.25 30.2 49.65 26.6" stroke="var(--pet-eye)" fill="none" stroke-linecap="round" stroke-linejoin="round" stroke-width="1.4"></path></g><g class="mood m-celebrate" data-mood="celebrate"><path d="M43 19 L43.96 21.04 L46 22 L43.96 22.96 L43 25 L42.04 22.96 L40 22 L42.04 21.04 Z" fill="var(--pet-accent)"></path><path d="M49.5 19 L50.46 21.04 L52.5 22 L50.46 22.96 L49.5 25 L48.54 22.96 L46.5 22 L48.54 21.04 Z" fill="var(--pet-accent)"></path><path d="M56 9.9 L56.67 11.33 L58.1 12 L56.67 12.67 L56 14.1 L55.33 12.67 L53.9 12 L55.33 11.33 Z" fill="var(--pet-accent)"></path><ellipse cx="46.25" cy="27.6" rx="2.2" ry="2" fill="var(--pet-eye)"></ellipse></g><g class="mood m-sleep" data-mood="sleep"><path d="M40.2 21.6 Q43 24.6 45.8 21.6" stroke="var(--pet-eye)" fill="none" stroke-linecap="round" stroke-linejoin="round" stroke-width="1.4"></path><path d="M46.7 21.6 Q49.5 24.6 52.3 21.6" stroke="var(--pet-eye)" fill="none" stroke-linecap="round" stroke-linejoin="round" stroke-width="1.4"></path><path d="M43.65 27 Q46.25 28.6 48.85 27" stroke="var(--pet-eye)" fill="none" stroke-linecap="round" stroke-linejoin="round" stroke-width="1.2"></path><g fill="none" stroke="var(--pet-eye)" stroke-width="1.1" stroke-linecap="round" stroke-linejoin="round"><path d="M56 12 h2.2 l-2.2 2.31 h2.2"></path><path d="M59.4 7.8 h2.8 l-2.8 2.94 h2.8"></path><path d="M63.4 3 h3.4 l-3.4 3.57 h3.4"></path></g></g><g class="mood m-confused" data-mood="confused"><circle cx="43" cy="22" r="2.6" fill="var(--pet-eye)"></circle><path d="M46.7 22 q1.4 -2 2.8 0 q1.4 2 2.8 0" stroke="var(--pet-eye)" fill="none" stroke-linecap="round" stroke-linejoin="round" stroke-width="1.5"></path><path d="M43.85 27.6 Q46.25 26.6 48.65 27.6" stroke="var(--pet-eye)" fill="none" stroke-linecap="round" stroke-linejoin="round" stroke-width="1.2"></path><path d="M55 12 Q55 8.4 58.4 8.4 Q61.9 8.4 61.9 11.4 Q61.9 14 58.4 15 V16.6" fill="none" stroke="var(--pet-eye)" stroke-width="1.7" stroke-linecap="round" stroke-linejoin="round"></path><circle cx="58.4" cy="19.4" r="1.15" fill="var(--pet-eye)"></circle></g><g class="mood m-tired" data-mood="tired"><path d="M40.2 21.6 Q43 23.4 45.8 21.6" stroke="var(--pet-eye)" fill="none" stroke-linecap="round" stroke-linejoin="round" stroke-width="1.8"></path><path d="M40.8 23.8 Q43 24.8 45.2 23.8" stroke="var(--pet-eye)" fill="none" stroke-linecap="round" stroke-linejoin="round" stroke-width="1"></path><path d="M46.7 21.6 Q49.5 23.4 52.3 21.6" stroke="var(--pet-eye)" fill="none" stroke-linecap="round" stroke-linejoin="round" stroke-width="1.8"></path><path d="M47.3 23.8 Q49.5 24.8 51.7 23.8" stroke="var(--pet-eye)" fill="none" stroke-linecap="round" stroke-linejoin="round" stroke-width="1"></path><path d="M43.65 27.6 Q46.25 28.3 48.85 27.6" stroke="var(--pet-eye)" fill="none" stroke-linecap="round" stroke-linejoin="round" stroke-width="1.2"></path></g><g class="mood m-love" data-mood="love"><path d="M43 24.55 C 40 21.4 41.35 19 43 21.25 C 44.65 19 46 21.4 43 24.55 Z" fill="var(--pet-accent)"></path><path d="M49.5 24.55 C 46.5 21.4 47.85 19 49.5 21.25 C 51.15 19 52.5 21.4 49.5 24.55 Z" fill="var(--pet-accent)"></path><path d="M42.85 26.6 Q46.25 30 49.65 26.6" stroke="var(--pet-eye)" fill="none" stroke-linecap="round" stroke-linejoin="round" stroke-width="1.4"></path></g><g class="mood m-surprised" data-mood="surprised"><circle cx="43" cy="22" r="2.99" fill="none" stroke="var(--pet-eye)" stroke-width="1.3"></circle><circle cx="49.5" cy="22" r="2.99" fill="none" stroke="var(--pet-eye)" stroke-width="1.3"></circle><circle cx="43" cy="22" r="1.09" fill="var(--pet-eye)"></circle><circle cx="49.5" cy="22" r="1.09" fill="var(--pet-eye)"></circle><path d="M40.14,17.06 Q43,15.76 44.56,16.8" fill="none" stroke="var(--pet-eye)" stroke-width="1.17" stroke-linecap="round" stroke-linejoin="round"></path><path d="M47.94,16.8 Q49.5,15.76 52.36,17.06" fill="none" stroke="var(--pet-eye)" stroke-width="1.17" stroke-linecap="round" stroke-linejoin="round"></path><ellipse cx="46.25" cy="29.28" rx="1.82" ry="2.34" fill="var(--pet-eye)"></ellipse></g><g class="mood m-playful" data-mood="playful"><path d="M40.4,22.52 Q43,19.66 45.6,22.52" fill="none" stroke="var(--pet-eye)" stroke-width="1.69" stroke-linecap="round" stroke-linejoin="round"></path><circle cx="49.5" cy="22" r="2.6" fill="var(--pet-eye)"></circle><path d="M43.39,27.46 Q46.77,30.58 49.37,26.94" fill="none" stroke="var(--pet-eye)" stroke-width="1.43" stroke-linecap="round" stroke-linejoin="round"></path><path d="M46.77,29.02 Q47.68,31.36 48.72,29.41 Z" fill="var(--pet-accent)"></path></g></g></svg>