<svg xmlns="http://www.w3.org/2000/svg" viewBox="0 0 64 64" data-mood="idle" role="img" aria-label="dog pet sprite"><g id="tail"><path id="tail" class="tail" d="M17,47 Q7,43 9,33" fill="none" stroke="currentColor" stroke-width="6" stroke-linecap="round"></path><circle cx="9" cy="33" r="3.2" fill="var(--pet-accent)"></circle></g><g id="legs"><rect id="leg-back" class="leg-back" x="20" y="49" width="7.5" height="11" rx="3.7" fill="currentColor"></rect><rect id="leg-front" class="leg-front" x="36" y="49" width="7.5" height="11" rx="3.7" fill="currentColor"></rect></g><g id="body"><ellipse cx="29" cy="43" rx="17" ry="13.5" fill="currentColor"></ellipse><circle cx="44" cy="29" r="13" fill="currentColor"></circle><ellipse cx="51" cy="33" rx="8" ry="6" fill="var(--pet-accent)"></ellipse></g><g id="ears"><path d="M36,19 Q26,18 26,33 Q33,33 38,25 Z" fill="currentColor"></path><path d="M35,21 Q29,21 29,30 Q33,30 36,25 Z" fill="var(--pet-accent)" opacity=".8"></path></g><g id="face"><circle cx="56" cy="32" r="2.3" fill="var(--pet-eye)"></circle><g class="mood m-idle" data-mood="idle"><circle cx="42" cy="25" r="2.5" fill="var(--pet-eye)"></circle><circle cx="49" cy="25" r="2.5" fill="var(--pet-eye)"></circle></g><g class="mood m-focused" data-mood="focused"><path d="M39.3,23.4 L44.7,25.5" fill="none" stroke="var(--pet-eye)" stroke-width="2.6" stroke-linecap="round" stroke-linejoin="round"></path><path d="M46.3,25.5 L51.7,23.4" fill="none" stroke="var(--pet-eye)" stroke-width="2.6" stroke-linecap="round" stroke-linejoin="round"></path><circle cx="42.5" cy="27.5" r="1.3" fill="var(--pet-eye)"></circle><circle cx="48.5" cy="27.5" r="1.3" fill="var(--pet-eye)"></circle></g><g class="mood m-happy" data-mood="happy"><path d="M39.4,26.1 L42,23 L44.6,26.1" fill="none" stroke="var(--pet-eye)" stroke-width="2.4" stroke-linecap="round" stroke-linejoin="round"></path><path d="M46.4,26.1 L49,23 L51.6,26.1" fill="none" stroke="var(--pet-eye)" stroke-width="2.4" stroke-linecap="round" stroke-linejoin="round"></path><path d="M47,36 Q50,39.2 53,36" fill="none" stroke="var(--pet-eye)" stroke-width="1.8" stroke-linecap="round" stroke-linejoin="round"></path></g><g class="mood m-celebrate" data-mood="celebrate"><path transform="translate(42,25) scale(1)" d="M0,-3.2 Q0.7,-0.7 3.2,0 Q0.7,0.7 0,3.2 Q-0.7,0.7 -3.2,0 Q-0.7,-0.7 0,-3.2Z" fill="var(--pet-accent)"></path><path transform="translate(49,25) scale(1)" d="M0,-3.2 Q0.7,-0.7 3.2,0 Q0.7,0.7 0,3.2 Q-0.7,0.7 -3.2,0 Q-0.7,-0.7 0,-3.2Z" fill="var(--pet-accent)"></path><path d="M47.4,36 Q50,40.2 52.6,36 Q50,37 47.4,36Z" fill="var(--pet-eye)"></path><path transform="translate(41,16) scale(0.5)" d="M0,-3.2 Q0.7,-0.7 3.2,0 Q0.7,0.7 0,3.2 Q-0.7,0.7 -3.2,0 Q-0.7,-0.7 0,-3.2Z" fill="var(--pet-accent)"></path><path transform="translate(55,19) scale(0.55)" d="M0,-3.2 Q0.7,-0.7 3.2,0 Q0.7,0.7 0,3.2 Q-0.7,0.7 -3.2,0 Q-0.7,-0.7 0,-3.2Z" fill="var(--pet-accent)"></path></g><g class="mood m-sleep" data-mood="sleep"><path d="M39.5,24.5 Q42,27.4 44.5,24.5" fill="none" stroke="var(--pet-eye)" stroke-width="1.9" stroke-linecap="round" stroke-linejoin="round"></path><path d="M46.5,24.5 Q49,27.4 51.5,24.5" fill="none" stroke="var(--pet-eye)" stroke-width="1.9" stroke-linecap="round" stroke-linejoin="round"></path><path transform="translate(54,20) scale(0.7)" d="M0,0 H3.4 L0,3.6 H3.4" fill="none" stroke="var(--pet-eye)" stroke-width="1.1" stroke-linejoin="round" stroke-linecap="round"></path><path transform="translate(57,16) scale(0.9)" d="M0,0 H3.4 L0,3.6 H3.4" fill="none" stroke="var(--pet-eye)" stroke-width="1.1" stroke-linejoin="round" stroke-linecap="round"></path><path transform="translate(60.6,11) scale(1.15)" d="M0,0 H3.4 L0,3.6 H3.4" fill="none" stroke="var(--pet-eye)" stroke-width="1.1" stroke-linejoin="round" stroke-linecap="round"></path></g><g class="mood m-confused" data-mood="confused"><circle cx="42" cy="25" r="2.5" fill="var(--pet-eye)"></circle><path d="M46.7,25.3 Q49,23.8 51.3,25.3" fill="none" stroke="var(--pet-eye)" stroke-width="1.9" stroke-linecap="round" stroke-linejoin="round"></path><g transform="translate(53,13)"><path d="M-1.7,-2.2 Q-1.7,-4.7 0.2,-4.7 Q2.2,-4.7 2.2,-2.4 Q2.2,-0.6 0.2,0.1 L0.2,1.5" fill="none" stroke="var(--pet-eye)" stroke-width="1.5" stroke-linecap="round" stroke-linejoin="round"></path><circle cx="0.2" cy="3.5" r="1" fill="var(--pet-eye)"></circle></g></g><g class="mood m-tired" data-mood="tired"><path d="M39.6,24.8 Q42,27.7 44.4,24.8 Z" fill="var(--pet-eye)"></path><path d="M46.6,24.8 Q49,27.7 51.4,24.8 Z" fill="var(--pet-eye)"></path><path d="M39.2,23.9 Q42,24.9 44.8,23.7" fill="none" stroke="var(--pet-eye)" stroke-width="1.4" stroke-linecap="round" stroke-linejoin="round"></path><path d="M46.2,23.7 Q49,24.9 51.8,23.9" fill="none" stroke="var(--pet-eye)" stroke-width="1.4" stroke-linecap="round" stroke-linejoin="round"></path></g><g class="mood m-love" data-mood="love"><path transform="translate(42,25) scale(0.95)" d="M0,2.4 C0,0.6 -2.6,0.4 -2.6,-1 C-2.6,-2.4 -0.6,-2.6 0,-1.3 C0.6,-2.6 2.6,-2.4 2.6,-1 C2.6,0.4 0,0.6 0,2.4Z" fill="var(--pet-accent)"></path><path transform="translate(49,25) scale(0.95)" d="M0,2.4 C0,0.6 -2.6,0.4 -2.6,-1 C-2.6,-2.4 -0.6,-2.6 0,-1.3 C0.6,-2.6 2.6,-2.4 2.6,-1 C2.6,0.4 0,0.6 0,2.4Z" fill="var(--pet-accent)"></path><path d="M47,36 Q50,39.2 53,36" fill="none" stroke="var(--pet-eye)" stroke-width="1.8" stroke-linecap="round" stroke-linejoin="round"></path></g><g class="mood m-surprised" data-mood="surprised"><circle cx="42" cy="25" r="2.88" fill="none" stroke="var(--pet-eye)" stroke-width="1.25"></circle><circle cx="49" cy="25" r="2.88" fill="none" stroke="var(--pet-eye)" stroke-width="1.25"></circle><circle cx="42" cy="25" r="1.05" fill="var(--pet-eye)"></circle><circle cx="49" cy="25" r="1.05" fill="var(--pet-eye)"></circle><path d="M39.25,20.25 Q42,19 43.5,20" fill="none" stroke="var(--pet-eye)" stroke-width="1.13" stroke-linecap="round" stroke-linejoin="round"></path><path d="M47.5,20 Q49,19 51.75,20.25" fill="none" stroke="var(--pet-eye)" stroke-width="1.13" stroke-linecap="round" stroke-linejoin="round"></path><ellipse cx="45.5" cy="32" rx="1.75" ry="2.25" fill="var(--pet-eye)"></ellipse></g><g class="mood m-playful" data-mood="playful"><path d="M39.5,25.5 Q42,22.75 44.5,25.5" fill="none" stroke="var(--pet-eye)" stroke-width="1.63" stroke-linecap="round" stroke-linejoin="round"></path><circle cx="49" cy="25" r="2.5" fill="var(--pet-eye)"></circle><path d="M42.75,30.25 Q46,33.25 48.5,29.75" fill="none" stroke="var(--pet-eye)" stroke-width="1.38" stroke-linecap="round" stroke-linejoin="round"></path><path d="M46,31.75 Q46.88,34 47.88,32.13 Z" fill="var(--pet-accent)"></path></g></g></svg>