<svg xmlns="http://www.w3.org/2000/svg" viewBox="0 0 64 64" data-mood="idle" role="img" aria-label="dragonfly pet sprite"><g id="tail"><path class="tail" d="M30,44 Q31,58 32,61" fill="none" stroke="currentColor" stroke-width="3" stroke-linecap="round"></path><path d="M30,48 H34 M30,52 H34 M31,56 H33" stroke="var(--pet-accent)" stroke-width="1.2" opacity=".7"></path></g><g id="legs"><path class="leg-back" d="M28,34 Q12,32 6,42 Q18,42 28,38 Z" fill="var(--pet-accent)" opacity=".45"></path><path class="leg-front" d="M34,34 Q50,32 56,42 Q44,42 34,38 Z" fill="var(--pet-accent)" opacity=".45"></path></g><g id="body"><path d="M24,30 Q8,26 4,33 Q16,34 26,32 Z" fill="currentColor" opacity=".6"></path><path d="M38,30 Q54,26 58,33 Q46,34 36,32 Z" fill="currentColor" opacity=".6"></path><ellipse cx="31" cy="34" rx="5" ry="13" fill="currentColor"></ellipse><circle cx="31" cy="20" r="7" fill="currentColor"></circle><circle cx="27" cy="19" r="3.8" fill="var(--pet-accent)"></circle><circle cx="35" cy="19" r="3.8" fill="var(--pet-accent)"></circle></g><g id="face"><g class="mood m-idle" data-mood="idle"><circle cx="27" cy="19" r="2.2" fill="var(--pet-eye)"></circle><circle cx="35" cy="19" r="2.2" fill="var(--pet-eye)"></circle></g><g class="mood m-focused" data-mood="focused"><path d="M23.7,16.91 L28.32,19.22" fill="none" stroke="var(--pet-eye)" stroke-width="2.31" stroke-linecap="round" stroke-linejoin="round"></path><path d="M38.3,16.91 L33.68,19.22" fill="none" stroke="var(--pet-eye)" stroke-width="2.31" stroke-linecap="round" stroke-linejoin="round"></path><circle cx="27.22" cy="20.32" r="1.14" fill="var(--pet-eye)"></circle><circle cx="34.78" cy="20.32" r="1.14" fill="var(--pet-eye)"></circle><path d="M29.02,24.28 H32.98" fill="none" stroke="var(--pet-eye)" stroke-width="1.1" stroke-linecap="round" stroke-linejoin="round"></path></g><g class="mood m-happy" data-mood="happy"><path d="M24.8,19.77 L27,17.46 L29.2,19.77" fill="none" stroke="var(--pet-eye)" stroke-width="1.43" stroke-linecap="round" stroke-linejoin="round"></path><path d="M32.8,19.77 L35,17.46 L37.2,19.77" fill="none" stroke="var(--pet-eye)" stroke-width="1.43" stroke-linecap="round" stroke-linejoin="round"></path><path d="M28.58,23.62 Q31,26.7 33.42,23.62" fill="none" stroke="var(--pet-eye)" stroke-width="1.32" stroke-linecap="round" stroke-linejoin="round"></path></g><g class="mood m-celebrate" data-mood="celebrate"><path d="M27,16.47 Q27,19 29.53,19 Q27,19 27,21.53 Q27,19 24.47,19 Q27,19 27,16.47 Z" fill="var(--pet-accent)"></path><path d="M35,16.47 Q35,19 37.53,19 Q35,19 35,21.53 Q35,19 32.47,19 Q35,19 35,16.47 Z" fill="var(--pet-accent)"></path><path d="M40.72,9.44 Q40.72,11.2 42.48,11.2 Q40.72,11.2 40.72,12.96 Q40.72,11.2 38.96,11.2 Q40.72,11.2 40.72,9.44 Z" fill="var(--pet-accent)"></path><path d="M21.72,6.8 Q21.72,8.12 23.04,8.12 Q21.72,8.12 21.72,9.44 Q21.72,8.12 20.4,8.12 Q21.72,8.12 21.72,6.8 Z" fill="var(--pet-accent)"></path><path d="M28.58,23.62 Q31,27.14 33.42,23.62" fill="none" stroke="var(--pet-eye)" stroke-width="1.32" stroke-linecap="round" stroke-linejoin="round"></path></g><g class="mood m-sleep" data-mood="sleep"><path d="M24.8,19 Q27,21.42 29.2,19" fill="none" stroke="var(--pet-eye)" stroke-width="1.32" stroke-linecap="round" stroke-linejoin="round"></path><path d="M32.8,19 Q35,21.42 37.2,19" fill="none" stroke="var(--pet-eye)" stroke-width="1.32" stroke-linecap="round" stroke-linejoin="round"></path><path d="M40.72,13.4 h2.42 l-2.42,2.42 h2.42" fill="none" stroke="var(--pet-eye)" stroke-width="0.82" stroke-linecap="round" stroke-linejoin="round"></path><path d="M43.8,9 h3.08 l-3.08,3.08 h3.08" fill="none" stroke="var(--pet-eye)" stroke-width="1.05" stroke-linecap="round" stroke-linejoin="round"></path><path d="M47.54,4.6 h3.74 l-3.74,3.74 h3.74" fill="none" stroke="var(--pet-eye)" stroke-width="1.27" stroke-linecap="round" stroke-linejoin="round"></path></g><g class="mood m-confused" data-mood="confused"><circle cx="27" cy="19" r="2.09" fill="var(--pet-eye)"></circle><path d="M32.8,18.56 q1.1,-1.76 2.2,0 q1.1,1.76 2.2,0" fill="none" stroke="var(--pet-eye)" stroke-width="1.32" stroke-linecap="round" stroke-linejoin="round"></path><path d="M39.51,10.7 Q39.51,7.57 41.82,7.57 Q44.3,7.57 44.13,10.21 Q43.47,11.86 41.82,12.68" fill="none" stroke="var(--pet-eye)" stroke-width="1.12" stroke-linecap="round" stroke-linejoin="round"></path><circle cx="41.82" cy="14.83" r="0.66" fill="var(--pet-eye)"></circle></g><g class="mood m-tired" data-mood="tired"><path d="M24.8,18.78 Q27,16.36 29.2,18.78" fill="none" stroke="var(--pet-eye)" stroke-width="1.54" stroke-linecap="round" stroke-linejoin="round"></path><path d="M32.8,18.78 Q35,16.36 37.2,18.78" fill="none" stroke="var(--pet-eye)" stroke-width="1.54" stroke-linecap="round" stroke-linejoin="round"></path><circle cx="27" cy="19.33" r="0.92" fill="var(--pet-eye)"></circle><circle cx="35" cy="19.33" r="0.92" fill="var(--pet-eye)"></circle><path d="M25.46,21.86 Q27,23.18 28.54,21.86" fill="none" stroke="var(--pet-eye)" stroke-width="0.79" stroke-linecap="round" stroke-linejoin="round"></path><path d="M33.46,21.86 Q35,23.18 36.54,21.86" fill="none" stroke="var(--pet-eye)" stroke-width="0.79" stroke-linecap="round" stroke-linejoin="round"></path></g><g class="mood m-love" data-mood="love"><path d="M27,21.09 C24.07,18.37 25.96,16.6 27,18.33 C28.05,16.6 29.93,18.37 27,21.09 Z" fill="var(--pet-accent)"></path><path d="M35,21.09 C32.07,18.37 33.96,16.6 35,18.33 C36.05,16.6 37.93,18.37 35,21.09 Z" fill="var(--pet-accent)"></path><path d="M28.8,23.84 Q31,26.48 33.2,23.84" fill="none" stroke="var(--pet-eye)" stroke-width="1.21" stroke-linecap="round" stroke-linejoin="round"></path></g><g class="mood m-surprised" data-mood="surprised"><circle cx="27" cy="19" r="2.53" fill="none" stroke="var(--pet-eye)" stroke-width="1.1"></circle><circle cx="35" cy="19" r="2.53" fill="none" stroke="var(--pet-eye)" stroke-width="1.1"></circle><circle cx="27" cy="19" r="0.92" fill="var(--pet-eye)"></circle><circle cx="35" cy="19" r="0.92" fill="var(--pet-eye)"></circle><path d="M24.58,14.82 Q27,13.72 28.32,14.6" fill="none" stroke="var(--pet-eye)" stroke-width="0.99" stroke-linecap="round" stroke-linejoin="round"></path><path d="M33.68,14.6 Q35,13.72 37.42,14.82" fill="none" stroke="var(--pet-eye)" stroke-width="0.99" stroke-linecap="round" stroke-linejoin="round"></path><ellipse cx="31" cy="25.16" rx="1.54" ry="1.98" fill="var(--pet-eye)"></ellipse></g><g class="mood m-playful" data-mood="playful"><path d="M24.8,19.44 Q27,17.02 29.2,19.44" fill="none" stroke="var(--pet-eye)" stroke-width="1.43" stroke-linecap="round" stroke-linejoin="round"></path><circle cx="35" cy="19" r="2.2" fill="var(--pet-eye)"></circle><path d="M28.58,23.62 Q31.44,26.26 33.64,23.18" fill="none" stroke="var(--pet-eye)" stroke-width="1.21" stroke-linecap="round" stroke-linejoin="round"></path><path d="M31.44,24.94 Q32.21,26.92 33.09,25.27 Z" fill="var(--pet-accent)"></path></g></g></svg>