<svg xmlns="http://www.w3.org/2000/svg" viewBox="0 0 64 64" data-mood="idle" role="img" aria-label="duck pet sprite"><g id="tail"><path class="tail" d="M14,38 Q5,33 7,44 Q11,43 16,41 Z" fill="currentColor"></path></g><g id="legs"><path class="leg-back" d="M26,52 L24,59 M26,52 L30,59" stroke="var(--pet-accent)" stroke-width="2.6" stroke-linecap="round"></path><path class="leg-front" d="M36,52 L34,59 M36,52 L40,59" stroke="var(--pet-accent)" stroke-width="2.6" stroke-linecap="round"></path></g><g id="body"><ellipse cx="30" cy="42" rx="16" ry="12" fill="currentColor"></ellipse><path d="M40,44 Q34,40 40,36" fill="none" stroke="var(--pet-accent)" stroke-width="2" opacity=".5" stroke-linecap="round"></path><path d="M44,38 Q40,24 48,22 Q44,28 47,33" fill="currentColor"></path><circle cx="48" cy="22" r="8" fill="currentColor"></circle><path d="M54,22 Q61,24 56,28 Q51,28 50,25 Z" fill="var(--pet-accent)"></path></g><g id="face"><g class="mood m-idle" data-mood="idle"><circle cx="47" cy="20" r="2.3" fill="var(--pet-eye)"></circle><circle cx="52" cy="20" r="2.3" fill="var(--pet-eye)"></circle></g><g class="mood m-focused" data-mood="focused"><path d="M43.55,17.82 L48.38,20.23" fill="none" stroke="var(--pet-eye)" stroke-width="2.42" stroke-linecap="round" stroke-linejoin="round"></path><path d="M55.45,17.82 L50.62,20.23" fill="none" stroke="var(--pet-eye)" stroke-width="2.42" stroke-linecap="round" stroke-linejoin="round"></path><circle cx="47.23" cy="21.38" r="1.2" fill="var(--pet-eye)"></circle><circle cx="51.77" cy="21.38" r="1.2" fill="var(--pet-eye)"></circle><path d="M47.43,25.52 H51.57" fill="none" stroke="var(--pet-eye)" stroke-width="1.15" stroke-linecap="round" stroke-linejoin="round"></path></g><g class="mood m-happy" data-mood="happy"><path d="M44.7,20.81 L47,18.39 L49.3,20.81" fill="none" stroke="var(--pet-eye)" stroke-width="1.5" stroke-linecap="round" stroke-linejoin="round"></path><path d="M49.7,20.81 L52,18.39 L54.3,20.81" fill="none" stroke="var(--pet-eye)" stroke-width="1.5" stroke-linecap="round" stroke-linejoin="round"></path><path d="M46.97,24.83 Q49.5,28.05 52.03,24.83" fill="none" stroke="var(--pet-eye)" stroke-width="1.38" stroke-linecap="round" stroke-linejoin="round"></path></g><g class="mood m-celebrate" data-mood="celebrate"><path d="M47,17.36 Q47,20 49.65,20 Q47,20 47,22.65 Q47,20 44.36,20 Q47,20 47,17.36 Z" fill="var(--pet-accent)"></path><path d="M52,17.36 Q52,20 54.65,20 Q52,20 52,22.65 Q52,20 49.36,20 Q52,20 52,17.36 Z" fill="var(--pet-accent)"></path><path d="M57.98,9.46 Q57.98,11.3 59.82,11.3 Q57.98,11.3 57.98,13.14 Q57.98,11.3 56.14,11.3 Q57.98,11.3 57.98,9.46 Z" fill="var(--pet-accent)"></path><path d="M41.48,6.7 Q41.48,8.08 42.86,8.08 Q41.48,8.08 41.48,9.46 Q41.48,8.08 40.1,8.08 Q41.48,8.08 41.48,6.7 Z" fill="var(--pet-accent)"></path><path d="M46.97,24.83 Q49.5,28.51 52.03,24.83" fill="none" stroke="var(--pet-eye)" stroke-width="1.38" stroke-linecap="round" stroke-linejoin="round"></path></g><g class="mood m-sleep" data-mood="sleep"><path d="M44.7,20 Q47,22.53 49.3,20" fill="none" stroke="var(--pet-eye)" stroke-width="1.38" stroke-linecap="round" stroke-linejoin="round"></path><path d="M49.7,20 Q52,22.53 54.3,20" fill="none" stroke="var(--pet-eye)" stroke-width="1.38" stroke-linecap="round" stroke-linejoin="round"></path><path d="M57.98,13.6 h2.53 l-2.53,2.53 h2.53" fill="none" stroke="var(--pet-eye)" stroke-width="0.86" stroke-linecap="round" stroke-linejoin="round"></path><path d="M61.2,9 h3.22 l-3.22,3.22 h3.22" fill="none" stroke="var(--pet-eye)" stroke-width="1.09" stroke-linecap="round" stroke-linejoin="round"></path><path d="M65.11,4.4 h3.91 l-3.91,3.91 h3.91" fill="none" stroke="var(--pet-eye)" stroke-width="1.33" stroke-linecap="round" stroke-linejoin="round"></path></g><g class="mood m-confused" data-mood="confused"><circle cx="47" cy="20" r="2.18" fill="var(--pet-eye)"></circle><path d="M49.7,19.54 q1.15,-1.84 2.3,0 q1.15,1.84 2.3,0" fill="none" stroke="var(--pet-eye)" stroke-width="1.38" stroke-linecap="round" stroke-linejoin="round"></path><path d="M56.72,10.78 Q56.72,7.51 59.13,7.51 Q61.72,7.51 61.54,10.27 Q60.86,11.99 59.13,12.85" fill="none" stroke="var(--pet-eye)" stroke-width="1.17" stroke-linecap="round" stroke-linejoin="round"></path><circle cx="59.13" cy="15.1" r="0.69" fill="var(--pet-eye)"></circle></g><g class="mood m-tired" data-mood="tired"><path d="M44.7,19.77 Q47,17.24 49.3,19.77" fill="none" stroke="var(--pet-eye)" stroke-width="1.61" stroke-linecap="round" stroke-linejoin="round"></path><path d="M49.7,19.77 Q52,17.24 54.3,19.77" fill="none" stroke="var(--pet-eye)" stroke-width="1.61" stroke-linecap="round" stroke-linejoin="round"></path><circle cx="47" cy="20.35" r="0.97" fill="var(--pet-eye)"></circle><circle cx="52" cy="20.35" r="0.97" fill="var(--pet-eye)"></circle><path d="M45.39,22.99 Q47,24.37 48.61,22.99" fill="none" stroke="var(--pet-eye)" stroke-width="0.83" stroke-linecap="round" stroke-linejoin="round"></path><path d="M50.39,22.99 Q52,24.37 53.61,22.99" fill="none" stroke="var(--pet-eye)" stroke-width="0.83" stroke-linecap="round" stroke-linejoin="round"></path></g><g class="mood m-love" data-mood="love"><path d="M47,22.19 C43.94,19.34 45.91,17.49 47,19.3 C48.09,17.49 50.06,19.34 47,22.19 Z" fill="var(--pet-accent)"></path><path d="M52,22.19 C48.94,19.34 50.91,17.49 52,19.3 C53.09,17.49 55.06,19.34 52,22.19 Z" fill="var(--pet-accent)"></path><path d="M47.2,25.06 Q49.5,27.82 51.8,25.06" fill="none" stroke="var(--pet-eye)" stroke-width="1.26" stroke-linecap="round" stroke-linejoin="round"></path></g><g class="mood m-surprised" data-mood="surprised"><circle cx="47" cy="20" r="2.64" fill="none" stroke="var(--pet-eye)" stroke-width="1.15"></circle><circle cx="52" cy="20" r="2.64" fill="none" stroke="var(--pet-eye)" stroke-width="1.15"></circle><circle cx="47" cy="20" r="0.97" fill="var(--pet-eye)"></circle><circle cx="52" cy="20" r="0.97" fill="var(--pet-eye)"></circle><path d="M44.47,15.63 Q47,14.48 48.38,15.4" fill="none" stroke="var(--pet-eye)" stroke-width="1.03" stroke-linecap="round" stroke-linejoin="round"></path><path d="M50.62,15.4 Q52,14.48 54.53,15.63" fill="none" stroke="var(--pet-eye)" stroke-width="1.03" stroke-linecap="round" stroke-linejoin="round"></path><ellipse cx="49.5" cy="26.44" rx="1.61" ry="2.07" fill="var(--pet-eye)"></ellipse></g><g class="mood m-playful" data-mood="playful"><path d="M44.7,20.46 Q47,17.93 49.3,20.46" fill="none" stroke="var(--pet-eye)" stroke-width="1.5" stroke-linecap="round" stroke-linejoin="round"></path><circle cx="52" cy="20" r="2.3" fill="var(--pet-eye)"></circle><path d="M46.97,24.83 Q49.96,27.59 52.26,24.37" fill="none" stroke="var(--pet-eye)" stroke-width="1.26" stroke-linecap="round" stroke-linejoin="round"></path><path d="M49.96,26.21 Q50.77,28.28 51.69,26.56 Z" fill="var(--pet-accent)"></path></g></g></svg>