<svg xmlns="http://www.w3.org/2000/svg" viewBox="0 0 64 64" data-mood="idle" role="img" aria-label="eagle pet sprite"><g id="tail"><path class="tail" d="M16,46 Q8,54 6,58 M22,47 Q18,56 17,60 M26,46 Q26,55 27,59" fill="none" stroke="currentColor" stroke-width="3" stroke-linecap="round"></path></g><g id="legs"><path class="leg-back" d="M22,38 Q6,32 2,44 Q14,44 24,40 Z" fill="currentColor"></path><path class="leg-front" d="M40,38 Q56,32 60,44 Q48,44 38,40 Z" fill="currentColor"></path></g><g id="body"><ellipse cx="31" cy="40" rx="12" ry="14" fill="currentColor"></ellipse><circle cx="31" cy="22" r="10" fill="var(--pet-accent)" opacity=".5"></circle><circle cx="31" cy="23" r="8.5" fill="currentColor"></circle><path d="M31,26 Q24,28 30,33 Q34,30 31,26 Z" fill="var(--pet-eye)"></path></g><g id="face"><g class="mood m-idle" data-mood="idle"><circle cx="27" cy="20" r="2.4" fill="var(--pet-eye)"></circle><circle cx="35" cy="20" r="2.4" fill="var(--pet-eye)"></circle></g><g class="mood m-focused" data-mood="focused"><path d="M23.4,17.72 L28.44,20.24" fill="none" stroke="var(--pet-eye)" stroke-width="2.52" stroke-linecap="round" stroke-linejoin="round"></path><path d="M38.6,17.72 L33.56,20.24" fill="none" stroke="var(--pet-eye)" stroke-width="2.52" stroke-linecap="round" stroke-linejoin="round"></path><circle cx="27.24" cy="21.44" r="1.25" fill="var(--pet-eye)"></circle><circle cx="34.76" cy="21.44" r="1.25" fill="var(--pet-eye)"></circle><path d="M28.84,25.76 H33.16" fill="none" stroke="var(--pet-eye)" stroke-width="1.2" stroke-linecap="round" stroke-linejoin="round"></path></g><g class="mood m-happy" data-mood="happy"><path d="M24.6,20.84 L27,18.32 L29.4,20.84" fill="none" stroke="var(--pet-eye)" stroke-width="1.56" stroke-linecap="round" stroke-linejoin="round"></path><path d="M32.6,20.84 L35,18.32 L37.4,20.84" fill="none" stroke="var(--pet-eye)" stroke-width="1.56" stroke-linecap="round" stroke-linejoin="round"></path><path d="M28.36,25.04 Q31,28.4 33.64,25.04" fill="none" stroke="var(--pet-eye)" stroke-width="1.44" stroke-linecap="round" stroke-linejoin="round"></path></g><g class="mood m-celebrate" data-mood="celebrate"><path d="M27,17.24 Q27,20 29.76,20 Q27,20 27,22.76 Q27,20 24.24,20 Q27,20 27,17.24 Z" fill="var(--pet-accent)"></path><path d="M35,17.24 Q35,20 37.76,20 Q35,20 35,22.76 Q35,20 32.24,20 Q35,20 35,17.24 Z" fill="var(--pet-accent)"></path><path d="M41.24,9.48 Q41.24,11.4 43.16,11.4 Q41.24,11.4 41.24,13.32 Q41.24,11.4 39.32,11.4 Q41.24,11.4 41.24,9.48 Z" fill="var(--pet-accent)"></path><path d="M21.24,6.6 Q21.24,8.04 22.68,8.04 Q21.24,8.04 21.24,9.48 Q21.24,8.04 19.8,8.04 Q21.24,8.04 21.24,6.6 Z" fill="var(--pet-accent)"></path><path d="M28.36,25.04 Q31,28.88 33.64,25.04" fill="none" stroke="var(--pet-eye)" stroke-width="1.44" stroke-linecap="round" stroke-linejoin="round"></path></g><g class="mood m-sleep" data-mood="sleep"><path d="M24.6,20 Q27,22.64 29.4,20" fill="none" stroke="var(--pet-eye)" stroke-width="1.44" stroke-linecap="round" stroke-linejoin="round"></path><path d="M32.6,20 Q35,22.64 37.4,20" fill="none" stroke="var(--pet-eye)" stroke-width="1.44" stroke-linecap="round" stroke-linejoin="round"></path><path d="M41.24,13.8 h2.64 l-2.64,2.64 h2.64" fill="none" stroke="var(--pet-eye)" stroke-width="0.9" stroke-linecap="round" stroke-linejoin="round"></path><path d="M44.6,9 h3.36 l-3.36,3.36 h3.36" fill="none" stroke="var(--pet-eye)" stroke-width="1.14" stroke-linecap="round" stroke-linejoin="round"></path><path d="M48.68,4.2 h4.08 l-4.08,4.08 h4.08" fill="none" stroke="var(--pet-eye)" stroke-width="1.39" stroke-linecap="round" stroke-linejoin="round"></path></g><g class="mood m-confused" data-mood="confused"><circle cx="27" cy="20" r="2.28" fill="var(--pet-eye)"></circle><path d="M32.6,19.52 q1.2,-1.92 2.4,0 q1.2,1.92 2.4,0" fill="none" stroke="var(--pet-eye)" stroke-width="1.44" stroke-linecap="round" stroke-linejoin="round"></path><path d="M39.92,10.86 Q39.92,7.44 42.44,7.44 Q45.14,7.44 44.96,10.32 Q44.24,12.12 42.44,13.02" fill="none" stroke="var(--pet-eye)" stroke-width="1.22" stroke-linecap="round" stroke-linejoin="round"></path><circle cx="42.44" cy="15.36" r="0.72" fill="var(--pet-eye)"></circle></g><g class="mood m-tired" data-mood="tired"><path d="M24.6,19.76 Q27,17.12 29.4,19.76" fill="none" stroke="var(--pet-eye)" stroke-width="1.68" stroke-linecap="round" stroke-linejoin="round"></path><path d="M32.6,19.76 Q35,17.12 37.4,19.76" fill="none" stroke="var(--pet-eye)" stroke-width="1.68" stroke-linecap="round" stroke-linejoin="round"></path><circle cx="27" cy="20.36" r="1.01" fill="var(--pet-eye)"></circle><circle cx="35" cy="20.36" r="1.01" fill="var(--pet-eye)"></circle><path d="M25.32,23.12 Q27,24.56 28.68,23.12" fill="none" stroke="var(--pet-eye)" stroke-width="0.86" stroke-linecap="round" stroke-linejoin="round"></path><path d="M33.32,23.12 Q35,24.56 36.68,23.12" fill="none" stroke="var(--pet-eye)" stroke-width="0.86" stroke-linecap="round" stroke-linejoin="round"></path></g><g class="mood m-love" data-mood="love"><path d="M27,22.28 C23.81,19.32 25.86,17.38 27,19.27 C28.14,17.38 30.19,19.32 27,22.28 Z" fill="var(--pet-accent)"></path><path d="M35,22.28 C31.81,19.32 33.86,17.38 35,19.27 C36.14,17.38 38.19,19.32 35,22.28 Z" fill="var(--pet-accent)"></path><path d="M28.6,25.28 Q31,28.16 33.4,25.28" fill="none" stroke="var(--pet-eye)" stroke-width="1.32" stroke-linecap="round" stroke-linejoin="round"></path></g><g class="mood m-surprised" data-mood="surprised"><circle cx="27" cy="20" r="2.76" fill="none" stroke="var(--pet-eye)" stroke-width="1.2"></circle><circle cx="35" cy="20" r="2.76" fill="none" stroke="var(--pet-eye)" stroke-width="1.2"></circle><circle cx="27" cy="20" r="1.01" fill="var(--pet-eye)"></circle><circle cx="35" cy="20" r="1.01" fill="var(--pet-eye)"></circle><path d="M24.36,15.44 Q27,14.24 28.44,15.2" fill="none" stroke="var(--pet-eye)" stroke-width="1.08" stroke-linecap="round" stroke-linejoin="round"></path><path d="M33.56,15.2 Q35,14.24 37.64,15.44" fill="none" stroke="var(--pet-eye)" stroke-width="1.08" stroke-linecap="round" stroke-linejoin="round"></path><ellipse cx="31" cy="26.72" rx="1.68" ry="2.16" fill="var(--pet-eye)"></ellipse></g><g class="mood m-playful" data-mood="playful"><path d="M24.6,20.48 Q27,17.84 29.4,20.48" fill="none" stroke="var(--pet-eye)" stroke-width="1.56" stroke-linecap="round" stroke-linejoin="round"></path><circle cx="35" cy="20" r="2.4" fill="var(--pet-eye)"></circle><path d="M28.36,25.04 Q31.48,27.92 33.88,24.56" fill="none" stroke="var(--pet-eye)" stroke-width="1.32" stroke-linecap="round" stroke-linejoin="round"></path><path d="M31.48,26.48 Q32.32,28.64 33.28,26.84 Z" fill="var(--pet-accent)"></path></g></g></svg>