<svg xmlns="http://www.w3.org/2000/svg" viewBox="0 0 64 64" data-mood="idle" role="img" aria-label="fennec pet sprite"><g id="tail"><path class="tail" d="M15,48 Q3,46 5,35 Q6,30 12,32" fill="none" stroke="currentColor" stroke-width="6.5" stroke-linecap="round"></path><circle cx="6" cy="33" r="3.6" fill="var(--pet-accent)"></circle></g><g id="legs"><rect class="leg-back" x="22" y="49" width="6.5" height="11" rx="3.25" fill="currentColor"></rect><rect class="leg-front" x="35" y="49" width="6.5" height="11" rx="3.25" fill="currentColor"></rect></g><g id="body"><ellipse cx="28" cy="43" rx="13" ry="11" fill="currentColor"></ellipse><path d="M37,42 L52,34 L50,46 Z" fill="currentColor"></path><circle cx="46" cy="26" r="10" fill="currentColor"></circle><path d="M44,28 L52,30 L46,34 Z" fill="var(--pet-accent)" opacity=".85"></path></g><g id="ears"><path d="M38,18 L30,2 L44,16 Z" fill="currentColor"></path><path d="M38.5,17 L33,5 L42,15.5 Z" fill="var(--pet-accent)"></path><path d="M52,16 L60,2 L55,18 Z" fill="currentColor"></path><path d="M53,15.5 L58,6 L55,17 Z" fill="var(--pet-accent)"></path></g><g id="face"><g class="mood m-idle" data-mood="idle"><circle cx="42" cy="25" r="2.7" fill="var(--pet-eye)"></circle><circle cx="49" cy="25" r="2.7" fill="var(--pet-eye)"></circle></g><g class="mood m-focused" data-mood="focused"><path d="M37.95,22.44 L43.62,25.27" fill="none" stroke="var(--pet-eye)" stroke-width="2.84" stroke-linecap="round" stroke-linejoin="round"></path><path d="M53.05,22.44 L47.38,25.27" fill="none" stroke="var(--pet-eye)" stroke-width="2.84" stroke-linecap="round" stroke-linejoin="round"></path><circle cx="42.27" cy="26.62" r="1.4" fill="var(--pet-eye)"></circle><circle cx="48.73" cy="26.62" r="1.4" fill="var(--pet-eye)"></circle><path d="M43.07,31.48 H47.93" fill="none" stroke="var(--pet-eye)" stroke-width="1.35" stroke-linecap="round" stroke-linejoin="round"></path></g><g class="mood m-happy" data-mood="happy"><path d="M39.3,25.95 L42,23.11 L44.7,25.95" fill="none" stroke="var(--pet-eye)" stroke-width="1.76" stroke-linecap="round" stroke-linejoin="round"></path><path d="M46.3,25.95 L49,23.11 L51.7,25.95" fill="none" stroke="var(--pet-eye)" stroke-width="1.76" stroke-linecap="round" stroke-linejoin="round"></path><path d="M42.53,30.67 Q45.5,34.45 48.47,30.67" fill="none" stroke="var(--pet-eye)" stroke-width="1.62" stroke-linecap="round" stroke-linejoin="round"></path></g><g class="mood m-celebrate" data-mood="celebrate"><path d="M42,21.9 Q42,25 45.11,25 Q42,25 42,28.11 Q42,25 38.9,25 Q42,25 42,21.9 Z" fill="var(--pet-accent)"></path><path d="M49,21.9 Q49,25 52.11,25 Q49,25 49,28.11 Q49,25 45.9,25 Q49,25 49,21.9 Z" fill="var(--pet-accent)"></path><path d="M56.02,13.54 Q56.02,15.7 58.18,15.7 Q56.02,15.7 56.02,17.86 Q56.02,15.7 53.86,15.7 Q56.02,15.7 56.02,13.54 Z" fill="var(--pet-accent)"></path><path d="M35.52,10.3 Q35.52,11.92 37.14,11.92 Q35.52,11.92 35.52,13.54 Q35.52,11.92 33.9,11.92 Q35.52,11.92 35.52,10.3 Z" fill="var(--pet-accent)"></path><path d="M42.53,30.67 Q45.5,34.99 48.47,30.67" fill="none" stroke="var(--pet-eye)" stroke-width="1.62" stroke-linecap="round" stroke-linejoin="round"></path></g><g class="mood m-sleep" data-mood="sleep"><path d="M39.3,25 Q42,27.97 44.7,25" fill="none" stroke="var(--pet-eye)" stroke-width="1.62" stroke-linecap="round" stroke-linejoin="round"></path><path d="M46.3,25 Q49,27.97 51.7,25" fill="none" stroke="var(--pet-eye)" stroke-width="1.62" stroke-linecap="round" stroke-linejoin="round"></path><path d="M56.02,18.4 h2.97 l-2.97,2.97 h2.97" fill="none" stroke="var(--pet-eye)" stroke-width="1.01" stroke-linecap="round" stroke-linejoin="round"></path><path d="M59.8,13 h3.78 l-3.78,3.78 h3.78" fill="none" stroke="var(--pet-eye)" stroke-width="1.29" stroke-linecap="round" stroke-linejoin="round"></path><path d="M64.39,7.6 h4.59 l-4.59,4.59 h4.59" fill="none" stroke="var(--pet-eye)" stroke-width="1.56" stroke-linecap="round" stroke-linejoin="round"></path></g><g class="mood m-confused" data-mood="confused"><circle cx="42" cy="25" r="2.57" fill="var(--pet-eye)"></circle><path d="M46.3,24.46 q1.35,-2.16 2.7,0 q1.35,2.16 2.7,0" fill="none" stroke="var(--pet-eye)" stroke-width="1.62" stroke-linecap="round" stroke-linejoin="round"></path><path d="M54.54,15.09 Q54.54,11.25 57.37,11.25 Q60.41,11.25 60.21,14.49 Q59.4,16.51 57.37,17.52" fill="none" stroke="var(--pet-eye)" stroke-width="1.38" stroke-linecap="round" stroke-linejoin="round"></path><circle cx="57.37" cy="20.16" r="0.81" fill="var(--pet-eye)"></circle></g><g class="mood m-tired" data-mood="tired"><path d="M39.3,24.73 Q42,21.76 44.7,24.73" fill="none" stroke="var(--pet-eye)" stroke-width="1.89" stroke-linecap="round" stroke-linejoin="round"></path><path d="M46.3,24.73 Q49,21.76 51.7,24.73" fill="none" stroke="var(--pet-eye)" stroke-width="1.89" stroke-linecap="round" stroke-linejoin="round"></path><circle cx="42" cy="25.41" r="1.13" fill="var(--pet-eye)"></circle><circle cx="49" cy="25.41" r="1.13" fill="var(--pet-eye)"></circle><path d="M40.11,28.51 Q42,30.13 43.89,28.51" fill="none" stroke="var(--pet-eye)" stroke-width="0.97" stroke-linecap="round" stroke-linejoin="round"></path><path d="M47.11,28.51 Q49,30.13 50.89,28.51" fill="none" stroke="var(--pet-eye)" stroke-width="0.97" stroke-linecap="round" stroke-linejoin="round"></path></g><g class="mood m-love" data-mood="love"><path d="M42,27.57 C38.41,24.23 40.72,22.05 42,24.18 C43.28,22.05 45.59,24.23 42,27.57 Z" fill="var(--pet-accent)"></path><path d="M49,27.57 C45.41,24.23 47.72,22.05 49,24.18 C50.28,22.05 52.59,24.23 49,27.57 Z" fill="var(--pet-accent)"></path><path d="M42.8,30.94 Q45.5,34.18 48.2,30.94" fill="none" stroke="var(--pet-eye)" stroke-width="1.49" stroke-linecap="round" stroke-linejoin="round"></path></g><g class="mood m-surprised" data-mood="surprised"><circle cx="42" cy="25" r="3.11" fill="none" stroke="var(--pet-eye)" stroke-width="1.35"></circle><circle cx="49" cy="25" r="3.11" fill="none" stroke="var(--pet-eye)" stroke-width="1.35"></circle><circle cx="42" cy="25" r="1.13" fill="var(--pet-eye)"></circle><circle cx="49" cy="25" r="1.13" fill="var(--pet-eye)"></circle><path d="M39.03,19.87 Q42,18.52 43.62,19.6" fill="none" stroke="var(--pet-eye)" stroke-width="1.22" stroke-linecap="round" stroke-linejoin="round"></path><path d="M47.38,19.6 Q49,18.52 51.97,19.87" fill="none" stroke="var(--pet-eye)" stroke-width="1.22" stroke-linecap="round" stroke-linejoin="round"></path><ellipse cx="45.5" cy="32.56" rx="1.89" ry="2.43" fill="var(--pet-eye)"></ellipse></g><g class="mood m-playful" data-mood="playful"><path d="M39.3,25.54 Q42,22.57 44.7,25.54" fill="none" stroke="var(--pet-eye)" stroke-width="1.76" stroke-linecap="round" stroke-linejoin="round"></path><circle cx="49" cy="25" r="2.7" fill="var(--pet-eye)"></circle><path d="M42.53,30.67 Q46.04,33.91 48.74,30.13" fill="none" stroke="var(--pet-eye)" stroke-width="1.49" stroke-linecap="round" stroke-linejoin="round"></path><path d="M46.04,32.29 Q46.99,34.72 48.07,32.7 Z" fill="var(--pet-accent)"></path></g></g></svg>