<svg xmlns="http://www.w3.org/2000/svg" viewBox="0 0 64 64" data-mood="idle" role="img" aria-label="fish pet sprite"><g id="tail"><path id="tail" class="tail" d="M17,34 Q7,23 4,32 Q3,37 6,40 Q4,44 8,46 Q15,42 17,34 Z" fill="currentColor"></path></g><g id="legs"><path id="leg-back" class="leg-back" d="M30,45 Q27,53 37,51 Q35,47 32,45 Z" fill="currentColor"></path><path id="leg-front" class="leg-front" d="M38,28 Q42,21 46,27 Q44,31 40,31 Z" fill="var(--pet-accent)" opacity=".85"></path></g><g id="body"><path d="M14,34 Q22,18 40,20 Q55,22 55,34 Q55,46 40,48 Q22,50 14,34 Z" fill="currentColor"></path><path d="M20,38 Q35,49 51,40 Q50,46 40,47 Q24,49 18,39 Z" fill="var(--pet-accent)" opacity=".28"></path><path d="M41,23 Q37,34 41,45" fill="none" stroke="var(--pet-eye)" stroke-width="1" stroke-linecap="round" opacity=".35"></path></g><g id="face"><g class="mood m-idle" data-mood="idle"><circle cx="44" cy="31" r="2.4" fill="var(--pet-eye)"></circle><circle cx="50.5" cy="31" r="2.4" fill="var(--pet-eye)"></circle></g><g class="mood m-focused" data-mood="focused"><path d="M41.2 28.4 L46.4 30.2" stroke="var(--pet-eye)" fill="none" stroke-linecap="round" stroke-linejoin="round" stroke-width="1.6"></path><path d="M53.3 28.4 L48.1 30.2" stroke="var(--pet-eye)" fill="none" stroke-linecap="round" stroke-linejoin="round" stroke-width="1.6"></path><circle cx="44" cy="31.4" r="1.35" fill="var(--pet-eye)"></circle><circle cx="50.5" cy="31.4" r="1.35" fill="var(--pet-eye)"></circle><path d="M44.65 37.4 H49.85" stroke="var(--pet-eye)" fill="none" stroke-linecap="round" stroke-linejoin="round" stroke-width="1.3"></path></g><g class="mood m-happy" data-mood="happy"><path d="M41.2 31.8 L44 28.4 L46.8 31.8" stroke="var(--pet-eye)" fill="none" stroke-linecap="round" stroke-linejoin="round" stroke-width="1.7"></path><path d="M47.7 31.8 L50.5 28.4 L53.3 31.8" stroke="var(--pet-eye)" fill="none" stroke-linecap="round" stroke-linejoin="round" stroke-width="1.7"></path><path d="M43.85 36.6 Q47.25 40.2 50.65 36.6" stroke="var(--pet-eye)" fill="none" stroke-linecap="round" stroke-linejoin="round" stroke-width="1.4"></path></g><g class="mood m-celebrate" data-mood="celebrate"><path d="M44 28 L44.96 30.04 L47 31 L44.96 31.96 L44 34 L43.04 31.96 L41 31 L43.04 30.04 Z" fill="var(--pet-accent)"></path><path d="M50.5 28 L51.46 30.04 L53.5 31 L51.46 31.96 L50.5 34 L49.54 31.96 L47.5 31 L49.54 30.04 Z" fill="var(--pet-accent)"></path><path d="M53 11.9 L53.67 13.33 L55.1 14 L53.67 14.67 L53 16.1 L52.33 14.67 L50.9 14 L52.33 13.33 Z" fill="var(--pet-accent)"></path><ellipse cx="47.25" cy="37.6" rx="2.2" ry="2" fill="var(--pet-eye)"></ellipse></g><g class="mood m-sleep" data-mood="sleep"><path d="M41.2 30.6 Q44 33.6 46.8 30.6" stroke="var(--pet-eye)" fill="none" stroke-linecap="round" stroke-linejoin="round" stroke-width="1.4"></path><path d="M47.7 30.6 Q50.5 33.6 53.3 30.6" stroke="var(--pet-eye)" fill="none" stroke-linecap="round" stroke-linejoin="round" stroke-width="1.4"></path><path d="M44.65 37 Q47.25 38.6 49.85 37" stroke="var(--pet-eye)" fill="none" stroke-linecap="round" stroke-linejoin="round" stroke-width="1.2"></path><g fill="none" stroke="var(--pet-eye)" stroke-width="1.1" stroke-linecap="round" stroke-linejoin="round"><path d="M53 14 h2.2 l-2.2 2.31 h2.2"></path><path d="M56.4 9.8 h2.8 l-2.8 2.94 h2.8"></path><path d="M60.4 5 h3.4 l-3.4 3.57 h3.4"></path></g></g><g class="mood m-confused" data-mood="confused"><circle cx="44" cy="31" r="2.4" fill="var(--pet-eye)"></circle><path d="M47.7 31 q1.4 -2 2.8 0 q1.4 2 2.8 0" stroke="var(--pet-eye)" fill="none" stroke-linecap="round" stroke-linejoin="round" stroke-width="1.5"></path><path d="M44.85 37.6 Q47.25 36.6 49.65 37.6" stroke="var(--pet-eye)" fill="none" stroke-linecap="round" stroke-linejoin="round" stroke-width="1.2"></path><path d="M52 14 Q52 10.4 55.4 10.4 Q58.9 10.4 58.9 13.4 Q58.9 16 55.4 17 V18.6" fill="none" stroke="var(--pet-eye)" stroke-width="1.7" stroke-linecap="round" stroke-linejoin="round"></path><circle cx="55.4" cy="21.4" r="1.15" fill="var(--pet-eye)"></circle></g><g class="mood m-tired" data-mood="tired"><path d="M41.2 30.6 Q44 32.4 46.8 30.6" stroke="var(--pet-eye)" fill="none" stroke-linecap="round" stroke-linejoin="round" stroke-width="1.8"></path><path d="M41.8 32.8 Q44 33.8 46.2 32.8" stroke="var(--pet-eye)" fill="none" stroke-linecap="round" stroke-linejoin="round" stroke-width="1"></path><path d="M47.7 30.6 Q50.5 32.4 53.3 30.6" stroke="var(--pet-eye)" fill="none" stroke-linecap="round" stroke-linejoin="round" stroke-width="1.8"></path><path d="M48.3 32.8 Q50.5 33.8 52.7 32.8" stroke="var(--pet-eye)" fill="none" stroke-linecap="round" stroke-linejoin="round" stroke-width="1"></path><path d="M44.65 37.6 Q47.25 38.3 49.85 37.6" stroke="var(--pet-eye)" fill="none" stroke-linecap="round" stroke-linejoin="round" stroke-width="1.2"></path></g><g class="mood m-love" data-mood="love"><path d="M44 33.55 C 41 30.4 42.35 28 44 30.25 C 45.65 28 47 30.4 44 33.55 Z" fill="var(--pet-accent)"></path><path d="M50.5 33.55 C 47.5 30.4 48.85 28 50.5 30.25 C 52.15 28 53.5 30.4 50.5 33.55 Z" fill="var(--pet-accent)"></path><path d="M43.85 36.6 Q47.25 40 50.65 36.6" stroke="var(--pet-eye)" fill="none" stroke-linecap="round" stroke-linejoin="round" stroke-width="1.4"></path></g><g class="mood m-surprised" data-mood="surprised"><circle cx="44" cy="31" r="2.76" fill="none" stroke="var(--pet-eye)" stroke-width="1.2"></circle><circle cx="50.5" cy="31" r="2.76" fill="none" stroke="var(--pet-eye)" stroke-width="1.2"></circle><circle cx="44" cy="31" r="1.01" fill="var(--pet-eye)"></circle><circle cx="50.5" cy="31" r="1.01" fill="var(--pet-eye)"></circle><path d="M41.36,26.44 Q44,25.24 45.44,26.2" fill="none" stroke="var(--pet-eye)" stroke-width="1.08" stroke-linecap="round" stroke-linejoin="round"></path><path d="M49.06,26.2 Q50.5,25.24 53.14,26.44" fill="none" stroke="var(--pet-eye)" stroke-width="1.08" stroke-linecap="round" stroke-linejoin="round"></path><ellipse cx="47.25" cy="37.72" rx="1.68" ry="2.16" fill="var(--pet-eye)"></ellipse></g><g class="mood m-playful" data-mood="playful"><path d="M41.6,31.48 Q44,28.84 46.4,31.48" fill="none" stroke="var(--pet-eye)" stroke-width="1.56" stroke-linecap="round" stroke-linejoin="round"></path><circle cx="50.5" cy="31" r="2.4" fill="var(--pet-eye)"></circle><path d="M44.61,36.04 Q47.73,38.92 50.13,35.56" fill="none" stroke="var(--pet-eye)" stroke-width="1.32" stroke-linecap="round" stroke-linejoin="round"></path><path d="M47.73,37.48 Q48.57,39.64 49.53,37.84 Z" fill="var(--pet-accent)"></path></g></g></svg>