<svg xmlns="http://www.w3.org/2000/svg" viewBox="0 0 64 64" data-mood="idle" role="img" aria-label="fox pet sprite"><g id="tail"><path id="tail" class="tail" d="M18,49 Q3,46 5,31 Q6,25 13,27" fill="none" stroke="currentColor" stroke-width="7.5" stroke-linecap="round"></path><circle cx="6" cy="30" r="4" fill="var(--pet-accent)"></circle></g><g id="legs"><rect id="leg-back" class="leg-back" x="20" y="49" width="7.5" height="11" rx="3.7" fill="currentColor"></rect><rect id="leg-front" class="leg-front" x="36" y="49" width="7.5" height="11" rx="3.7" fill="currentColor"></rect></g><g id="body"><ellipse cx="29" cy="43" rx="16" ry="13" fill="currentColor"></ellipse><path d="M34,28 Q33,15 46,15 Q57,16 57,27 L61,30 L56,32 Q53,40 44,39 Q35,37 34,28 Z" fill="currentColor"></path><ellipse cx="33" cy="47" rx="7" ry="5.5" fill="var(--pet-accent)" opacity=".85"></ellipse></g><g id="ears"><path d="M37,16 L32,3 L46,12 Z" fill="currentColor"></path><path d="M39,14.5 L36,6 L43.5,11.5 Z" fill="var(--pet-accent)"></path><path d="M50,12 L60,3 L59,16 Z" fill="currentColor"></path><path d="M51.5,12 L57,7 L56.5,14.5 Z" fill="var(--pet-accent)"></path></g><g id="face"><circle cx="60" cy="30" r="2.2" fill="var(--pet-eye)"></circle><g class="mood m-idle" data-mood="idle"><circle cx="43" cy="24" r="2.5" fill="var(--pet-eye)"></circle><circle cx="50" cy="24" r="2.5" fill="var(--pet-eye)"></circle></g><g class="mood m-focused" data-mood="focused"><path d="M40.3,22.4 L45.7,24.5" fill="none" stroke="var(--pet-eye)" stroke-width="2.6" stroke-linecap="round" stroke-linejoin="round"></path><path d="M47.3,24.5 L52.7,22.4" fill="none" stroke="var(--pet-eye)" stroke-width="2.6" stroke-linecap="round" stroke-linejoin="round"></path><circle cx="43.5" cy="26.5" r="1.3" fill="var(--pet-eye)"></circle><circle cx="49.5" cy="26.5" r="1.3" fill="var(--pet-eye)"></circle></g><g class="mood m-happy" data-mood="happy"><path d="M40.4,25.1 L43,22 L45.6,25.1" fill="none" stroke="var(--pet-eye)" stroke-width="2.4" stroke-linecap="round" stroke-linejoin="round"></path><path d="M47.4,25.1 L50,22 L52.6,25.1" fill="none" stroke="var(--pet-eye)" stroke-width="2.4" stroke-linecap="round" stroke-linejoin="round"></path><path d="M47,32 Q50,35.2 53,32" fill="none" stroke="var(--pet-eye)" stroke-width="1.8" stroke-linecap="round" stroke-linejoin="round"></path></g><g class="mood m-celebrate" data-mood="celebrate"><path transform="translate(43,24) scale(1)" d="M0,-3.2 Q0.7,-0.7 3.2,0 Q0.7,0.7 0,3.2 Q-0.7,0.7 -3.2,0 Q-0.7,-0.7 0,-3.2Z" fill="var(--pet-accent)"></path><path transform="translate(50,24) scale(1)" d="M0,-3.2 Q0.7,-0.7 3.2,0 Q0.7,0.7 0,3.2 Q-0.7,0.7 -3.2,0 Q-0.7,-0.7 0,-3.2Z" fill="var(--pet-accent)"></path><path d="M47.4,32 Q50,36.2 52.6,32 Q50,33 47.4,32Z" fill="var(--pet-eye)"></path><path transform="translate(43,7) scale(0.5)" d="M0,-3.2 Q0.7,-0.7 3.2,0 Q0.7,0.7 0,3.2 Q-0.7,0.7 -3.2,0 Q-0.7,-0.7 0,-3.2Z" fill="var(--pet-accent)"></path><path transform="translate(56,18) scale(0.55)" d="M0,-3.2 Q0.7,-0.7 3.2,0 Q0.7,0.7 0,3.2 Q-0.7,0.7 -3.2,0 Q-0.7,-0.7 0,-3.2Z" fill="var(--pet-accent)"></path></g><g class="mood m-sleep" data-mood="sleep"><path d="M40.5,23.5 Q43,26.4 45.5,23.5" fill="none" stroke="var(--pet-eye)" stroke-width="1.9" stroke-linecap="round" stroke-linejoin="round"></path><path d="M47.5,23.5 Q50,26.4 52.5,23.5" fill="none" stroke="var(--pet-eye)" stroke-width="1.9" stroke-linecap="round" stroke-linejoin="round"></path><path transform="translate(55,11) scale(0.7)" d="M0,0 H3.4 L0,3.6 H3.4" fill="none" stroke="var(--pet-eye)" stroke-width="1.1" stroke-linejoin="round" stroke-linecap="round"></path><path transform="translate(58,7) scale(0.9)" d="M0,0 H3.4 L0,3.6 H3.4" fill="none" stroke="var(--pet-eye)" stroke-width="1.1" stroke-linejoin="round" stroke-linecap="round"></path><path transform="translate(61.6,2) scale(1.15)" d="M0,0 H3.4 L0,3.6 H3.4" fill="none" stroke="var(--pet-eye)" stroke-width="1.1" stroke-linejoin="round" stroke-linecap="round"></path></g><g class="mood m-confused" data-mood="confused"><circle cx="43" cy="24" r="2.5" fill="var(--pet-eye)"></circle><path d="M47.7,24.3 Q50,22.8 52.3,24.3" fill="none" stroke="var(--pet-eye)" stroke-width="1.9" stroke-linecap="round" stroke-linejoin="round"></path><g transform="translate(55,4)"><path d="M-1.7,-2.2 Q-1.7,-4.7 0.2,-4.7 Q2.2,-4.7 2.2,-2.4 Q2.2,-0.6 0.2,0.1 L0.2,1.5" fill="none" stroke="var(--pet-eye)" stroke-width="1.5" stroke-linecap="round" stroke-linejoin="round"></path><circle cx="0.2" cy="3.5" r="1" fill="var(--pet-eye)"></circle></g></g><g class="mood m-tired" data-mood="tired"><path d="M40.6,23.8 Q43,26.7 45.4,23.8 Z" fill="var(--pet-eye)"></path><path d="M47.6,23.8 Q50,26.7 52.4,23.8 Z" fill="var(--pet-eye)"></path><path d="M40.2,22.9 Q43,23.9 45.8,22.7" fill="none" stroke="var(--pet-eye)" stroke-width="1.4" stroke-linecap="round" stroke-linejoin="round"></path><path d="M47.2,22.7 Q50,23.9 52.8,22.9" fill="none" stroke="var(--pet-eye)" stroke-width="1.4" stroke-linecap="round" stroke-linejoin="round"></path></g><g class="mood m-love" data-mood="love"><path transform="translate(43,24) scale(0.95)" d="M0,2.4 C0,0.6 -2.6,0.4 -2.6,-1 C-2.6,-2.4 -0.6,-2.6 0,-1.3 C0.6,-2.6 2.6,-2.4 2.6,-1 C2.6,0.4 0,0.6 0,2.4Z" fill="var(--pet-accent)"></path><path transform="translate(50,24) scale(0.95)" d="M0,2.4 C0,0.6 -2.6,0.4 -2.6,-1 C-2.6,-2.4 -0.6,-2.6 0,-1.3 C0.6,-2.6 2.6,-2.4 2.6,-1 C2.6,0.4 0,0.6 0,2.4Z" fill="var(--pet-accent)"></path><path d="M47,32 Q50,35.2 53,32" fill="none" stroke="var(--pet-eye)" stroke-width="1.8" stroke-linecap="round" stroke-linejoin="round"></path></g></g></svg>