<svg xmlns="http://www.w3.org/2000/svg" viewBox="0 0 64 64" data-mood="idle" role="img" aria-label="frog pet sprite"><g id="tail"></g><g id="legs"><path class="leg-back" d="M16,46 Q8,46 9,53 Q10,58 16,56 Q22,53 22,48 Z" fill="currentColor"></path><path class="leg-front" d="M48,46 Q56,46 55,53 Q54,58 48,56 Q42,53 42,48 Z" fill="currentColor"></path></g><g id="body"><path d="M12,46 Q12,30 32,30 Q52,30 52,46 Q52,54 32,54 Q12,54 12,46 Z" fill="currentColor"></path><ellipse cx="32" cy="49" rx="11" ry="6" fill="var(--pet-accent)" opacity=".7"></ellipse><circle cx="22" cy="24" r="7" fill="currentColor"></circle><circle cx="42" cy="24" r="7" fill="currentColor"></circle></g><g id="face"><g class="mood m-idle" data-mood="idle"><circle cx="22" cy="23" r="3" fill="var(--pet-eye)"></circle><circle cx="42" cy="23" r="3" fill="var(--pet-eye)"></circle></g><g class="mood m-focused" data-mood="focused"><path d="M17.5,20.15 L23.8,23.3" fill="none" stroke="var(--pet-eye)" stroke-width="3.15" stroke-linecap="round" stroke-linejoin="round"></path><path d="M46.5,20.15 L40.2,23.3" fill="none" stroke="var(--pet-eye)" stroke-width="3.15" stroke-linecap="round" stroke-linejoin="round"></path><circle cx="22.3" cy="24.8" r="1.56" fill="var(--pet-eye)"></circle><circle cx="41.7" cy="24.8" r="1.56" fill="var(--pet-eye)"></circle><path d="M29.3,30.2 H34.7" fill="none" stroke="var(--pet-eye)" stroke-width="1.5" stroke-linecap="round" stroke-linejoin="round"></path></g><g class="mood m-happy" data-mood="happy"><path d="M19,24.05 L22,20.9 L25,24.05" fill="none" stroke="var(--pet-eye)" stroke-width="1.95" stroke-linecap="round" stroke-linejoin="round"></path><path d="M39,24.05 L42,20.9 L45,24.05" fill="none" stroke="var(--pet-eye)" stroke-width="1.95" stroke-linecap="round" stroke-linejoin="round"></path><path d="M28.7,29.3 Q32,33.5 35.3,29.3" fill="none" stroke="var(--pet-eye)" stroke-width="1.8" stroke-linecap="round" stroke-linejoin="round"></path></g><g class="mood m-celebrate" data-mood="celebrate"><path d="M22,19.55 Q22,23 25.45,23 Q22,23 22,26.45 Q22,23 18.55,23 Q22,23 22,19.55 Z" fill="var(--pet-accent)"></path><path d="M42,19.55 Q42,23 45.45,23 Q42,23 42,26.45 Q42,23 38.55,23 Q42,23 42,19.55 Z" fill="var(--pet-accent)"></path><path d="M49.8,12.6 Q49.8,15 52.2,15 Q49.8,15 49.8,17.4 Q49.8,15 47.4,15 Q49.8,15 49.8,12.6 Z" fill="var(--pet-accent)"></path><path d="M14.8,9 Q14.8,10.8 16.6,10.8 Q14.8,10.8 14.8,12.6 Q14.8,10.8 13,10.8 Q14.8,10.8 14.8,9 Z" fill="var(--pet-accent)"></path><path d="M28.7,29.3 Q32,34.1 35.3,29.3" fill="none" stroke="var(--pet-eye)" stroke-width="1.8" stroke-linecap="round" stroke-linejoin="round"></path></g><g class="mood m-sleep" data-mood="sleep"><path d="M19,23 Q22,26.3 25,23" fill="none" stroke="var(--pet-eye)" stroke-width="1.8" stroke-linecap="round" stroke-linejoin="round"></path><path d="M39,23 Q42,26.3 45,23" fill="none" stroke="var(--pet-eye)" stroke-width="1.8" stroke-linecap="round" stroke-linejoin="round"></path><path d="M49.8,18 h3.3 l-3.3,3.3 h3.3" fill="none" stroke="var(--pet-eye)" stroke-width="1.12" stroke-linecap="round" stroke-linejoin="round"></path><path d="M54,12 h4.2 l-4.2,4.2 h4.2" fill="none" stroke="var(--pet-eye)" stroke-width="1.43" stroke-linecap="round" stroke-linejoin="round"></path><path d="M59.1,6 h5.1 l-5.1,5.1 h5.1" fill="none" stroke="var(--pet-eye)" stroke-width="1.73" stroke-linecap="round" stroke-linejoin="round"></path></g><g class="mood m-confused" data-mood="confused"><circle cx="22" cy="23" r="2.85" fill="var(--pet-eye)"></circle><path d="M39,22.4 q1.5,-2.4 3,0 q1.5,2.4 3,0" fill="none" stroke="var(--pet-eye)" stroke-width="1.8" stroke-linecap="round" stroke-linejoin="round"></path><path d="M48.15,14.33 Q48.15,10.05 51.3,10.05 Q54.68,10.05 54.45,13.65 Q53.55,15.9 51.3,17.03" fill="none" stroke="var(--pet-eye)" stroke-width="1.53" stroke-linecap="round" stroke-linejoin="round"></path><circle cx="51.3" cy="19.95" r="0.9" fill="var(--pet-eye)"></circle></g><g class="mood m-tired" data-mood="tired"><path d="M19,22.7 Q22,19.4 25,22.7" fill="none" stroke="var(--pet-eye)" stroke-width="2.1" stroke-linecap="round" stroke-linejoin="round"></path><path d="M39,22.7 Q42,19.4 45,22.7" fill="none" stroke="var(--pet-eye)" stroke-width="2.1" stroke-linecap="round" stroke-linejoin="round"></path><circle cx="22" cy="23.45" r="1.26" fill="var(--pet-eye)"></circle><circle cx="42" cy="23.45" r="1.26" fill="var(--pet-eye)"></circle><path d="M19.9,26.9 Q22,28.7 24.1,26.9" fill="none" stroke="var(--pet-eye)" stroke-width="1.08" stroke-linecap="round" stroke-linejoin="round"></path><path d="M39.9,26.9 Q42,28.7 44.1,26.9" fill="none" stroke="var(--pet-eye)" stroke-width="1.08" stroke-linecap="round" stroke-linejoin="round"></path></g><g class="mood m-love" data-mood="love"><path d="M22,25.85 C18.01,22.15 20.58,19.72 22,22.09 C23.43,19.72 25.99,22.15 22,25.85 Z" fill="var(--pet-accent)"></path><path d="M42,25.85 C38.01,22.15 40.58,19.72 42,22.09 C43.43,19.72 45.99,22.15 42,25.85 Z" fill="var(--pet-accent)"></path><path d="M29,29.6 Q32,33.2 35,29.6" fill="none" stroke="var(--pet-eye)" stroke-width="1.65" stroke-linecap="round" stroke-linejoin="round"></path></g><g class="mood m-surprised" data-mood="surprised"><circle cx="22" cy="23" r="3.45" fill="none" stroke="var(--pet-eye)" stroke-width="1.5"></circle><circle cx="42" cy="23" r="3.45" fill="none" stroke="var(--pet-eye)" stroke-width="1.5"></circle><circle cx="22" cy="23" r="1.26" fill="var(--pet-eye)"></circle><circle cx="42" cy="23" r="1.26" fill="var(--pet-eye)"></circle><path d="M18.7,17.3 Q22,15.8 23.8,17" fill="none" stroke="var(--pet-eye)" stroke-width="1.35" stroke-linecap="round" stroke-linejoin="round"></path><path d="M40.2,17 Q42,15.8 45.3,17.3" fill="none" stroke="var(--pet-eye)" stroke-width="1.35" stroke-linecap="round" stroke-linejoin="round"></path><ellipse cx="32" cy="31.4" rx="2.1" ry="2.7" fill="var(--pet-eye)"></ellipse></g><g class="mood m-playful" data-mood="playful"><path d="M19,23.6 Q22,20.3 25,23.6" fill="none" stroke="var(--pet-eye)" stroke-width="1.95" stroke-linecap="round" stroke-linejoin="round"></path><circle cx="42" cy="23" r="3" fill="var(--pet-eye)"></circle><path d="M28.7,29.3 Q32.6,32.9 35.6,28.7" fill="none" stroke="var(--pet-eye)" stroke-width="1.65" stroke-linecap="round" stroke-linejoin="round"></path><path d="M32.6,31.1 Q33.65,33.8 34.85,31.55 Z" fill="var(--pet-accent)"></path></g></g></svg>