<svg xmlns="http://www.w3.org/2000/svg" viewBox="0 0 64 64" data-mood="idle" role="img" aria-label="gator pet sprite"><g id="tail"><path class="tail" d="M16,44 Q4,42 2,50 Q6,52 14,49" fill="none" stroke="currentColor" stroke-width="6" stroke-linecap="round"></path></g><g id="legs"><path class="leg-back" d="M22,48 L19,55 M22,48 L26,55" stroke="currentColor" stroke-width="3" stroke-linecap="round"></path><path class="leg-front" d="M38,48 L35,55 M38,48 L42,55" stroke="currentColor" stroke-width="3" stroke-linecap="round"></path></g><g id="body"><path d="M14,44 Q34,38 50,42 Q62,44 62,40 Q62,42 56,38 Q44,32 32,36 Q18,38 14,44 Z" fill="currentColor"></path><ellipse cx="20" cy="44" rx="9" ry="6" fill="currentColor"></ellipse><path d="M22,46 Q40,44 56,42" fill="none" stroke="var(--pet-accent)" stroke-width="2.4" opacity=".6" stroke-linecap="round"></path><path d="M28,34 l3,-4 l3,4 M36,33 l3,-4 l3,4 M44,33 l3,-4 l3,4" fill="currentColor"></path></g><g id="face"><g class="mood m-idle" data-mood="idle"><circle cx="14" cy="40" r="2.2" fill="var(--pet-eye)"></circle><circle cx="21" cy="40" r="2.2" fill="var(--pet-eye)"></circle></g><g class="mood m-focused" data-mood="focused"><path d="M10.7,37.91 L15.32,40.22" fill="none" stroke="var(--pet-eye)" stroke-width="2.31" stroke-linecap="round" stroke-linejoin="round"></path><path d="M24.3,37.91 L19.68,40.22" fill="none" stroke="var(--pet-eye)" stroke-width="2.31" stroke-linecap="round" stroke-linejoin="round"></path><circle cx="14.22" cy="41.32" r="1.14" fill="var(--pet-eye)"></circle><circle cx="20.78" cy="41.32" r="1.14" fill="var(--pet-eye)"></circle><path d="M15.52,45.28 H19.48" fill="none" stroke="var(--pet-eye)" stroke-width="1.1" stroke-linecap="round" stroke-linejoin="round"></path></g><g class="mood m-happy" data-mood="happy"><path d="M11.8,40.77 L14,38.46 L16.2,40.77" fill="none" stroke="var(--pet-eye)" stroke-width="1.43" stroke-linecap="round" stroke-linejoin="round"></path><path d="M18.8,40.77 L21,38.46 L23.2,40.77" fill="none" stroke="var(--pet-eye)" stroke-width="1.43" stroke-linecap="round" stroke-linejoin="round"></path><path d="M15.08,44.62 Q17.5,47.7 19.92,44.62" fill="none" stroke="var(--pet-eye)" stroke-width="1.32" stroke-linecap="round" stroke-linejoin="round"></path></g><g class="mood m-celebrate" data-mood="celebrate"><path d="M14,37.47 Q14,40 16.53,40 Q14,40 14,42.53 Q14,40 11.47,40 Q14,40 14,37.47 Z" fill="var(--pet-accent)"></path><path d="M21,37.47 Q21,40 23.53,40 Q21,40 21,42.53 Q21,40 18.47,40 Q21,40 21,37.47 Z" fill="var(--pet-accent)"></path><path d="M26.72,31.44 Q26.72,33.2 28.48,33.2 Q26.72,33.2 26.72,34.96 Q26.72,33.2 24.96,33.2 Q26.72,33.2 26.72,31.44 Z" fill="var(--pet-accent)"></path><path d="M8.72,28.8 Q8.72,30.12 10.04,30.12 Q8.72,30.12 8.72,31.44 Q8.72,30.12 7.4,30.12 Q8.72,30.12 8.72,28.8 Z" fill="var(--pet-accent)"></path><path d="M15.08,44.62 Q17.5,48.14 19.92,44.62" fill="none" stroke="var(--pet-eye)" stroke-width="1.32" stroke-linecap="round" stroke-linejoin="round"></path></g><g class="mood m-sleep" data-mood="sleep"><path d="M11.8,40 Q14,42.42 16.2,40" fill="none" stroke="var(--pet-eye)" stroke-width="1.32" stroke-linecap="round" stroke-linejoin="round"></path><path d="M18.8,40 Q21,42.42 23.2,40" fill="none" stroke="var(--pet-eye)" stroke-width="1.32" stroke-linecap="round" stroke-linejoin="round"></path><path d="M26.72,35.4 h2.42 l-2.42,2.42 h2.42" fill="none" stroke="var(--pet-eye)" stroke-width="0.82" stroke-linecap="round" stroke-linejoin="round"></path><path d="M29.8,31 h3.08 l-3.08,3.08 h3.08" fill="none" stroke="var(--pet-eye)" stroke-width="1.05" stroke-linecap="round" stroke-linejoin="round"></path><path d="M33.54,26.6 h3.74 l-3.74,3.74 h3.74" fill="none" stroke="var(--pet-eye)" stroke-width="1.27" stroke-linecap="round" stroke-linejoin="round"></path></g><g class="mood m-confused" data-mood="confused"><circle cx="14" cy="40" r="2.09" fill="var(--pet-eye)"></circle><path d="M18.8,39.56 q1.1,-1.76 2.2,0 q1.1,1.76 2.2,0" fill="none" stroke="var(--pet-eye)" stroke-width="1.32" stroke-linecap="round" stroke-linejoin="round"></path><path d="M25.51,32.71 Q25.51,29.57 27.82,29.57 Q30.3,29.57 30.13,32.21 Q29.47,33.86 27.82,34.69" fill="none" stroke="var(--pet-eye)" stroke-width="1.12" stroke-linecap="round" stroke-linejoin="round"></path><circle cx="27.82" cy="36.83" r="0.66" fill="var(--pet-eye)"></circle></g><g class="mood m-tired" data-mood="tired"><path d="M11.8,39.78 Q14,37.36 16.2,39.78" fill="none" stroke="var(--pet-eye)" stroke-width="1.54" stroke-linecap="round" stroke-linejoin="round"></path><path d="M18.8,39.78 Q21,37.36 23.2,39.78" fill="none" stroke="var(--pet-eye)" stroke-width="1.54" stroke-linecap="round" stroke-linejoin="round"></path><circle cx="14" cy="40.33" r="0.92" fill="var(--pet-eye)"></circle><circle cx="21" cy="40.33" r="0.92" fill="var(--pet-eye)"></circle><path d="M12.46,42.86 Q14,44.18 15.54,42.86" fill="none" stroke="var(--pet-eye)" stroke-width="0.79" stroke-linecap="round" stroke-linejoin="round"></path><path d="M19.46,42.86 Q21,44.18 22.54,42.86" fill="none" stroke="var(--pet-eye)" stroke-width="0.79" stroke-linecap="round" stroke-linejoin="round"></path></g><g class="mood m-love" data-mood="love"><path d="M14,42.09 C11.07,39.37 12.96,37.6 14,39.33 C15.05,37.6 16.93,39.37 14,42.09 Z" fill="var(--pet-accent)"></path><path d="M21,42.09 C18.07,39.37 19.95,37.6 21,39.33 C22.05,37.6 23.93,39.37 21,42.09 Z" fill="var(--pet-accent)"></path><path d="M15.3,44.84 Q17.5,47.48 19.7,44.84" fill="none" stroke="var(--pet-eye)" stroke-width="1.21" stroke-linecap="round" stroke-linejoin="round"></path></g><g class="mood m-surprised" data-mood="surprised"><circle cx="14" cy="40" r="2.53" fill="none" stroke="var(--pet-eye)" stroke-width="1.1"></circle><circle cx="21" cy="40" r="2.53" fill="none" stroke="var(--pet-eye)" stroke-width="1.1"></circle><circle cx="14" cy="40" r="0.92" fill="var(--pet-eye)"></circle><circle cx="21" cy="40" r="0.92" fill="var(--pet-eye)"></circle><path d="M11.58,35.82 Q14,34.72 15.32,35.6" fill="none" stroke="var(--pet-eye)" stroke-width="0.99" stroke-linecap="round" stroke-linejoin="round"></path><path d="M19.68,35.6 Q21,34.72 23.42,35.82" fill="none" stroke="var(--pet-eye)" stroke-width="0.99" stroke-linecap="round" stroke-linejoin="round"></path><ellipse cx="17.5" cy="46.16" rx="1.54" ry="1.98" fill="var(--pet-eye)"></ellipse></g><g class="mood m-playful" data-mood="playful"><path d="M11.8,40.44 Q14,38.02 16.2,40.44" fill="none" stroke="var(--pet-eye)" stroke-width="1.43" stroke-linecap="round" stroke-linejoin="round"></path><circle cx="21" cy="40" r="2.2" fill="var(--pet-eye)"></circle><path d="M15.08,44.62 Q17.94,47.26 20.14,44.18" fill="none" stroke="var(--pet-eye)" stroke-width="1.21" stroke-linecap="round" stroke-linejoin="round"></path><path d="M17.94,45.94 Q18.71,47.92 19.59,46.27 Z" fill="var(--pet-accent)"></path></g></g></svg>