<svg xmlns="http://www.w3.org/2000/svg" viewBox="0 0 64 64" data-mood="idle" role="img" aria-label="glowbug pet sprite"><g id="tail"><path class="tail" d="M14,44 Q8,44 9,49" fill="none" stroke="currentColor" stroke-width="2.6" stroke-linecap="round"></path></g><g id="legs"><path class="leg-back" d="M24,48 L20,55 M30,48 L28,56" stroke="currentColor" stroke-width="2" stroke-linecap="round"></path><path class="leg-front" d="M40,48 L44,55 M34,48 L36,56" stroke="currentColor" stroke-width="2" stroke-linecap="round"></path></g><g id="body"><ellipse cx="30" cy="42" rx="15" ry="12" fill="currentColor"></ellipse><path d="M16,46 Q30,54 44,46 Q42,52 30,53 Q18,52 16,46 Z" fill="var(--pet-accent)"></path><ellipse cx="30" cy="49" rx="9" ry="4" fill="var(--pet-accent)"></ellipse><circle cx="45" cy="34" r="9" fill="currentColor"></circle></g><g id="ears"><path d="M42,27 Q38,20 34,20 M48,27 Q52,20 56,20" fill="none" stroke="currentColor" stroke-width="1.6" stroke-linecap="round"></path><circle cx="34" cy="19" r="1.6" fill="var(--pet-accent)"></circle><circle cx="56" cy="19" r="1.6" fill="var(--pet-accent)"></circle></g><g id="face"><g class="mood m-idle" data-mood="idle"><circle cx="41" cy="34" r="2.5" fill="var(--pet-eye)"></circle><circle cx="49" cy="34" r="2.5" fill="var(--pet-eye)"></circle></g><g class="mood m-focused" data-mood="focused"><path d="M37.25,31.63 L42.5,34.25" fill="none" stroke="var(--pet-eye)" stroke-width="2.63" stroke-linecap="round" stroke-linejoin="round"></path><path d="M52.75,31.63 L47.5,34.25" fill="none" stroke="var(--pet-eye)" stroke-width="2.63" stroke-linecap="round" stroke-linejoin="round"></path><circle cx="41.25" cy="35.5" r="1.3" fill="var(--pet-eye)"></circle><circle cx="48.75" cy="35.5" r="1.3" fill="var(--pet-eye)"></circle><path d="M42.75,40 H47.25" fill="none" stroke="var(--pet-eye)" stroke-width="1.25" stroke-linecap="round" stroke-linejoin="round"></path></g><g class="mood m-happy" data-mood="happy"><path d="M38.5,34.88 L41,32.25 L43.5,34.88" fill="none" stroke="var(--pet-eye)" stroke-width="1.63" stroke-linecap="round" stroke-linejoin="round"></path><path d="M46.5,34.88 L49,32.25 L51.5,34.88" fill="none" stroke="var(--pet-eye)" stroke-width="1.63" stroke-linecap="round" stroke-linejoin="round"></path><path d="M42.25,39.25 Q45,42.75 47.75,39.25" fill="none" stroke="var(--pet-eye)" stroke-width="1.5" stroke-linecap="round" stroke-linejoin="round"></path></g><g class="mood m-celebrate" data-mood="celebrate"><path d="M41,31.13 Q41,34 43.88,34 Q41,34 41,36.88 Q41,34 38.13,34 Q41,34 41,31.13 Z" fill="var(--pet-accent)"></path><path d="M49,31.13 Q49,34 51.88,34 Q49,34 49,36.88 Q49,34 46.13,34 Q49,34 49,31.13 Z" fill="var(--pet-accent)"></path><path d="M55.5,24.5 Q55.5,26.5 57.5,26.5 Q55.5,26.5 55.5,28.5 Q55.5,26.5 53.5,26.5 Q55.5,26.5 55.5,24.5 Z" fill="var(--pet-accent)"></path><path d="M35,21.5 Q35,23 36.5,23 Q35,23 35,24.5 Q35,23 33.5,23 Q35,23 35,21.5 Z" fill="var(--pet-accent)"></path><path d="M42.25,39.25 Q45,43.25 47.75,39.25" fill="none" stroke="var(--pet-eye)" stroke-width="1.5" stroke-linecap="round" stroke-linejoin="round"></path></g><g class="mood m-sleep" data-mood="sleep"><path d="M38.5,34 Q41,36.75 43.5,34" fill="none" stroke="var(--pet-eye)" stroke-width="1.5" stroke-linecap="round" stroke-linejoin="round"></path><path d="M46.5,34 Q49,36.75 51.5,34" fill="none" stroke="var(--pet-eye)" stroke-width="1.5" stroke-linecap="round" stroke-linejoin="round"></path><path d="M55.5,29 h2.75 l-2.75,2.75 h2.75" fill="none" stroke="var(--pet-eye)" stroke-width="0.94" stroke-linecap="round" stroke-linejoin="round"></path><path d="M59,24 h3.5 l-3.5,3.5 h3.5" fill="none" stroke="var(--pet-eye)" stroke-width="1.19" stroke-linecap="round" stroke-linejoin="round"></path><path d="M63.25,19 h4.25 l-4.25,4.25 h4.25" fill="none" stroke="var(--pet-eye)" stroke-width="1.45" stroke-linecap="round" stroke-linejoin="round"></path></g><g class="mood m-confused" data-mood="confused"><circle cx="41" cy="34" r="2.38" fill="var(--pet-eye)"></circle><path d="M46.5,33.5 q1.25,-2 2.5,0 q1.25,2 2.5,0" fill="none" stroke="var(--pet-eye)" stroke-width="1.5" stroke-linecap="round" stroke-linejoin="round"></path><path d="M54.13,25.94 Q54.13,22.38 56.75,22.38 Q59.56,22.38 59.38,25.38 Q58.63,27.25 56.75,28.19" fill="none" stroke="var(--pet-eye)" stroke-width="1.28" stroke-linecap="round" stroke-linejoin="round"></path><circle cx="56.75" cy="30.63" r="0.75" fill="var(--pet-eye)"></circle></g><g class="mood m-tired" data-mood="tired"><path d="M38.5,33.75 Q41,31 43.5,33.75" fill="none" stroke="var(--pet-eye)" stroke-width="1.75" stroke-linecap="round" stroke-linejoin="round"></path><path d="M46.5,33.75 Q49,31 51.5,33.75" fill="none" stroke="var(--pet-eye)" stroke-width="1.75" stroke-linecap="round" stroke-linejoin="round"></path><circle cx="41" cy="34.38" r="1.05" fill="var(--pet-eye)"></circle><circle cx="49" cy="34.38" r="1.05" fill="var(--pet-eye)"></circle><path d="M39.25,37.25 Q41,38.75 42.75,37.25" fill="none" stroke="var(--pet-eye)" stroke-width="0.9" stroke-linecap="round" stroke-linejoin="round"></path><path d="M47.25,37.25 Q49,38.75 50.75,37.25" fill="none" stroke="var(--pet-eye)" stroke-width="0.9" stroke-linecap="round" stroke-linejoin="round"></path></g><g class="mood m-love" data-mood="love"><path d="M41,36.38 C37.67,33.29 39.81,31.27 41,33.24 C42.19,31.27 44.33,33.29 41,36.38 Z" fill="var(--pet-accent)"></path><path d="M49,36.38 C45.68,33.29 47.81,31.27 49,33.24 C50.19,31.27 52.33,33.29 49,36.38 Z" fill="var(--pet-accent)"></path><path d="M42.5,39.5 Q45,42.5 47.5,39.5" fill="none" stroke="var(--pet-eye)" stroke-width="1.38" stroke-linecap="round" stroke-linejoin="round"></path></g><g class="mood m-surprised" data-mood="surprised"><circle cx="41" cy="34" r="2.88" fill="none" stroke="var(--pet-eye)" stroke-width="1.25"></circle><circle cx="49" cy="34" r="2.88" fill="none" stroke="var(--pet-eye)" stroke-width="1.25"></circle><circle cx="41" cy="34" r="1.05" fill="var(--pet-eye)"></circle><circle cx="49" cy="34" r="1.05" fill="var(--pet-eye)"></circle><path d="M38.25,29.25 Q41,28 42.5,29" fill="none" stroke="var(--pet-eye)" stroke-width="1.13" stroke-linecap="round" stroke-linejoin="round"></path><path d="M47.5,29 Q49,28 51.75,29.25" fill="none" stroke="var(--pet-eye)" stroke-width="1.13" stroke-linecap="round" stroke-linejoin="round"></path><ellipse cx="45" cy="41" rx="1.75" ry="2.25" fill="var(--pet-eye)"></ellipse></g><g class="mood m-playful" data-mood="playful"><path d="M38.5,34.5 Q41,31.75 43.5,34.5" fill="none" stroke="var(--pet-eye)" stroke-width="1.63" stroke-linecap="round" stroke-linejoin="round"></path><circle cx="49" cy="34" r="2.5" fill="var(--pet-eye)"></circle><path d="M42.25,39.25 Q45.5,42.25 48,38.75" fill="none" stroke="var(--pet-eye)" stroke-width="1.38" stroke-linecap="round" stroke-linejoin="round"></path><path d="M45.5,40.75 Q46.38,43 47.38,41.13 Z" fill="var(--pet-accent)"></path></g></g></svg>