<svg xmlns="http://www.w3.org/2000/svg" viewBox="0 0 64 64" data-mood="idle" role="img" aria-label="goat pet sprite"><g id="tail"><path class="tail" d="M14,42 Q9,40 9,46" fill="none" stroke="currentColor" stroke-width="3.4" stroke-linecap="round"></path></g><g id="legs"><rect class="leg-back" x="21" y="48" width="5" height="12" rx="2.5" fill="currentColor"></rect><rect class="leg-front" x="33" y="48" width="5" height="12" rx="2.5" fill="currentColor"></rect></g><g id="body"><ellipse cx="27" cy="41" rx="14" ry="11" fill="currentColor"></ellipse><circle cx="46" cy="27" r="9.5" fill="currentColor"></circle><path d="M46,36 Q45,44 47,49" fill="none" stroke="var(--pet-accent)" stroke-width="3" stroke-linecap="round" opacity=".8"></path></g><g id="ears"><path d="M40,24 Q30,20 34,30" fill="none" stroke="var(--pet-accent)" stroke-width="2.6" stroke-linecap="round"></path><path d="M52,24 Q62,20 58,30" fill="none" stroke="var(--pet-accent)" stroke-width="2.6" stroke-linecap="round"></path><path d="M40,26 L35,24 M52,26 L57,24" stroke="currentColor" stroke-width="3.4" stroke-linecap="round"></path></g><g id="face"><g class="mood m-idle" data-mood="idle"><circle cx="43" cy="27" r="2.4" fill="var(--pet-eye)"></circle><circle cx="50" cy="27" r="2.4" fill="var(--pet-eye)"></circle></g><g class="mood m-focused" data-mood="focused"><path d="M39.4,24.72 L44.44,27.24" fill="none" stroke="var(--pet-eye)" stroke-width="2.52" stroke-linecap="round" stroke-linejoin="round"></path><path d="M53.6,24.72 L48.56,27.24" fill="none" stroke="var(--pet-eye)" stroke-width="2.52" stroke-linecap="round" stroke-linejoin="round"></path><circle cx="43.24" cy="28.44" r="1.25" fill="var(--pet-eye)"></circle><circle cx="49.76" cy="28.44" r="1.25" fill="var(--pet-eye)"></circle><path d="M44.34,32.76 H48.66" fill="none" stroke="var(--pet-eye)" stroke-width="1.2" stroke-linecap="round" stroke-linejoin="round"></path></g><g class="mood m-happy" data-mood="happy"><path d="M40.6,27.84 L43,25.32 L45.4,27.84" fill="none" stroke="var(--pet-eye)" stroke-width="1.56" stroke-linecap="round" stroke-linejoin="round"></path><path d="M47.6,27.84 L50,25.32 L52.4,27.84" fill="none" stroke="var(--pet-eye)" stroke-width="1.56" stroke-linecap="round" stroke-linejoin="round"></path><path d="M43.86,32.04 Q46.5,35.4 49.14,32.04" fill="none" stroke="var(--pet-eye)" stroke-width="1.44" stroke-linecap="round" stroke-linejoin="round"></path></g><g class="mood m-celebrate" data-mood="celebrate"><path d="M43,24.24 Q43,27 45.76,27 Q43,27 43,29.76 Q43,27 40.24,27 Q43,27 43,24.24 Z" fill="var(--pet-accent)"></path><path d="M50,24.24 Q50,27 52.76,27 Q50,27 50,29.76 Q50,27 47.24,27 Q50,27 50,24.24 Z" fill="var(--pet-accent)"></path><path d="M56.24,16.48 Q56.24,18.4 58.16,18.4 Q56.24,18.4 56.24,20.32 Q56.24,18.4 54.32,18.4 Q56.24,18.4 56.24,16.48 Z" fill="var(--pet-accent)"></path><path d="M37.24,13.6 Q37.24,15.04 38.68,15.04 Q37.24,15.04 37.24,16.48 Q37.24,15.04 35.8,15.04 Q37.24,15.04 37.24,13.6 Z" fill="var(--pet-accent)"></path><path d="M43.86,32.04 Q46.5,35.88 49.14,32.04" fill="none" stroke="var(--pet-eye)" stroke-width="1.44" stroke-linecap="round" stroke-linejoin="round"></path></g><g class="mood m-sleep" data-mood="sleep"><path d="M40.6,27 Q43,29.64 45.4,27" fill="none" stroke="var(--pet-eye)" stroke-width="1.44" stroke-linecap="round" stroke-linejoin="round"></path><path d="M47.6,27 Q50,29.64 52.4,27" fill="none" stroke="var(--pet-eye)" stroke-width="1.44" stroke-linecap="round" stroke-linejoin="round"></path><path d="M56.24,20.8 h2.64 l-2.64,2.64 h2.64" fill="none" stroke="var(--pet-eye)" stroke-width="0.9" stroke-linecap="round" stroke-linejoin="round"></path><path d="M59.6,16 h3.36 l-3.36,3.36 h3.36" fill="none" stroke="var(--pet-eye)" stroke-width="1.14" stroke-linecap="round" stroke-linejoin="round"></path><path d="M63.68,11.2 h4.08 l-4.08,4.08 h4.08" fill="none" stroke="var(--pet-eye)" stroke-width="1.39" stroke-linecap="round" stroke-linejoin="round"></path></g><g class="mood m-confused" data-mood="confused"><circle cx="43" cy="27" r="2.28" fill="var(--pet-eye)"></circle><path d="M47.6,26.52 q1.2,-1.92 2.4,0 q1.2,1.92 2.4,0" fill="none" stroke="var(--pet-eye)" stroke-width="1.44" stroke-linecap="round" stroke-linejoin="round"></path><path d="M54.92,17.86 Q54.92,14.44 57.44,14.44 Q60.14,14.44 59.96,17.32 Q59.24,19.12 57.44,20.02" fill="none" stroke="var(--pet-eye)" stroke-width="1.22" stroke-linecap="round" stroke-linejoin="round"></path><circle cx="57.44" cy="22.36" r="0.72" fill="var(--pet-eye)"></circle></g><g class="mood m-tired" data-mood="tired"><path d="M40.6,26.76 Q43,24.12 45.4,26.76" fill="none" stroke="var(--pet-eye)" stroke-width="1.68" stroke-linecap="round" stroke-linejoin="round"></path><path d="M47.6,26.76 Q50,24.12 52.4,26.76" fill="none" stroke="var(--pet-eye)" stroke-width="1.68" stroke-linecap="round" stroke-linejoin="round"></path><circle cx="43" cy="27.36" r="1.01" fill="var(--pet-eye)"></circle><circle cx="50" cy="27.36" r="1.01" fill="var(--pet-eye)"></circle><path d="M41.32,30.12 Q43,31.56 44.68,30.12" fill="none" stroke="var(--pet-eye)" stroke-width="0.86" stroke-linecap="round" stroke-linejoin="round"></path><path d="M48.32,30.12 Q50,31.56 51.68,30.12" fill="none" stroke="var(--pet-eye)" stroke-width="0.86" stroke-linecap="round" stroke-linejoin="round"></path></g><g class="mood m-love" data-mood="love"><path d="M43,29.28 C39.81,26.32 41.86,24.38 43,26.27 C44.14,24.38 46.19,26.32 43,29.28 Z" fill="var(--pet-accent)"></path><path d="M50,29.28 C46.81,26.32 48.86,24.38 50,26.27 C51.14,24.38 53.19,26.32 50,29.28 Z" fill="var(--pet-accent)"></path><path d="M44.1,32.28 Q46.5,35.16 48.9,32.28" fill="none" stroke="var(--pet-eye)" stroke-width="1.32" stroke-linecap="round" stroke-linejoin="round"></path></g><g class="mood m-surprised" data-mood="surprised"><circle cx="43" cy="27" r="2.76" fill="none" stroke="var(--pet-eye)" stroke-width="1.2"></circle><circle cx="50" cy="27" r="2.76" fill="none" stroke="var(--pet-eye)" stroke-width="1.2"></circle><circle cx="43" cy="27" r="1.01" fill="var(--pet-eye)"></circle><circle cx="50" cy="27" r="1.01" fill="var(--pet-eye)"></circle><path d="M40.36,22.44 Q43,21.24 44.44,22.2" fill="none" stroke="var(--pet-eye)" stroke-width="1.08" stroke-linecap="round" stroke-linejoin="round"></path><path d="M48.56,22.2 Q50,21.24 52.64,22.44" fill="none" stroke="var(--pet-eye)" stroke-width="1.08" stroke-linecap="round" stroke-linejoin="round"></path><ellipse cx="46.5" cy="33.72" rx="1.68" ry="2.16" fill="var(--pet-eye)"></ellipse></g><g class="mood m-playful" data-mood="playful"><path d="M40.6,27.48 Q43,24.84 45.4,27.48" fill="none" stroke="var(--pet-eye)" stroke-width="1.56" stroke-linecap="round" stroke-linejoin="round"></path><circle cx="50" cy="27" r="2.4" fill="var(--pet-eye)"></circle><path d="M43.86,32.04 Q46.98,34.92 49.38,31.56" fill="none" stroke="var(--pet-eye)" stroke-width="1.32" stroke-linecap="round" stroke-linejoin="round"></path><path d="M46.98,33.48 Q47.82,35.64 48.78,33.84 Z" fill="var(--pet-accent)"></path></g></g></svg>