<svg xmlns="http://www.w3.org/2000/svg" viewBox="0 0 64 64" data-mood="idle" role="img" aria-label="hedgehog pet sprite"><g id="legs"><rect id="leg-back" class="leg-back" x="22" y="49" width="5" height="8" rx="2.5" fill="currentColor"></rect><rect id="leg-front" class="leg-front" x="38" y="49" width="5" height="8" rx="2.5" fill="currentColor"></rect></g><g id="body"><ellipse cx="30" cy="44" rx="19" ry="12" fill="currentColor"></ellipse><path d="M14 40 L16.6 33 L19.2 40 Z" fill="currentColor"></path><path d="M18 35 L20.6 28 L23.2 35 Z" fill="currentColor"></path><path d="M23 31 L25.6 24 L28.2 31 Z" fill="currentColor"></path><path d="M28 29 L30.6 22 L33.2 29 Z" fill="currentColor"></path><path d="M33 30 L35.6 23 L38.2 30 Z" fill="currentColor"></path><path d="M38 33 L40.6 26 L43.2 33 Z" fill="currentColor"></path><path d="M44,42 Q54,42 53,48 Q50,52 44,50 Z" fill="currentColor"></path><ellipse cx="34" cy="50" rx="12" ry="4.5" fill="var(--pet-accent)" opacity=".3"></ellipse><circle cx="52" cy="47" r="1.5" fill="var(--pet-eye)"></circle></g><g id="face"><g class="mood m-idle" data-mood="idle"><circle cx="42" cy="43" r="2.2" fill="var(--pet-eye)"></circle><circle cx="48.5" cy="43" r="2.2" fill="var(--pet-eye)"></circle></g><g class="mood m-focused" data-mood="focused"><path d="M39.2 40.4 L44.4 42.2" stroke="var(--pet-eye)" fill="none" stroke-linecap="round" stroke-linejoin="round" stroke-width="1.6"></path><path d="M51.3 40.4 L46.1 42.2" stroke="var(--pet-eye)" fill="none" stroke-linecap="round" stroke-linejoin="round" stroke-width="1.6"></path><circle cx="42" cy="43.4" r="1.35" fill="var(--pet-eye)"></circle><circle cx="48.5" cy="43.4" r="1.35" fill="var(--pet-eye)"></circle><path d="M42.65 48.9 H47.85" stroke="var(--pet-eye)" fill="none" stroke-linecap="round" stroke-linejoin="round" stroke-width="1.3"></path></g><g class="mood m-happy" data-mood="happy"><path d="M39.2 43.8 L42 40.4 L44.8 43.8" stroke="var(--pet-eye)" fill="none" stroke-linecap="round" stroke-linejoin="round" stroke-width="1.7"></path><path d="M45.7 43.8 L48.5 40.4 L51.3 43.8" stroke="var(--pet-eye)" fill="none" stroke-linecap="round" stroke-linejoin="round" stroke-width="1.7"></path><path d="M41.85 48.1 Q45.25 51.7 48.65 48.1" stroke="var(--pet-eye)" fill="none" stroke-linecap="round" stroke-linejoin="round" stroke-width="1.4"></path></g><g class="mood m-celebrate" data-mood="celebrate"><path d="M42 40 L42.96 42.04 L45 43 L42.96 43.96 L42 46 L41.04 43.96 L39 43 L41.04 42.04 Z" fill="var(--pet-accent)"></path><path d="M48.5 40 L49.46 42.04 L51.5 43 L49.46 43.96 L48.5 46 L47.54 43.96 L45.5 43 L47.54 42.04 Z" fill="var(--pet-accent)"></path><path d="M54 27.9 L54.67 29.33 L56.1 30 L54.67 30.67 L54 32.1 L53.33 30.67 L51.9 30 L53.33 29.33 Z" fill="var(--pet-accent)"></path><ellipse cx="45.25" cy="49.1" rx="2.2" ry="2" fill="var(--pet-eye)"></ellipse></g><g class="mood m-sleep" data-mood="sleep"><path d="M39.2 42.6 Q42 45.6 44.8 42.6" stroke="var(--pet-eye)" fill="none" stroke-linecap="round" stroke-linejoin="round" stroke-width="1.4"></path><path d="M45.7 42.6 Q48.5 45.6 51.3 42.6" stroke="var(--pet-eye)" fill="none" stroke-linecap="round" stroke-linejoin="round" stroke-width="1.4"></path><path d="M42.65 48.5 Q45.25 50.1 47.85 48.5" stroke="var(--pet-eye)" fill="none" stroke-linecap="round" stroke-linejoin="round" stroke-width="1.2"></path><g fill="none" stroke="var(--pet-eye)" stroke-width="1.1" stroke-linecap="round" stroke-linejoin="round"><path d="M54 30 h2.2 l-2.2 2.31 h2.2"></path><path d="M57.4 25.8 h2.8 l-2.8 2.94 h2.8"></path><path d="M61.4 21 h3.4 l-3.4 3.57 h3.4"></path></g></g><g class="mood m-confused" data-mood="confused"><circle cx="42" cy="43" r="2.2" fill="var(--pet-eye)"></circle><path d="M45.7 43 q1.4 -2 2.8 0 q1.4 2 2.8 0" stroke="var(--pet-eye)" fill="none" stroke-linecap="round" stroke-linejoin="round" stroke-width="1.5"></path><path d="M42.85 49.1 Q45.25 48.1 47.65 49.1" stroke="var(--pet-eye)" fill="none" stroke-linecap="round" stroke-linejoin="round" stroke-width="1.2"></path><path d="M53 30 Q53 26.4 56.4 26.4 Q59.9 26.4 59.9 29.4 Q59.9 32 56.4 33 V34.6" fill="none" stroke="var(--pet-eye)" stroke-width="1.7" stroke-linecap="round" stroke-linejoin="round"></path><circle cx="56.4" cy="37.4" r="1.15" fill="var(--pet-eye)"></circle></g><g class="mood m-tired" data-mood="tired"><path d="M39.2 42.6 Q42 44.4 44.8 42.6" stroke="var(--pet-eye)" fill="none" stroke-linecap="round" stroke-linejoin="round" stroke-width="1.8"></path><path d="M39.8 44.8 Q42 45.8 44.2 44.8" stroke="var(--pet-eye)" fill="none" stroke-linecap="round" stroke-linejoin="round" stroke-width="1"></path><path d="M45.7 42.6 Q48.5 44.4 51.3 42.6" stroke="var(--pet-eye)" fill="none" stroke-linecap="round" stroke-linejoin="round" stroke-width="1.8"></path><path d="M46.3 44.8 Q48.5 45.8 50.7 44.8" stroke="var(--pet-eye)" fill="none" stroke-linecap="round" stroke-linejoin="round" stroke-width="1"></path><path d="M42.65 49.1 Q45.25 49.8 47.85 49.1" stroke="var(--pet-eye)" fill="none" stroke-linecap="round" stroke-linejoin="round" stroke-width="1.2"></path></g><g class="mood m-love" data-mood="love"><path d="M42 45.55 C 39 42.4 40.35 40 42 42.25 C 43.65 40 45 42.4 42 45.55 Z" fill="var(--pet-accent)"></path><path d="M48.5 45.55 C 45.5 42.4 46.85 40 48.5 42.25 C 50.15 40 51.5 42.4 48.5 45.55 Z" fill="var(--pet-accent)"></path><path d="M41.85 48.1 Q45.25 51.5 48.65 48.1" stroke="var(--pet-eye)" fill="none" stroke-linecap="round" stroke-linejoin="round" stroke-width="1.4"></path></g><g class="mood m-surprised" data-mood="surprised"><circle cx="42" cy="43" r="2.53" fill="none" stroke="var(--pet-eye)" stroke-width="1.1"></circle><circle cx="48.5" cy="43" r="2.53" fill="none" stroke="var(--pet-eye)" stroke-width="1.1"></circle><circle cx="42" cy="43" r="0.92" fill="var(--pet-eye)"></circle><circle cx="48.5" cy="43" r="0.92" fill="var(--pet-eye)"></circle><path d="M39.58,38.82 Q42,37.72 43.32,38.6" fill="none" stroke="var(--pet-eye)" stroke-width="0.99" stroke-linecap="round" stroke-linejoin="round"></path><path d="M47.18,38.6 Q48.5,37.72 50.92,38.82" fill="none" stroke="var(--pet-eye)" stroke-width="0.99" stroke-linecap="round" stroke-linejoin="round"></path><ellipse cx="45.25" cy="49.16" rx="1.54" ry="1.98" fill="var(--pet-eye)"></ellipse></g><g class="mood m-playful" data-mood="playful"><path d="M39.8,43.44 Q42,41.02 44.2,43.44" fill="none" stroke="var(--pet-eye)" stroke-width="1.43" stroke-linecap="round" stroke-linejoin="round"></path><circle cx="48.5" cy="43" r="2.2" fill="var(--pet-eye)"></circle><path d="M42.83,47.62 Q45.69,50.26 47.89,47.18" fill="none" stroke="var(--pet-eye)" stroke-width="1.21" stroke-linecap="round" stroke-linejoin="round"></path><path d="M45.69,48.94 Q46.46,50.92 47.34,49.27 Z" fill="var(--pet-accent)"></path></g></g></svg>