<svg xmlns="http://www.w3.org/2000/svg" viewBox="0 0 64 64" data-mood="idle" role="img" aria-label="heron pet sprite"><g id="tail"><path class="tail" d="M20,48 L16,60 M24,48 L22,60" stroke="var(--pet-accent)" stroke-width="2" stroke-linecap="round"></path></g><g id="legs"><path class="leg-back" d="M26,42 Q14,40 12,50 Q18,49 26,46 Z" fill="currentColor"></path><path class="leg-front" d="M28,44 Q16,44 15,54 Q21,52 28,48 Z" fill="var(--pet-accent)" opacity=".6"></path></g><g id="body"><ellipse cx="30" cy="40" rx="11" ry="13" fill="currentColor"></ellipse><path d="M34,32 Q42,26 38,18 Q36,14 42,12" fill="none" stroke="currentColor" stroke-width="6" stroke-linecap="round"></path><circle cx="43" cy="13" r="6" fill="currentColor"></circle><path d="M48,13 L60,14 L48,16 Z" fill="var(--pet-eye)"></path><path d="M40,10 L46,4" stroke="currentColor" stroke-width="1.6" stroke-linecap="round"></path></g><g id="face"><g class="mood m-idle" data-mood="idle"><circle cx="41" cy="12" r="1.9" fill="var(--pet-eye)"></circle><circle cx="46" cy="12" r="1.9" fill="var(--pet-eye)"></circle></g><g class="mood m-focused" data-mood="focused"><path d="M38.15,10.2 L42.14,12.19" fill="none" stroke="var(--pet-eye)" stroke-width="2" stroke-linecap="round" stroke-linejoin="round"></path><path d="M48.85,10.2 L44.86,12.19" fill="none" stroke="var(--pet-eye)" stroke-width="2" stroke-linecap="round" stroke-linejoin="round"></path><circle cx="41.19" cy="13.14" r="0.99" fill="var(--pet-eye)"></circle><circle cx="45.81" cy="13.14" r="0.99" fill="var(--pet-eye)"></circle><path d="M41.79,16.56 H45.21" fill="none" stroke="var(--pet-eye)" stroke-width="0.95" stroke-linecap="round" stroke-linejoin="round"></path></g><g class="mood m-happy" data-mood="happy"><path d="M39.1,12.67 L41,10.67 L42.9,12.67" fill="none" stroke="var(--pet-eye)" stroke-width="1.23" stroke-linecap="round" stroke-linejoin="round"></path><path d="M44.1,12.67 L46,10.67 L47.9,12.67" fill="none" stroke="var(--pet-eye)" stroke-width="1.23" stroke-linecap="round" stroke-linejoin="round"></path><path d="M41.41,15.99 Q43.5,18.65 45.59,15.99" fill="none" stroke="var(--pet-eye)" stroke-width="1.14" stroke-linecap="round" stroke-linejoin="round"></path></g><g class="mood m-celebrate" data-mood="celebrate"><path d="M41,9.82 Q41,12 43.19,12 Q41,12 41,14.18 Q41,12 38.82,12 Q41,12 41,9.82 Z" fill="var(--pet-accent)"></path><path d="M46,9.82 Q46,12 48.19,12 Q46,12 46,14.18 Q46,12 43.82,12 Q46,12 46,9.82 Z" fill="var(--pet-accent)"></path><path d="M50.94,4.38 Q50.94,5.9 52.46,5.9 Q50.94,5.9 50.94,7.42 Q50.94,5.9 49.42,5.9 Q50.94,5.9 50.94,4.38 Z" fill="var(--pet-accent)"></path><path d="M36.44,2.1 Q36.44,3.24 37.58,3.24 Q36.44,3.24 36.44,4.38 Q36.44,3.24 35.3,3.24 Q36.44,3.24 36.44,2.1 Z" fill="var(--pet-accent)"></path><path d="M41.41,15.99 Q43.5,19.03 45.59,15.99" fill="none" stroke="var(--pet-eye)" stroke-width="1.14" stroke-linecap="round" stroke-linejoin="round"></path></g><g class="mood m-sleep" data-mood="sleep"><path d="M39.1,12 Q41,14.09 42.9,12" fill="none" stroke="var(--pet-eye)" stroke-width="1.14" stroke-linecap="round" stroke-linejoin="round"></path><path d="M44.1,12 Q46,14.09 47.9,12" fill="none" stroke="var(--pet-eye)" stroke-width="1.14" stroke-linecap="round" stroke-linejoin="round"></path><path d="M50.94,7.8 h2.09 l-2.09,2.09 h2.09" fill="none" stroke="var(--pet-eye)" stroke-width="0.71" stroke-linecap="round" stroke-linejoin="round"></path><path d="M53.6,4 h2.66 l-2.66,2.66 h2.66" fill="none" stroke="var(--pet-eye)" stroke-width="0.9" stroke-linecap="round" stroke-linejoin="round"></path><path d="M56.83,0.2 h3.23 l-3.23,3.23 h3.23" fill="none" stroke="var(--pet-eye)" stroke-width="1.1" stroke-linecap="round" stroke-linejoin="round"></path></g><g class="mood m-confused" data-mood="confused"><circle cx="41" cy="12" r="1.81" fill="var(--pet-eye)"></circle><path d="M44.1,11.62 q0.95,-1.52 1.9,0 q0.95,1.52 1.9,0" fill="none" stroke="var(--pet-eye)" stroke-width="1.14" stroke-linecap="round" stroke-linejoin="round"></path><path d="M49.9,5.47 Q49.9,2.77 51.89,2.77 Q54.03,2.77 53.89,5.05 Q53.32,6.47 51.89,7.18" fill="none" stroke="var(--pet-eye)" stroke-width="0.97" stroke-linecap="round" stroke-linejoin="round"></path><circle cx="51.89" cy="9.04" r="0.57" fill="var(--pet-eye)"></circle></g><g class="mood m-tired" data-mood="tired"><path d="M39.1,11.81 Q41,9.72 42.9,11.81" fill="none" stroke="var(--pet-eye)" stroke-width="1.33" stroke-linecap="round" stroke-linejoin="round"></path><path d="M44.1,11.81 Q46,9.72 47.9,11.81" fill="none" stroke="var(--pet-eye)" stroke-width="1.33" stroke-linecap="round" stroke-linejoin="round"></path><circle cx="41" cy="12.29" r="0.8" fill="var(--pet-eye)"></circle><circle cx="46" cy="12.29" r="0.8" fill="var(--pet-eye)"></circle><path d="M39.67,14.47 Q41,15.61 42.33,14.47" fill="none" stroke="var(--pet-eye)" stroke-width="0.68" stroke-linecap="round" stroke-linejoin="round"></path><path d="M44.67,14.47 Q46,15.61 47.33,14.47" fill="none" stroke="var(--pet-eye)" stroke-width="0.68" stroke-linecap="round" stroke-linejoin="round"></path></g><g class="mood m-love" data-mood="love"><path d="M41,13.81 C38.47,11.46 40.1,9.92 41,11.42 C41.9,9.92 43.53,11.46 41,13.81 Z" fill="var(--pet-accent)"></path><path d="M46,13.81 C43.47,11.46 45.1,9.92 46,11.42 C46.9,9.92 48.53,11.46 46,13.81 Z" fill="var(--pet-accent)"></path><path d="M41.6,16.18 Q43.5,18.46 45.4,16.18" fill="none" stroke="var(--pet-eye)" stroke-width="1.05" stroke-linecap="round" stroke-linejoin="round"></path></g><g class="mood m-surprised" data-mood="surprised"><circle cx="41" cy="12" r="2.18" fill="none" stroke="var(--pet-eye)" stroke-width="0.95"></circle><circle cx="46" cy="12" r="2.18" fill="none" stroke="var(--pet-eye)" stroke-width="0.95"></circle><circle cx="41" cy="12" r="0.8" fill="var(--pet-eye)"></circle><circle cx="46" cy="12" r="0.8" fill="var(--pet-eye)"></circle><path d="M38.91,8.39 Q41,7.44 42.14,8.2" fill="none" stroke="var(--pet-eye)" stroke-width="0.86" stroke-linecap="round" stroke-linejoin="round"></path><path d="M44.86,8.2 Q46,7.44 48.09,8.39" fill="none" stroke="var(--pet-eye)" stroke-width="0.86" stroke-linecap="round" stroke-linejoin="round"></path><ellipse cx="43.5" cy="17.32" rx="1.33" ry="1.71" fill="var(--pet-eye)"></ellipse></g><g class="mood m-playful" data-mood="playful"><path d="M39.1,12.38 Q41,10.29 42.9,12.38" fill="none" stroke="var(--pet-eye)" stroke-width="1.23" stroke-linecap="round" stroke-linejoin="round"></path><circle cx="46" cy="12" r="1.9" fill="var(--pet-eye)"></circle><path d="M41.41,15.99 Q43.88,18.27 45.78,15.61" fill="none" stroke="var(--pet-eye)" stroke-width="1.05" stroke-linecap="round" stroke-linejoin="round"></path><path d="M43.88,17.13 Q44.55,18.84 45.31,17.42 Z" fill="var(--pet-accent)"></path></g></g></svg>