<svg xmlns="http://www.w3.org/2000/svg" viewBox="0 0 64 64" data-mood="idle" role="img" aria-label="lavaslug pet sprite"><g id="tail"><path class="tail" d="M12,50 Q6,50 8,54 Q14,54 18,51 Z" fill="var(--pet-accent)"></path></g><g id="legs"><path class="leg-back" d="M22,50 Q26,55 30,50 Z" fill="var(--pet-accent)"></path><path class="leg-front" d="M36,50 Q40,55 44,50 Z" fill="var(--pet-accent)"></path></g><g id="body"><path d="M12,50 Q12,34 34,34 Q52,34 52,46 Q52,52 30,52 Q14,52 12,50 Z" fill="currentColor"></path><path d="M14,50 Q34,46 50,48 Q48,53 30,53 Q16,53 14,50 Z" fill="var(--pet-accent)"></path><path d="M20,40 L26,42 M30,37 L35,41 M40,38 L45,43" stroke="var(--pet-accent)" stroke-width="1.6" stroke-linecap="round" opacity=".8"></path><circle cx="46" cy="32" r="6.5" fill="currentColor"></circle><path d="M42,28 V20 M50,28 V20" stroke="currentColor" stroke-width="2" stroke-linecap="round"></path><circle cx="42" cy="19" r="2" fill="currentColor"></circle><circle cx="50" cy="19" r="2" fill="currentColor"></circle></g><g id="face"><g class="mood m-idle" data-mood="idle"><circle cx="43" cy="32" r="2" fill="var(--pet-eye)"></circle><circle cx="49" cy="32" r="2" fill="var(--pet-eye)"></circle></g><g class="mood m-focused" data-mood="focused"><path d="M40,30.1 L44.2,32.2" fill="none" stroke="var(--pet-eye)" stroke-width="2.1" stroke-linecap="round" stroke-linejoin="round"></path><path d="M52,30.1 L47.8,32.2" fill="none" stroke="var(--pet-eye)" stroke-width="2.1" stroke-linecap="round" stroke-linejoin="round"></path><circle cx="43.2" cy="33.2" r="1.04" fill="var(--pet-eye)"></circle><circle cx="48.8" cy="33.2" r="1.04" fill="var(--pet-eye)"></circle><path d="M44.2,36.8 H47.8" fill="none" stroke="var(--pet-eye)" stroke-width="1" stroke-linecap="round" stroke-linejoin="round"></path></g><g class="mood m-happy" data-mood="happy"><path d="M41,32.7 L43,30.6 L45,32.7" fill="none" stroke="var(--pet-eye)" stroke-width="1.3" stroke-linecap="round" stroke-linejoin="round"></path><path d="M47,32.7 L49,30.6 L51,32.7" fill="none" stroke="var(--pet-eye)" stroke-width="1.3" stroke-linecap="round" stroke-linejoin="round"></path><path d="M43.8,36.2 Q46,39 48.2,36.2" fill="none" stroke="var(--pet-eye)" stroke-width="1.2" stroke-linecap="round" stroke-linejoin="round"></path></g><g class="mood m-celebrate" data-mood="celebrate"><path d="M43,29.7 Q43,32 45.3,32 Q43,32 43,34.3 Q43,32 40.7,32 Q43,32 43,29.7 Z" fill="var(--pet-accent)"></path><path d="M49,29.7 Q49,32 51.3,32 Q49,32 49,34.3 Q49,32 46.7,32 Q49,32 49,29.7 Z" fill="var(--pet-accent)"></path><path d="M54.2,22.4 Q54.2,24 55.8,24 Q54.2,24 54.2,25.6 Q54.2,24 52.6,24 Q54.2,24 54.2,22.4 Z" fill="var(--pet-accent)"></path><path d="M38.2,20 Q38.2,21.2 39.4,21.2 Q38.2,21.2 38.2,22.4 Q38.2,21.2 37,21.2 Q38.2,21.2 38.2,20 Z" fill="var(--pet-accent)"></path><path d="M43.8,36.2 Q46,39.4 48.2,36.2" fill="none" stroke="var(--pet-eye)" stroke-width="1.2" stroke-linecap="round" stroke-linejoin="round"></path></g><g class="mood m-sleep" data-mood="sleep"><path d="M41,32 Q43,34.2 45,32" fill="none" stroke="var(--pet-eye)" stroke-width="1.2" stroke-linecap="round" stroke-linejoin="round"></path><path d="M47,32 Q49,34.2 51,32" fill="none" stroke="var(--pet-eye)" stroke-width="1.2" stroke-linecap="round" stroke-linejoin="round"></path><path d="M54.2,26 h2.2 l-2.2,2.2 h2.2" fill="none" stroke="var(--pet-eye)" stroke-width="0.75" stroke-linecap="round" stroke-linejoin="round"></path><path d="M57,22 h2.8 l-2.8,2.8 h2.8" fill="none" stroke="var(--pet-eye)" stroke-width="0.95" stroke-linecap="round" stroke-linejoin="round"></path><path d="M60.4,18 h3.4 l-3.4,3.4 h3.4" fill="none" stroke="var(--pet-eye)" stroke-width="1.16" stroke-linecap="round" stroke-linejoin="round"></path></g><g class="mood m-confused" data-mood="confused"><circle cx="43" cy="32" r="1.9" fill="var(--pet-eye)"></circle><path d="M47,31.6 q1,-1.6 2,0 q1,1.6 2,0" fill="none" stroke="var(--pet-eye)" stroke-width="1.2" stroke-linecap="round" stroke-linejoin="round"></path><path d="M53.1,23.55 Q53.1,20.7 55.2,20.7 Q57.45,20.7 57.3,23.1 Q56.7,24.6 55.2,25.35" fill="none" stroke="var(--pet-eye)" stroke-width="1.02" stroke-linecap="round" stroke-linejoin="round"></path><circle cx="55.2" cy="27.3" r="0.6" fill="var(--pet-eye)"></circle></g><g class="mood m-tired" data-mood="tired"><path d="M41,31.8 Q43,29.6 45,31.8" fill="none" stroke="var(--pet-eye)" stroke-width="1.4" stroke-linecap="round" stroke-linejoin="round"></path><path d="M47,31.8 Q49,29.6 51,31.8" fill="none" stroke="var(--pet-eye)" stroke-width="1.4" stroke-linecap="round" stroke-linejoin="round"></path><circle cx="43" cy="32.3" r="0.84" fill="var(--pet-eye)"></circle><circle cx="49" cy="32.3" r="0.84" fill="var(--pet-eye)"></circle><path d="M41.6,34.6 Q43,35.8 44.4,34.6" fill="none" stroke="var(--pet-eye)" stroke-width="0.72" stroke-linecap="round" stroke-linejoin="round"></path><path d="M47.6,34.6 Q49,35.8 50.4,34.6" fill="none" stroke="var(--pet-eye)" stroke-width="0.72" stroke-linecap="round" stroke-linejoin="round"></path></g><g class="mood m-love" data-mood="love"><path d="M43,33.9 C40.34,31.43 42.05,29.82 43,31.39 C43.95,29.82 45.66,31.43 43,33.9 Z" fill="var(--pet-accent)"></path><path d="M49,33.9 C46.34,31.43 48.05,29.82 49,31.39 C49.95,29.82 51.66,31.43 49,33.9 Z" fill="var(--pet-accent)"></path><path d="M44,36.4 Q46,38.8 48,36.4" fill="none" stroke="var(--pet-eye)" stroke-width="1.1" stroke-linecap="round" stroke-linejoin="round"></path></g><g class="mood m-surprised" data-mood="surprised"><circle cx="43" cy="32" r="2.3" fill="none" stroke="var(--pet-eye)" stroke-width="1"></circle><circle cx="49" cy="32" r="2.3" fill="none" stroke="var(--pet-eye)" stroke-width="1"></circle><circle cx="43" cy="32" r="0.84" fill="var(--pet-eye)"></circle><circle cx="49" cy="32" r="0.84" fill="var(--pet-eye)"></circle><path d="M40.8,28.2 Q43,27.2 44.2,28" fill="none" stroke="var(--pet-eye)" stroke-width="0.9" stroke-linecap="round" stroke-linejoin="round"></path><path d="M47.8,28 Q49,27.2 51.2,28.2" fill="none" stroke="var(--pet-eye)" stroke-width="0.9" stroke-linecap="round" stroke-linejoin="round"></path><ellipse cx="46" cy="37.6" rx="1.4" ry="1.8" fill="var(--pet-eye)"></ellipse></g><g class="mood m-playful" data-mood="playful"><path d="M41,32.4 Q43,30.2 45,32.4" fill="none" stroke="var(--pet-eye)" stroke-width="1.3" stroke-linecap="round" stroke-linejoin="round"></path><circle cx="49" cy="32" r="2" fill="var(--pet-eye)"></circle><path d="M43.8,36.2 Q46.4,38.6 48.4,35.8" fill="none" stroke="var(--pet-eye)" stroke-width="1.1" stroke-linecap="round" stroke-linejoin="round"></path><path d="M46.4,37.4 Q47.1,39.2 47.9,37.7 Z" fill="var(--pet-accent)"></path></g></g></svg>