<svg xmlns="http://www.w3.org/2000/svg" viewBox="0 0 64 64" data-mood="idle" role="img" aria-label="lion pet sprite"><g id="tail"><path class="tail" d="M16,48 Q5,46 7,36" fill="none" stroke="currentColor" stroke-width="4" stroke-linecap="round"></path><circle cx="7" cy="35" r="3.4" fill="var(--pet-accent)"></circle></g><g id="legs"><rect class="leg-back" x="21" y="49" width="7" height="11" rx="3.5" fill="currentColor"></rect><rect class="leg-front" x="35" y="49" width="7" height="11" rx="3.5" fill="currentColor"></rect></g><g id="body"><ellipse cx="28" cy="42" rx="15" ry="12" fill="currentColor"></ellipse><circle cx="45" cy="25" r="13" fill="var(--pet-accent)" opacity=".55"></circle><circle cx="45" cy="26" r="10" fill="currentColor"></circle></g><g id="ears"><circle cx="38" cy="17" r="3.4" fill="currentColor"></circle><circle cx="53" cy="17" r="3.4" fill="currentColor"></circle></g><g id="face"><g class="mood m-idle" data-mood="idle"><circle cx="41" cy="25" r="2.6" fill="var(--pet-eye)"></circle><circle cx="49" cy="25" r="2.6" fill="var(--pet-eye)"></circle></g><g class="mood m-focused" data-mood="focused"><path d="M37.1,22.53 L42.56,25.26" fill="none" stroke="var(--pet-eye)" stroke-width="2.73" stroke-linecap="round" stroke-linejoin="round"></path><path d="M52.9,22.53 L47.44,25.26" fill="none" stroke="var(--pet-eye)" stroke-width="2.73" stroke-linecap="round" stroke-linejoin="round"></path><circle cx="41.26" cy="26.56" r="1.35" fill="var(--pet-eye)"></circle><circle cx="48.74" cy="26.56" r="1.35" fill="var(--pet-eye)"></circle><path d="M42.66,31.24 H47.34" fill="none" stroke="var(--pet-eye)" stroke-width="1.3" stroke-linecap="round" stroke-linejoin="round"></path></g><g class="mood m-happy" data-mood="happy"><path d="M38.4,25.91 L41,23.18 L43.6,25.91" fill="none" stroke="var(--pet-eye)" stroke-width="1.69" stroke-linecap="round" stroke-linejoin="round"></path><path d="M46.4,25.91 L49,23.18 L51.6,25.91" fill="none" stroke="var(--pet-eye)" stroke-width="1.69" stroke-linecap="round" stroke-linejoin="round"></path><path d="M42.14,30.46 Q45,34.1 47.86,30.46" fill="none" stroke="var(--pet-eye)" stroke-width="1.56" stroke-linecap="round" stroke-linejoin="round"></path></g><g class="mood m-celebrate" data-mood="celebrate"><path d="M41,22.01 Q41,25 43.99,25 Q41,25 41,27.99 Q41,25 38.01,25 Q41,25 41,22.01 Z" fill="var(--pet-accent)"></path><path d="M49,22.01 Q49,25 51.99,25 Q49,25 49,27.99 Q49,25 46.01,25 Q49,25 49,22.01 Z" fill="var(--pet-accent)"></path><path d="M55.76,13.52 Q55.76,15.6 57.84,15.6 Q55.76,15.6 55.76,17.68 Q55.76,15.6 53.68,15.6 Q55.76,15.6 55.76,13.52 Z" fill="var(--pet-accent)"></path><path d="M34.76,10.4 Q34.76,11.96 36.32,11.96 Q34.76,11.96 34.76,13.52 Q34.76,11.96 33.2,11.96 Q34.76,11.96 34.76,10.4 Z" fill="var(--pet-accent)"></path><path d="M42.14,30.46 Q45,34.62 47.86,30.46" fill="none" stroke="var(--pet-eye)" stroke-width="1.56" stroke-linecap="round" stroke-linejoin="round"></path></g><g class="mood m-sleep" data-mood="sleep"><path d="M38.4,25 Q41,27.86 43.6,25" fill="none" stroke="var(--pet-eye)" stroke-width="1.56" stroke-linecap="round" stroke-linejoin="round"></path><path d="M46.4,25 Q49,27.86 51.6,25" fill="none" stroke="var(--pet-eye)" stroke-width="1.56" stroke-linecap="round" stroke-linejoin="round"></path><path d="M55.76,18.2 h2.86 l-2.86,2.86 h2.86" fill="none" stroke="var(--pet-eye)" stroke-width="0.97" stroke-linecap="round" stroke-linejoin="round"></path><path d="M59.4,13 h3.64 l-3.64,3.64 h3.64" fill="none" stroke="var(--pet-eye)" stroke-width="1.24" stroke-linecap="round" stroke-linejoin="round"></path><path d="M63.82,7.8 h4.42 l-4.42,4.42 h4.42" fill="none" stroke="var(--pet-eye)" stroke-width="1.5" stroke-linecap="round" stroke-linejoin="round"></path></g><g class="mood m-confused" data-mood="confused"><circle cx="41" cy="25" r="2.47" fill="var(--pet-eye)"></circle><path d="M46.4,24.48 q1.3,-2.08 2.6,0 q1.3,2.08 2.6,0" fill="none" stroke="var(--pet-eye)" stroke-width="1.56" stroke-linecap="round" stroke-linejoin="round"></path><path d="M54.33,15.02 Q54.33,11.31 57.06,11.31 Q59.98,11.31 59.79,14.43 Q59.01,16.38 57.06,17.36" fill="none" stroke="var(--pet-eye)" stroke-width="1.33" stroke-linecap="round" stroke-linejoin="round"></path><circle cx="57.06" cy="19.89" r="0.78" fill="var(--pet-eye)"></circle></g><g class="mood m-tired" data-mood="tired"><path d="M38.4,24.74 Q41,21.88 43.6,24.74" fill="none" stroke="var(--pet-eye)" stroke-width="1.82" stroke-linecap="round" stroke-linejoin="round"></path><path d="M46.4,24.74 Q49,21.88 51.6,24.74" fill="none" stroke="var(--pet-eye)" stroke-width="1.82" stroke-linecap="round" stroke-linejoin="round"></path><circle cx="41" cy="25.39" r="1.09" fill="var(--pet-eye)"></circle><circle cx="49" cy="25.39" r="1.09" fill="var(--pet-eye)"></circle><path d="M39.18,28.38 Q41,29.94 42.82,28.38" fill="none" stroke="var(--pet-eye)" stroke-width="0.94" stroke-linecap="round" stroke-linejoin="round"></path><path d="M47.18,28.38 Q49,29.94 50.82,28.38" fill="none" stroke="var(--pet-eye)" stroke-width="0.94" stroke-linecap="round" stroke-linejoin="round"></path></g><g class="mood m-love" data-mood="love"><path d="M41,27.47 C37.54,24.26 39.77,22.16 41,24.21 C42.24,22.16 44.46,24.26 41,27.47 Z" fill="var(--pet-accent)"></path><path d="M49,27.47 C45.54,24.26 47.77,22.16 49,24.21 C50.24,22.16 52.46,24.26 49,27.47 Z" fill="var(--pet-accent)"></path><path d="M42.4,30.72 Q45,33.84 47.6,30.72" fill="none" stroke="var(--pet-eye)" stroke-width="1.43" stroke-linecap="round" stroke-linejoin="round"></path></g><g class="mood m-surprised" data-mood="surprised"><circle cx="41" cy="25" r="2.99" fill="none" stroke="var(--pet-eye)" stroke-width="1.3"></circle><circle cx="49" cy="25" r="2.99" fill="none" stroke="var(--pet-eye)" stroke-width="1.3"></circle><circle cx="41" cy="25" r="1.09" fill="var(--pet-eye)"></circle><circle cx="49" cy="25" r="1.09" fill="var(--pet-eye)"></circle><path d="M38.14,20.06 Q41,18.76 42.56,19.8" fill="none" stroke="var(--pet-eye)" stroke-width="1.17" stroke-linecap="round" stroke-linejoin="round"></path><path d="M47.44,19.8 Q49,18.76 51.86,20.06" fill="none" stroke="var(--pet-eye)" stroke-width="1.17" stroke-linecap="round" stroke-linejoin="round"></path><ellipse cx="45" cy="32.28" rx="1.82" ry="2.34" fill="var(--pet-eye)"></ellipse></g><g class="mood m-playful" data-mood="playful"><path d="M38.4,25.52 Q41,22.66 43.6,25.52" fill="none" stroke="var(--pet-eye)" stroke-width="1.69" stroke-linecap="round" stroke-linejoin="round"></path><circle cx="49" cy="25" r="2.6" fill="var(--pet-eye)"></circle><path d="M42.14,30.46 Q45.52,33.58 48.12,29.94" fill="none" stroke="var(--pet-eye)" stroke-width="1.43" stroke-linecap="round" stroke-linejoin="round"></path><path d="M45.52,32.02 Q46.43,34.36 47.47,32.41 Z" fill="var(--pet-accent)"></path></g></g></svg>