<svg xmlns="http://www.w3.org/2000/svg" viewBox="0 0 64 64" data-mood="idle" role="img" aria-label="lizard pet sprite"><g id="tail"><path class="tail" d="M16,46 Q4,46 3,53 Q2,57 6,57" fill="none" stroke="currentColor" stroke-width="5" stroke-linecap="round"></path></g><g id="legs"><path class="leg-back" d="M22,48 L18,57 M22,48 L26,57" stroke="currentColor" stroke-width="3.2" stroke-linecap="round"></path><path class="leg-front" d="M40,48 L36,57 M40,48 L44,57" stroke="currentColor" stroke-width="3.2" stroke-linecap="round"></path></g><g id="body"><path d="M14,44 Q30,36 46,42 Q56,45 56,40 Q56,30 47,30 Q30,30 16,40 Z" fill="currentColor"></path><ellipse cx="50" cy="36" rx="7.5" ry="6.5" fill="currentColor"></ellipse><path d="M20,40 Q30,36 42,39" fill="none" stroke="var(--pet-accent)" stroke-width="2" stroke-linecap="round" opacity=".8"></path><circle cx="26" cy="40" r="1.6" fill="var(--pet-accent)"></circle><circle cx="34" cy="38.5" r="1.6" fill="var(--pet-accent)"></circle></g><g id="face"><g class="mood m-idle" data-mood="idle"><circle cx="48" cy="34" r="2.3" fill="var(--pet-eye)"></circle><circle cx="54" cy="34" r="2.3" fill="var(--pet-eye)"></circle></g><g class="mood m-focused" data-mood="focused"><path d="M44.55,31.82 L49.38,34.23" fill="none" stroke="var(--pet-eye)" stroke-width="2.42" stroke-linecap="round" stroke-linejoin="round"></path><path d="M57.45,31.82 L52.62,34.23" fill="none" stroke="var(--pet-eye)" stroke-width="2.42" stroke-linecap="round" stroke-linejoin="round"></path><circle cx="48.23" cy="35.38" r="1.2" fill="var(--pet-eye)"></circle><circle cx="53.77" cy="35.38" r="1.2" fill="var(--pet-eye)"></circle><path d="M48.93,39.52 H53.07" fill="none" stroke="var(--pet-eye)" stroke-width="1.15" stroke-linecap="round" stroke-linejoin="round"></path></g><g class="mood m-happy" data-mood="happy"><path d="M45.7,34.81 L48,32.39 L50.3,34.81" fill="none" stroke="var(--pet-eye)" stroke-width="1.5" stroke-linecap="round" stroke-linejoin="round"></path><path d="M51.7,34.81 L54,32.39 L56.3,34.81" fill="none" stroke="var(--pet-eye)" stroke-width="1.5" stroke-linecap="round" stroke-linejoin="round"></path><path d="M48.47,38.83 Q51,42.05 53.53,38.83" fill="none" stroke="var(--pet-eye)" stroke-width="1.38" stroke-linecap="round" stroke-linejoin="round"></path></g><g class="mood m-celebrate" data-mood="celebrate"><path d="M48,31.36 Q48,34 50.65,34 Q48,34 48,36.64 Q48,34 45.36,34 Q48,34 48,31.36 Z" fill="var(--pet-accent)"></path><path d="M54,31.36 Q54,34 56.65,34 Q54,34 54,36.64 Q54,34 51.36,34 Q54,34 54,31.36 Z" fill="var(--pet-accent)"></path><path d="M59.98,24.46 Q59.98,26.3 61.82,26.3 Q59.98,26.3 59.98,28.14 Q59.98,26.3 58.14,26.3 Q59.98,26.3 59.98,24.46 Z" fill="var(--pet-accent)"></path><path d="M42.48,21.7 Q42.48,23.08 43.86,23.08 Q42.48,23.08 42.48,24.46 Q42.48,23.08 41.1,23.08 Q42.48,23.08 42.48,21.7 Z" fill="var(--pet-accent)"></path><path d="M48.47,38.83 Q51,42.51 53.53,38.83" fill="none" stroke="var(--pet-eye)" stroke-width="1.38" stroke-linecap="round" stroke-linejoin="round"></path></g><g class="mood m-sleep" data-mood="sleep"><path d="M45.7,34 Q48,36.53 50.3,34" fill="none" stroke="var(--pet-eye)" stroke-width="1.38" stroke-linecap="round" stroke-linejoin="round"></path><path d="M51.7,34 Q54,36.53 56.3,34" fill="none" stroke="var(--pet-eye)" stroke-width="1.38" stroke-linecap="round" stroke-linejoin="round"></path><path d="M59.98,28.6 h2.53 l-2.53,2.53 h2.53" fill="none" stroke="var(--pet-eye)" stroke-width="0.86" stroke-linecap="round" stroke-linejoin="round"></path><path d="M63.2,24 h3.22 l-3.22,3.22 h3.22" fill="none" stroke="var(--pet-eye)" stroke-width="1.09" stroke-linecap="round" stroke-linejoin="round"></path><path d="M67.11,19.4 h3.91 l-3.91,3.91 h3.91" fill="none" stroke="var(--pet-eye)" stroke-width="1.33" stroke-linecap="round" stroke-linejoin="round"></path></g><g class="mood m-confused" data-mood="confused"><circle cx="48" cy="34" r="2.18" fill="var(--pet-eye)"></circle><path d="M51.7,33.54 q1.15,-1.84 2.3,0 q1.15,1.84 2.3,0" fill="none" stroke="var(--pet-eye)" stroke-width="1.38" stroke-linecap="round" stroke-linejoin="round"></path><path d="M58.72,25.78 Q58.72,22.51 61.13,22.51 Q63.72,22.51 63.54,25.27 Q62.86,26.99 61.13,27.85" fill="none" stroke="var(--pet-eye)" stroke-width="1.17" stroke-linecap="round" stroke-linejoin="round"></path><circle cx="61.13" cy="30.1" r="0.69" fill="var(--pet-eye)"></circle></g><g class="mood m-tired" data-mood="tired"><path d="M45.7,33.77 Q48,31.24 50.3,33.77" fill="none" stroke="var(--pet-eye)" stroke-width="1.61" stroke-linecap="round" stroke-linejoin="round"></path><path d="M51.7,33.77 Q54,31.24 56.3,33.77" fill="none" stroke="var(--pet-eye)" stroke-width="1.61" stroke-linecap="round" stroke-linejoin="round"></path><circle cx="48" cy="34.35" r="0.97" fill="var(--pet-eye)"></circle><circle cx="54" cy="34.35" r="0.97" fill="var(--pet-eye)"></circle><path d="M46.39,36.99 Q48,38.37 49.61,36.99" fill="none" stroke="var(--pet-eye)" stroke-width="0.83" stroke-linecap="round" stroke-linejoin="round"></path><path d="M52.39,36.99 Q54,38.37 55.61,36.99" fill="none" stroke="var(--pet-eye)" stroke-width="0.83" stroke-linecap="round" stroke-linejoin="round"></path></g><g class="mood m-love" data-mood="love"><path d="M48,36.19 C44.94,33.34 46.91,31.49 48,33.3 C49.09,31.49 51.06,33.34 48,36.19 Z" fill="var(--pet-accent)"></path><path d="M54,36.19 C50.94,33.34 52.91,31.49 54,33.3 C55.09,31.49 57.06,33.34 54,36.19 Z" fill="var(--pet-accent)"></path><path d="M48.7,39.06 Q51,41.82 53.3,39.06" fill="none" stroke="var(--pet-eye)" stroke-width="1.26" stroke-linecap="round" stroke-linejoin="round"></path></g><g class="mood m-surprised" data-mood="surprised"><circle cx="48" cy="34" r="2.64" fill="none" stroke="var(--pet-eye)" stroke-width="1.15"></circle><circle cx="54" cy="34" r="2.64" fill="none" stroke="var(--pet-eye)" stroke-width="1.15"></circle><circle cx="48" cy="34" r="0.97" fill="var(--pet-eye)"></circle><circle cx="54" cy="34" r="0.97" fill="var(--pet-eye)"></circle><path d="M45.47,29.63 Q48,28.48 49.38,29.4" fill="none" stroke="var(--pet-eye)" stroke-width="1.03" stroke-linecap="round" stroke-linejoin="round"></path><path d="M52.62,29.4 Q54,28.48 56.53,29.63" fill="none" stroke="var(--pet-eye)" stroke-width="1.03" stroke-linecap="round" stroke-linejoin="round"></path><ellipse cx="51" cy="40.44" rx="1.61" ry="2.07" fill="var(--pet-eye)"></ellipse></g><g class="mood m-playful" data-mood="playful"><path d="M45.7,34.46 Q48,31.93 50.3,34.46" fill="none" stroke="var(--pet-eye)" stroke-width="1.5" stroke-linecap="round" stroke-linejoin="round"></path><circle cx="54" cy="34" r="2.3" fill="var(--pet-eye)"></circle><path d="M48.47,38.83 Q51.46,41.59 53.76,38.37" fill="none" stroke="var(--pet-eye)" stroke-width="1.26" stroke-linecap="round" stroke-linejoin="round"></path><path d="M51.46,40.21 Q52.27,42.28 53.19,40.55 Z" fill="var(--pet-accent)"></path></g></g></svg>