<svg xmlns="http://www.w3.org/2000/svg" viewBox="0 0 64 64" data-mood="idle" role="img" aria-label="meerkat pet sprite"><g id="tail"><path class="tail" d="M21,52 Q9,54 9,44" fill="none" stroke="currentColor" stroke-width="4" stroke-linecap="round"></path></g><g id="legs"><rect class="leg-back" x="24" y="49" width="6" height="11" rx="3" fill="currentColor"></rect><rect class="leg-front" x="33" y="49" width="6" height="11" rx="3" fill="currentColor"></rect></g><g id="body"><path d="M25,52 Q22,30 32,24 Q42,30 39,52 Z" fill="currentColor"></path><ellipse cx="32" cy="42" rx="5" ry="9" fill="var(--pet-accent)" opacity=".75"></ellipse><circle cx="38" cy="22" r="10" fill="currentColor"></circle><ellipse cx="42" cy="25" rx="4" ry="3" fill="var(--pet-accent)" opacity=".6"></ellipse><path d="M28,36 Q24,42 27,48 M40,36 Q44,42 41,48" fill="none" stroke="currentColor" stroke-width="4" stroke-linecap="round"></path></g><g id="ears"><circle cx="31" cy="15" r="3.4" fill="currentColor"></circle><circle cx="45" cy="15" r="3.4" fill="currentColor"></circle><circle cx="44" cy="24" r="2.6" fill="var(--pet-eye)" opacity=".5"></circle></g><g id="face"><g class="mood m-idle" data-mood="idle"><circle cx="35" cy="21" r="2.5" fill="var(--pet-eye)"></circle><circle cx="42" cy="21" r="2.5" fill="var(--pet-eye)"></circle></g><g class="mood m-focused" data-mood="focused"><path d="M31.25,18.63 L36.5,21.25" fill="none" stroke="var(--pet-eye)" stroke-width="2.63" stroke-linecap="round" stroke-linejoin="round"></path><path d="M45.75,18.63 L40.5,21.25" fill="none" stroke="var(--pet-eye)" stroke-width="2.63" stroke-linecap="round" stroke-linejoin="round"></path><circle cx="35.25" cy="22.5" r="1.3" fill="var(--pet-eye)"></circle><circle cx="41.75" cy="22.5" r="1.3" fill="var(--pet-eye)"></circle><path d="M36.25,27 H40.75" fill="none" stroke="var(--pet-eye)" stroke-width="1.25" stroke-linecap="round" stroke-linejoin="round"></path></g><g class="mood m-happy" data-mood="happy"><path d="M32.5,21.88 L35,19.25 L37.5,21.88" fill="none" stroke="var(--pet-eye)" stroke-width="1.63" stroke-linecap="round" stroke-linejoin="round"></path><path d="M39.5,21.88 L42,19.25 L44.5,21.88" fill="none" stroke="var(--pet-eye)" stroke-width="1.63" stroke-linecap="round" stroke-linejoin="round"></path><path d="M35.75,26.25 Q38.5,29.75 41.25,26.25" fill="none" stroke="var(--pet-eye)" stroke-width="1.5" stroke-linecap="round" stroke-linejoin="round"></path></g><g class="mood m-celebrate" data-mood="celebrate"><path d="M35,18.13 Q35,21 37.88,21 Q35,21 35,23.88 Q35,21 32.13,21 Q35,21 35,18.13 Z" fill="var(--pet-accent)"></path><path d="M42,18.13 Q42,21 44.88,21 Q42,21 42,23.88 Q42,21 39.13,21 Q42,21 42,18.13 Z" fill="var(--pet-accent)"></path><path d="M48.5,9.5 Q48.5,11.5 50.5,11.5 Q48.5,11.5 48.5,13.5 Q48.5,11.5 46.5,11.5 Q48.5,11.5 48.5,9.5 Z" fill="var(--pet-accent)"></path><path d="M29,6.5 Q29,8 30.5,8 Q29,8 29,9.5 Q29,8 27.5,8 Q29,8 29,6.5 Z" fill="var(--pet-accent)"></path><path d="M35.75,26.25 Q38.5,30.25 41.25,26.25" fill="none" stroke="var(--pet-eye)" stroke-width="1.5" stroke-linecap="round" stroke-linejoin="round"></path></g><g class="mood m-sleep" data-mood="sleep"><path d="M32.5,21 Q35,23.75 37.5,21" fill="none" stroke="var(--pet-eye)" stroke-width="1.5" stroke-linecap="round" stroke-linejoin="round"></path><path d="M39.5,21 Q42,23.75 44.5,21" fill="none" stroke="var(--pet-eye)" stroke-width="1.5" stroke-linecap="round" stroke-linejoin="round"></path><path d="M48.5,14 h2.75 l-2.75,2.75 h2.75" fill="none" stroke="var(--pet-eye)" stroke-width="0.94" stroke-linecap="round" stroke-linejoin="round"></path><path d="M52,9 h3.5 l-3.5,3.5 h3.5" fill="none" stroke="var(--pet-eye)" stroke-width="1.19" stroke-linecap="round" stroke-linejoin="round"></path><path d="M56.25,4 h4.25 l-4.25,4.25 h4.25" fill="none" stroke="var(--pet-eye)" stroke-width="1.45" stroke-linecap="round" stroke-linejoin="round"></path></g><g class="mood m-confused" data-mood="confused"><circle cx="35" cy="21" r="2.38" fill="var(--pet-eye)"></circle><path d="M39.5,20.5 q1.25,-2 2.5,0 q1.25,2 2.5,0" fill="none" stroke="var(--pet-eye)" stroke-width="1.5" stroke-linecap="round" stroke-linejoin="round"></path><path d="M47.13,10.94 Q47.13,7.38 49.75,7.38 Q52.56,7.38 52.38,10.38 Q51.63,12.25 49.75,13.19" fill="none" stroke="var(--pet-eye)" stroke-width="1.28" stroke-linecap="round" stroke-linejoin="round"></path><circle cx="49.75" cy="15.63" r="0.75" fill="var(--pet-eye)"></circle></g><g class="mood m-tired" data-mood="tired"><path d="M32.5,20.75 Q35,18 37.5,20.75" fill="none" stroke="var(--pet-eye)" stroke-width="1.75" stroke-linecap="round" stroke-linejoin="round"></path><path d="M39.5,20.75 Q42,18 44.5,20.75" fill="none" stroke="var(--pet-eye)" stroke-width="1.75" stroke-linecap="round" stroke-linejoin="round"></path><circle cx="35" cy="21.38" r="1.05" fill="var(--pet-eye)"></circle><circle cx="42" cy="21.38" r="1.05" fill="var(--pet-eye)"></circle><path d="M33.25,24.25 Q35,25.75 36.75,24.25" fill="none" stroke="var(--pet-eye)" stroke-width="0.9" stroke-linecap="round" stroke-linejoin="round"></path><path d="M40.25,24.25 Q42,25.75 43.75,24.25" fill="none" stroke="var(--pet-eye)" stroke-width="0.9" stroke-linecap="round" stroke-linejoin="round"></path></g><g class="mood m-love" data-mood="love"><path d="M35,23.38 C31.68,20.29 33.81,18.27 35,20.24 C36.19,18.27 38.33,20.29 35,23.38 Z" fill="var(--pet-accent)"></path><path d="M42,23.38 C38.67,20.29 40.81,18.27 42,20.24 C43.19,18.27 45.33,20.29 42,23.38 Z" fill="var(--pet-accent)"></path><path d="M36,26.5 Q38.5,29.5 41,26.5" fill="none" stroke="var(--pet-eye)" stroke-width="1.38" stroke-linecap="round" stroke-linejoin="round"></path></g><g class="mood m-surprised" data-mood="surprised"><circle cx="35" cy="21" r="2.88" fill="none" stroke="var(--pet-eye)" stroke-width="1.25"></circle><circle cx="42" cy="21" r="2.88" fill="none" stroke="var(--pet-eye)" stroke-width="1.25"></circle><circle cx="35" cy="21" r="1.05" fill="var(--pet-eye)"></circle><circle cx="42" cy="21" r="1.05" fill="var(--pet-eye)"></circle><path d="M32.25,16.25 Q35,15 36.5,16" fill="none" stroke="var(--pet-eye)" stroke-width="1.13" stroke-linecap="round" stroke-linejoin="round"></path><path d="M40.5,16 Q42,15 44.75,16.25" fill="none" stroke="var(--pet-eye)" stroke-width="1.13" stroke-linecap="round" stroke-linejoin="round"></path><ellipse cx="38.5" cy="28" rx="1.75" ry="2.25" fill="var(--pet-eye)"></ellipse></g><g class="mood m-playful" data-mood="playful"><path d="M32.5,21.5 Q35,18.75 37.5,21.5" fill="none" stroke="var(--pet-eye)" stroke-width="1.63" stroke-linecap="round" stroke-linejoin="round"></path><circle cx="42" cy="21" r="2.5" fill="var(--pet-eye)"></circle><path d="M35.75,26.25 Q39,29.25 41.5,25.75" fill="none" stroke="var(--pet-eye)" stroke-width="1.38" stroke-linecap="round" stroke-linejoin="round"></path><path d="M39,27.75 Q39.88,30 40.88,28.13 Z" fill="var(--pet-accent)"></path></g></g></svg>