<svg xmlns="http://www.w3.org/2000/svg" viewBox="0 0 64 64" data-mood="idle" role="img" aria-label="mole pet sprite"><g id="tail"><path class="tail" d="M15,44 Q9,44 10,49" fill="none" stroke="currentColor" stroke-width="3" stroke-linecap="round"></path></g><g id="legs"><path class="leg-back" d="M22,48 Q14,48 13,56 Q19,56 24,52 Z" fill="currentColor"></path><path class="leg-front" d="M40,48 Q50,46 52,55 Q45,57 38,52 Z" fill="currentColor"></path><path d="M48,50 V56 M51,50 V56" stroke="var(--pet-accent)" stroke-width="1.4" stroke-linecap="round"></path></g><g id="body"><ellipse cx="30" cy="42" rx="16" ry="12" fill="currentColor"></ellipse><circle cx="46" cy="38" r="8" fill="currentColor"></circle><ellipse cx="53" cy="40" rx="3" ry="2.4" fill="var(--pet-accent)"></ellipse></g><g id="face"><g class="mood m-idle" data-mood="idle"><circle cx="43" cy="36" r="2.2" fill="var(--pet-eye)"></circle><circle cx="49" cy="36" r="2.2" fill="var(--pet-eye)"></circle></g><g class="mood m-focused" data-mood="focused"><path d="M39.7,33.91 L44.32,36.22" fill="none" stroke="var(--pet-eye)" stroke-width="2.31" stroke-linecap="round" stroke-linejoin="round"></path><path d="M52.3,33.91 L47.68,36.22" fill="none" stroke="var(--pet-eye)" stroke-width="2.31" stroke-linecap="round" stroke-linejoin="round"></path><circle cx="43.22" cy="37.32" r="1.14" fill="var(--pet-eye)"></circle><circle cx="48.78" cy="37.32" r="1.14" fill="var(--pet-eye)"></circle><path d="M44.02,41.28 H47.98" fill="none" stroke="var(--pet-eye)" stroke-width="1.1" stroke-linecap="round" stroke-linejoin="round"></path></g><g class="mood m-happy" data-mood="happy"><path d="M40.8,36.77 L43,34.46 L45.2,36.77" fill="none" stroke="var(--pet-eye)" stroke-width="1.43" stroke-linecap="round" stroke-linejoin="round"></path><path d="M46.8,36.77 L49,34.46 L51.2,36.77" fill="none" stroke="var(--pet-eye)" stroke-width="1.43" stroke-linecap="round" stroke-linejoin="round"></path><path d="M43.58,40.62 Q46,43.7 48.42,40.62" fill="none" stroke="var(--pet-eye)" stroke-width="1.32" stroke-linecap="round" stroke-linejoin="round"></path></g><g class="mood m-celebrate" data-mood="celebrate"><path d="M43,33.47 Q43,36 45.53,36 Q43,36 43,38.53 Q43,36 40.47,36 Q43,36 43,33.47 Z" fill="var(--pet-accent)"></path><path d="M49,33.47 Q49,36 51.53,36 Q49,36 49,38.53 Q49,36 46.47,36 Q49,36 49,33.47 Z" fill="var(--pet-accent)"></path><path d="M54.72,26.44 Q54.72,28.2 56.48,28.2 Q54.72,28.2 54.72,29.96 Q54.72,28.2 52.96,28.2 Q54.72,28.2 54.72,26.44 Z" fill="var(--pet-accent)"></path><path d="M37.72,23.8 Q37.72,25.12 39.04,25.12 Q37.72,25.12 37.72,26.44 Q37.72,25.12 36.4,25.12 Q37.72,25.12 37.72,23.8 Z" fill="var(--pet-accent)"></path><path d="M43.58,40.62 Q46,44.14 48.42,40.62" fill="none" stroke="var(--pet-eye)" stroke-width="1.32" stroke-linecap="round" stroke-linejoin="round"></path></g><g class="mood m-sleep" data-mood="sleep"><path d="M40.8,36 Q43,38.42 45.2,36" fill="none" stroke="var(--pet-eye)" stroke-width="1.32" stroke-linecap="round" stroke-linejoin="round"></path><path d="M46.8,36 Q49,38.42 51.2,36" fill="none" stroke="var(--pet-eye)" stroke-width="1.32" stroke-linecap="round" stroke-linejoin="round"></path><path d="M54.72,30.4 h2.42 l-2.42,2.42 h2.42" fill="none" stroke="var(--pet-eye)" stroke-width="0.82" stroke-linecap="round" stroke-linejoin="round"></path><path d="M57.8,26 h3.08 l-3.08,3.08 h3.08" fill="none" stroke="var(--pet-eye)" stroke-width="1.05" stroke-linecap="round" stroke-linejoin="round"></path><path d="M61.54,21.6 h3.74 l-3.74,3.74 h3.74" fill="none" stroke="var(--pet-eye)" stroke-width="1.27" stroke-linecap="round" stroke-linejoin="round"></path></g><g class="mood m-confused" data-mood="confused"><circle cx="43" cy="36" r="2.09" fill="var(--pet-eye)"></circle><path d="M46.8,35.56 q1.1,-1.76 2.2,0 q1.1,1.76 2.2,0" fill="none" stroke="var(--pet-eye)" stroke-width="1.32" stroke-linecap="round" stroke-linejoin="round"></path><path d="M53.51,27.71 Q53.51,24.57 55.82,24.57 Q58.3,24.57 58.13,27.21 Q57.47,28.86 55.82,29.69" fill="none" stroke="var(--pet-eye)" stroke-width="1.12" stroke-linecap="round" stroke-linejoin="round"></path><circle cx="55.82" cy="31.83" r="0.66" fill="var(--pet-eye)"></circle></g><g class="mood m-tired" data-mood="tired"><path d="M40.8,35.78 Q43,33.36 45.2,35.78" fill="none" stroke="var(--pet-eye)" stroke-width="1.54" stroke-linecap="round" stroke-linejoin="round"></path><path d="M46.8,35.78 Q49,33.36 51.2,35.78" fill="none" stroke="var(--pet-eye)" stroke-width="1.54" stroke-linecap="round" stroke-linejoin="round"></path><circle cx="43" cy="36.33" r="0.92" fill="var(--pet-eye)"></circle><circle cx="49" cy="36.33" r="0.92" fill="var(--pet-eye)"></circle><path d="M41.46,38.86 Q43,40.18 44.54,38.86" fill="none" stroke="var(--pet-eye)" stroke-width="0.79" stroke-linecap="round" stroke-linejoin="round"></path><path d="M47.46,38.86 Q49,40.18 50.54,38.86" fill="none" stroke="var(--pet-eye)" stroke-width="0.79" stroke-linecap="round" stroke-linejoin="round"></path></g><g class="mood m-love" data-mood="love"><path d="M43,38.09 C40.07,35.37 41.96,33.6 43,35.33 C44.05,33.6 45.93,35.37 43,38.09 Z" fill="var(--pet-accent)"></path><path d="M49,38.09 C46.07,35.37 47.96,33.6 49,35.33 C50.05,33.6 51.93,35.37 49,38.09 Z" fill="var(--pet-accent)"></path><path d="M43.8,40.84 Q46,43.48 48.2,40.84" fill="none" stroke="var(--pet-eye)" stroke-width="1.21" stroke-linecap="round" stroke-linejoin="round"></path></g><g class="mood m-surprised" data-mood="surprised"><circle cx="43" cy="36" r="2.53" fill="none" stroke="var(--pet-eye)" stroke-width="1.1"></circle><circle cx="49" cy="36" r="2.53" fill="none" stroke="var(--pet-eye)" stroke-width="1.1"></circle><circle cx="43" cy="36" r="0.92" fill="var(--pet-eye)"></circle><circle cx="49" cy="36" r="0.92" fill="var(--pet-eye)"></circle><path d="M40.58,31.82 Q43,30.72 44.32,31.6" fill="none" stroke="var(--pet-eye)" stroke-width="0.99" stroke-linecap="round" stroke-linejoin="round"></path><path d="M47.68,31.6 Q49,30.72 51.42,31.82" fill="none" stroke="var(--pet-eye)" stroke-width="0.99" stroke-linecap="round" stroke-linejoin="round"></path><ellipse cx="46" cy="42.16" rx="1.54" ry="1.98" fill="var(--pet-eye)"></ellipse></g><g class="mood m-playful" data-mood="playful"><path d="M40.8,36.44 Q43,34.02 45.2,36.44" fill="none" stroke="var(--pet-eye)" stroke-width="1.43" stroke-linecap="round" stroke-linejoin="round"></path><circle cx="49" cy="36" r="2.2" fill="var(--pet-eye)"></circle><path d="M43.58,40.62 Q46.44,43.26 48.64,40.18" fill="none" stroke="var(--pet-eye)" stroke-width="1.21" stroke-linecap="round" stroke-linejoin="round"></path><path d="M46.44,41.94 Q47.21,43.92 48.09,42.27 Z" fill="var(--pet-accent)"></path></g></g></svg>