<svg xmlns="http://www.w3.org/2000/svg" viewBox="0 0 64 64" data-mood="idle" role="img" aria-label="monkey pet sprite"><g id="tail"><path class="tail" d="M18,47 Q4,49 6,38 Q7,31 15,33" fill="none" stroke="currentColor" stroke-width="4.5" stroke-linecap="round"></path></g><g id="legs"><rect class="leg-back" x="22" y="48" width="8" height="11" rx="4" fill="currentColor"></rect><rect class="leg-front" x="35" y="48" width="8" height="11" rx="4" fill="currentColor"></rect></g><g id="body"><ellipse cx="30" cy="41" rx="13" ry="13" fill="currentColor"></ellipse><ellipse cx="30" cy="44" rx="7.5" ry="8" fill="var(--pet-accent)" opacity=".85"></ellipse><circle cx="44" cy="25" r="11" fill="currentColor"></circle><circle cx="46" cy="28" r="7.5" fill="var(--pet-accent)" opacity=".9"></circle><circle cx="35" cy="22" r="4.2" fill="currentColor"></circle><circle cx="35" cy="22" r="2.2" fill="var(--pet-accent)"></circle><circle cx="53" cy="22" r="4.2" fill="currentColor"></circle><circle cx="53" cy="22" r="2.2" fill="var(--pet-accent)"></circle></g><g id="face"><g class="mood m-idle" data-mood="idle"><circle cx="42" cy="25" r="2.6" fill="var(--pet-eye)"></circle><circle cx="49.5" cy="25" r="2.6" fill="var(--pet-eye)"></circle></g><g class="mood m-focused" data-mood="focused"><path d="M38.1,22.53 L43.56,25.26" fill="none" stroke="var(--pet-eye)" stroke-width="2.73" stroke-linecap="round" stroke-linejoin="round"></path><path d="M53.4,22.53 L47.94,25.26" fill="none" stroke="var(--pet-eye)" stroke-width="2.73" stroke-linecap="round" stroke-linejoin="round"></path><circle cx="42.26" cy="26.56" r="1.35" fill="var(--pet-eye)"></circle><circle cx="49.24" cy="26.56" r="1.35" fill="var(--pet-eye)"></circle><path d="M43.41,31.24 H48.09" fill="none" stroke="var(--pet-eye)" stroke-width="1.3" stroke-linecap="round" stroke-linejoin="round"></path></g><g class="mood m-happy" data-mood="happy"><path d="M39.4,25.91 L42,23.18 L44.6,25.91" fill="none" stroke="var(--pet-eye)" stroke-width="1.69" stroke-linecap="round" stroke-linejoin="round"></path><path d="M46.9,25.91 L49.5,23.18 L52.1,25.91" fill="none" stroke="var(--pet-eye)" stroke-width="1.69" stroke-linecap="round" stroke-linejoin="round"></path><path d="M42.89,30.46 Q45.75,34.1 48.61,30.46" fill="none" stroke="var(--pet-eye)" stroke-width="1.56" stroke-linecap="round" stroke-linejoin="round"></path></g><g class="mood m-celebrate" data-mood="celebrate"><path d="M42,22.01 Q42,25 44.99,25 Q42,25 42,27.99 Q42,25 39.01,25 Q42,25 42,22.01 Z" fill="var(--pet-accent)"></path><path d="M49.5,22.01 Q49.5,25 52.49,25 Q49.5,25 49.5,27.99 Q49.5,25 46.51,25 Q49.5,25 49.5,22.01 Z" fill="var(--pet-accent)"></path><path d="M56.26,13.52 Q56.26,15.6 58.34,15.6 Q56.26,15.6 56.26,17.68 Q56.26,15.6 54.18,15.6 Q56.26,15.6 56.26,13.52 Z" fill="var(--pet-accent)"></path><path d="M35.76,10.4 Q35.76,11.96 37.32,11.96 Q35.76,11.96 35.76,13.52 Q35.76,11.96 34.2,11.96 Q35.76,11.96 35.76,10.4 Z" fill="var(--pet-accent)"></path><path d="M42.89,30.46 Q45.75,34.62 48.61,30.46" fill="none" stroke="var(--pet-eye)" stroke-width="1.56" stroke-linecap="round" stroke-linejoin="round"></path></g><g class="mood m-sleep" data-mood="sleep"><path d="M39.4,25 Q42,27.86 44.6,25" fill="none" stroke="var(--pet-eye)" stroke-width="1.56" stroke-linecap="round" stroke-linejoin="round"></path><path d="M46.9,25 Q49.5,27.86 52.1,25" fill="none" stroke="var(--pet-eye)" stroke-width="1.56" stroke-linecap="round" stroke-linejoin="round"></path><path d="M56.26,18.2 h2.86 l-2.86,2.86 h2.86" fill="none" stroke="var(--pet-eye)" stroke-width="0.97" stroke-linecap="round" stroke-linejoin="round"></path><path d="M59.9,13 h3.64 l-3.64,3.64 h3.64" fill="none" stroke="var(--pet-eye)" stroke-width="1.24" stroke-linecap="round" stroke-linejoin="round"></path><path d="M64.32,7.8 h4.42 l-4.42,4.42 h4.42" fill="none" stroke="var(--pet-eye)" stroke-width="1.5" stroke-linecap="round" stroke-linejoin="round"></path></g><g class="mood m-confused" data-mood="confused"><circle cx="42" cy="25" r="2.47" fill="var(--pet-eye)"></circle><path d="M46.9,24.48 q1.3,-2.08 2.6,0 q1.3,2.08 2.6,0" fill="none" stroke="var(--pet-eye)" stroke-width="1.56" stroke-linecap="round" stroke-linejoin="round"></path><path d="M54.83,15.02 Q54.83,11.31 57.56,11.31 Q60.48,11.31 60.29,14.43 Q59.51,16.38 57.56,17.36" fill="none" stroke="var(--pet-eye)" stroke-width="1.33" stroke-linecap="round" stroke-linejoin="round"></path><circle cx="57.56" cy="19.89" r="0.78" fill="var(--pet-eye)"></circle></g><g class="mood m-tired" data-mood="tired"><path d="M39.4,24.74 Q42,21.88 44.6,24.74" fill="none" stroke="var(--pet-eye)" stroke-width="1.82" stroke-linecap="round" stroke-linejoin="round"></path><path d="M46.9,24.74 Q49.5,21.88 52.1,24.74" fill="none" stroke="var(--pet-eye)" stroke-width="1.82" stroke-linecap="round" stroke-linejoin="round"></path><circle cx="42" cy="25.39" r="1.09" fill="var(--pet-eye)"></circle><circle cx="49.5" cy="25.39" r="1.09" fill="var(--pet-eye)"></circle><path d="M40.18,28.38 Q42,29.94 43.82,28.38" fill="none" stroke="var(--pet-eye)" stroke-width="0.94" stroke-linecap="round" stroke-linejoin="round"></path><path d="M47.68,28.38 Q49.5,29.94 51.32,28.38" fill="none" stroke="var(--pet-eye)" stroke-width="0.94" stroke-linecap="round" stroke-linejoin="round"></path></g><g class="mood m-love" data-mood="love"><path d="M42,27.47 C38.54,24.26 40.77,22.16 42,24.21 C43.24,22.16 45.46,24.26 42,27.47 Z" fill="var(--pet-accent)"></path><path d="M49.5,27.47 C46.04,24.26 48.27,22.16 49.5,24.21 C50.74,22.16 52.96,24.26 49.5,27.47 Z" fill="var(--pet-accent)"></path><path d="M43.15,30.72 Q45.75,33.84 48.35,30.72" fill="none" stroke="var(--pet-eye)" stroke-width="1.43" stroke-linecap="round" stroke-linejoin="round"></path></g><g class="mood m-surprised" data-mood="surprised"><circle cx="42" cy="25" r="2.99" fill="none" stroke="var(--pet-eye)" stroke-width="1.3"></circle><circle cx="49.5" cy="25" r="2.99" fill="none" stroke="var(--pet-eye)" stroke-width="1.3"></circle><circle cx="42" cy="25" r="1.09" fill="var(--pet-eye)"></circle><circle cx="49.5" cy="25" r="1.09" fill="var(--pet-eye)"></circle><path d="M39.14,20.06 Q42,18.76 43.56,19.8" fill="none" stroke="var(--pet-eye)" stroke-width="1.17" stroke-linecap="round" stroke-linejoin="round"></path><path d="M47.94,19.8 Q49.5,18.76 52.36,20.06" fill="none" stroke="var(--pet-eye)" stroke-width="1.17" stroke-linecap="round" stroke-linejoin="round"></path><ellipse cx="45.75" cy="32.28" rx="1.82" ry="2.34" fill="var(--pet-eye)"></ellipse></g><g class="mood m-playful" data-mood="playful"><path d="M39.4,25.52 Q42,22.66 44.6,25.52" fill="none" stroke="var(--pet-eye)" stroke-width="1.69" stroke-linecap="round" stroke-linejoin="round"></path><circle cx="49.5" cy="25" r="2.6" fill="var(--pet-eye)"></circle><path d="M42.89,30.46 Q46.27,33.58 48.87,29.94" fill="none" stroke="var(--pet-eye)" stroke-width="1.43" stroke-linecap="round" stroke-linejoin="round"></path><path d="M46.27,32.02 Q47.18,34.36 48.22,32.41 Z" fill="var(--pet-accent)"></path></g></g></svg>