<svg xmlns="http://www.w3.org/2000/svg" viewBox="0 0 64 64" data-mood="idle" role="img" aria-label="owl pet sprite"><g id="legs"><path id="leg-back" class="leg-back" d="M17,33 Q9,41 15,49 Q20,44 21,36 Z" fill="currentColor"></path><path id="leg-front" class="leg-front" d="M47,33 Q55,41 49,49 Q44,44 43,36 Z" fill="currentColor"></path><rect x="26" y="51" width="4" height="5.5" rx="1.6" fill="var(--pet-accent)"></rect><rect x="34" y="51" width="4" height="5.5" rx="1.6" fill="var(--pet-accent)"></rect></g><g id="body"><ellipse cx="32" cy="34" rx="17" ry="20" fill="currentColor"></ellipse><ellipse cx="32" cy="40" rx="10" ry="12" fill="var(--pet-accent)" opacity=".2"></ellipse><path d="M15,36 Q19,38 20,33" fill="none" stroke="var(--pet-accent)" stroke-width="1.4" stroke-linecap="round" opacity=".5"></path><path d="M49,36 Q45,38 44,33" fill="none" stroke="var(--pet-accent)" stroke-width="1.4" stroke-linecap="round" opacity=".5"></path></g><g id="ears"><path d="M20,16 L16,5 L27,13 Z" fill="currentColor"></path><path d="M44,16 L48,5 L37,13 Z" fill="currentColor"></path></g><g id="owleyes"><circle cx="25" cy="30" r="5.4" fill="none" stroke="var(--pet-eye)" stroke-width="1" opacity=".45"></circle><circle cx="39" cy="30" r="5.4" fill="none" stroke="var(--pet-eye)" stroke-width="1" opacity=".45"></circle><path d="M32,34.5 L29,38 L35,38 Z" fill="var(--pet-eye)"></path></g><g id="face"><g class="mood m-idle" data-mood="idle"><circle cx="25" cy="30" r="2.7" fill="var(--pet-eye)"></circle><circle cx="39" cy="30" r="2.7" fill="var(--pet-eye)"></circle></g><g class="mood m-focused" data-mood="focused"><path d="M22.2 27.4 L27.4 29.2" stroke="var(--pet-eye)" fill="none" stroke-linecap="round" stroke-linejoin="round" stroke-width="1.6"></path><path d="M41.8 27.4 L36.6 29.2" stroke="var(--pet-eye)" fill="none" stroke-linecap="round" stroke-linejoin="round" stroke-width="1.6"></path><circle cx="25" cy="30.4" r="1.35" fill="var(--pet-eye)"></circle><circle cx="39" cy="30.4" r="1.35" fill="var(--pet-eye)"></circle><path d="M29.4 44.4 H34.6" stroke="var(--pet-eye)" fill="none" stroke-linecap="round" stroke-linejoin="round" stroke-width="1.3"></path></g><g class="mood m-happy" data-mood="happy"><path d="M22.2 30.8 L25 27.4 L27.8 30.8" stroke="var(--pet-eye)" fill="none" stroke-linecap="round" stroke-linejoin="round" stroke-width="1.7"></path><path d="M36.2 30.8 L39 27.4 L41.8 30.8" stroke="var(--pet-eye)" fill="none" stroke-linecap="round" stroke-linejoin="round" stroke-width="1.7"></path><path d="M28.6 43.6 Q32 47.2 35.4 43.6" stroke="var(--pet-eye)" fill="none" stroke-linecap="round" stroke-linejoin="round" stroke-width="1.4"></path></g><g class="mood m-celebrate" data-mood="celebrate"><path d="M25 27 L25.96 29.04 L28 30 L25.96 30.96 L25 33 L24.04 30.96 L22 30 L24.04 29.04 Z" fill="var(--pet-accent)"></path><path d="M39 27 L39.96 29.04 L42 30 L39.96 30.96 L39 33 L38.04 30.96 L36 30 L38.04 29.04 Z" fill="var(--pet-accent)"></path><path d="M46 11.9 L46.67 13.33 L48.1 14 L46.67 14.67 L46 16.1 L45.33 14.67 L43.9 14 L45.33 13.33 Z" fill="var(--pet-accent)"></path><ellipse cx="32" cy="44.6" rx="2.2" ry="2" fill="var(--pet-eye)"></ellipse></g><g class="mood m-sleep" data-mood="sleep"><path d="M22.2 29.6 Q25 32.6 27.8 29.6" stroke="var(--pet-eye)" fill="none" stroke-linecap="round" stroke-linejoin="round" stroke-width="1.4"></path><path d="M36.2 29.6 Q39 32.6 41.8 29.6" stroke="var(--pet-eye)" fill="none" stroke-linecap="round" stroke-linejoin="round" stroke-width="1.4"></path><path d="M29.4 44 Q32 45.6 34.6 44" stroke="var(--pet-eye)" fill="none" stroke-linecap="round" stroke-linejoin="round" stroke-width="1.2"></path><g fill="none" stroke="var(--pet-eye)" stroke-width="1.1" stroke-linecap="round" stroke-linejoin="round"><path d="M46 14 h2.2 l-2.2 2.31 h2.2"></path><path d="M49.4 9.8 h2.8 l-2.8 2.94 h2.8"></path><path d="M53.4 5 h3.4 l-3.4 3.57 h3.4"></path></g></g><g class="mood m-confused" data-mood="confused"><circle cx="25" cy="30" r="2.7" fill="var(--pet-eye)"></circle><path d="M36.2 30 q1.4 -2 2.8 0 q1.4 2 2.8 0" stroke="var(--pet-eye)" fill="none" stroke-linecap="round" stroke-linejoin="round" stroke-width="1.5"></path><path d="M29.6 44.6 Q32 43.6 34.4 44.6" stroke="var(--pet-eye)" fill="none" stroke-linecap="round" stroke-linejoin="round" stroke-width="1.2"></path><path d="M45 14 Q45 10.4 48.4 10.4 Q51.9 10.4 51.9 13.4 Q51.9 16 48.4 17 V18.6" fill="none" stroke="var(--pet-eye)" stroke-width="1.7" stroke-linecap="round" stroke-linejoin="round"></path><circle cx="48.4" cy="21.4" r="1.15" fill="var(--pet-eye)"></circle></g><g class="mood m-tired" data-mood="tired"><path d="M22.2 29.6 Q25 31.4 27.8 29.6" stroke="var(--pet-eye)" fill="none" stroke-linecap="round" stroke-linejoin="round" stroke-width="1.8"></path><path d="M22.8 31.8 Q25 32.8 27.2 31.8" stroke="var(--pet-eye)" fill="none" stroke-linecap="round" stroke-linejoin="round" stroke-width="1"></path><path d="M36.2 29.6 Q39 31.4 41.8 29.6" stroke="var(--pet-eye)" fill="none" stroke-linecap="round" stroke-linejoin="round" stroke-width="1.8"></path><path d="M36.8 31.8 Q39 32.8 41.2 31.8" stroke="var(--pet-eye)" fill="none" stroke-linecap="round" stroke-linejoin="round" stroke-width="1"></path><path d="M29.4 44.6 Q32 45.3 34.6 44.6" stroke="var(--pet-eye)" fill="none" stroke-linecap="round" stroke-linejoin="round" stroke-width="1.2"></path></g><g class="mood m-love" data-mood="love"><path d="M25 32.55 C 22 29.4 23.35 27 25 29.25 C 26.65 27 28 29.4 25 32.55 Z" fill="var(--pet-accent)"></path><path d="M39 32.55 C 36 29.4 37.35 27 39 29.25 C 40.65 27 42 29.4 39 32.55 Z" fill="var(--pet-accent)"></path><path d="M28.6 43.6 Q32 47 35.4 43.6" stroke="var(--pet-eye)" fill="none" stroke-linecap="round" stroke-linejoin="round" stroke-width="1.4"></path></g><g class="mood m-surprised" data-mood="surprised"><circle cx="25" cy="30" r="3.11" fill="none" stroke="var(--pet-eye)" stroke-width="1.35"></circle><circle cx="39" cy="30" r="3.11" fill="none" stroke="var(--pet-eye)" stroke-width="1.35"></circle><circle cx="25" cy="30" r="1.13" fill="var(--pet-eye)"></circle><circle cx="39" cy="30" r="1.13" fill="var(--pet-eye)"></circle><path d="M22.03,24.87 Q25,23.52 26.62,24.6" fill="none" stroke="var(--pet-eye)" stroke-width="1.22" stroke-linecap="round" stroke-linejoin="round"></path><path d="M37.38,24.6 Q39,23.52 41.97,24.87" fill="none" stroke="var(--pet-eye)" stroke-width="1.22" stroke-linecap="round" stroke-linejoin="round"></path><ellipse cx="32" cy="37.56" rx="1.89" ry="2.43" fill="var(--pet-eye)"></ellipse></g><g class="mood m-playful" data-mood="playful"><path d="M22.3,30.54 Q25,27.57 27.7,30.54" fill="none" stroke="var(--pet-eye)" stroke-width="1.76" stroke-linecap="round" stroke-linejoin="round"></path><circle cx="39" cy="30" r="2.7" fill="var(--pet-eye)"></circle><path d="M29.03,35.67 Q32.54,38.91 35.24,35.13" fill="none" stroke="var(--pet-eye)" stroke-width="1.49" stroke-linecap="round" stroke-linejoin="round"></path><path d="M32.54,37.29 Q33.49,39.72 34.57,37.7 Z" fill="var(--pet-accent)"></path></g></g></svg>