<svg xmlns="http://www.w3.org/2000/svg" viewBox="0 0 64 64" data-mood="idle" role="img" aria-label="parrot pet sprite"><g id="tail"><path class="tail" d="M22,50 Q16,60 13,61" fill="none" stroke="currentColor" stroke-width="4" stroke-linecap="round"></path><path d="M26,50 Q24,60 22,61" fill="none" stroke="var(--pet-accent)" stroke-width="3.5" stroke-linecap="round"></path></g><g id="legs"><path class="leg-back" d="M19,40 Q8,34 9,46 Q14,46 20,43 Z" fill="currentColor"></path><path class="leg-front" d="M19,42 Q9,40 11,50 Q16,48 21,45 Z" fill="var(--pet-accent)" opacity=".9"></path></g><g id="body"><ellipse cx="30" cy="38" rx="13" ry="16" fill="currentColor"></ellipse><ellipse cx="33" cy="40" rx="7" ry="11" fill="var(--pet-accent)" opacity=".4"></ellipse><circle cx="42" cy="22" r="10" fill="currentColor"></circle><ellipse cx="38" cy="26" rx="3.4" ry="2.6" fill="var(--pet-accent)" opacity=".9"></ellipse><path d="M50,21 Q57,23 53,28 Q49,28 48,25 Z" fill="var(--pet-eye)"></path></g><g id="face"><g class="mood m-idle" data-mood="idle"><circle cx="41" cy="20" r="2.5" fill="var(--pet-eye)"></circle><circle cx="47" cy="20" r="2.5" fill="var(--pet-eye)"></circle></g><g class="mood m-focused" data-mood="focused"><path d="M37.25,17.63 L42.5,20.25" fill="none" stroke="var(--pet-eye)" stroke-width="2.63" stroke-linecap="round" stroke-linejoin="round"></path><path d="M50.75,17.63 L45.5,20.25" fill="none" stroke="var(--pet-eye)" stroke-width="2.63" stroke-linecap="round" stroke-linejoin="round"></path><circle cx="41.25" cy="21.5" r="1.3" fill="var(--pet-eye)"></circle><circle cx="46.75" cy="21.5" r="1.3" fill="var(--pet-eye)"></circle><path d="M41.75,26 H46.25" fill="none" stroke="var(--pet-eye)" stroke-width="1.25" stroke-linecap="round" stroke-linejoin="round"></path></g><g class="mood m-happy" data-mood="happy"><path d="M38.5,20.88 L41,18.25 L43.5,20.88" fill="none" stroke="var(--pet-eye)" stroke-width="1.63" stroke-linecap="round" stroke-linejoin="round"></path><path d="M44.5,20.88 L47,18.25 L49.5,20.88" fill="none" stroke="var(--pet-eye)" stroke-width="1.63" stroke-linecap="round" stroke-linejoin="round"></path><path d="M41.25,25.25 Q44,28.75 46.75,25.25" fill="none" stroke="var(--pet-eye)" stroke-width="1.5" stroke-linecap="round" stroke-linejoin="round"></path></g><g class="mood m-celebrate" data-mood="celebrate"><path d="M41,17.13 Q41,20 43.88,20 Q41,20 41,22.88 Q41,20 38.13,20 Q41,20 41,17.13 Z" fill="var(--pet-accent)"></path><path d="M47,17.13 Q47,20 49.88,20 Q47,20 47,22.88 Q47,20 44.13,20 Q47,20 47,17.13 Z" fill="var(--pet-accent)"></path><path d="M53.5,9.5 Q53.5,11.5 55.5,11.5 Q53.5,11.5 53.5,13.5 Q53.5,11.5 51.5,11.5 Q53.5,11.5 53.5,9.5 Z" fill="var(--pet-accent)"></path><path d="M35,6.5 Q35,8 36.5,8 Q35,8 35,9.5 Q35,8 33.5,8 Q35,8 35,6.5 Z" fill="var(--pet-accent)"></path><path d="M41.25,25.25 Q44,29.25 46.75,25.25" fill="none" stroke="var(--pet-eye)" stroke-width="1.5" stroke-linecap="round" stroke-linejoin="round"></path></g><g class="mood m-sleep" data-mood="sleep"><path d="M38.5,20 Q41,22.75 43.5,20" fill="none" stroke="var(--pet-eye)" stroke-width="1.5" stroke-linecap="round" stroke-linejoin="round"></path><path d="M44.5,20 Q47,22.75 49.5,20" fill="none" stroke="var(--pet-eye)" stroke-width="1.5" stroke-linecap="round" stroke-linejoin="round"></path><path d="M53.5,14 h2.75 l-2.75,2.75 h2.75" fill="none" stroke="var(--pet-eye)" stroke-width="0.94" stroke-linecap="round" stroke-linejoin="round"></path><path d="M57,9 h3.5 l-3.5,3.5 h3.5" fill="none" stroke="var(--pet-eye)" stroke-width="1.19" stroke-linecap="round" stroke-linejoin="round"></path><path d="M61.25,4 h4.25 l-4.25,4.25 h4.25" fill="none" stroke="var(--pet-eye)" stroke-width="1.45" stroke-linecap="round" stroke-linejoin="round"></path></g><g class="mood m-confused" data-mood="confused"><circle cx="41" cy="20" r="2.38" fill="var(--pet-eye)"></circle><path d="M44.5,19.5 q1.25,-2 2.5,0 q1.25,2 2.5,0" fill="none" stroke="var(--pet-eye)" stroke-width="1.5" stroke-linecap="round" stroke-linejoin="round"></path><path d="M52.13,10.94 Q52.13,7.38 54.75,7.38 Q57.56,7.38 57.38,10.38 Q56.63,12.25 54.75,13.19" fill="none" stroke="var(--pet-eye)" stroke-width="1.28" stroke-linecap="round" stroke-linejoin="round"></path><circle cx="54.75" cy="15.63" r="0.75" fill="var(--pet-eye)"></circle></g><g class="mood m-tired" data-mood="tired"><path d="M38.5,19.75 Q41,17 43.5,19.75" fill="none" stroke="var(--pet-eye)" stroke-width="1.75" stroke-linecap="round" stroke-linejoin="round"></path><path d="M44.5,19.75 Q47,17 49.5,19.75" fill="none" stroke="var(--pet-eye)" stroke-width="1.75" stroke-linecap="round" stroke-linejoin="round"></path><circle cx="41" cy="20.38" r="1.05" fill="var(--pet-eye)"></circle><circle cx="47" cy="20.38" r="1.05" fill="var(--pet-eye)"></circle><path d="M39.25,23.25 Q41,24.75 42.75,23.25" fill="none" stroke="var(--pet-eye)" stroke-width="0.9" stroke-linecap="round" stroke-linejoin="round"></path><path d="M45.25,23.25 Q47,24.75 48.75,23.25" fill="none" stroke="var(--pet-eye)" stroke-width="0.9" stroke-linecap="round" stroke-linejoin="round"></path></g><g class="mood m-love" data-mood="love"><path d="M41,22.38 C37.67,19.29 39.81,17.27 41,19.24 C42.19,17.27 44.33,19.29 41,22.38 Z" fill="var(--pet-accent)"></path><path d="M47,22.38 C43.68,19.29 45.81,17.27 47,19.24 C48.19,17.27 50.33,19.29 47,22.38 Z" fill="var(--pet-accent)"></path><path d="M41.5,25.5 Q44,28.5 46.5,25.5" fill="none" stroke="var(--pet-eye)" stroke-width="1.38" stroke-linecap="round" stroke-linejoin="round"></path></g><g class="mood m-surprised" data-mood="surprised"><circle cx="41" cy="20" r="2.88" fill="none" stroke="var(--pet-eye)" stroke-width="1.25"></circle><circle cx="47" cy="20" r="2.88" fill="none" stroke="var(--pet-eye)" stroke-width="1.25"></circle><circle cx="41" cy="20" r="1.05" fill="var(--pet-eye)"></circle><circle cx="47" cy="20" r="1.05" fill="var(--pet-eye)"></circle><path d="M38.25,15.25 Q41,14 42.5,15" fill="none" stroke="var(--pet-eye)" stroke-width="1.13" stroke-linecap="round" stroke-linejoin="round"></path><path d="M45.5,15 Q47,14 49.75,15.25" fill="none" stroke="var(--pet-eye)" stroke-width="1.13" stroke-linecap="round" stroke-linejoin="round"></path><ellipse cx="44" cy="27" rx="1.75" ry="2.25" fill="var(--pet-eye)"></ellipse></g><g class="mood m-playful" data-mood="playful"><path d="M38.5,20.5 Q41,17.75 43.5,20.5" fill="none" stroke="var(--pet-eye)" stroke-width="1.63" stroke-linecap="round" stroke-linejoin="round"></path><circle cx="47" cy="20" r="2.5" fill="var(--pet-eye)"></circle><path d="M41.25,25.25 Q44.5,28.25 47,24.75" fill="none" stroke="var(--pet-eye)" stroke-width="1.38" stroke-linecap="round" stroke-linejoin="round"></path><path d="M44.5,26.75 Q45.38,29 46.38,27.13 Z" fill="var(--pet-accent)"></path></g></g></svg>