<svg xmlns="http://www.w3.org/2000/svg" viewBox="0 0 64 64" data-mood="idle" role="img" aria-label="penguin pet sprite"><g id="tail"></g><g id="legs"><path class="leg-back" d="M22,34 Q14,40 18,50 Q22,46 23,40 Z" fill="currentColor"></path><path class="leg-front" d="M42,34 Q50,40 46,50 Q42,46 41,40 Z" fill="currentColor"></path><path d="M26,55 L22,60 M26,55 L31,60 M38,55 L34,60 M38,55 L43,60" stroke="var(--pet-accent)" stroke-width="2.4" stroke-linecap="round"></path></g><g id="body"><path d="M18,34 Q18,16 32,16 Q46,16 46,34 Q46,55 32,55 Q18,55 18,34 Z" fill="currentColor"></path><path d="M26,26 Q24,42 28,52 Q32,54 36,52 Q40,42 38,26 Q32,20 26,26 Z" fill="var(--pet-accent)" opacity=".9"></path><path d="M30,28 Q34,27 37,30 Q33,32 30,28 Z" fill="var(--pet-accent)"></path><path d="M30,30 L26,32 L30,34 Z" fill="var(--pet-accent)"></path></g><g id="face"><g class="mood m-idle" data-mood="idle"><circle cx="28" cy="26" r="2.5" fill="var(--pet-eye)"></circle><circle cx="36" cy="26" r="2.5" fill="var(--pet-eye)"></circle></g><g class="mood m-focused" data-mood="focused"><path d="M24.25,23.63 L29.5,26.25" fill="none" stroke="var(--pet-eye)" stroke-width="2.63" stroke-linecap="round" stroke-linejoin="round"></path><path d="M39.75,23.63 L34.5,26.25" fill="none" stroke="var(--pet-eye)" stroke-width="2.63" stroke-linecap="round" stroke-linejoin="round"></path><circle cx="28.25" cy="27.5" r="1.3" fill="var(--pet-eye)"></circle><circle cx="35.75" cy="27.5" r="1.3" fill="var(--pet-eye)"></circle><path d="M29.75,32 H34.25" fill="none" stroke="var(--pet-eye)" stroke-width="1.25" stroke-linecap="round" stroke-linejoin="round"></path></g><g class="mood m-happy" data-mood="happy"><path d="M25.5,26.88 L28,24.25 L30.5,26.88" fill="none" stroke="var(--pet-eye)" stroke-width="1.63" stroke-linecap="round" stroke-linejoin="round"></path><path d="M33.5,26.88 L36,24.25 L38.5,26.88" fill="none" stroke="var(--pet-eye)" stroke-width="1.63" stroke-linecap="round" stroke-linejoin="round"></path><path d="M29.25,31.25 Q32,34.75 34.75,31.25" fill="none" stroke="var(--pet-eye)" stroke-width="1.5" stroke-linecap="round" stroke-linejoin="round"></path></g><g class="mood m-celebrate" data-mood="celebrate"><path d="M28,23.13 Q28,26 30.88,26 Q28,26 28,28.88 Q28,26 25.13,26 Q28,26 28,23.13 Z" fill="var(--pet-accent)"></path><path d="M36,23.13 Q36,26 38.88,26 Q36,26 36,28.88 Q36,26 33.13,26 Q36,26 36,23.13 Z" fill="var(--pet-accent)"></path><path d="M42.5,16.5 Q42.5,18.5 44.5,18.5 Q42.5,18.5 42.5,20.5 Q42.5,18.5 40.5,18.5 Q42.5,18.5 42.5,16.5 Z" fill="var(--pet-accent)"></path><path d="M22,13.5 Q22,15 23.5,15 Q22,15 22,16.5 Q22,15 20.5,15 Q22,15 22,13.5 Z" fill="var(--pet-accent)"></path><path d="M29.25,31.25 Q32,35.25 34.75,31.25" fill="none" stroke="var(--pet-eye)" stroke-width="1.5" stroke-linecap="round" stroke-linejoin="round"></path></g><g class="mood m-sleep" data-mood="sleep"><path d="M25.5,26 Q28,28.75 30.5,26" fill="none" stroke="var(--pet-eye)" stroke-width="1.5" stroke-linecap="round" stroke-linejoin="round"></path><path d="M33.5,26 Q36,28.75 38.5,26" fill="none" stroke="var(--pet-eye)" stroke-width="1.5" stroke-linecap="round" stroke-linejoin="round"></path><path d="M42.5,21 h2.75 l-2.75,2.75 h2.75" fill="none" stroke="var(--pet-eye)" stroke-width="0.94" stroke-linecap="round" stroke-linejoin="round"></path><path d="M46,16 h3.5 l-3.5,3.5 h3.5" fill="none" stroke="var(--pet-eye)" stroke-width="1.19" stroke-linecap="round" stroke-linejoin="round"></path><path d="M50.25,11 h4.25 l-4.25,4.25 h4.25" fill="none" stroke="var(--pet-eye)" stroke-width="1.45" stroke-linecap="round" stroke-linejoin="round"></path></g><g class="mood m-confused" data-mood="confused"><circle cx="28" cy="26" r="2.38" fill="var(--pet-eye)"></circle><path d="M33.5,25.5 q1.25,-2 2.5,0 q1.25,2 2.5,0" fill="none" stroke="var(--pet-eye)" stroke-width="1.5" stroke-linecap="round" stroke-linejoin="round"></path><path d="M41.13,17.94 Q41.13,14.38 43.75,14.38 Q46.56,14.38 46.38,17.38 Q45.63,19.25 43.75,20.19" fill="none" stroke="var(--pet-eye)" stroke-width="1.28" stroke-linecap="round" stroke-linejoin="round"></path><circle cx="43.75" cy="22.63" r="0.75" fill="var(--pet-eye)"></circle></g><g class="mood m-tired" data-mood="tired"><path d="M25.5,25.75 Q28,23 30.5,25.75" fill="none" stroke="var(--pet-eye)" stroke-width="1.75" stroke-linecap="round" stroke-linejoin="round"></path><path d="M33.5,25.75 Q36,23 38.5,25.75" fill="none" stroke="var(--pet-eye)" stroke-width="1.75" stroke-linecap="round" stroke-linejoin="round"></path><circle cx="28" cy="26.38" r="1.05" fill="var(--pet-eye)"></circle><circle cx="36" cy="26.38" r="1.05" fill="var(--pet-eye)"></circle><path d="M26.25,29.25 Q28,30.75 29.75,29.25" fill="none" stroke="var(--pet-eye)" stroke-width="0.9" stroke-linecap="round" stroke-linejoin="round"></path><path d="M34.25,29.25 Q36,30.75 37.75,29.25" fill="none" stroke="var(--pet-eye)" stroke-width="0.9" stroke-linecap="round" stroke-linejoin="round"></path></g><g class="mood m-love" data-mood="love"><path d="M28,28.38 C24.68,25.29 26.81,23.27 28,25.24 C29.19,23.27 31.33,25.29 28,28.38 Z" fill="var(--pet-accent)"></path><path d="M36,28.38 C32.67,25.29 34.81,23.27 36,25.24 C37.19,23.27 39.33,25.29 36,28.38 Z" fill="var(--pet-accent)"></path><path d="M29.5,31.5 Q32,34.5 34.5,31.5" fill="none" stroke="var(--pet-eye)" stroke-width="1.38" stroke-linecap="round" stroke-linejoin="round"></path></g><g class="mood m-surprised" data-mood="surprised"><circle cx="28" cy="26" r="2.88" fill="none" stroke="var(--pet-eye)" stroke-width="1.25"></circle><circle cx="36" cy="26" r="2.88" fill="none" stroke="var(--pet-eye)" stroke-width="1.25"></circle><circle cx="28" cy="26" r="1.05" fill="var(--pet-eye)"></circle><circle cx="36" cy="26" r="1.05" fill="var(--pet-eye)"></circle><path d="M25.25,21.25 Q28,20 29.5,21" fill="none" stroke="var(--pet-eye)" stroke-width="1.13" stroke-linecap="round" stroke-linejoin="round"></path><path d="M34.5,21 Q36,20 38.75,21.25" fill="none" stroke="var(--pet-eye)" stroke-width="1.13" stroke-linecap="round" stroke-linejoin="round"></path><ellipse cx="32" cy="33" rx="1.75" ry="2.25" fill="var(--pet-eye)"></ellipse></g><g class="mood m-playful" data-mood="playful"><path d="M25.5,26.5 Q28,23.75 30.5,26.5" fill="none" stroke="var(--pet-eye)" stroke-width="1.63" stroke-linecap="round" stroke-linejoin="round"></path><circle cx="36" cy="26" r="2.5" fill="var(--pet-eye)"></circle><path d="M29.25,31.25 Q32.5,34.25 35,30.75" fill="none" stroke="var(--pet-eye)" stroke-width="1.38" stroke-linecap="round" stroke-linejoin="round"></path><path d="M32.5,32.75 Q33.38,35 34.38,33.13 Z" fill="var(--pet-accent)"></path></g></g></svg>