<svg xmlns="http://www.w3.org/2000/svg" viewBox="0 0 64 64" data-mood="idle" role="img" aria-label="phoenix pet sprite"><g id="tail"><path class="tail" d="M20,46 Q10,58 6,62 M24,47 Q20,58 18,63 M28,47 Q28,58 29,62" fill="none" stroke="currentColor" stroke-width="3" stroke-linecap="round"></path><path d="M22,50 Q16,58 14,60" fill="none" stroke="var(--pet-accent)" stroke-width="2" stroke-linecap="round"></path></g><g id="legs"><path class="leg-back" d="M24,36 Q6,28 4,42 Q8,38 14,40 Q10,44 18,44 Q24,40 26,38 Z" fill="currentColor"></path><path class="leg-front" d="M40,36 Q58,28 60,42 Q56,38 50,40 Q54,44 46,44 Q40,40 38,38 Z" fill="var(--pet-accent)" opacity=".85"></path></g><g id="body"><ellipse cx="32" cy="40" rx="10" ry="13" fill="currentColor"></ellipse><circle cx="32" cy="22" r="8.5" fill="currentColor"></circle><path d="M30,14 Q28,6 32,4 Q34,8 33,13 M34,14 Q38,7 41,8 Q38,12 35,14" fill="var(--pet-accent)"></path><path d="M37,24 L44,26 L37,28 Z" fill="var(--pet-accent)"></path></g><g id="face"><g class="mood m-idle" data-mood="idle"><circle cx="28" cy="21" r="2.3" fill="var(--pet-eye)"></circle><circle cx="36" cy="21" r="2.3" fill="var(--pet-eye)"></circle></g><g class="mood m-focused" data-mood="focused"><path d="M24.55,18.82 L29.38,21.23" fill="none" stroke="var(--pet-eye)" stroke-width="2.42" stroke-linecap="round" stroke-linejoin="round"></path><path d="M39.45,18.82 L34.62,21.23" fill="none" stroke="var(--pet-eye)" stroke-width="2.42" stroke-linecap="round" stroke-linejoin="round"></path><circle cx="28.23" cy="22.38" r="1.2" fill="var(--pet-eye)"></circle><circle cx="35.77" cy="22.38" r="1.2" fill="var(--pet-eye)"></circle><path d="M29.93,26.52 H34.07" fill="none" stroke="var(--pet-eye)" stroke-width="1.15" stroke-linecap="round" stroke-linejoin="round"></path></g><g class="mood m-happy" data-mood="happy"><path d="M25.7,21.81 L28,19.39 L30.3,21.81" fill="none" stroke="var(--pet-eye)" stroke-width="1.5" stroke-linecap="round" stroke-linejoin="round"></path><path d="M33.7,21.81 L36,19.39 L38.3,21.81" fill="none" stroke="var(--pet-eye)" stroke-width="1.5" stroke-linecap="round" stroke-linejoin="round"></path><path d="M29.47,25.83 Q32,29.05 34.53,25.83" fill="none" stroke="var(--pet-eye)" stroke-width="1.38" stroke-linecap="round" stroke-linejoin="round"></path></g><g class="mood m-celebrate" data-mood="celebrate"><path d="M28,18.36 Q28,21 30.65,21 Q28,21 28,23.65 Q28,21 25.36,21 Q28,21 28,18.36 Z" fill="var(--pet-accent)"></path><path d="M36,18.36 Q36,21 38.64,21 Q36,21 36,23.65 Q36,21 33.36,21 Q36,21 36,18.36 Z" fill="var(--pet-accent)"></path><path d="M41.98,9.46 Q41.98,11.3 43.82,11.3 Q41.98,11.3 41.98,13.14 Q41.98,11.3 40.14,11.3 Q41.98,11.3 41.98,9.46 Z" fill="var(--pet-accent)"></path><path d="M22.48,6.7 Q22.48,8.08 23.86,8.08 Q22.48,8.08 22.48,9.46 Q22.48,8.08 21.1,8.08 Q22.48,8.08 22.48,6.7 Z" fill="var(--pet-accent)"></path><path d="M29.47,25.83 Q32,29.51 34.53,25.83" fill="none" stroke="var(--pet-eye)" stroke-width="1.38" stroke-linecap="round" stroke-linejoin="round"></path></g><g class="mood m-sleep" data-mood="sleep"><path d="M25.7,21 Q28,23.53 30.3,21" fill="none" stroke="var(--pet-eye)" stroke-width="1.38" stroke-linecap="round" stroke-linejoin="round"></path><path d="M33.7,21 Q36,23.53 38.3,21" fill="none" stroke="var(--pet-eye)" stroke-width="1.38" stroke-linecap="round" stroke-linejoin="round"></path><path d="M41.98,13.6 h2.53 l-2.53,2.53 h2.53" fill="none" stroke="var(--pet-eye)" stroke-width="0.86" stroke-linecap="round" stroke-linejoin="round"></path><path d="M45.2,9 h3.22 l-3.22,3.22 h3.22" fill="none" stroke="var(--pet-eye)" stroke-width="1.09" stroke-linecap="round" stroke-linejoin="round"></path><path d="M49.11,4.4 h3.91 l-3.91,3.91 h3.91" fill="none" stroke="var(--pet-eye)" stroke-width="1.33" stroke-linecap="round" stroke-linejoin="round"></path></g><g class="mood m-confused" data-mood="confused"><circle cx="28" cy="21" r="2.18" fill="var(--pet-eye)"></circle><path d="M33.7,20.54 q1.15,-1.84 2.3,0 q1.15,1.84 2.3,0" fill="none" stroke="var(--pet-eye)" stroke-width="1.38" stroke-linecap="round" stroke-linejoin="round"></path><path d="M40.71,10.78 Q40.71,7.51 43.13,7.51 Q45.72,7.51 45.54,10.27 Q44.86,11.99 43.13,12.85" fill="none" stroke="var(--pet-eye)" stroke-width="1.17" stroke-linecap="round" stroke-linejoin="round"></path><circle cx="43.13" cy="15.1" r="0.69" fill="var(--pet-eye)"></circle></g><g class="mood m-tired" data-mood="tired"><path d="M25.7,20.77 Q28,18.24 30.3,20.77" fill="none" stroke="var(--pet-eye)" stroke-width="1.61" stroke-linecap="round" stroke-linejoin="round"></path><path d="M33.7,20.77 Q36,18.24 38.3,20.77" fill="none" stroke="var(--pet-eye)" stroke-width="1.61" stroke-linecap="round" stroke-linejoin="round"></path><circle cx="28" cy="21.35" r="0.97" fill="var(--pet-eye)"></circle><circle cx="36" cy="21.35" r="0.97" fill="var(--pet-eye)"></circle><path d="M26.39,23.99 Q28,25.37 29.61,23.99" fill="none" stroke="var(--pet-eye)" stroke-width="0.83" stroke-linecap="round" stroke-linejoin="round"></path><path d="M34.39,23.99 Q36,25.37 37.61,23.99" fill="none" stroke="var(--pet-eye)" stroke-width="0.83" stroke-linecap="round" stroke-linejoin="round"></path></g><g class="mood m-love" data-mood="love"><path d="M28,23.19 C24.94,20.34 26.91,18.49 28,20.3 C29.09,18.49 31.06,20.34 28,23.19 Z" fill="var(--pet-accent)"></path><path d="M36,23.19 C32.94,20.34 34.91,18.49 36,20.3 C37.09,18.49 39.06,20.34 36,23.19 Z" fill="var(--pet-accent)"></path><path d="M29.7,26.06 Q32,28.82 34.3,26.06" fill="none" stroke="var(--pet-eye)" stroke-width="1.26" stroke-linecap="round" stroke-linejoin="round"></path></g><g class="mood m-surprised" data-mood="surprised"><circle cx="28" cy="21" r="2.64" fill="none" stroke="var(--pet-eye)" stroke-width="1.15"></circle><circle cx="36" cy="21" r="2.64" fill="none" stroke="var(--pet-eye)" stroke-width="1.15"></circle><circle cx="28" cy="21" r="0.97" fill="var(--pet-eye)"></circle><circle cx="36" cy="21" r="0.97" fill="var(--pet-eye)"></circle><path d="M25.47,16.63 Q28,15.48 29.38,16.4" fill="none" stroke="var(--pet-eye)" stroke-width="1.03" stroke-linecap="round" stroke-linejoin="round"></path><path d="M34.62,16.4 Q36,15.48 38.53,16.63" fill="none" stroke="var(--pet-eye)" stroke-width="1.03" stroke-linecap="round" stroke-linejoin="round"></path><ellipse cx="32" cy="27.44" rx="1.61" ry="2.07" fill="var(--pet-eye)"></ellipse></g><g class="mood m-playful" data-mood="playful"><path d="M25.7,21.46 Q28,18.93 30.3,21.46" fill="none" stroke="var(--pet-eye)" stroke-width="1.5" stroke-linecap="round" stroke-linejoin="round"></path><circle cx="36" cy="21" r="2.3" fill="var(--pet-eye)"></circle><path d="M29.47,25.83 Q32.46,28.59 34.76,25.37" fill="none" stroke="var(--pet-eye)" stroke-width="1.26" stroke-linecap="round" stroke-linejoin="round"></path><path d="M32.46,27.21 Q33.27,29.28 34.19,27.56 Z" fill="var(--pet-accent)"></path></g></g></svg>