<svg xmlns="http://www.w3.org/2000/svg" viewBox="0 0 64 64" data-mood="idle" role="img" aria-label="pigeon pet sprite"><g id="tail"><path class="tail" d="M16,42 Q5,44 3,53 M16,44 Q6,48 5,56 M18,46 Q11,52 11,58" fill="none" stroke="currentColor" stroke-width="2.6" stroke-linecap="round"></path></g><g id="legs"><path class="leg-back" d="M19,40 Q12,44 14,52 Q18,49 21,45 Z" fill="currentColor"></path><path class="leg-front" d="M22,36 Q40,38 39,50 Q29,51 22,45 Z" fill="currentColor"></path><path d="M30,53 L28,59 M36,53 L38,59" stroke="var(--pet-accent)" stroke-width="1.8" stroke-linecap="round"></path></g><g id="body"><ellipse cx="31" cy="40" rx="14" ry="12" fill="currentColor"></ellipse><path d="M38,33 Q45,30 43,23" fill="none" stroke="var(--pet-accent)" stroke-width="5.5" stroke-linecap="round" opacity=".75"></path><circle cx="44" cy="22" r="8" fill="currentColor"></circle><path d="M50,22 L57,23 L50,25 Z" fill="var(--pet-eye)"></path></g><g id="face"><g class="mood m-idle" data-mood="idle"><circle cx="42" cy="20" r="2.2" fill="var(--pet-eye)"></circle><circle cx="48" cy="20" r="2.2" fill="var(--pet-eye)"></circle></g><g class="mood m-focused" data-mood="focused"><path d="M38.7,17.91 L43.32,20.22" fill="none" stroke="var(--pet-eye)" stroke-width="2.31" stroke-linecap="round" stroke-linejoin="round"></path><path d="M51.3,17.91 L46.68,20.22" fill="none" stroke="var(--pet-eye)" stroke-width="2.31" stroke-linecap="round" stroke-linejoin="round"></path><circle cx="42.22" cy="21.32" r="1.14" fill="var(--pet-eye)"></circle><circle cx="47.78" cy="21.32" r="1.14" fill="var(--pet-eye)"></circle><path d="M43.02,25.28 H46.98" fill="none" stroke="var(--pet-eye)" stroke-width="1.1" stroke-linecap="round" stroke-linejoin="round"></path></g><g class="mood m-happy" data-mood="happy"><path d="M39.8,20.77 L42,18.46 L44.2,20.77" fill="none" stroke="var(--pet-eye)" stroke-width="1.43" stroke-linecap="round" stroke-linejoin="round"></path><path d="M45.8,20.77 L48,18.46 L50.2,20.77" fill="none" stroke="var(--pet-eye)" stroke-width="1.43" stroke-linecap="round" stroke-linejoin="round"></path><path d="M42.58,24.62 Q45,27.7 47.42,24.62" fill="none" stroke="var(--pet-eye)" stroke-width="1.32" stroke-linecap="round" stroke-linejoin="round"></path></g><g class="mood m-celebrate" data-mood="celebrate"><path d="M42,17.47 Q42,20 44.53,20 Q42,20 42,22.53 Q42,20 39.47,20 Q42,20 42,17.47 Z" fill="var(--pet-accent)"></path><path d="M48,17.47 Q48,20 50.53,20 Q48,20 48,22.53 Q48,20 45.47,20 Q48,20 48,17.47 Z" fill="var(--pet-accent)"></path><path d="M53.72,9.44 Q53.72,11.2 55.48,11.2 Q53.72,11.2 53.72,12.96 Q53.72,11.2 51.96,11.2 Q53.72,11.2 53.72,9.44 Z" fill="var(--pet-accent)"></path><path d="M36.72,6.8 Q36.72,8.12 38.04,8.12 Q36.72,8.12 36.72,9.44 Q36.72,8.12 35.4,8.12 Q36.72,8.12 36.72,6.8 Z" fill="var(--pet-accent)"></path><path d="M42.58,24.62 Q45,28.14 47.42,24.62" fill="none" stroke="var(--pet-eye)" stroke-width="1.32" stroke-linecap="round" stroke-linejoin="round"></path></g><g class="mood m-sleep" data-mood="sleep"><path d="M39.8,20 Q42,22.42 44.2,20" fill="none" stroke="var(--pet-eye)" stroke-width="1.32" stroke-linecap="round" stroke-linejoin="round"></path><path d="M45.8,20 Q48,22.42 50.2,20" fill="none" stroke="var(--pet-eye)" stroke-width="1.32" stroke-linecap="round" stroke-linejoin="round"></path><path d="M53.72,13.4 h2.42 l-2.42,2.42 h2.42" fill="none" stroke="var(--pet-eye)" stroke-width="0.82" stroke-linecap="round" stroke-linejoin="round"></path><path d="M56.8,9 h3.08 l-3.08,3.08 h3.08" fill="none" stroke="var(--pet-eye)" stroke-width="1.05" stroke-linecap="round" stroke-linejoin="round"></path><path d="M60.54,4.6 h3.74 l-3.74,3.74 h3.74" fill="none" stroke="var(--pet-eye)" stroke-width="1.27" stroke-linecap="round" stroke-linejoin="round"></path></g><g class="mood m-confused" data-mood="confused"><circle cx="42" cy="20" r="2.09" fill="var(--pet-eye)"></circle><path d="M45.8,19.56 q1.1,-1.76 2.2,0 q1.1,1.76 2.2,0" fill="none" stroke="var(--pet-eye)" stroke-width="1.32" stroke-linecap="round" stroke-linejoin="round"></path><path d="M52.51,10.7 Q52.51,7.57 54.82,7.57 Q57.3,7.57 57.13,10.21 Q56.47,11.86 54.82,12.68" fill="none" stroke="var(--pet-eye)" stroke-width="1.12" stroke-linecap="round" stroke-linejoin="round"></path><circle cx="54.82" cy="14.83" r="0.66" fill="var(--pet-eye)"></circle></g><g class="mood m-tired" data-mood="tired"><path d="M39.8,19.78 Q42,17.36 44.2,19.78" fill="none" stroke="var(--pet-eye)" stroke-width="1.54" stroke-linecap="round" stroke-linejoin="round"></path><path d="M45.8,19.78 Q48,17.36 50.2,19.78" fill="none" stroke="var(--pet-eye)" stroke-width="1.54" stroke-linecap="round" stroke-linejoin="round"></path><circle cx="42" cy="20.33" r="0.92" fill="var(--pet-eye)"></circle><circle cx="48" cy="20.33" r="0.92" fill="var(--pet-eye)"></circle><path d="M40.46,22.86 Q42,24.18 43.54,22.86" fill="none" stroke="var(--pet-eye)" stroke-width="0.79" stroke-linecap="round" stroke-linejoin="round"></path><path d="M46.46,22.86 Q48,24.18 49.54,22.86" fill="none" stroke="var(--pet-eye)" stroke-width="0.79" stroke-linecap="round" stroke-linejoin="round"></path></g><g class="mood m-love" data-mood="love"><path d="M42,22.09 C39.07,19.37 40.96,17.6 42,19.33 C43.05,17.6 44.93,19.37 42,22.09 Z" fill="var(--pet-accent)"></path><path d="M48,22.09 C45.07,19.37 46.96,17.6 48,19.33 C49.05,17.6 50.93,19.37 48,22.09 Z" fill="var(--pet-accent)"></path><path d="M42.8,24.84 Q45,27.48 47.2,24.84" fill="none" stroke="var(--pet-eye)" stroke-width="1.21" stroke-linecap="round" stroke-linejoin="round"></path></g><g class="mood m-surprised" data-mood="surprised"><circle cx="42" cy="20" r="2.53" fill="none" stroke="var(--pet-eye)" stroke-width="1.1"></circle><circle cx="48" cy="20" r="2.53" fill="none" stroke="var(--pet-eye)" stroke-width="1.1"></circle><circle cx="42" cy="20" r="0.92" fill="var(--pet-eye)"></circle><circle cx="48" cy="20" r="0.92" fill="var(--pet-eye)"></circle><path d="M39.58,15.82 Q42,14.72 43.32,15.6" fill="none" stroke="var(--pet-eye)" stroke-width="0.99" stroke-linecap="round" stroke-linejoin="round"></path><path d="M46.68,15.6 Q48,14.72 50.42,15.82" fill="none" stroke="var(--pet-eye)" stroke-width="0.99" stroke-linecap="round" stroke-linejoin="round"></path><ellipse cx="45" cy="26.16" rx="1.54" ry="1.98" fill="var(--pet-eye)"></ellipse></g><g class="mood m-playful" data-mood="playful"><path d="M39.8,20.44 Q42,18.02 44.2,20.44" fill="none" stroke="var(--pet-eye)" stroke-width="1.43" stroke-linecap="round" stroke-linejoin="round"></path><circle cx="48" cy="20" r="2.2" fill="var(--pet-eye)"></circle><path d="M42.58,24.62 Q45.44,27.26 47.64,24.18" fill="none" stroke="var(--pet-eye)" stroke-width="1.21" stroke-linecap="round" stroke-linejoin="round"></path><path d="M45.44,25.94 Q46.21,27.92 47.09,26.27 Z" fill="var(--pet-accent)"></path></g></g></svg>