<svg xmlns="http://www.w3.org/2000/svg" viewBox="0 0 64 64" data-mood="idle" role="img" aria-label="rabbit pet sprite"><g id="tail"><circle id="tail" class="tail" cx="18" cy="45" r="4.2" fill="var(--pet-accent)"></circle></g><g id="legs"><ellipse id="leg-back" class="leg-back" cx="25" cy="57" rx="7.5" ry="4.3" fill="currentColor"></ellipse><ellipse id="leg-front" class="leg-front" cx="40" cy="57" rx="6.5" ry="4" fill="currentColor"></ellipse></g><g id="body"><ellipse cx="30" cy="46" rx="13.5" ry="13.5" fill="currentColor"></ellipse><circle cx="41" cy="31" r="10.5" fill="currentColor"></circle><ellipse cx="34" cy="50" rx="6" ry="5" fill="var(--pet-accent)" opacity=".8"></ellipse></g><g id="ears"><path d="M36,25 Q32,8 36.5,3 Q41,8 40,25 Z" fill="currentColor"></path><path d="M37.6,23 Q35,11 37,6 Q39.4,11 38.6,23 Z" fill="var(--pet-accent)" opacity=".85"></path><path d="M44,25 Q45,8 50,5 Q52.5,11 48,25 Z" fill="currentColor"></path><path d="M45.6,23 Q46.6,12 49.4,8.5 Q50.6,13 47.4,23 Z" fill="var(--pet-accent)" opacity=".85"></path></g><g id="face"><path d="M46.4,32.6 L48.6,32.6 L47.5,34.1 Z" fill="var(--pet-accent)"></path><g class="mood m-idle" data-mood="idle"><circle cx="39" cy="30" r="2.5" fill="var(--pet-eye)"></circle><circle cx="46" cy="30" r="2.5" fill="var(--pet-eye)"></circle></g><g class="mood m-focused" data-mood="focused"><path d="M36.3,28.4 L41.7,30.5" fill="none" stroke="var(--pet-eye)" stroke-width="2.6" stroke-linecap="round" stroke-linejoin="round"></path><path d="M43.3,30.5 L48.7,28.4" fill="none" stroke="var(--pet-eye)" stroke-width="2.6" stroke-linecap="round" stroke-linejoin="round"></path><circle cx="39.5" cy="32.5" r="1.3" fill="var(--pet-eye)"></circle><circle cx="45.5" cy="32.5" r="1.3" fill="var(--pet-eye)"></circle></g><g class="mood m-happy" data-mood="happy"><path d="M36.4,31.1 L39,28 L41.6,31.1" fill="none" stroke="var(--pet-eye)" stroke-width="2.4" stroke-linecap="round" stroke-linejoin="round"></path><path d="M43.4,31.1 L46,28 L48.6,31.1" fill="none" stroke="var(--pet-eye)" stroke-width="2.4" stroke-linecap="round" stroke-linejoin="round"></path><path d="M41,35 Q44,38.2 47,35" fill="none" stroke="var(--pet-eye)" stroke-width="1.8" stroke-linecap="round" stroke-linejoin="round"></path></g><g class="mood m-celebrate" data-mood="celebrate"><path transform="translate(39,30) scale(1)" d="M0,-3.2 Q0.7,-0.7 3.2,0 Q0.7,0.7 0,3.2 Q-0.7,0.7 -3.2,0 Q-0.7,-0.7 0,-3.2Z" fill="var(--pet-accent)"></path><path transform="translate(46,30) scale(1)" d="M0,-3.2 Q0.7,-0.7 3.2,0 Q0.7,0.7 0,3.2 Q-0.7,0.7 -3.2,0 Q-0.7,-0.7 0,-3.2Z" fill="var(--pet-accent)"></path><path d="M41.4,35 Q44,39.2 46.6,35 Q44,36 41.4,35Z" fill="var(--pet-eye)"></path><path transform="translate(40,6) scale(0.5)" d="M0,-3.2 Q0.7,-0.7 3.2,0 Q0.7,0.7 0,3.2 Q-0.7,0.7 -3.2,0 Q-0.7,-0.7 0,-3.2Z" fill="var(--pet-accent)"></path><path transform="translate(52,24) scale(0.55)" d="M0,-3.2 Q0.7,-0.7 3.2,0 Q0.7,0.7 0,3.2 Q-0.7,0.7 -3.2,0 Q-0.7,-0.7 0,-3.2Z" fill="var(--pet-accent)"></path></g><g class="mood m-sleep" data-mood="sleep"><path d="M36.5,29.5 Q39,32.4 41.5,29.5" fill="none" stroke="var(--pet-eye)" stroke-width="1.9" stroke-linecap="round" stroke-linejoin="round"></path><path d="M43.5,29.5 Q46,32.4 48.5,29.5" fill="none" stroke="var(--pet-eye)" stroke-width="1.9" stroke-linecap="round" stroke-linejoin="round"></path><path transform="translate(51,10) scale(0.7)" d="M0,0 H3.4 L0,3.6 H3.4" fill="none" stroke="var(--pet-eye)" stroke-width="1.1" stroke-linejoin="round" stroke-linecap="round"></path><path transform="translate(54,6) scale(0.9)" d="M0,0 H3.4 L0,3.6 H3.4" fill="none" stroke="var(--pet-eye)" stroke-width="1.1" stroke-linejoin="round" stroke-linecap="round"></path><path transform="translate(57.6,1) scale(1.15)" d="M0,0 H3.4 L0,3.6 H3.4" fill="none" stroke="var(--pet-eye)" stroke-width="1.1" stroke-linejoin="round" stroke-linecap="round"></path></g><g class="mood m-confused" data-mood="confused"><circle cx="39" cy="30" r="2.5" fill="var(--pet-eye)"></circle><path d="M43.7,30.3 Q46,28.8 48.3,30.3" fill="none" stroke="var(--pet-eye)" stroke-width="1.9" stroke-linecap="round" stroke-linejoin="round"></path><g transform="translate(52,3)"><path d="M-1.7,-2.2 Q-1.7,-4.7 0.2,-4.7 Q2.2,-4.7 2.2,-2.4 Q2.2,-0.6 0.2,0.1 L0.2,1.5" fill="none" stroke="var(--pet-eye)" stroke-width="1.5" stroke-linecap="round" stroke-linejoin="round"></path><circle cx="0.2" cy="3.5" r="1" fill="var(--pet-eye)"></circle></g></g><g class="mood m-tired" data-mood="tired"><path d="M36.6,29.8 Q39,32.7 41.4,29.8 Z" fill="var(--pet-eye)"></path><path d="M43.6,29.8 Q46,32.7 48.4,29.8 Z" fill="var(--pet-eye)"></path><path d="M36.2,28.9 Q39,29.9 41.8,28.7" fill="none" stroke="var(--pet-eye)" stroke-width="1.4" stroke-linecap="round" stroke-linejoin="round"></path><path d="M43.2,28.7 Q46,29.9 48.8,28.9" fill="none" stroke="var(--pet-eye)" stroke-width="1.4" stroke-linecap="round" stroke-linejoin="round"></path></g><g class="mood m-love" data-mood="love"><path transform="translate(39,30) scale(0.95)" d="M0,2.4 C0,0.6 -2.6,0.4 -2.6,-1 C-2.6,-2.4 -0.6,-2.6 0,-1.3 C0.6,-2.6 2.6,-2.4 2.6,-1 C2.6,0.4 0,0.6 0,2.4Z" fill="var(--pet-accent)"></path><path transform="translate(46,30) scale(0.95)" d="M0,2.4 C0,0.6 -2.6,0.4 -2.6,-1 C-2.6,-2.4 -0.6,-2.6 0,-1.3 C0.6,-2.6 2.6,-2.4 2.6,-1 C2.6,0.4 0,0.6 0,2.4Z" fill="var(--pet-accent)"></path><path d="M41,35 Q44,38.2 47,35" fill="none" stroke="var(--pet-eye)" stroke-width="1.8" stroke-linecap="round" stroke-linejoin="round"></path></g></g></svg>