<svg xmlns="http://www.w3.org/2000/svg" viewBox="0 0 64 64" data-mood="idle" role="img" aria-label="raccoon pet sprite"><g id="tail"><path class="tail" d="M16,48 Q3,46 6,34 Q7,29 14,31" fill="none" stroke="currentColor" stroke-width="7" stroke-linecap="round"></path><path d="M9,30 Q5,34 6,40 M13,29 Q9,33 10,40" fill="none" stroke="var(--pet-accent)" stroke-width="2.4" stroke-linecap="round"></path></g><g id="legs"><rect class="leg-back" x="22" y="49" width="6.5" height="11" rx="3.25" fill="currentColor"></rect><rect class="leg-front" x="35" y="49" width="6.5" height="11" rx="3.25" fill="currentColor"></rect></g><g id="body"><ellipse cx="28" cy="43" rx="14" ry="12" fill="currentColor"></ellipse><circle cx="46" cy="27" r="11" fill="currentColor"></circle><path d="M37,25 Q46,21 55,25 Q54,31 46,31 Q38,31 37,25 Z" fill="var(--pet-accent)" opacity=".85"></path><path d="M44,30 L48,30 L46,33 Z" fill="var(--pet-eye)"></path></g><g id="ears"><path d="M38,18 L35,9 L44,18 Z" fill="currentColor"></path><path d="M54,18 L57,9 L48,18 Z" fill="currentColor"></path></g><g id="face"><g class="mood m-idle" data-mood="idle"><circle cx="42" cy="26" r="2.5" fill="var(--pet-eye)"></circle><circle cx="50" cy="26" r="2.5" fill="var(--pet-eye)"></circle></g><g class="mood m-focused" data-mood="focused"><path d="M38.25,23.63 L43.5,26.25" fill="none" stroke="var(--pet-eye)" stroke-width="2.63" stroke-linecap="round" stroke-linejoin="round"></path><path d="M53.75,23.63 L48.5,26.25" fill="none" stroke="var(--pet-eye)" stroke-width="2.63" stroke-linecap="round" stroke-linejoin="round"></path><circle cx="42.25" cy="27.5" r="1.3" fill="var(--pet-eye)"></circle><circle cx="49.75" cy="27.5" r="1.3" fill="var(--pet-eye)"></circle><path d="M43.75,32 H48.25" fill="none" stroke="var(--pet-eye)" stroke-width="1.25" stroke-linecap="round" stroke-linejoin="round"></path></g><g class="mood m-happy" data-mood="happy"><path d="M39.5,26.88 L42,24.25 L44.5,26.88" fill="none" stroke="var(--pet-eye)" stroke-width="1.63" stroke-linecap="round" stroke-linejoin="round"></path><path d="M47.5,26.88 L50,24.25 L52.5,26.88" fill="none" stroke="var(--pet-eye)" stroke-width="1.63" stroke-linecap="round" stroke-linejoin="round"></path><path d="M43.25,31.25 Q46,34.75 48.75,31.25" fill="none" stroke="var(--pet-eye)" stroke-width="1.5" stroke-linecap="round" stroke-linejoin="round"></path></g><g class="mood m-celebrate" data-mood="celebrate"><path d="M42,23.13 Q42,26 44.88,26 Q42,26 42,28.88 Q42,26 39.13,26 Q42,26 42,23.13 Z" fill="var(--pet-accent)"></path><path d="M50,23.13 Q50,26 52.88,26 Q50,26 50,28.88 Q50,26 47.13,26 Q50,26 50,23.13 Z" fill="var(--pet-accent)"></path><path d="M56.5,14.5 Q56.5,16.5 58.5,16.5 Q56.5,16.5 56.5,18.5 Q56.5,16.5 54.5,16.5 Q56.5,16.5 56.5,14.5 Z" fill="var(--pet-accent)"></path><path d="M36,11.5 Q36,13 37.5,13 Q36,13 36,14.5 Q36,13 34.5,13 Q36,13 36,11.5 Z" fill="var(--pet-accent)"></path><path d="M43.25,31.25 Q46,35.25 48.75,31.25" fill="none" stroke="var(--pet-eye)" stroke-width="1.5" stroke-linecap="round" stroke-linejoin="round"></path></g><g class="mood m-sleep" data-mood="sleep"><path d="M39.5,26 Q42,28.75 44.5,26" fill="none" stroke="var(--pet-eye)" stroke-width="1.5" stroke-linecap="round" stroke-linejoin="round"></path><path d="M47.5,26 Q50,28.75 52.5,26" fill="none" stroke="var(--pet-eye)" stroke-width="1.5" stroke-linecap="round" stroke-linejoin="round"></path><path d="M56.5,19 h2.75 l-2.75,2.75 h2.75" fill="none" stroke="var(--pet-eye)" stroke-width="0.94" stroke-linecap="round" stroke-linejoin="round"></path><path d="M60,14 h3.5 l-3.5,3.5 h3.5" fill="none" stroke="var(--pet-eye)" stroke-width="1.19" stroke-linecap="round" stroke-linejoin="round"></path><path d="M64.25,9 h4.25 l-4.25,4.25 h4.25" fill="none" stroke="var(--pet-eye)" stroke-width="1.45" stroke-linecap="round" stroke-linejoin="round"></path></g><g class="mood m-confused" data-mood="confused"><circle cx="42" cy="26" r="2.38" fill="var(--pet-eye)"></circle><path d="M47.5,25.5 q1.25,-2 2.5,0 q1.25,2 2.5,0" fill="none" stroke="var(--pet-eye)" stroke-width="1.5" stroke-linecap="round" stroke-linejoin="round"></path><path d="M55.13,15.94 Q55.13,12.38 57.75,12.38 Q60.56,12.38 60.38,15.38 Q59.63,17.25 57.75,18.19" fill="none" stroke="var(--pet-eye)" stroke-width="1.28" stroke-linecap="round" stroke-linejoin="round"></path><circle cx="57.75" cy="20.63" r="0.75" fill="var(--pet-eye)"></circle></g><g class="mood m-tired" data-mood="tired"><path d="M39.5,25.75 Q42,23 44.5,25.75" fill="none" stroke="var(--pet-eye)" stroke-width="1.75" stroke-linecap="round" stroke-linejoin="round"></path><path d="M47.5,25.75 Q50,23 52.5,25.75" fill="none" stroke="var(--pet-eye)" stroke-width="1.75" stroke-linecap="round" stroke-linejoin="round"></path><circle cx="42" cy="26.38" r="1.05" fill="var(--pet-eye)"></circle><circle cx="50" cy="26.38" r="1.05" fill="var(--pet-eye)"></circle><path d="M40.25,29.25 Q42,30.75 43.75,29.25" fill="none" stroke="var(--pet-eye)" stroke-width="0.9" stroke-linecap="round" stroke-linejoin="round"></path><path d="M48.25,29.25 Q50,30.75 51.75,29.25" fill="none" stroke="var(--pet-eye)" stroke-width="0.9" stroke-linecap="round" stroke-linejoin="round"></path></g><g class="mood m-love" data-mood="love"><path d="M42,28.38 C38.67,25.29 40.81,23.27 42,25.24 C43.19,23.27 45.33,25.29 42,28.38 Z" fill="var(--pet-accent)"></path><path d="M50,28.38 C46.68,25.29 48.81,23.27 50,25.24 C51.19,23.27 53.33,25.29 50,28.38 Z" fill="var(--pet-accent)"></path><path d="M43.5,31.5 Q46,34.5 48.5,31.5" fill="none" stroke="var(--pet-eye)" stroke-width="1.38" stroke-linecap="round" stroke-linejoin="round"></path></g><g class="mood m-surprised" data-mood="surprised"><circle cx="42" cy="26" r="2.88" fill="none" stroke="var(--pet-eye)" stroke-width="1.25"></circle><circle cx="50" cy="26" r="2.88" fill="none" stroke="var(--pet-eye)" stroke-width="1.25"></circle><circle cx="42" cy="26" r="1.05" fill="var(--pet-eye)"></circle><circle cx="50" cy="26" r="1.05" fill="var(--pet-eye)"></circle><path d="M39.25,21.25 Q42,20 43.5,21" fill="none" stroke="var(--pet-eye)" stroke-width="1.13" stroke-linecap="round" stroke-linejoin="round"></path><path d="M48.5,21 Q50,20 52.75,21.25" fill="none" stroke="var(--pet-eye)" stroke-width="1.13" stroke-linecap="round" stroke-linejoin="round"></path><ellipse cx="46" cy="33" rx="1.75" ry="2.25" fill="var(--pet-eye)"></ellipse></g><g class="mood m-playful" data-mood="playful"><path d="M39.5,26.5 Q42,23.75 44.5,26.5" fill="none" stroke="var(--pet-eye)" stroke-width="1.63" stroke-linecap="round" stroke-linejoin="round"></path><circle cx="50" cy="26" r="2.5" fill="var(--pet-eye)"></circle><path d="M43.25,31.25 Q46.5,34.25 49,30.75" fill="none" stroke="var(--pet-eye)" stroke-width="1.38" stroke-linecap="round" stroke-linejoin="round"></path><path d="M46.5,32.75 Q47.38,35 48.38,33.13 Z" fill="var(--pet-accent)"></path></g></g></svg>