<svg xmlns="http://www.w3.org/2000/svg" viewBox="0 0 64 64" data-mood="idle" role="img" aria-label="ram pet sprite"><g id="tail"><path class="tail" d="M14,42 Q9,41 9,46" fill="none" stroke="currentColor" stroke-width="3.4" stroke-linecap="round"></path></g><g id="legs"><rect class="leg-back" x="21" y="48" width="5" height="12" rx="2.5" fill="currentColor"></rect><rect class="leg-front" x="33" y="48" width="5" height="12" rx="2.5" fill="currentColor"></rect></g><g id="body"><path d="M14,42 Q12,30 26,30 Q42,30 40,42 Q40,52 27,52 Q14,52 14,42 Z" fill="currentColor"></path><circle cx="20" cy="34" r="4" fill="currentColor"></circle><circle cx="28" cy="31" r="4" fill="currentColor"></circle><circle cx="36" cy="34" r="4" fill="currentColor"></circle><circle cx="32" cy="46" r="4" fill="currentColor"></circle><circle cx="22" cy="46" r="4" fill="currentColor"></circle><circle cx="47" cy="29" r="8.5" fill="currentColor"></circle></g><g id="ears"><path d="M40,28 Q31,28 33,36 Q39,34 41,30 Z" fill="var(--pet-accent)"></path><path d="M55,28 Q64,28 62,36 Q56,34 54,30 Z" fill="var(--pet-accent)"></path><path d="M41,27 L37,25 M53,27 L57,25" stroke="currentColor" stroke-width="3" stroke-linecap="round"></path></g><g id="face"><g class="mood m-idle" data-mood="idle"><circle cx="44" cy="29" r="2.3" fill="var(--pet-eye)"></circle><circle cx="51" cy="29" r="2.3" fill="var(--pet-eye)"></circle></g><g class="mood m-focused" data-mood="focused"><path d="M40.55,26.82 L45.38,29.23" fill="none" stroke="var(--pet-eye)" stroke-width="2.42" stroke-linecap="round" stroke-linejoin="round"></path><path d="M54.45,26.82 L49.62,29.23" fill="none" stroke="var(--pet-eye)" stroke-width="2.42" stroke-linecap="round" stroke-linejoin="round"></path><circle cx="44.23" cy="30.38" r="1.2" fill="var(--pet-eye)"></circle><circle cx="50.77" cy="30.38" r="1.2" fill="var(--pet-eye)"></circle><path d="M45.43,34.52 H49.57" fill="none" stroke="var(--pet-eye)" stroke-width="1.15" stroke-linecap="round" stroke-linejoin="round"></path></g><g class="mood m-happy" data-mood="happy"><path d="M41.7,29.81 L44,27.39 L46.3,29.81" fill="none" stroke="var(--pet-eye)" stroke-width="1.5" stroke-linecap="round" stroke-linejoin="round"></path><path d="M48.7,29.81 L51,27.39 L53.3,29.81" fill="none" stroke="var(--pet-eye)" stroke-width="1.5" stroke-linecap="round" stroke-linejoin="round"></path><path d="M44.97,33.83 Q47.5,37.05 50.03,33.83" fill="none" stroke="var(--pet-eye)" stroke-width="1.38" stroke-linecap="round" stroke-linejoin="round"></path></g><g class="mood m-celebrate" data-mood="celebrate"><path d="M44,26.36 Q44,29 46.65,29 Q44,29 44,31.65 Q44,29 41.36,29 Q44,29 44,26.36 Z" fill="var(--pet-accent)"></path><path d="M51,26.36 Q51,29 53.65,29 Q51,29 51,31.65 Q51,29 48.36,29 Q51,29 51,26.36 Z" fill="var(--pet-accent)"></path><path d="M56.98,18.46 Q56.98,20.3 58.82,20.3 Q56.98,20.3 56.98,22.14 Q56.98,20.3 55.14,20.3 Q56.98,20.3 56.98,18.46 Z" fill="var(--pet-accent)"></path><path d="M38.48,15.7 Q38.48,17.08 39.86,17.08 Q38.48,17.08 38.48,18.46 Q38.48,17.08 37.1,17.08 Q38.48,17.08 38.48,15.7 Z" fill="var(--pet-accent)"></path><path d="M44.97,33.83 Q47.5,37.51 50.03,33.83" fill="none" stroke="var(--pet-eye)" stroke-width="1.38" stroke-linecap="round" stroke-linejoin="round"></path></g><g class="mood m-sleep" data-mood="sleep"><path d="M41.7,29 Q44,31.53 46.3,29" fill="none" stroke="var(--pet-eye)" stroke-width="1.38" stroke-linecap="round" stroke-linejoin="round"></path><path d="M48.7,29 Q51,31.53 53.3,29" fill="none" stroke="var(--pet-eye)" stroke-width="1.38" stroke-linecap="round" stroke-linejoin="round"></path><path d="M56.98,22.6 h2.53 l-2.53,2.53 h2.53" fill="none" stroke="var(--pet-eye)" stroke-width="0.86" stroke-linecap="round" stroke-linejoin="round"></path><path d="M60.2,18 h3.22 l-3.22,3.22 h3.22" fill="none" stroke="var(--pet-eye)" stroke-width="1.09" stroke-linecap="round" stroke-linejoin="round"></path><path d="M64.11,13.4 h3.91 l-3.91,3.91 h3.91" fill="none" stroke="var(--pet-eye)" stroke-width="1.33" stroke-linecap="round" stroke-linejoin="round"></path></g><g class="mood m-confused" data-mood="confused"><circle cx="44" cy="29" r="2.18" fill="var(--pet-eye)"></circle><path d="M48.7,28.54 q1.15,-1.84 2.3,0 q1.15,1.84 2.3,0" fill="none" stroke="var(--pet-eye)" stroke-width="1.38" stroke-linecap="round" stroke-linejoin="round"></path><path d="M55.72,19.78 Q55.72,16.51 58.13,16.51 Q60.72,16.51 60.54,19.27 Q59.86,20.99 58.13,21.85" fill="none" stroke="var(--pet-eye)" stroke-width="1.17" stroke-linecap="round" stroke-linejoin="round"></path><circle cx="58.13" cy="24.1" r="0.69" fill="var(--pet-eye)"></circle></g><g class="mood m-tired" data-mood="tired"><path d="M41.7,28.77 Q44,26.24 46.3,28.77" fill="none" stroke="var(--pet-eye)" stroke-width="1.61" stroke-linecap="round" stroke-linejoin="round"></path><path d="M48.7,28.77 Q51,26.24 53.3,28.77" fill="none" stroke="var(--pet-eye)" stroke-width="1.61" stroke-linecap="round" stroke-linejoin="round"></path><circle cx="44" cy="29.35" r="0.97" fill="var(--pet-eye)"></circle><circle cx="51" cy="29.35" r="0.97" fill="var(--pet-eye)"></circle><path d="M42.39,31.99 Q44,33.37 45.61,31.99" fill="none" stroke="var(--pet-eye)" stroke-width="0.83" stroke-linecap="round" stroke-linejoin="round"></path><path d="M49.39,31.99 Q51,33.37 52.61,31.99" fill="none" stroke="var(--pet-eye)" stroke-width="0.83" stroke-linecap="round" stroke-linejoin="round"></path></g><g class="mood m-love" data-mood="love"><path d="M44,31.19 C40.94,28.34 42.91,26.49 44,28.3 C45.09,26.49 47.06,28.34 44,31.19 Z" fill="var(--pet-accent)"></path><path d="M51,31.19 C47.94,28.34 49.91,26.49 51,28.3 C52.09,26.49 54.06,28.34 51,31.19 Z" fill="var(--pet-accent)"></path><path d="M45.2,34.06 Q47.5,36.82 49.8,34.06" fill="none" stroke="var(--pet-eye)" stroke-width="1.26" stroke-linecap="round" stroke-linejoin="round"></path></g><g class="mood m-surprised" data-mood="surprised"><circle cx="44" cy="29" r="2.64" fill="none" stroke="var(--pet-eye)" stroke-width="1.15"></circle><circle cx="51" cy="29" r="2.64" fill="none" stroke="var(--pet-eye)" stroke-width="1.15"></circle><circle cx="44" cy="29" r="0.97" fill="var(--pet-eye)"></circle><circle cx="51" cy="29" r="0.97" fill="var(--pet-eye)"></circle><path d="M41.47,24.63 Q44,23.48 45.38,24.4" fill="none" stroke="var(--pet-eye)" stroke-width="1.03" stroke-linecap="round" stroke-linejoin="round"></path><path d="M49.62,24.4 Q51,23.48 53.53,24.63" fill="none" stroke="var(--pet-eye)" stroke-width="1.03" stroke-linecap="round" stroke-linejoin="round"></path><ellipse cx="47.5" cy="35.44" rx="1.61" ry="2.07" fill="var(--pet-eye)"></ellipse></g><g class="mood m-playful" data-mood="playful"><path d="M41.7,29.46 Q44,26.93 46.3,29.46" fill="none" stroke="var(--pet-eye)" stroke-width="1.5" stroke-linecap="round" stroke-linejoin="round"></path><circle cx="51" cy="29" r="2.3" fill="var(--pet-eye)"></circle><path d="M44.97,33.83 Q47.96,36.59 50.26,33.37" fill="none" stroke="var(--pet-eye)" stroke-width="1.26" stroke-linecap="round" stroke-linejoin="round"></path><path d="M47.96,35.21 Q48.77,37.28 49.69,35.55 Z" fill="var(--pet-accent)"></path></g></g></svg>