<svg xmlns="http://www.w3.org/2000/svg" viewBox="0 0 64 64" data-mood="idle" role="img" aria-label="rat pet sprite"><g id="tail"><path class="tail" d="M14,46 Q2,46 3,38 Q4,33 9,34" fill="none" stroke="var(--pet-accent)" stroke-width="2.4" stroke-linecap="round" opacity=".8"></path></g><g id="legs"><rect class="leg-back" x="23" y="49" width="5.5" height="11" rx="2.75" fill="currentColor"></rect><rect class="leg-front" x="34" y="49" width="5.5" height="11" rx="2.75" fill="currentColor"></rect></g><g id="body"><ellipse cx="28" cy="44" rx="13" ry="10" fill="currentColor"></ellipse><ellipse cx="28" cy="47" rx="7" ry="5" fill="var(--pet-accent)" opacity=".55"></ellipse><path d="M38,42 L50,37 L48,47 Z" fill="currentColor"></path><circle cx="50" cy="38" r="2.2" fill="var(--pet-accent)"></circle><path d="M44,42 Q52,42 56,44 M44,44 Q52,45 56,47" stroke="var(--pet-eye)" stroke-width=".7" stroke-linecap="round" opacity=".4"></path></g><g id="ears"><circle cx="38" cy="29" r="5" fill="currentColor"></circle><circle cx="38" cy="29" r="2.6" fill="var(--pet-accent)"></circle></g><g id="face"><g class="mood m-idle" data-mood="idle"><circle cx="42" cy="32" r="2.3" fill="var(--pet-eye)"></circle><circle cx="48" cy="32" r="2.3" fill="var(--pet-eye)"></circle></g><g class="mood m-focused" data-mood="focused"><path d="M38.55,29.82 L43.38,32.23" fill="none" stroke="var(--pet-eye)" stroke-width="2.42" stroke-linecap="round" stroke-linejoin="round"></path><path d="M51.45,29.82 L46.62,32.23" fill="none" stroke="var(--pet-eye)" stroke-width="2.42" stroke-linecap="round" stroke-linejoin="round"></path><circle cx="42.23" cy="33.38" r="1.2" fill="var(--pet-eye)"></circle><circle cx="47.77" cy="33.38" r="1.2" fill="var(--pet-eye)"></circle><path d="M42.93,37.52 H47.07" fill="none" stroke="var(--pet-eye)" stroke-width="1.15" stroke-linecap="round" stroke-linejoin="round"></path></g><g class="mood m-happy" data-mood="happy"><path d="M39.7,32.81 L42,30.39 L44.3,32.81" fill="none" stroke="var(--pet-eye)" stroke-width="1.5" stroke-linecap="round" stroke-linejoin="round"></path><path d="M45.7,32.81 L48,30.39 L50.3,32.81" fill="none" stroke="var(--pet-eye)" stroke-width="1.5" stroke-linecap="round" stroke-linejoin="round"></path><path d="M42.47,36.83 Q45,40.05 47.53,36.83" fill="none" stroke="var(--pet-eye)" stroke-width="1.38" stroke-linecap="round" stroke-linejoin="round"></path></g><g class="mood m-celebrate" data-mood="celebrate"><path d="M42,29.36 Q42,32 44.65,32 Q42,32 42,34.64 Q42,32 39.36,32 Q42,32 42,29.36 Z" fill="var(--pet-accent)"></path><path d="M48,29.36 Q48,32 50.65,32 Q48,32 48,34.64 Q48,32 45.36,32 Q48,32 48,29.36 Z" fill="var(--pet-accent)"></path><path d="M53.98,22.46 Q53.98,24.3 55.82,24.3 Q53.98,24.3 53.98,26.14 Q53.98,24.3 52.14,24.3 Q53.98,24.3 53.98,22.46 Z" fill="var(--pet-accent)"></path><path d="M36.48,19.7 Q36.48,21.08 37.86,21.08 Q36.48,21.08 36.48,22.46 Q36.48,21.08 35.1,21.08 Q36.48,21.08 36.48,19.7 Z" fill="var(--pet-accent)"></path><path d="M42.47,36.83 Q45,40.51 47.53,36.83" fill="none" stroke="var(--pet-eye)" stroke-width="1.38" stroke-linecap="round" stroke-linejoin="round"></path></g><g class="mood m-sleep" data-mood="sleep"><path d="M39.7,32 Q42,34.53 44.3,32" fill="none" stroke="var(--pet-eye)" stroke-width="1.38" stroke-linecap="round" stroke-linejoin="round"></path><path d="M45.7,32 Q48,34.53 50.3,32" fill="none" stroke="var(--pet-eye)" stroke-width="1.38" stroke-linecap="round" stroke-linejoin="round"></path><path d="M53.98,26.6 h2.53 l-2.53,2.53 h2.53" fill="none" stroke="var(--pet-eye)" stroke-width="0.86" stroke-linecap="round" stroke-linejoin="round"></path><path d="M57.2,22 h3.22 l-3.22,3.22 h3.22" fill="none" stroke="var(--pet-eye)" stroke-width="1.09" stroke-linecap="round" stroke-linejoin="round"></path><path d="M61.11,17.4 h3.91 l-3.91,3.91 h3.91" fill="none" stroke="var(--pet-eye)" stroke-width="1.33" stroke-linecap="round" stroke-linejoin="round"></path></g><g class="mood m-confused" data-mood="confused"><circle cx="42" cy="32" r="2.18" fill="var(--pet-eye)"></circle><path d="M45.7,31.54 q1.15,-1.84 2.3,0 q1.15,1.84 2.3,0" fill="none" stroke="var(--pet-eye)" stroke-width="1.38" stroke-linecap="round" stroke-linejoin="round"></path><path d="M52.72,23.78 Q52.72,20.51 55.13,20.51 Q57.72,20.51 57.54,23.27 Q56.86,24.99 55.13,25.85" fill="none" stroke="var(--pet-eye)" stroke-width="1.17" stroke-linecap="round" stroke-linejoin="round"></path><circle cx="55.13" cy="28.1" r="0.69" fill="var(--pet-eye)"></circle></g><g class="mood m-tired" data-mood="tired"><path d="M39.7,31.77 Q42,29.24 44.3,31.77" fill="none" stroke="var(--pet-eye)" stroke-width="1.61" stroke-linecap="round" stroke-linejoin="round"></path><path d="M45.7,31.77 Q48,29.24 50.3,31.77" fill="none" stroke="var(--pet-eye)" stroke-width="1.61" stroke-linecap="round" stroke-linejoin="round"></path><circle cx="42" cy="32.35" r="0.97" fill="var(--pet-eye)"></circle><circle cx="48" cy="32.35" r="0.97" fill="var(--pet-eye)"></circle><path d="M40.39,34.99 Q42,36.37 43.61,34.99" fill="none" stroke="var(--pet-eye)" stroke-width="0.83" stroke-linecap="round" stroke-linejoin="round"></path><path d="M46.39,34.99 Q48,36.37 49.61,34.99" fill="none" stroke="var(--pet-eye)" stroke-width="0.83" stroke-linecap="round" stroke-linejoin="round"></path></g><g class="mood m-love" data-mood="love"><path d="M42,34.19 C38.94,31.34 40.91,29.49 42,31.3 C43.09,29.49 45.06,31.34 42,34.19 Z" fill="var(--pet-accent)"></path><path d="M48,34.19 C44.94,31.34 46.91,29.49 48,31.3 C49.09,29.49 51.06,31.34 48,34.19 Z" fill="var(--pet-accent)"></path><path d="M42.7,37.06 Q45,39.82 47.3,37.06" fill="none" stroke="var(--pet-eye)" stroke-width="1.26" stroke-linecap="round" stroke-linejoin="round"></path></g><g class="mood m-surprised" data-mood="surprised"><circle cx="42" cy="32" r="2.64" fill="none" stroke="var(--pet-eye)" stroke-width="1.15"></circle><circle cx="48" cy="32" r="2.64" fill="none" stroke="var(--pet-eye)" stroke-width="1.15"></circle><circle cx="42" cy="32" r="0.97" fill="var(--pet-eye)"></circle><circle cx="48" cy="32" r="0.97" fill="var(--pet-eye)"></circle><path d="M39.47,27.63 Q42,26.48 43.38,27.4" fill="none" stroke="var(--pet-eye)" stroke-width="1.03" stroke-linecap="round" stroke-linejoin="round"></path><path d="M46.62,27.4 Q48,26.48 50.53,27.63" fill="none" stroke="var(--pet-eye)" stroke-width="1.03" stroke-linecap="round" stroke-linejoin="round"></path><ellipse cx="45" cy="38.44" rx="1.61" ry="2.07" fill="var(--pet-eye)"></ellipse></g><g class="mood m-playful" data-mood="playful"><path d="M39.7,32.46 Q42,29.93 44.3,32.46" fill="none" stroke="var(--pet-eye)" stroke-width="1.5" stroke-linecap="round" stroke-linejoin="round"></path><circle cx="48" cy="32" r="2.3" fill="var(--pet-eye)"></circle><path d="M42.47,36.83 Q45.46,39.59 47.76,36.37" fill="none" stroke="var(--pet-eye)" stroke-width="1.26" stroke-linecap="round" stroke-linejoin="round"></path><path d="M45.46,38.21 Q46.27,40.28 47.19,38.55 Z" fill="var(--pet-accent)"></path></g></g></svg>