<svg xmlns="http://www.w3.org/2000/svg" viewBox="0 0 64 64" data-mood="idle" role="img" aria-label="salamander pet sprite"><g id="tail"><path class="tail" d="M16,44 Q4,44 3,52 Q2,57 7,56" fill="none" stroke="currentColor" stroke-width="5.5" stroke-linecap="round"></path></g><g id="legs"><path class="leg-back" d="M22,48 L18,56 M22,48 L27,55" stroke="currentColor" stroke-width="3" stroke-linecap="round"></path><path class="leg-front" d="M40,48 L36,56 M40,48 L45,55" stroke="currentColor" stroke-width="3" stroke-linecap="round"></path></g><g id="body"><path d="M14,44 Q32,38 48,42 Q58,44 58,39 Q58,31 49,31 Q32,31 16,40 Z" fill="currentColor"></path><circle cx="52" cy="36" r="7" fill="currentColor"></circle><circle cx="24" cy="39" r="2.2" fill="var(--pet-accent)"></circle><circle cx="33" cy="37" r="2.2" fill="var(--pet-accent)"></circle><circle cx="42" cy="38" r="2.2" fill="var(--pet-accent)"></circle></g><g id="face"><g class="mood m-idle" data-mood="idle"><circle cx="50" cy="34" r="2.3" fill="var(--pet-eye)"></circle><circle cx="56" cy="34" r="2.3" fill="var(--pet-eye)"></circle></g><g class="mood m-focused" data-mood="focused"><path d="M46.55,31.82 L51.38,34.23" fill="none" stroke="var(--pet-eye)" stroke-width="2.42" stroke-linecap="round" stroke-linejoin="round"></path><path d="M59.45,31.82 L54.62,34.23" fill="none" stroke="var(--pet-eye)" stroke-width="2.42" stroke-linecap="round" stroke-linejoin="round"></path><circle cx="50.23" cy="35.38" r="1.2" fill="var(--pet-eye)"></circle><circle cx="55.77" cy="35.38" r="1.2" fill="var(--pet-eye)"></circle><path d="M50.93,39.52 H55.07" fill="none" stroke="var(--pet-eye)" stroke-width="1.15" stroke-linecap="round" stroke-linejoin="round"></path></g><g class="mood m-happy" data-mood="happy"><path d="M47.7,34.81 L50,32.39 L52.3,34.81" fill="none" stroke="var(--pet-eye)" stroke-width="1.5" stroke-linecap="round" stroke-linejoin="round"></path><path d="M53.7,34.81 L56,32.39 L58.3,34.81" fill="none" stroke="var(--pet-eye)" stroke-width="1.5" stroke-linecap="round" stroke-linejoin="round"></path><path d="M50.47,38.83 Q53,42.05 55.53,38.83" fill="none" stroke="var(--pet-eye)" stroke-width="1.38" stroke-linecap="round" stroke-linejoin="round"></path></g><g class="mood m-celebrate" data-mood="celebrate"><path d="M50,31.36 Q50,34 52.65,34 Q50,34 50,36.64 Q50,34 47.36,34 Q50,34 50,31.36 Z" fill="var(--pet-accent)"></path><path d="M56,31.36 Q56,34 58.65,34 Q56,34 56,36.64 Q56,34 53.36,34 Q56,34 56,31.36 Z" fill="var(--pet-accent)"></path><path d="M61.98,24.46 Q61.98,26.3 63.82,26.3 Q61.98,26.3 61.98,28.14 Q61.98,26.3 60.14,26.3 Q61.98,26.3 61.98,24.46 Z" fill="var(--pet-accent)"></path><path d="M44.48,21.7 Q44.48,23.08 45.86,23.08 Q44.48,23.08 44.48,24.46 Q44.48,23.08 43.1,23.08 Q44.48,23.08 44.48,21.7 Z" fill="var(--pet-accent)"></path><path d="M50.47,38.83 Q53,42.51 55.53,38.83" fill="none" stroke="var(--pet-eye)" stroke-width="1.38" stroke-linecap="round" stroke-linejoin="round"></path></g><g class="mood m-sleep" data-mood="sleep"><path d="M47.7,34 Q50,36.53 52.3,34" fill="none" stroke="var(--pet-eye)" stroke-width="1.38" stroke-linecap="round" stroke-linejoin="round"></path><path d="M53.7,34 Q56,36.53 58.3,34" fill="none" stroke="var(--pet-eye)" stroke-width="1.38" stroke-linecap="round" stroke-linejoin="round"></path><path d="M61.98,28.6 h2.53 l-2.53,2.53 h2.53" fill="none" stroke="var(--pet-eye)" stroke-width="0.86" stroke-linecap="round" stroke-linejoin="round"></path><path d="M65.2,24 h3.22 l-3.22,3.22 h3.22" fill="none" stroke="var(--pet-eye)" stroke-width="1.09" stroke-linecap="round" stroke-linejoin="round"></path><path d="M69.11,19.4 h3.91 l-3.91,3.91 h3.91" fill="none" stroke="var(--pet-eye)" stroke-width="1.33" stroke-linecap="round" stroke-linejoin="round"></path></g><g class="mood m-confused" data-mood="confused"><circle cx="50" cy="34" r="2.18" fill="var(--pet-eye)"></circle><path d="M53.7,33.54 q1.15,-1.84 2.3,0 q1.15,1.84 2.3,0" fill="none" stroke="var(--pet-eye)" stroke-width="1.38" stroke-linecap="round" stroke-linejoin="round"></path><path d="M60.72,25.78 Q60.72,22.51 63.13,22.51 Q65.72,22.51 65.55,25.27 Q64.85,26.99 63.13,27.85" fill="none" stroke="var(--pet-eye)" stroke-width="1.17" stroke-linecap="round" stroke-linejoin="round"></path><circle cx="63.13" cy="30.1" r="0.69" fill="var(--pet-eye)"></circle></g><g class="mood m-tired" data-mood="tired"><path d="M47.7,33.77 Q50,31.24 52.3,33.77" fill="none" stroke="var(--pet-eye)" stroke-width="1.61" stroke-linecap="round" stroke-linejoin="round"></path><path d="M53.7,33.77 Q56,31.24 58.3,33.77" fill="none" stroke="var(--pet-eye)" stroke-width="1.61" stroke-linecap="round" stroke-linejoin="round"></path><circle cx="50" cy="34.35" r="0.97" fill="var(--pet-eye)"></circle><circle cx="56" cy="34.35" r="0.97" fill="var(--pet-eye)"></circle><path d="M48.39,36.99 Q50,38.37 51.61,36.99" fill="none" stroke="var(--pet-eye)" stroke-width="0.83" stroke-linecap="round" stroke-linejoin="round"></path><path d="M54.39,36.99 Q56,38.37 57.61,36.99" fill="none" stroke="var(--pet-eye)" stroke-width="0.83" stroke-linecap="round" stroke-linejoin="round"></path></g><g class="mood m-love" data-mood="love"><path d="M50,36.19 C46.94,33.34 48.91,31.49 50,33.3 C51.09,31.49 53.06,33.34 50,36.19 Z" fill="var(--pet-accent)"></path><path d="M56,36.19 C52.94,33.34 54.91,31.49 56,33.3 C57.09,31.49 59.06,33.34 56,36.19 Z" fill="var(--pet-accent)"></path><path d="M50.7,39.06 Q53,41.82 55.3,39.06" fill="none" stroke="var(--pet-eye)" stroke-width="1.26" stroke-linecap="round" stroke-linejoin="round"></path></g><g class="mood m-surprised" data-mood="surprised"><circle cx="50" cy="34" r="2.64" fill="none" stroke="var(--pet-eye)" stroke-width="1.15"></circle><circle cx="56" cy="34" r="2.64" fill="none" stroke="var(--pet-eye)" stroke-width="1.15"></circle><circle cx="50" cy="34" r="0.97" fill="var(--pet-eye)"></circle><circle cx="56" cy="34" r="0.97" fill="var(--pet-eye)"></circle><path d="M47.47,29.63 Q50,28.48 51.38,29.4" fill="none" stroke="var(--pet-eye)" stroke-width="1.03" stroke-linecap="round" stroke-linejoin="round"></path><path d="M54.62,29.4 Q56,28.48 58.53,29.63" fill="none" stroke="var(--pet-eye)" stroke-width="1.03" stroke-linecap="round" stroke-linejoin="round"></path><ellipse cx="53" cy="40.44" rx="1.61" ry="2.07" fill="var(--pet-eye)"></ellipse></g><g class="mood m-playful" data-mood="playful"><path d="M47.7,34.46 Q50,31.93 52.3,34.46" fill="none" stroke="var(--pet-eye)" stroke-width="1.5" stroke-linecap="round" stroke-linejoin="round"></path><circle cx="56" cy="34" r="2.3" fill="var(--pet-eye)"></circle><path d="M50.47,38.83 Q53.46,41.59 55.76,38.37" fill="none" stroke="var(--pet-eye)" stroke-width="1.26" stroke-linecap="round" stroke-linejoin="round"></path><path d="M53.46,40.21 Q54.27,42.28 55.19,40.55 Z" fill="var(--pet-accent)"></path></g></g></svg>