<svg xmlns="http://www.w3.org/2000/svg" viewBox="0 0 64 64" data-mood="idle" role="img" aria-label="seal pet sprite"><g id="tail"><path class="tail" d="M14,42 Q4,40 5,48 Q10,47 16,45 Z" fill="currentColor"></path></g><g id="legs"><path class="leg-back" d="M26,48 Q22,55 30,54 Q30,50 28,48 Z" fill="currentColor"></path><path class="leg-front" d="M38,48 Q42,55 34,54 Q34,50 36,48 Z" fill="currentColor"></path></g><g id="body"><path d="M14,42 Q18,30 38,32 Q54,34 54,42 Q54,50 38,50 Q18,50 14,42 Z" fill="currentColor"></path><ellipse cx="34" cy="46" rx="14" ry="4" fill="var(--pet-accent)" opacity=".5"></ellipse><circle cx="49" cy="38" r="8" fill="currentColor"></circle><path d="M52,40 Q58,39 60,40 M52,42 Q58,42 60,43" stroke="var(--pet-eye)" stroke-width=".7" stroke-linecap="round" opacity=".4"></path></g><g id="face"><g class="mood m-idle" data-mood="idle"><circle cx="46" cy="36" r="2.5" fill="var(--pet-eye)"></circle><circle cx="52" cy="36" r="2.5" fill="var(--pet-eye)"></circle></g><g class="mood m-focused" data-mood="focused"><path d="M42.25,33.63 L47.5,36.25" fill="none" stroke="var(--pet-eye)" stroke-width="2.63" stroke-linecap="round" stroke-linejoin="round"></path><path d="M55.75,33.63 L50.5,36.25" fill="none" stroke="var(--pet-eye)" stroke-width="2.63" stroke-linecap="round" stroke-linejoin="round"></path><circle cx="46.25" cy="37.5" r="1.3" fill="var(--pet-eye)"></circle><circle cx="51.75" cy="37.5" r="1.3" fill="var(--pet-eye)"></circle><path d="M46.75,42 H51.25" fill="none" stroke="var(--pet-eye)" stroke-width="1.25" stroke-linecap="round" stroke-linejoin="round"></path></g><g class="mood m-happy" data-mood="happy"><path d="M43.5,36.88 L46,34.25 L48.5,36.88" fill="none" stroke="var(--pet-eye)" stroke-width="1.63" stroke-linecap="round" stroke-linejoin="round"></path><path d="M49.5,36.88 L52,34.25 L54.5,36.88" fill="none" stroke="var(--pet-eye)" stroke-width="1.63" stroke-linecap="round" stroke-linejoin="round"></path><path d="M46.25,41.25 Q49,44.75 51.75,41.25" fill="none" stroke="var(--pet-eye)" stroke-width="1.5" stroke-linecap="round" stroke-linejoin="round"></path></g><g class="mood m-celebrate" data-mood="celebrate"><path d="M46,33.13 Q46,36 48.88,36 Q46,36 46,38.88 Q46,36 43.13,36 Q46,36 46,33.13 Z" fill="var(--pet-accent)"></path><path d="M52,33.13 Q52,36 54.88,36 Q52,36 52,38.88 Q52,36 49.13,36 Q52,36 52,33.13 Z" fill="var(--pet-accent)"></path><path d="M58.5,26.5 Q58.5,28.5 60.5,28.5 Q58.5,28.5 58.5,30.5 Q58.5,28.5 56.5,28.5 Q58.5,28.5 58.5,26.5 Z" fill="var(--pet-accent)"></path><path d="M40,23.5 Q40,25 41.5,25 Q40,25 40,26.5 Q40,25 38.5,25 Q40,25 40,23.5 Z" fill="var(--pet-accent)"></path><path d="M46.25,41.25 Q49,45.25 51.75,41.25" fill="none" stroke="var(--pet-eye)" stroke-width="1.5" stroke-linecap="round" stroke-linejoin="round"></path></g><g class="mood m-sleep" data-mood="sleep"><path d="M43.5,36 Q46,38.75 48.5,36" fill="none" stroke="var(--pet-eye)" stroke-width="1.5" stroke-linecap="round" stroke-linejoin="round"></path><path d="M49.5,36 Q52,38.75 54.5,36" fill="none" stroke="var(--pet-eye)" stroke-width="1.5" stroke-linecap="round" stroke-linejoin="round"></path><path d="M58.5,31 h2.75 l-2.75,2.75 h2.75" fill="none" stroke="var(--pet-eye)" stroke-width="0.94" stroke-linecap="round" stroke-linejoin="round"></path><path d="M62,26 h3.5 l-3.5,3.5 h3.5" fill="none" stroke="var(--pet-eye)" stroke-width="1.19" stroke-linecap="round" stroke-linejoin="round"></path><path d="M66.25,21 h4.25 l-4.25,4.25 h4.25" fill="none" stroke="var(--pet-eye)" stroke-width="1.45" stroke-linecap="round" stroke-linejoin="round"></path></g><g class="mood m-confused" data-mood="confused"><circle cx="46" cy="36" r="2.38" fill="var(--pet-eye)"></circle><path d="M49.5,35.5 q1.25,-2 2.5,0 q1.25,2 2.5,0" fill="none" stroke="var(--pet-eye)" stroke-width="1.5" stroke-linecap="round" stroke-linejoin="round"></path><path d="M57.13,27.94 Q57.13,24.38 59.75,24.38 Q62.56,24.38 62.38,27.38 Q61.63,29.25 59.75,30.19" fill="none" stroke="var(--pet-eye)" stroke-width="1.28" stroke-linecap="round" stroke-linejoin="round"></path><circle cx="59.75" cy="32.63" r="0.75" fill="var(--pet-eye)"></circle></g><g class="mood m-tired" data-mood="tired"><path d="M43.5,35.75 Q46,33 48.5,35.75" fill="none" stroke="var(--pet-eye)" stroke-width="1.75" stroke-linecap="round" stroke-linejoin="round"></path><path d="M49.5,35.75 Q52,33 54.5,35.75" fill="none" stroke="var(--pet-eye)" stroke-width="1.75" stroke-linecap="round" stroke-linejoin="round"></path><circle cx="46" cy="36.38" r="1.05" fill="var(--pet-eye)"></circle><circle cx="52" cy="36.38" r="1.05" fill="var(--pet-eye)"></circle><path d="M44.25,39.25 Q46,40.75 47.75,39.25" fill="none" stroke="var(--pet-eye)" stroke-width="0.9" stroke-linecap="round" stroke-linejoin="round"></path><path d="M50.25,39.25 Q52,40.75 53.75,39.25" fill="none" stroke="var(--pet-eye)" stroke-width="0.9" stroke-linecap="round" stroke-linejoin="round"></path></g><g class="mood m-love" data-mood="love"><path d="M46,38.38 C42.68,35.29 44.81,33.27 46,35.24 C47.19,33.27 49.33,35.29 46,38.38 Z" fill="var(--pet-accent)"></path><path d="M52,38.38 C48.68,35.29 50.81,33.27 52,35.24 C53.19,33.27 55.33,35.29 52,38.38 Z" fill="var(--pet-accent)"></path><path d="M46.5,41.5 Q49,44.5 51.5,41.5" fill="none" stroke="var(--pet-eye)" stroke-width="1.38" stroke-linecap="round" stroke-linejoin="round"></path></g><g class="mood m-surprised" data-mood="surprised"><circle cx="46" cy="36" r="2.88" fill="none" stroke="var(--pet-eye)" stroke-width="1.25"></circle><circle cx="52" cy="36" r="2.88" fill="none" stroke="var(--pet-eye)" stroke-width="1.25"></circle><circle cx="46" cy="36" r="1.05" fill="var(--pet-eye)"></circle><circle cx="52" cy="36" r="1.05" fill="var(--pet-eye)"></circle><path d="M43.25,31.25 Q46,30 47.5,31" fill="none" stroke="var(--pet-eye)" stroke-width="1.13" stroke-linecap="round" stroke-linejoin="round"></path><path d="M50.5,31 Q52,30 54.75,31.25" fill="none" stroke="var(--pet-eye)" stroke-width="1.13" stroke-linecap="round" stroke-linejoin="round"></path><ellipse cx="49" cy="43" rx="1.75" ry="2.25" fill="var(--pet-eye)"></ellipse></g><g class="mood m-playful" data-mood="playful"><path d="M43.5,36.5 Q46,33.75 48.5,36.5" fill="none" stroke="var(--pet-eye)" stroke-width="1.63" stroke-linecap="round" stroke-linejoin="round"></path><circle cx="52" cy="36" r="2.5" fill="var(--pet-eye)"></circle><path d="M46.25,41.25 Q49.5,44.25 52,40.75" fill="none" stroke="var(--pet-eye)" stroke-width="1.38" stroke-linecap="round" stroke-linejoin="round"></path><path d="M49.5,42.75 Q50.38,45 51.38,43.13 Z" fill="var(--pet-accent)"></path></g></g></svg>