<svg xmlns="http://www.w3.org/2000/svg" viewBox="0 0 64 64" data-mood="idle" role="img" aria-label="toad pet sprite"><g id="tail"></g><g id="legs"><path class="leg-back" d="M16,48 Q9,50 11,56 Q16,56 20,52 Z" fill="currentColor"></path><path class="leg-front" d="M48,48 Q55,50 53,56 Q48,56 44,52 Z" fill="currentColor"></path></g><g id="body"><path d="M13,48 Q11,33 32,32 Q53,33 51,48 Q51,55 32,55 Q13,55 13,48 Z" fill="currentColor"></path><ellipse cx="32" cy="50" rx="12" ry="5" fill="var(--pet-accent)" opacity=".55"></ellipse><circle cx="24" cy="29" r="5.5" fill="currentColor"></circle><circle cx="40" cy="29" r="5.5" fill="currentColor"></circle><circle cx="20" cy="42" r="1.6" fill="var(--pet-accent)"></circle><circle cx="44" cy="44" r="1.6" fill="var(--pet-accent)"></circle><circle cx="30" cy="46" r="1.4" fill="var(--pet-accent)"></circle><circle cx="38" cy="40" r="1.3" fill="var(--pet-accent)"></circle></g><g id="face"><g class="mood m-idle" data-mood="idle"><circle cx="24" cy="28" r="2.6" fill="var(--pet-eye)"></circle><circle cx="40" cy="28" r="2.6" fill="var(--pet-eye)"></circle></g><g class="mood m-focused" data-mood="focused"><path d="M20.1,25.53 L25.56,28.26" fill="none" stroke="var(--pet-eye)" stroke-width="2.73" stroke-linecap="round" stroke-linejoin="round"></path><path d="M43.9,25.53 L38.44,28.26" fill="none" stroke="var(--pet-eye)" stroke-width="2.73" stroke-linecap="round" stroke-linejoin="round"></path><circle cx="24.26" cy="29.56" r="1.35" fill="var(--pet-eye)"></circle><circle cx="39.74" cy="29.56" r="1.35" fill="var(--pet-eye)"></circle><path d="M29.66,34.24 H34.34" fill="none" stroke="var(--pet-eye)" stroke-width="1.3" stroke-linecap="round" stroke-linejoin="round"></path></g><g class="mood m-happy" data-mood="happy"><path d="M21.4,28.91 L24,26.18 L26.6,28.91" fill="none" stroke="var(--pet-eye)" stroke-width="1.69" stroke-linecap="round" stroke-linejoin="round"></path><path d="M37.4,28.91 L40,26.18 L42.6,28.91" fill="none" stroke="var(--pet-eye)" stroke-width="1.69" stroke-linecap="round" stroke-linejoin="round"></path><path d="M29.14,33.46 Q32,37.1 34.86,33.46" fill="none" stroke="var(--pet-eye)" stroke-width="1.56" stroke-linecap="round" stroke-linejoin="round"></path></g><g class="mood m-celebrate" data-mood="celebrate"><path d="M24,25.01 Q24,28 26.99,28 Q24,28 24,30.99 Q24,28 21.01,28 Q24,28 24,25.01 Z" fill="var(--pet-accent)"></path><path d="M40,25.01 Q40,28 42.99,28 Q40,28 40,30.99 Q40,28 37.01,28 Q40,28 40,25.01 Z" fill="var(--pet-accent)"></path><path d="M46.76,18.52 Q46.76,20.6 48.84,20.6 Q46.76,20.6 46.76,22.68 Q46.76,20.6 44.68,20.6 Q46.76,20.6 46.76,18.52 Z" fill="var(--pet-accent)"></path><path d="M17.76,15.4 Q17.76,16.96 19.32,16.96 Q17.76,16.96 17.76,18.52 Q17.76,16.96 16.2,16.96 Q17.76,16.96 17.76,15.4 Z" fill="var(--pet-accent)"></path><path d="M29.14,33.46 Q32,37.62 34.86,33.46" fill="none" stroke="var(--pet-eye)" stroke-width="1.56" stroke-linecap="round" stroke-linejoin="round"></path></g><g class="mood m-sleep" data-mood="sleep"><path d="M21.4,28 Q24,30.86 26.6,28" fill="none" stroke="var(--pet-eye)" stroke-width="1.56" stroke-linecap="round" stroke-linejoin="round"></path><path d="M37.4,28 Q40,30.86 42.6,28" fill="none" stroke="var(--pet-eye)" stroke-width="1.56" stroke-linecap="round" stroke-linejoin="round"></path><path d="M46.76,23.2 h2.86 l-2.86,2.86 h2.86" fill="none" stroke="var(--pet-eye)" stroke-width="0.97" stroke-linecap="round" stroke-linejoin="round"></path><path d="M50.4,18 h3.64 l-3.64,3.64 h3.64" fill="none" stroke="var(--pet-eye)" stroke-width="1.24" stroke-linecap="round" stroke-linejoin="round"></path><path d="M54.82,12.8 h4.42 l-4.42,4.42 h4.42" fill="none" stroke="var(--pet-eye)" stroke-width="1.5" stroke-linecap="round" stroke-linejoin="round"></path></g><g class="mood m-confused" data-mood="confused"><circle cx="24" cy="28" r="2.47" fill="var(--pet-eye)"></circle><path d="M37.4,27.48 q1.3,-2.08 2.6,0 q1.3,2.08 2.6,0" fill="none" stroke="var(--pet-eye)" stroke-width="1.56" stroke-linecap="round" stroke-linejoin="round"></path><path d="M45.33,20.02 Q45.33,16.31 48.06,16.31 Q50.98,16.31 50.79,19.43 Q50.01,21.38 48.06,22.36" fill="none" stroke="var(--pet-eye)" stroke-width="1.33" stroke-linecap="round" stroke-linejoin="round"></path><circle cx="48.06" cy="24.89" r="0.78" fill="var(--pet-eye)"></circle></g><g class="mood m-tired" data-mood="tired"><path d="M21.4,27.74 Q24,24.88 26.6,27.74" fill="none" stroke="var(--pet-eye)" stroke-width="1.82" stroke-linecap="round" stroke-linejoin="round"></path><path d="M37.4,27.74 Q40,24.88 42.6,27.74" fill="none" stroke="var(--pet-eye)" stroke-width="1.82" stroke-linecap="round" stroke-linejoin="round"></path><circle cx="24" cy="28.39" r="1.09" fill="var(--pet-eye)"></circle><circle cx="40" cy="28.39" r="1.09" fill="var(--pet-eye)"></circle><path d="M22.18,31.38 Q24,32.94 25.82,31.38" fill="none" stroke="var(--pet-eye)" stroke-width="0.94" stroke-linecap="round" stroke-linejoin="round"></path><path d="M38.18,31.38 Q40,32.94 41.82,31.38" fill="none" stroke="var(--pet-eye)" stroke-width="0.94" stroke-linecap="round" stroke-linejoin="round"></path></g><g class="mood m-love" data-mood="love"><path d="M24,30.47 C20.54,27.26 22.77,25.16 24,27.21 C25.24,25.16 27.46,27.26 24,30.47 Z" fill="var(--pet-accent)"></path><path d="M40,30.47 C36.54,27.26 38.77,25.16 40,27.21 C41.24,25.16 43.46,27.26 40,30.47 Z" fill="var(--pet-accent)"></path><path d="M29.4,33.72 Q32,36.84 34.6,33.72" fill="none" stroke="var(--pet-eye)" stroke-width="1.43" stroke-linecap="round" stroke-linejoin="round"></path></g><g class="mood m-surprised" data-mood="surprised"><circle cx="24" cy="28" r="2.99" fill="none" stroke="var(--pet-eye)" stroke-width="1.3"></circle><circle cx="40" cy="28" r="2.99" fill="none" stroke="var(--pet-eye)" stroke-width="1.3"></circle><circle cx="24" cy="28" r="1.09" fill="var(--pet-eye)"></circle><circle cx="40" cy="28" r="1.09" fill="var(--pet-eye)"></circle><path d="M21.14,23.06 Q24,21.76 25.56,22.8" fill="none" stroke="var(--pet-eye)" stroke-width="1.17" stroke-linecap="round" stroke-linejoin="round"></path><path d="M38.44,22.8 Q40,21.76 42.86,23.06" fill="none" stroke="var(--pet-eye)" stroke-width="1.17" stroke-linecap="round" stroke-linejoin="round"></path><ellipse cx="32" cy="35.28" rx="1.82" ry="2.34" fill="var(--pet-eye)"></ellipse></g><g class="mood m-playful" data-mood="playful"><path d="M21.4,28.52 Q24,25.66 26.6,28.52" fill="none" stroke="var(--pet-eye)" stroke-width="1.69" stroke-linecap="round" stroke-linejoin="round"></path><circle cx="40" cy="28" r="2.6" fill="var(--pet-eye)"></circle><path d="M29.14,33.46 Q32.52,36.58 35.12,32.94" fill="none" stroke="var(--pet-eye)" stroke-width="1.43" stroke-linecap="round" stroke-linejoin="round"></path><path d="M32.52,35.02 Q33.43,37.36 34.47,35.41 Z" fill="var(--pet-accent)"></path></g></g></svg>