<svg xmlns="http://www.w3.org/2000/svg" viewBox="0 0 64 64" data-mood="idle" role="img" aria-label="turtle pet sprite"><g id="tail"><path id="tail" class="tail" d="M16,40 Q10,42 12,37" fill="none" stroke="currentColor" stroke-width="3.4" stroke-linecap="round"></path></g><g id="legs"><rect id="leg-back" class="leg-back" x="19" y="41" width="7.5" height="9.5" rx="3.7" fill="currentColor"></rect><rect id="leg-front" class="leg-front" x="35" y="41" width="7.5" height="9.5" rx="3.7" fill="currentColor"></rect></g><g id="body"><path d="M13,41 Q13,21 32,21 Q51,21 51,41 Z" fill="currentColor"></path><ellipse cx="32" cy="41" rx="19" ry="4.5" fill="currentColor"></ellipse><path d="M32,25 l5.5,3.4 v6.4 l-5.5,3.4 l-5.5,-3.4 v-6.4 Z" fill="var(--pet-accent)" opacity=".5"></path><circle cx="21" cy="35" r="2.4" fill="var(--pet-accent)" opacity=".5"></circle><circle cx="43" cy="35" r="2.4" fill="var(--pet-accent)" opacity=".5"></circle><circle cx="52" cy="38" r="7" fill="currentColor"></circle></g><g id="face"><g class="mood m-idle" data-mood="idle"><circle cx="50.5" cy="37" r="1.9" fill="var(--pet-eye)"></circle><circle cx="55.5" cy="37" r="1.9" fill="var(--pet-eye)"></circle></g><g class="mood m-focused" data-mood="focused"><path d="M47.7 34.4 L52.9 36.2" stroke="var(--pet-eye)" fill="none" stroke-linecap="round" stroke-linejoin="round" stroke-width="1.6"></path><path d="M58.3 34.4 L53.1 36.2" stroke="var(--pet-eye)" fill="none" stroke-linecap="round" stroke-linejoin="round" stroke-width="1.6"></path><circle cx="50.5" cy="37.4" r="1.35" fill="var(--pet-eye)"></circle><circle cx="55.5" cy="37.4" r="1.35" fill="var(--pet-eye)"></circle><path d="M50.4 41.4 H55.6" stroke="var(--pet-eye)" fill="none" stroke-linecap="round" stroke-linejoin="round" stroke-width="1.3"></path></g><g class="mood m-happy" data-mood="happy"><path d="M47.7 37.8 L50.5 34.4 L53.3 37.8" stroke="var(--pet-eye)" fill="none" stroke-linecap="round" stroke-linejoin="round" stroke-width="1.7"></path><path d="M52.7 37.8 L55.5 34.4 L58.3 37.8" stroke="var(--pet-eye)" fill="none" stroke-linecap="round" stroke-linejoin="round" stroke-width="1.7"></path><path d="M49.6 40.6 Q53 44.2 56.4 40.6" stroke="var(--pet-eye)" fill="none" stroke-linecap="round" stroke-linejoin="round" stroke-width="1.4"></path></g><g class="mood m-celebrate" data-mood="celebrate"><path d="M50.5 34 L51.46 36.04 L53.5 37 L51.46 37.96 L50.5 40 L49.54 37.96 L47.5 37 L49.54 36.04 Z" fill="var(--pet-accent)"></path><path d="M55.5 34 L56.46 36.04 L58.5 37 L56.46 37.96 L55.5 40 L54.54 37.96 L52.5 37 L54.54 36.04 Z" fill="var(--pet-accent)"></path><path d="M58 21.9 L58.67 23.33 L60.1 24 L58.67 24.67 L58 26.1 L57.33 24.67 L55.9 24 L57.33 23.33 Z" fill="var(--pet-accent)"></path><ellipse cx="53" cy="41.6" rx="2.2" ry="2" fill="var(--pet-eye)"></ellipse></g><g class="mood m-sleep" data-mood="sleep"><path d="M47.7 36.6 Q50.5 39.6 53.3 36.6" stroke="var(--pet-eye)" fill="none" stroke-linecap="round" stroke-linejoin="round" stroke-width="1.4"></path><path d="M52.7 36.6 Q55.5 39.6 58.3 36.6" stroke="var(--pet-eye)" fill="none" stroke-linecap="round" stroke-linejoin="round" stroke-width="1.4"></path><path d="M50.4 41 Q53 42.6 55.6 41" stroke="var(--pet-eye)" fill="none" stroke-linecap="round" stroke-linejoin="round" stroke-width="1.2"></path><g fill="none" stroke="var(--pet-eye)" stroke-width="1.1" stroke-linecap="round" stroke-linejoin="round"><path d="M58 24 h2.2 l-2.2 2.31 h2.2"></path><path d="M61.4 19.8 h2.8 l-2.8 2.94 h2.8"></path><path d="M65.4 15 h3.4 l-3.4 3.57 h3.4"></path></g></g><g class="mood m-confused" data-mood="confused"><circle cx="50.5" cy="37" r="1.9" fill="var(--pet-eye)"></circle><path d="M52.7 37 q1.4 -2 2.8 0 q1.4 2 2.8 0" stroke="var(--pet-eye)" fill="none" stroke-linecap="round" stroke-linejoin="round" stroke-width="1.5"></path><path d="M50.6 41.6 Q53 40.6 55.4 41.6" stroke="var(--pet-eye)" fill="none" stroke-linecap="round" stroke-linejoin="round" stroke-width="1.2"></path><path d="M57 24 Q57 20.4 60.4 20.4 Q63.9 20.4 63.9 23.4 Q63.9 26 60.4 27 V28.6" fill="none" stroke="var(--pet-eye)" stroke-width="1.7" stroke-linecap="round" stroke-linejoin="round"></path><circle cx="60.4" cy="31.4" r="1.15" fill="var(--pet-eye)"></circle></g><g class="mood m-tired" data-mood="tired"><path d="M47.7 36.6 Q50.5 38.4 53.3 36.6" stroke="var(--pet-eye)" fill="none" stroke-linecap="round" stroke-linejoin="round" stroke-width="1.8"></path><path d="M48.3 38.8 Q50.5 39.8 52.7 38.8" stroke="var(--pet-eye)" fill="none" stroke-linecap="round" stroke-linejoin="round" stroke-width="1"></path><path d="M52.7 36.6 Q55.5 38.4 58.3 36.6" stroke="var(--pet-eye)" fill="none" stroke-linecap="round" stroke-linejoin="round" stroke-width="1.8"></path><path d="M53.3 38.8 Q55.5 39.8 57.7 38.8" stroke="var(--pet-eye)" fill="none" stroke-linecap="round" stroke-linejoin="round" stroke-width="1"></path><path d="M50.4 41.6 Q53 42.3 55.6 41.6" stroke="var(--pet-eye)" fill="none" stroke-linecap="round" stroke-linejoin="round" stroke-width="1.2"></path></g><g class="mood m-love" data-mood="love"><path d="M50.5 39.55 C 47.5 36.4 48.85 34 50.5 36.25 C 52.15 34 53.5 36.4 50.5 39.55 Z" fill="var(--pet-accent)"></path><path d="M55.5 39.55 C 52.5 36.4 53.85 34 55.5 36.25 C 57.15 34 58.5 36.4 55.5 39.55 Z" fill="var(--pet-accent)"></path><path d="M49.6 40.6 Q53 44 56.4 40.6" stroke="var(--pet-eye)" fill="none" stroke-linecap="round" stroke-linejoin="round" stroke-width="1.4"></path></g><g class="mood m-surprised" data-mood="surprised"><circle cx="50.5" cy="37" r="2.18" fill="none" stroke="var(--pet-eye)" stroke-width="0.95"></circle><circle cx="55.5" cy="37" r="2.18" fill="none" stroke="var(--pet-eye)" stroke-width="0.95"></circle><circle cx="50.5" cy="37" r="0.8" fill="var(--pet-eye)"></circle><circle cx="55.5" cy="37" r="0.8" fill="var(--pet-eye)"></circle><path d="M48.41,33.39 Q50.5,32.44 51.64,33.2" fill="none" stroke="var(--pet-eye)" stroke-width="0.86" stroke-linecap="round" stroke-linejoin="round"></path><path d="M54.36,33.2 Q55.5,32.44 57.59,33.39" fill="none" stroke="var(--pet-eye)" stroke-width="0.86" stroke-linecap="round" stroke-linejoin="round"></path><ellipse cx="53" cy="42.32" rx="1.33" ry="1.71" fill="var(--pet-eye)"></ellipse></g><g class="mood m-playful" data-mood="playful"><path d="M48.6,37.38 Q50.5,35.29 52.4,37.38" fill="none" stroke="var(--pet-eye)" stroke-width="1.23" stroke-linecap="round" stroke-linejoin="round"></path><circle cx="55.5" cy="37" r="1.9" fill="var(--pet-eye)"></circle><path d="M50.91,40.99 Q53.38,43.27 55.28,40.61" fill="none" stroke="var(--pet-eye)" stroke-width="1.05" stroke-linecap="round" stroke-linejoin="round"></path><path d="M53.38,42.13 Q54.05,43.84 54.81,42.42 Z" fill="var(--pet-accent)"></path></g></g></svg>