<svg xmlns="http://www.w3.org/2000/svg" viewBox="0 0 64 64" data-mood="idle" role="img" aria-label="zebra pet sprite"><g id="tail"><path class="tail" d="M14,42 Q7,44 9,52" fill="none" stroke="currentColor" stroke-width="3.5" stroke-linecap="round"></path><circle cx="9.5" cy="52" r="2.6" fill="var(--pet-eye)"></circle></g><g id="legs"><rect class="leg-back" x="22" y="47" width="4.6" height="13" rx="2.3" fill="currentColor"></rect><rect class="leg-front" x="33" y="47" width="4.6" height="13" rx="2.3" fill="currentColor"></rect></g><g id="body"><ellipse cx="26" cy="39" rx="14" ry="11" fill="currentColor"></ellipse><path d="M33,37 L42,23 L49,25 L42,41 Z" fill="currentColor"></path><circle cx="47" cy="23" r="8" fill="currentColor"></circle><ellipse cx="52" cy="26" rx="3" ry="2.4" fill="var(--pet-accent)" opacity=".8"></ellipse><path d="M18,34 V44 M24,33 V45 M30,34 V44" stroke="var(--pet-accent)" stroke-width="2.2" stroke-linecap="round"></path><path d="M40,26 L45,28 M41,31 L46,32" stroke="var(--pet-accent)" stroke-width="1.8" stroke-linecap="round"></path><path d="M40,21 L38,14 L41,15 Z" fill="var(--pet-accent)"></path></g><g id="ears"><path d="M44,18 L41,10 L47,15 Z" fill="currentColor"></path><path d="M50,17 L54,10 L55,16 Z" fill="currentColor"></path></g><g id="face"><g class="mood m-idle" data-mood="idle"><circle cx="44" cy="22" r="2.4" fill="var(--pet-eye)"></circle><circle cx="50" cy="22" r="2.4" fill="var(--pet-eye)"></circle></g><g class="mood m-focused" data-mood="focused"><path d="M40.4,19.72 L45.44,22.24" fill="none" stroke="var(--pet-eye)" stroke-width="2.52" stroke-linecap="round" stroke-linejoin="round"></path><path d="M53.6,19.72 L48.56,22.24" fill="none" stroke="var(--pet-eye)" stroke-width="2.52" stroke-linecap="round" stroke-linejoin="round"></path><circle cx="44.24" cy="23.44" r="1.25" fill="var(--pet-eye)"></circle><circle cx="49.76" cy="23.44" r="1.25" fill="var(--pet-eye)"></circle><path d="M44.84,27.76 H49.16" fill="none" stroke="var(--pet-eye)" stroke-width="1.2" stroke-linecap="round" stroke-linejoin="round"></path></g><g class="mood m-happy" data-mood="happy"><path d="M41.6,22.84 L44,20.32 L46.4,22.84" fill="none" stroke="var(--pet-eye)" stroke-width="1.56" stroke-linecap="round" stroke-linejoin="round"></path><path d="M47.6,22.84 L50,20.32 L52.4,22.84" fill="none" stroke="var(--pet-eye)" stroke-width="1.56" stroke-linecap="round" stroke-linejoin="round"></path><path d="M44.36,27.04 Q47,30.4 49.64,27.04" fill="none" stroke="var(--pet-eye)" stroke-width="1.44" stroke-linecap="round" stroke-linejoin="round"></path></g><g class="mood m-celebrate" data-mood="celebrate"><path d="M44,19.24 Q44,22 46.76,22 Q44,22 44,24.76 Q44,22 41.24,22 Q44,22 44,19.24 Z" fill="var(--pet-accent)"></path><path d="M50,19.24 Q50,22 52.76,22 Q50,22 50,24.76 Q50,22 47.24,22 Q50,22 50,19.24 Z" fill="var(--pet-accent)"></path><path d="M56.24,10.48 Q56.24,12.4 58.16,12.4 Q56.24,12.4 56.24,14.32 Q56.24,12.4 54.32,12.4 Q56.24,12.4 56.24,10.48 Z" fill="var(--pet-accent)"></path><path d="M38.24,7.6 Q38.24,9.04 39.68,9.04 Q38.24,9.04 38.24,10.48 Q38.24,9.04 36.8,9.04 Q38.24,9.04 38.24,7.6 Z" fill="var(--pet-accent)"></path><path d="M44.36,27.04 Q47,30.88 49.64,27.04" fill="none" stroke="var(--pet-eye)" stroke-width="1.44" stroke-linecap="round" stroke-linejoin="round"></path></g><g class="mood m-sleep" data-mood="sleep"><path d="M41.6,22 Q44,24.64 46.4,22" fill="none" stroke="var(--pet-eye)" stroke-width="1.44" stroke-linecap="round" stroke-linejoin="round"></path><path d="M47.6,22 Q50,24.64 52.4,22" fill="none" stroke="var(--pet-eye)" stroke-width="1.44" stroke-linecap="round" stroke-linejoin="round"></path><path d="M56.24,14.8 h2.64 l-2.64,2.64 h2.64" fill="none" stroke="var(--pet-eye)" stroke-width="0.9" stroke-linecap="round" stroke-linejoin="round"></path><path d="M59.6,10 h3.36 l-3.36,3.36 h3.36" fill="none" stroke="var(--pet-eye)" stroke-width="1.14" stroke-linecap="round" stroke-linejoin="round"></path><path d="M63.68,5.2 h4.08 l-4.08,4.08 h4.08" fill="none" stroke="var(--pet-eye)" stroke-width="1.39" stroke-linecap="round" stroke-linejoin="round"></path></g><g class="mood m-confused" data-mood="confused"><circle cx="44" cy="22" r="2.28" fill="var(--pet-eye)"></circle><path d="M47.6,21.52 q1.2,-1.92 2.4,0 q1.2,1.92 2.4,0" fill="none" stroke="var(--pet-eye)" stroke-width="1.44" stroke-linecap="round" stroke-linejoin="round"></path><path d="M54.92,11.86 Q54.92,8.44 57.44,8.44 Q60.14,8.44 59.96,11.32 Q59.24,13.12 57.44,14.02" fill="none" stroke="var(--pet-eye)" stroke-width="1.22" stroke-linecap="round" stroke-linejoin="round"></path><circle cx="57.44" cy="16.36" r="0.72" fill="var(--pet-eye)"></circle></g><g class="mood m-tired" data-mood="tired"><path d="M41.6,21.76 Q44,19.12 46.4,21.76" fill="none" stroke="var(--pet-eye)" stroke-width="1.68" stroke-linecap="round" stroke-linejoin="round"></path><path d="M47.6,21.76 Q50,19.12 52.4,21.76" fill="none" stroke="var(--pet-eye)" stroke-width="1.68" stroke-linecap="round" stroke-linejoin="round"></path><circle cx="44" cy="22.36" r="1.01" fill="var(--pet-eye)"></circle><circle cx="50" cy="22.36" r="1.01" fill="var(--pet-eye)"></circle><path d="M42.32,25.12 Q44,26.56 45.68,25.12" fill="none" stroke="var(--pet-eye)" stroke-width="0.86" stroke-linecap="round" stroke-linejoin="round"></path><path d="M48.32,25.12 Q50,26.56 51.68,25.12" fill="none" stroke="var(--pet-eye)" stroke-width="0.86" stroke-linecap="round" stroke-linejoin="round"></path></g><g class="mood m-love" data-mood="love"><path d="M44,24.28 C40.81,21.32 42.86,19.38 44,21.27 C45.14,19.38 47.19,21.32 44,24.28 Z" fill="var(--pet-accent)"></path><path d="M50,24.28 C46.81,21.32 48.86,19.38 50,21.27 C51.14,19.38 53.19,21.32 50,24.28 Z" fill="var(--pet-accent)"></path><path d="M44.6,27.28 Q47,30.16 49.4,27.28" fill="none" stroke="var(--pet-eye)" stroke-width="1.32" stroke-linecap="round" stroke-linejoin="round"></path></g><g class="mood m-surprised" data-mood="surprised"><circle cx="44" cy="22" r="2.76" fill="none" stroke="var(--pet-eye)" stroke-width="1.2"></circle><circle cx="50" cy="22" r="2.76" fill="none" stroke="var(--pet-eye)" stroke-width="1.2"></circle><circle cx="44" cy="22" r="1.01" fill="var(--pet-eye)"></circle><circle cx="50" cy="22" r="1.01" fill="var(--pet-eye)"></circle><path d="M41.36,17.44 Q44,16.24 45.44,17.2" fill="none" stroke="var(--pet-eye)" stroke-width="1.08" stroke-linecap="round" stroke-linejoin="round"></path><path d="M48.56,17.2 Q50,16.24 52.64,17.44" fill="none" stroke="var(--pet-eye)" stroke-width="1.08" stroke-linecap="round" stroke-linejoin="round"></path><ellipse cx="47" cy="28.72" rx="1.68" ry="2.16" fill="var(--pet-eye)"></ellipse></g><g class="mood m-playful" data-mood="playful"><path d="M41.6,22.48 Q44,19.84 46.4,22.48" fill="none" stroke="var(--pet-eye)" stroke-width="1.56" stroke-linecap="round" stroke-linejoin="round"></path><circle cx="50" cy="22" r="2.4" fill="var(--pet-eye)"></circle><path d="M44.36,27.04 Q47.48,29.92 49.88,26.56" fill="none" stroke="var(--pet-eye)" stroke-width="1.32" stroke-linecap="round" stroke-linejoin="round"></path><path d="M47.48,28.48 Q48.32,30.64 49.28,28.84 Z" fill="var(--pet-accent)"></path></g></g></svg>