<svg xmlns="http://www.w3.org/2000/svg" viewBox="0 0 320 480" preserveAspectRatio="xMidYMid slice" role="img" aria-label="cave habitat"><defs><linearGradient id="cave-bg" x1="0" y1="0" x2="0" y2="1"><stop offset="0" stop-color="#1a1626"></stop><stop offset="0.6" stop-color="#15131f"></stop><stop offset="1" stop-color="#0d0b14"></stop></linearGradient></defs><rect x="0" y="0" width="320" height="480" fill="url(#cave-bg)"></rect><polygon points="8,0 32,0 20,70" fill="#211c30"></polygon><polygon points="48,0 72,0 60,50" fill="#211c30"></polygon><polygon points="98,0 122,0 110,90" fill="#211c30"></polygon><polygon points="138,0 162,0 150,40" fill="#211c30"></polygon><polygon points="188,0 212,0 200,80" fill="#211c30"></polygon><polygon points="238,0 262,0 250,55" fill="#211c30"></polygon><polygon points="288,0 312,0 300,75" fill="#211c30"></polygon><polygon points="26,480 54,480 40,420" fill="#1a1626"></polygon><polygon points="76,480 104,480 90,400" fill="#1a1626"></polygon><polygon points="216,480 244,480 230,410" fill="#1a1626"></polygon><polygon points="276,480 304,480 290,390" fill="#1a1626"></polygon><ellipse cx="160" cy="420" rx="120" ry="30" fill="#1f3a52" opacity="0.9"></ellipse><ellipse cx="160" cy="420" rx="120" ry="30" fill="#3f8fb0" opacity="0.14"></ellipse><polygon points="140,392 133,369 137,346 143,346 147,369" fill="#46d6d0"></polygon><polygon points="152,392 145,377 149,362 155,362 159,377" fill="#5fe0da"></polygon><polygon points="176,392 169,373 173,354 179,354 183,373" fill="#3fc8c2"></polygon><polygon points="150,392 143,369 147,346 153,346 157,369" fill="#46d6d0"></polygon><circle cx="155" cy="360" r="40" fill="#46d6d0" opacity="0.08"></circle><polygon points="150,392 143,369 147,346 153,346 157,369" fill="#5fe0da"></polygon></svg>