<svg xmlns="http://www.w3.org/2000/svg" viewBox="0 0 320 480" preserveAspectRatio="xMidYMid slice" role="img" aria-label="city habitat"><defs><linearGradient id="city-sky" x1="0" y1="0" x2="0" y2="1"><stop offset="0" stop-color="#1a2438"></stop><stop offset="0.6" stop-color="#243150"></stop><stop offset="1" stop-color="#33425f"></stop></linearGradient></defs><rect x="0" y="0" width="320" height="480" fill="url(#city-sky)"></rect><circle cx="250" cy="90" r="30" fill="#e8eaf2" opacity="0.92"></circle><circle cx="240" cy="82" r="26" fill="#cdd2e2" opacity="0.5"></circle><circle cx="0" cy="0" r="1" fill="#dfe6f5" opacity="0.7"></circle><circle cx="83" cy="53" r="1" fill="#dfe6f5" opacity="0.7"></circle><circle cx="166" cy="106" r="1" fill="#dfe6f5" opacity="0.7"></circle><circle cx="249" cy="19" r="1" fill="#dfe6f5" opacity="0.7"></circle><circle cx="12" cy="72" r="1" fill="#dfe6f5" opacity="0.7"></circle><circle cx="95" cy="125" r="1" fill="#dfe6f5" opacity="0.7"></circle><circle cx="178" cy="38" r="1" fill="#dfe6f5" opacity="0.7"></circle><circle cx="261" cy="91" r="1" fill="#dfe6f5" opacity="0.7"></circle><circle cx="24" cy="4" r="1" fill="#dfe6f5" opacity="0.7"></circle><circle cx="107" cy="57" r="1" fill="#dfe6f5" opacity="0.7"></circle><circle cx="190" cy="110" r="1" fill="#dfe6f5" opacity="0.7"></circle><circle cx="273" cy="23" r="1" fill="#dfe6f5" opacity="0.7"></circle><circle cx="36" cy="76" r="1" fill="#dfe6f5" opacity="0.7"></circle><circle cx="119" cy="129" r="1" fill="#dfe6f5" opacity="0.7"></circle><circle cx="202" cy="42" r="1" fill="#dfe6f5" opacity="0.7"></circle><circle cx="285" cy="95" r="1" fill="#dfe6f5" opacity="0.7"></circle><circle cx="48" cy="8" r="1" fill="#dfe6f5" opacity="0.7"></circle><circle cx="131" cy="61" r="1" fill="#dfe6f5" opacity="0.7"></circle><circle cx="214" cy="114" r="1" fill="#dfe6f5" opacity="0.7"></circle><circle cx="297" cy="27" r="1" fill="#dfe6f5" opacity="0.7"></circle><rect x="0" y="260" width="40" height="220" fill="#26314a"></rect><rect x="44" y="230" width="34" height="250" fill="#26314a"></rect><rect x="82" y="275" width="30" height="205" fill="#26314a"></rect><rect x="116" y="245" width="40" height="235" fill="#26314a"></rect><rect x="160" y="265" width="30" height="215" fill="#26314a"></rect><rect x="194" y="235" width="44" height="245" fill="#26314a"></rect><rect x="242" y="270" width="34" height="210" fill="#26314a"></rect><rect x="280" y="250" width="40" height="230" fill="#26314a"></rect><rect x="10" y="320" width="52" height="160" fill="#171f30"></rect><rect x="18" y="332" width="7" height="10" fill="#f4cf7a" opacity="0.85"></rect><rect x="50" y="332" width="7" height="10" fill="#f4cf7a" opacity="0.85"></rect><rect x="18" y="354" width="7" height="10" fill="#f4cf7a" opacity="0.85"></rect><rect x="34" y="354" width="7" height="10" fill="#f4cf7a" opacity="0.85"></rect><rect x="50" y="354" width="7" height="10" fill="#f4cf7a" opacity="0.85"></rect><rect x="50" y="376" width="7" height="10" fill="#f4cf7a" opacity="0.85"></rect><rect x="34" y="398" width="7" height="10" fill="#f4cf7a" opacity="0.85"></rect><rect x="50" y="398" width="7" height="10" fill="#f4cf7a" opacity="0.85"></rect><rect x="18" y="420" width="7" height="10" fill="#f4cf7a" opacity="0.85"></rect><rect x="34" y="420" width="7" height="10" fill="#f4cf7a" opacity="0.85"></rect><rect x="50" y="420" width="7" height="10" fill="#f4cf7a" opacity="0.85"></rect><rect x="18" y="442" width="7" height="10" fill="#f4cf7a" opacity="0.85"></rect><rect x="50" y="442" width="7" height="10" fill="#f4cf7a" opacity="0.85"></rect><rect x="18" y="464" width="7" height="10" fill="#f4cf7a" opacity="0.85"></rect><rect x="34" y="464" width="7" height="10" fill="#f4cf7a" opacity="0.85"></rect><rect x="50" y="464" width="7" height="10" fill="#f4cf7a" opacity="0.85"></rect><rect x="70" y="300" width="46" height="180" fill="#171f30"></rect><rect x="78" y="312" width="7" height="10" fill="#f4cf7a" opacity="0.85"></rect><rect x="78" y="334" width="7" height="10" fill="#f4cf7a" opacity="0.85"></rect><rect x="94" y="334" width="7" height="10" fill="#f4cf7a" opacity="0.85"></rect><rect x="94" y="378" width="7" height="10" fill="#f4cf7a" opacity="0.85"></rect><rect x="78" y="400" width="7" height="10" fill="#f4cf7a" opacity="0.85"></rect><rect x="94" y="400" width="7" height="10" fill="#f4cf7a" opacity="0.85"></rect><rect x="78" y="422" width="7" height="10" fill="#f4cf7a" opacity="0.85"></rect><rect x="78" y="444" width="7" height="10" fill="#f4cf7a" opacity="0.85"></rect><rect x="94" y="444" width="7" height="10" fill="#f4cf7a" opacity="0.85"></rect><rect x="126" y="335" width="40" height="145" fill="#171f30"></rect><rect x="150" y="347" width="7" height="10" fill="#f4cf7a" opacity="0.85"></rect><rect x="134" y="369" width="7" height="10" fill="#f4cf7a" opacity="0.85"></rect><rect x="150" y="369" width="7" height="10" fill="#f4cf7a" opacity="0.85"></rect><rect x="150" y="391" width="7" height="10" fill="#f4cf7a" opacity="0.85"></rect><rect x="134" y="413" width="7" height="10" fill="#f4cf7a" opacity="0.85"></rect><rect x="150" y="413" width="7" height="10" fill="#f4cf7a" opacity="0.85"></rect><rect x="134" y="435" width="7" height="10" fill="#f4cf7a" opacity="0.85"></rect><rect x="150" y="435" width="7" height="10" fill="#f4cf7a" opacity="0.85"></rect><rect x="150" y="457" width="7" height="10" fill="#f4cf7a" opacity="0.85"></rect><rect x="176" y="310" width="58" height="170" fill="#171f30"></rect><rect x="200" y="322" width="7" height="10" fill="#f4cf7a" opacity="0.85"></rect><rect x="216" y="322" width="7" height="10" fill="#f4cf7a" opacity="0.85"></rect><rect x="184" y="344" width="7" height="10" fill="#f4cf7a" opacity="0.85"></rect><rect x="200" y="344" width="7" height="10" fill="#f4cf7a" opacity="0.85"></rect><rect x="200" y="366" width="7" height="10" fill="#f4cf7a" opacity="0.85"></rect><rect x="216" y="366" width="7" height="10" fill="#f4cf7a" opacity="0.85"></rect><rect x="184" y="388" width="7" height="10" fill="#f4cf7a" opacity="0.85"></rect><rect x="200" y="388" width="7" height="10" fill="#f4cf7a" opacity="0.85"></rect><rect x="184" y="410" width="7" height="10" fill="#f4cf7a" opacity="0.85"></rect><rect x="200" y="410" width="7" height="10" fill="#f4cf7a" opacity="0.85"></rect><rect x="216" y="410" width="7" height="10" fill="#f4cf7a" opacity="0.85"></rect><rect x="200" y="432" width="7" height="10" fill="#f4cf7a" opacity="0.85"></rect><rect x="216" y="432" width="7" height="10" fill="#f4cf7a" opacity="0.85"></rect><rect x="184" y="454" width="7" height="10" fill="#f4cf7a" opacity="0.85"></rect><rect x="200" y="454" width="7" height="10" fill="#f4cf7a" opacity="0.85"></rect><rect x="244" y="330" width="64" height="150" fill="#171f30"></rect><rect x="268" y="342" width="7" height="10" fill="#f4cf7a" opacity="0.85"></rect><rect x="300" y="342" width="7" height="10" fill="#f4cf7a" opacity="0.85"></rect><rect x="268" y="364" width="7" height="10" fill="#f4cf7a" opacity="0.85"></rect><rect x="284" y="364" width="7" height="10" fill="#f4cf7a" opacity="0.85"></rect><rect x="300" y="364" width="7" height="10" fill="#f4cf7a" opacity="0.85"></rect><rect x="252" y="386" width="7" height="10" fill="#f4cf7a" opacity="0.85"></rect><rect x="300" y="386" width="7" height="10" fill="#f4cf7a" opacity="0.85"></rect><rect x="252" y="408" width="7" height="10" fill="#f4cf7a" opacity="0.85"></rect><rect x="284" y="408" width="7" height="10" fill="#f4cf7a" opacity="0.85"></rect><rect x="300" y="408" width="7" height="10" fill="#f4cf7a" opacity="0.85"></rect><rect x="252" y="430" width="7" height="10" fill="#f4cf7a" opacity="0.85"></rect><rect x="268" y="430" width="7" height="10" fill="#f4cf7a" opacity="0.85"></rect><rect x="284" y="430" width="7" height="10" fill="#f4cf7a" opacity="0.85"></rect><rect x="300" y="430" width="7" height="10" fill="#f4cf7a" opacity="0.85"></rect><rect x="268" y="452" width="7" height="10" fill="#f4cf7a" opacity="0.85"></rect><rect x="300" y="452" width="7" height="10" fill="#f4cf7a" opacity="0.85"></rect></svg>