<svg xmlns="http://www.w3.org/2000/svg" viewBox="0 0 320 480" preserveAspectRatio="xMidYMid slice" role="img" aria-label="desert habitat"><defs><linearGradient id="desert-sky" x1="0" y1="0" x2="0" y2="1"><stop offset="0" stop-color="#f3c9a0"></stop><stop offset="0.55" stop-color="#eaa878"></stop><stop offset="1" stop-color="#d98a66"></stop></linearGradient></defs><rect x="0" y="0" width="320" height="480" fill="url(#desert-sky)"></rect><circle cx="160" cy="120" r="46" fill="#fbe3c2" opacity="0.9"></circle><path d="M0,260 Q120,210 220,250 Q280,272 320,256 V480 H0 Z" fill="#e0a774"></path><path d="M0,320 Q100,288 200,318 Q280,340 320,318 V480 H0 Z" fill="#cf9460"></path><path d="M0,386 Q140,352 280,388 Q300,392 320,388 V480 H0 Z" fill="#b87c4c"></path><path d="M0,440 Q160,414 320,442 V480 H0 Z" fill="#a86a40" opacity="0.9"></path><path d="M40,420 Q90,410 150,420 M180,432 Q230,422 290,432" stroke="#9a6038" stroke-width="2" fill="none" opacity="0.5"></path><rect x="64" y="300" width="16" height="86" fill="#4e7a4a"></rect><path d="M64,330 Q48,326 48,308 V296" fill="none"></path><path d="M64,332 Q50,330 50,312 V300 M80,322 Q94,320 94,302 V292" stroke="#4e7a4a" stroke-width="11" fill="none" stroke-linecap="round"></path><rect x="232" y="326" width="12" height="60" fill="#46703f"></rect><path d="M232,348 Q220,346 220,330 V322" stroke="#46703f" stroke-width="9" fill="none" stroke-linecap="round"></path></svg>