<svg xmlns="http://www.w3.org/2000/svg" viewBox="0 0 320 480" preserveAspectRatio="xMidYMid slice" role="img" aria-label="forest habitat"><defs><linearGradient id="forest-bg" x1="0" y1="0" x2="0" y2="1"><stop offset="0" stop-color="#22402f"></stop><stop offset="1" stop-color="#16291e"></stop></linearGradient></defs><rect x="0" y="0" width="320" height="480" fill="url(#forest-bg)"></rect><path d="M-10,150 Q80,120 160,150 Q240,180 330,150 V0 H-10 Z" fill="#2c4d39" opacity="0.5"></path><path d="M20,120 Q40,40 30,200 Z" fill="#1f3a2b"></path><path d="M36,120 Q56,40 46,200 Z" fill="#1f3a2b"></path><path d="M52,120 Q72,40 62,200 Z" fill="#1f3a2b"></path><path d="M68,120 Q88,40 78,200 Z" fill="#1f3a2b"></path><path d="M84,120 Q104,40 94,200 Z" fill="#1f3a2b"></path><path d="M-10,260 Q80,230 170,260 Q250,285 330,255 V120 H-10 Z" fill="#274434" opacity="0.85"></path><path d="M120,480 Q150,400 140,350 Q132,300 168,250 Q150,320 160,370 Q172,430 200,480 Z" fill="#3c7d72" opacity="0.85"></path><path d="M132,480 Q156,410 150,360 Q146,320 168,270" fill="#5ea59a" opacity="0.4"></path><path d="M0,300 Q40,250 60,480 H-10 Z" fill="#1b3327"></path><path d="M320,300 Q280,250 260,480 H330 Z" fill="#1b3327"></path><path d="M40,460 Q26,420 18,430 M40,460 Q54,420 62,430 M40,460 V410" fill="none"></path><path d="M48,460 Q34,420 26,430 M48,460 Q62,420 70,430 M48,460 V410" fill="none"></path><path d="M56,460 Q42,420 34,430 M56,460 Q70,420 78,430 M56,460 V410" fill="none"></path><path d="M44,470 Q24,430 16,442 M44,470 Q64,430 72,442 M44,468 V416" fill="#2f5740"></path><path d="M272,470 Q252,432 244,444 M272,470 Q292,432 300,444 M272,468 V418" fill="#2f5740"></path><rect x="196" y="398" width="72" height="16" fill="#3a2c1f"></rect><ellipse cx="196" cy="406" rx="8" ry="8" fill="#46362a"></ellipse><ellipse cx="268" cy="406" rx="8" ry="8" fill="#46362a"></ellipse><circle cx="90" cy="300" r="2.4" fill="#cfe88a" opacity="0.9"></circle><circle cx="110" cy="260" r="2.4" fill="#cfe88a" opacity="0.9"></circle><circle cx="210" cy="300" r="2.4" fill="#cfe88a" opacity="0.9"></circle><circle cx="60" cy="360" r="2.4" fill="#cfe88a" opacity="0.9"></circle><circle cx="250" cy="330" r="2.4" fill="#cfe88a" opacity="0.9"></circle><circle cx="150" cy="230" r="2.4" fill="#cfe88a" opacity="0.9"></circle></svg>