<svg xmlns="http://www.w3.org/2000/svg" viewBox="0 0 320 480" preserveAspectRatio="xMidYMid slice" role="img" aria-label="grassland habitat"><defs><linearGradient id="grass-sky" x1="0" y1="0" x2="0" y2="1"><stop offset="0" stop-color="#f6d9a0"></stop><stop offset="0.6" stop-color="#f0c07a"></stop><stop offset="1" stop-color="#e2a866"></stop></linearGradient></defs><rect x="0" y="0" width="320" height="480" fill="url(#grass-sky)"></rect><circle cx="210" cy="150" r="42" fill="#fbe7b0" opacity="0.85"></circle><circle cx="210" cy="150" r="30" fill="#fff3d0" opacity="0.9"></circle><path d="M0,300 Q160,270 320,300 V480 H0 Z" fill="#bca35e"></path><path d="M0,330 Q160,312 320,332 V480 H0 Z" fill="#a8924f" opacity="0.9"></path><path d="M0,372 Q160,356 320,374 V480 H0 Z" fill="#8f7a3e"></path><rect x="78" y="250" width="10" height="90" fill="#5a4a28"></rect><path d="M83,250 Q60,238 54,250 M83,250 Q106,236 112,250" fill="none"></path><path d="M83,256 Q60,244 50,256 M83,250 Q106,238 116,252" stroke="#5a4a28" stroke-width="4" fill="none"></path><ellipse cx="83" cy="236" rx="52" ry="16" fill="#6b5a2e"></ellipse><ellipse cx="83" cy="230" rx="40" ry="12" fill="#7a682f" opacity="0.9"></ellipse><path d="M0,480 Q3,462 1,456" stroke="#6f5e2f" stroke-width="2" fill="none"></path><path d="M5.5,480 Q8.5,447 6.5,441" stroke="#6f5e2f" stroke-width="2" fill="none"></path><path d="M11,480 Q14,454 12,448" stroke="#6f5e2f" stroke-width="2" fill="none"></path><path d="M16.5,480 Q19.5,461 17.5,455" stroke="#6f5e2f" stroke-width="2" fill="none"></path><path d="M22,480 Q25,446 23,440" stroke="#6f5e2f" stroke-width="2" fill="none"></path><path d="M27.5,480 Q30.5,453 28.5,447" stroke="#6f5e2f" stroke-width="2" fill="none"></path><path d="M33,480 Q36,460 34,454" stroke="#6f5e2f" stroke-width="2" fill="none"></path><path d="M38.5,480 Q41.5,445 39.5,439" stroke="#6f5e2f" stroke-width="2" fill="none"></path><path d="M44,480 Q47,452 45,446" stroke="#6f5e2f" stroke-width="2" fill="none"></path><path d="M49.5,480 Q52.5,459 50.5,453" stroke="#6f5e2f" stroke-width="2" fill="none"></path><path d="M55,480 Q58,444 56,438" stroke="#6f5e2f" stroke-width="2" fill="none"></path><path d="M60.5,480 Q63.5,451 61.5,445" stroke="#6f5e2f" stroke-width="2" fill="none"></path><path d="M66,480 Q69,458 67,452" stroke="#6f5e2f" stroke-width="2" fill="none"></path><path d="M71.5,480 Q74.5,443 72.5,437" stroke="#6f5e2f" stroke-width="2" fill="none"></path><path d="M77,480 Q80,450 78,444" stroke="#6f5e2f" stroke-width="2" fill="none"></path><path d="M82.5,480 Q85.5,457 83.5,451" stroke="#6f5e2f" stroke-width="2" fill="none"></path><path d="M88,480 Q91,442 89,436" stroke="#6f5e2f" stroke-width="2" fill="none"></path><path d="M93.5,480 Q96.5,449 94.5,443" stroke="#6f5e2f" stroke-width="2" fill="none"></path><path d="M99,480 Q102,456 100,450" stroke="#6f5e2f" stroke-width="2" fill="none"></path><path d="M104.5,480 Q107.5,441 105.5,435" stroke="#6f5e2f" stroke-width="2" fill="none"></path><path d="M110,480 Q113,448 111,442" stroke="#6f5e2f" stroke-width="2" fill="none"></path><path d="M115.5,480 Q118.5,455 116.5,449" stroke="#6f5e2f" stroke-width="2" fill="none"></path><path d="M121,480 Q124,462 122,456" stroke="#6f5e2f" stroke-width="2" fill="none"></path><path d="M126.5,480 Q129.5,447 127.5,441" stroke="#6f5e2f" stroke-width="2" fill="none"></path><path d="M132,480 Q135,454 133,448" stroke="#6f5e2f" stroke-width="2" fill="none"></path><path d="M137.5,480 Q140.5,461 138.5,455" stroke="#6f5e2f" stroke-width="2" fill="none"></path><path d="M143,480 Q146,446 144,440" stroke="#6f5e2f" stroke-width="2" fill="none"></path><path d="M148.5,480 Q151.5,453 149.5,447" stroke="#6f5e2f" stroke-width="2" fill="none"></path><path d="M154,480 Q157,460 155,454" stroke="#6f5e2f" stroke-width="2" fill="none"></path><path d="M159.5,480 Q162.5,445 160.5,439" stroke="#6f5e2f" stroke-width="2" fill="none"></path><path d="M165,480 Q168,452 166,446" stroke="#6f5e2f" stroke-width="2" fill="none"></path><path d="M170.5,480 Q173.5,459 171.5,453" stroke="#6f5e2f" stroke-width="2" fill="none"></path><path d="M176,480 Q179,444 177,438" stroke="#6f5e2f" stroke-width="2" fill="none"></path><path d="M181.5,480 Q184.5,451 182.5,445" stroke="#6f5e2f" stroke-width="2" fill="none"></path><path d="M187,480 Q190,458 188,452" stroke="#6f5e2f" stroke-width="2" fill="none"></path><path d="M192.5,480 Q195.5,443 193.5,437" stroke="#6f5e2f" stroke-width="2" fill="none"></path><path d="M198,480 Q201,450 199,444" stroke="#6f5e2f" stroke-width="2" fill="none"></path><path d="M203.5,480 Q206.5,457 204.5,451" stroke="#6f5e2f" stroke-width="2" fill="none"></path><path d="M209,480 Q212,442 210,436" stroke="#6f5e2f" stroke-width="2" fill="none"></path><path d="M214.5,480 Q217.5,449 215.5,443" stroke="#6f5e2f" stroke-width="2" fill="none"></path><path d="M220,480 Q223,456 221,450" stroke="#6f5e2f" stroke-width="2" fill="none"></path><path d="M225.5,480 Q228.5,441 226.5,435" stroke="#6f5e2f" stroke-width="2" fill="none"></path><path d="M231,480 Q234,448 232,442" stroke="#6f5e2f" stroke-width="2" fill="none"></path><path d="M236.5,480 Q239.5,455 237.5,449" stroke="#6f5e2f" stroke-width="2" fill="none"></path><path d="M242,480 Q245,462 243,456" stroke="#6f5e2f" stroke-width="2" fill="none"></path><path d="M247.5,480 Q250.5,447 248.5,441" stroke="#6f5e2f" stroke-width="2" fill="none"></path><path d="M253,480 Q256,454 254,448" stroke="#6f5e2f" stroke-width="2" fill="none"></path><path d="M258.5,480 Q261.5,461 259.5,455" stroke="#6f5e2f" stroke-width="2" fill="none"></path><path d="M264,480 Q267,446 265,440" stroke="#6f5e2f" stroke-width="2" fill="none"></path><path d="M269.5,480 Q272.5,453 270.5,447" stroke="#6f5e2f" stroke-width="2" fill="none"></path><path d="M275,480 Q278,460 276,454" stroke="#6f5e2f" stroke-width="2" fill="none"></path><path d="M280.5,480 Q283.5,445 281.5,439" stroke="#6f5e2f" stroke-width="2" fill="none"></path><path d="M286,480 Q289,452 287,446" stroke="#6f5e2f" stroke-width="2" fill="none"></path><path d="M291.5,480 Q294.5,459 292.5,453" stroke="#6f5e2f" stroke-width="2" fill="none"></path><path d="M297,480 Q300,444 298,438" stroke="#6f5e2f" stroke-width="2" fill="none"></path><path d="M302.5,480 Q305.5,451 303.5,445" stroke="#6f5e2f" stroke-width="2" fill="none"></path><path d="M308,480 Q311,458 309,452" stroke="#6f5e2f" stroke-width="2" fill="none"></path><path d="M313.5,480 Q316.5,443 314.5,437" stroke="#6f5e2f" stroke-width="2" fill="none"></path><path d="M319,480 Q322,450 320,444" stroke="#6f5e2f" stroke-width="2" fill="none"></path><path d="M324.5,480 Q327.5,457 325.5,451" stroke="#6f5e2f" stroke-width="2" fill="none"></path></svg>