<svg xmlns="http://www.w3.org/2000/svg" viewBox="0 0 320 480" preserveAspectRatio="xMidYMid slice" role="img" aria-label="home habitat"><defs><linearGradient id="home-bg" x1="0" y1="0" x2="0" y2="1"><stop offset="0" stop-color="#3a2b21"></stop><stop offset="1" stop-color="#22160f"></stop></linearGradient><linearGradient id="home-win" x1="0" y1="0" x2="0" y2="1"><stop offset="0" stop-color="#ffd98a"></stop><stop offset="1" stop-color="#e8a85a"></stop></linearGradient></defs><rect x="0" y="0" width="320" height="480" fill="url(#home-bg)"></rect><rect x="0" y="372" width="320" height="108" fill="#1b1009"></rect><path d="M0,372 H320 V380 H0 Z" fill="#2c1c12"></path><ellipse cx="168" cy="398" rx="150" ry="40" fill="#b9603f" opacity="0.5"></ellipse><ellipse cx="168" cy="398" rx="108" ry="26" fill="#cf7a52" opacity="0.45"></ellipse><rect x="96" y="96" width="128" height="176" fill="#5a3c28"></rect><rect x="106" y="106" width="108" height="156" fill="url(#home-win)"></rect><rect x="158" y="106" width="5" height="156" fill="#5a3c28"></rect><rect x="106" y="182" width="108" height="5" fill="#5a3c28"></rect><path d="M106,262 L60,372 L150,372 L182,262 Z" fill="#ffd98a" opacity="0.12"></path><rect x="236" y="150" width="52" height="12" fill="#6b4730"></rect><rect x="236" y="210" width="52" height="12" fill="#6b4730"></rect><rect x="244" y="120" width="10" height="30" fill="#3f6b4a"></rect><ellipse cx="249" cy="116" rx="11" ry="9" fill="#4e7d57"></ellipse><rect x="264" y="128" width="7" height="22" fill="#7d8a3f"></rect><rect x="276" y="132" width="7" height="18" fill="#6b7d3f"></rect><rect x="244" y="182" width="8" height="28" fill="#7a4a3a"></rect><rect x="256" y="180" width="8" height="30" fill="#8a5a3a"></rect><rect x="268" y="184" width="8" height="26" fill="#6a4030"></rect><ellipse cx="150" cy="360" rx="26" ry="12" fill="#caa" opacity="0"></ellipse><ellipse cx="150" cy="360" rx="26" ry="12" fill="#6b4730"></ellipse><ellipse cx="150" cy="353" rx="18" ry="9" fill="#8a5a3a"></ellipse></svg>