<svg xmlns="http://www.w3.org/2000/svg" viewBox="0 0 320 480" preserveAspectRatio="xMidYMid slice" role="img" aria-label="jungle habitat"><defs><linearGradient id="jungle-bg" x1="0" y1="0" x2="0" y2="1"><stop offset="0" stop-color="#10301f"></stop><stop offset="1" stop-color="#0a1f15"></stop></linearGradient></defs><rect x="0" y="0" width="320" height="480" fill="url(#jungle-bg)"></rect><path d="M40,0 L120,180 L0,160 Z" fill="#1c6b3a" opacity="0.18"></path><path d="M280,0 L200,200 L320,170 Z" fill="#1c6b3a" opacity="0.18"></path><path d="M-10,140 Q80,90 160,130 Q240,170 330,120 V0 H-10 Z" fill="#15402a"></path><path d="M-10,90 Q80,50 160,85 Q240,120 330,75 V0 H-10 Z" fill="#1c5436" opacity="0.8"></path><path d="M30,150 Q70,120 94,156 Q70,160 30,150 Z" fill="#1f6b3e" opacity="0.9"></path><path d="M290,160 Q250,130 226,166 Q250,170 290,160 Z" fill="#1f6b3e" opacity="0.9"></path><path d="M70,120 Q110,90 134,126 Q110,130 70,120 Z" fill="#1f6b3e" opacity="0.9"></path><path d="M250,130 Q210,100 186,136 Q210,140 250,130 Z" fill="#1f6b3e" opacity="0.9"></path><path d="M40,0 Q52,120 34,240" fill="none"></path><path d="M40,0 Q54,120 34,250" stroke="#1c5436" stroke-width="3" fill="none"></path><circle cx="34" cy="250" r="5" fill="#2f7d4e"></circle><path d="M100,0 Q112,120 94,240" fill="none"></path><path d="M100,0 Q114,120 94,250" stroke="#1c5436" stroke-width="3" fill="none"></path><circle cx="94" cy="250" r="5" fill="#2f7d4e"></circle><path d="M160,0 Q172,120 154,240" fill="none"></path><path d="M160,0 Q174,120 154,250" stroke="#1c5436" stroke-width="3" fill="none"></path><circle cx="154" cy="250" r="5" fill="#2f7d4e"></circle><path d="M220,0 Q232,120 214,240" fill="none"></path><path d="M220,0 Q234,120 214,250" stroke="#1c5436" stroke-width="3" fill="none"></path><circle cx="214" cy="250" r="5" fill="#2f7d4e"></circle><path d="M280,0 Q292,120 274,240" fill="none"></path><path d="M280,0 Q294,120 274,250" stroke="#1c5436" stroke-width="3" fill="none"></path><circle cx="274" cy="250" r="5" fill="#2f7d4e"></circle><rect x="0" y="360" width="320" height="120" fill="#0d2417" opacity="0.6"></rect><ellipse cx="160" cy="380" rx="200" ry="30" fill="#16402a" opacity="0.4"></ellipse></svg>