<svg xmlns="http://www.w3.org/2000/svg" viewBox="0 0 320 480" preserveAspectRatio="xMidYMid slice" role="img" aria-label="mountain habitat"><defs><linearGradient id="mtn-sky" x1="0" y1="0" x2="0" y2="1"><stop offset="0" stop-color="#cdd9e6"></stop><stop offset="0.5" stop-color="#a8bcd0"></stop><stop offset="1" stop-color="#8aa0b8"></stop></linearGradient></defs><rect x="0" y="0" width="320" height="480" fill="url(#mtn-sky)"></rect><circle cx="70" cy="90" r="30" fill="#eef3f8" opacity="0.8"></circle><path d="M-10,260 L70,150 L150,260 Z" fill="#7c93a8" opacity="0.8"></path><path d="M120,280 L210,140 L300,280 Z" fill="#8aa0b4" opacity="0.8"></path><path d="M-10,300 L80,170 L180,300 Z" fill="#5f7488"></path><path d="M70,180 L80,170 L92,184 L84,190 L96,196 L80,200 L70,192 Z" fill="#eef3f8"></path><path d="M160,320 L260,150 L360,320 Z" fill="#56697c"></path><path d="M248,168 L260,150 L274,170 L264,176 L276,182 L258,188 L248,178 Z" fill="#eef3f8"></path><path d="M-10,360 Q160,320 330,360 V480 H-10 Z" fill="#3f4f5e"></path><polygon points="23,379.9 40,357.5 57,379.9" fill="#26323c"></polygon><polygon points="26.740000000000002,364.5 40,342.1 53.26,364.5" fill="#26323c"></polygon><polygon points="30.479999999999997,349.09999999999997 40,326.7 49.52,349.09999999999997" fill="#26323c"></polygon><rect x="37.96" y="383.4" width="4.08" height="12.6" fill="#26323c"></rect><polygon points="285,385.28000000000003 300,364.8 315,385.28000000000003" fill="#26323c"></polygon><polygon points="288.3,371.20000000000005 300,350.72 311.7,371.20000000000005" fill="#26323c"></polygon><polygon points="291.6,357.12 300,336.64 308.4,357.12" fill="#26323c"></polygon><rect x="298.2" y="388.48" width="3.5999999999999996" height="11.52" fill="#26323c"></rect><polygon points="67,395.58000000000004 80,378.3 93,395.58000000000004" fill="#26323c"></polygon><polygon points="69.86,383.70000000000005 80,366.42 90.14,383.70000000000005" fill="#26323c"></polygon><polygon points="72.72,371.82000000000005 80,354.54 87.28,371.82000000000005" fill="#26323c"></polygon><rect x="78.44" y="398.28" width="3.12" height="9.719999999999999" fill="#26323c"></rect><polygon points="258,400.5 270,384.5 282,400.5" fill="#26323c"></polygon><polygon points="260.64,389.5 270,373.5 279.36,389.5" fill="#26323c"></polygon><polygon points="263.28,378.5 270,362.5 276.72,378.5" fill="#26323c"></polygon><rect x="268.56" y="403" width="2.88" height="9" fill="#26323c"></rect></svg>