<svg xmlns="http://www.w3.org/2000/svg" viewBox="0 0 320 480" preserveAspectRatio="xMidYMid slice" role="img" aria-label="ocean habitat"><defs><linearGradient id="oce-bg" x1="0" y1="0" x2="0" y2="1"><stop offset="0" stop-color="#1f6f8f"></stop><stop offset="0.5" stop-color="#155a78"></stop><stop offset="1" stop-color="#0c3f5a"></stop></linearGradient></defs><rect x="0" y="0" width="320" height="480" fill="url(#oce-bg)"></rect><polygon points="60,0 90,0 50,300 20,300" fill="#9fe0ec" opacity="0.1"></polygon><polygon points="190,0 230,0 210,320 170,320" fill="#9fe0ec" opacity="0.1"></polygon><path d="M0,400 Q160,372 320,402 V480 H0 Z" fill="#caa86a"></path><path d="M0,430 Q160,414 320,432 V480 H0 Z" fill="#b89456" opacity="0.9"></path><path d="M120,402 V366 M120,384 Q108,374 104,360 M120,388 Q132,376 138,362" stroke="#e07a5a" stroke-width="9" fill="none" stroke-linecap="round" opacity="0.95"></path><path d="M196,404 V372 M196,388 Q186,378 184,364 M196,390 Q208,380 212,366" stroke="#e0915a" stroke-width="8" fill="none" stroke-linecap="round" opacity="0.9"></path><ellipse cx="150" cy="404" rx="26" ry="12" fill="#c95f7a" opacity="0.85"></ellipse><ellipse cx="150" cy="398" rx="18" ry="9" fill="#d97a90" opacity="0.8"></ellipse><path d="M40,410 Q30,360 44,310 Q52,270 42,230" stroke="#2f7d5a" stroke-width="7" fill="none" stroke-linecap="round" opacity="0.85"></path><path d="M280,412 Q292,360 278,312 Q270,272 282,232" stroke="#2f7d5a" stroke-width="7" fill="none" stroke-linecap="round" opacity="0.85"></path><polygon points="70,150 80,146 80,154" fill="#bfe6ee"></polygon><polygon points="80,150 85,147 85,153" fill="#bfe6ee"></polygon><polygon points="88,162 98,158 98,166" fill="#bfe6ee"></polygon><polygon points="98,162 103,159 103,165" fill="#bfe6ee"></polygon><polygon points="60,172 70,168 70,176" fill="#bfe6ee"></polygon><polygon points="70,172 75,169 75,175" fill="#bfe6ee"></polygon><polygon points="100,150 110,146 110,154" fill="#bfe6ee"></polygon><polygon points="110,150 115,147 115,153" fill="#bfe6ee"></polygon><polygon points="80,182 90,178 90,186" fill="#bfe6ee"></polygon><polygon points="90,182 95,179 95,185" fill="#bfe6ee"></polygon><circle cx="10" cy="60" r="2.2" fill="#cdeef6" opacity="0.5"></circle><circle cx="63" cy="143" r="2.2" fill="#cdeef6" opacity="0.5"></circle><circle cx="116" cy="226" r="2.2" fill="#cdeef6" opacity="0.5"></circle><circle cx="169" cy="309" r="2.2" fill="#cdeef6" opacity="0.5"></circle><circle cx="222" cy="92" r="2.2" fill="#cdeef6" opacity="0.5"></circle><circle cx="275" cy="175" r="2.2" fill="#cdeef6" opacity="0.5"></circle><circle cx="28" cy="258" r="2.2" fill="#cdeef6" opacity="0.5"></circle><circle cx="81" cy="341" r="2.2" fill="#cdeef6" opacity="0.5"></circle><circle cx="134" cy="124" r="2.2" fill="#cdeef6" opacity="0.5"></circle><circle cx="187" cy="207" r="2.2" fill="#cdeef6" opacity="0.5"></circle></svg>