<svg xmlns="http://www.w3.org/2000/svg" viewBox="0 0 320 480" preserveAspectRatio="xMidYMid slice" role="img" aria-label="sky habitat"><defs><linearGradient id="sky-bg" x1="0" y1="0" x2="0" y2="1"><stop offset="0" stop-color="#b6a6d8"></stop><stop offset="0.5" stop-color="#d6b0c2"></stop><stop offset="1" stop-color="#f4c9a8"></stop></linearGradient></defs><rect x="0" y="0" width="320" height="480" fill="url(#sky-bg)"></rect><circle cx="0" cy="0" r="1" fill="#fff" opacity="0.6"></circle><circle cx="83" cy="41" r="1" fill="#fff" opacity="0.6"></circle><circle cx="166" cy="82" r="1" fill="#fff" opacity="0.6"></circle><circle cx="249" cy="123" r="1" fill="#fff" opacity="0.6"></circle><circle cx="12" cy="4" r="1" fill="#fff" opacity="0.6"></circle><circle cx="95" cy="45" r="1" fill="#fff" opacity="0.6"></circle><circle cx="178" cy="86" r="1" fill="#fff" opacity="0.6"></circle><circle cx="261" cy="127" r="1" fill="#fff" opacity="0.6"></circle><circle cx="24" cy="8" r="1" fill="#fff" opacity="0.6"></circle><circle cx="107" cy="49" r="1" fill="#fff" opacity="0.6"></circle><circle cx="190" cy="90" r="1" fill="#fff" opacity="0.6"></circle><circle cx="273" cy="131" r="1" fill="#fff" opacity="0.6"></circle><circle cx="36" cy="12" r="1" fill="#fff" opacity="0.6"></circle><circle cx="119" cy="53" r="1" fill="#fff" opacity="0.6"></circle><circle cx="202" cy="94" r="1" fill="#fff" opacity="0.6"></circle><circle cx="285" cy="135" r="1" fill="#fff" opacity="0.6"></circle><circle cx="48" cy="16" r="1" fill="#fff" opacity="0.6"></circle><circle cx="131" cy="57" r="1" fill="#fff" opacity="0.6"></circle><circle cx="220" cy="120" r="34" fill="#fff0d8" opacity="0.7"></circle><ellipse cx="90" cy="300" rx="42" ry="22.4" fill="#efe1f0" opacity="0.9"></ellipse><ellipse cx="56.400000000000006" cy="308.4" rx="28" ry="16.799999999999997" fill="#efe1f0" opacity="0.9"></ellipse><ellipse cx="123.6" cy="307" rx="30.799999999999997" ry="16.799999999999997" fill="#efe1f0" opacity="0.9"></ellipse><ellipse cx="90" cy="314" rx="56" ry="19.599999999999998" fill="#efe1f0" opacity="0.9"></ellipse><ellipse cx="230" cy="360" rx="48" ry="25.6" fill="#f6e6df" opacity="0.92"></ellipse><ellipse cx="191.6" cy="369.6" rx="32" ry="19.200000000000003" fill="#f6e6df" opacity="0.92"></ellipse><ellipse cx="268.4" cy="368" rx="35.2" ry="19.200000000000003" fill="#f6e6df" opacity="0.92"></ellipse><ellipse cx="230" cy="376" rx="64" ry="22.400000000000002" fill="#f6e6df" opacity="0.92"></ellipse><ellipse cx="160" cy="420" rx="60" ry="32" fill="#fff2e6" opacity="0.95"></ellipse><ellipse cx="112" cy="432" rx="40" ry="24" fill="#fff2e6" opacity="0.95"></ellipse><ellipse cx="208" cy="430" rx="44" ry="24" fill="#fff2e6" opacity="0.95"></ellipse><ellipse cx="160" cy="440" rx="80" ry="28" fill="#fff2e6" opacity="0.95"></ellipse><ellipse cx="60" cy="180" rx="27" ry="14.4" fill="#e6dcef" opacity="0.7"></ellipse><ellipse cx="38.4" cy="185.4" rx="18" ry="10.8" fill="#e6dcef" opacity="0.7"></ellipse><ellipse cx="81.6" cy="184.5" rx="19.8" ry="10.8" fill="#e6dcef" opacity="0.7"></ellipse><ellipse cx="60" cy="189" rx="36" ry="12.6" fill="#e6dcef" opacity="0.7"></ellipse><ellipse cx="260" cy="200" rx="30" ry="16" fill="#f0dde6" opacity="0.7"></ellipse><ellipse cx="236" cy="206" rx="20" ry="12" fill="#f0dde6" opacity="0.7"></ellipse><ellipse cx="284" cy="205" rx="22" ry="12" fill="#f0dde6" opacity="0.7"></ellipse><ellipse cx="260" cy="210" rx="40" ry="14" fill="#f0dde6" opacity="0.7"></ellipse></svg>