<svg xmlns="http://www.w3.org/2000/svg" viewBox="0 0 320 480" preserveAspectRatio="xMidYMid slice" role="img" aria-label="swamp habitat"><defs><linearGradient id="swamp-bg" x1="0" y1="0" x2="0" y2="1"><stop offset="0" stop-color="#2a3a26"></stop><stop offset="0.55" stop-color="#1c2a1a"></stop><stop offset="1" stop-color="#101a10"></stop></linearGradient></defs><rect x="0" y="0" width="320" height="480" fill="url(#swamp-bg)"></rect><ellipse cx="80" cy="70" rx="120" ry="70" fill="#1c2c18" opacity="0.9"></ellipse><ellipse cx="240" cy="80" rx="130" ry="80" fill="#1c2c18" opacity="0.9"></ellipse><ellipse cx="160" cy="40" rx="140" ry="60" fill="#22341d" opacity="0.8"></ellipse><ellipse cx="120" cy="110" rx="70" ry="40" fill="#26381f" opacity="0.6"></ellipse><ellipse cx="220" cy="120" rx="80" ry="44" fill="#26381f" opacity="0.55"></ellipse><path d="M150,40 L120,330 L175,330 L185,40 Z" fill="#5a7d4a" opacity="0.06"></path><rect x="0" y="312" width="320" height="168" fill="#274232" opacity="0.97"></rect><rect x="0" y="312" width="320" height="168" fill="#4f7d5a" opacity="0.14"></rect><path d="M0,312 H320 V320 H0 Z" fill="#3f6347" opacity="0.6"></path><ellipse cx="160" cy="312" rx="200" ry="20" fill="#34503a" opacity="0.5"></ellipse><rect x="58" y="150" width="16" height="180" fill="#2a3620"></rect><path d="M66,180 Q34,150 18,172 M66,220 Q102,188 120,210" stroke="#2a3620" stroke-width="9" fill="none" stroke-linecap="round"></path><path d="M36,160 V240 M106,200 V270" stroke="#222d1a" stroke-width="3" fill="none" stroke-linecap="round" opacity="0.8"></path><ellipse cx="22" cy="168" rx="26" ry="16" fill="#23351c" opacity="0.95"></ellipse><ellipse cx="118" cy="206" rx="28" ry="17" fill="#23351c" opacity="0.95"></ellipse><ellipse cx="66" cy="154" rx="30" ry="18" fill="#26381f" opacity="0.9"></ellipse><rect x="244" y="150" width="16" height="180" fill="#2a3620"></rect><path d="M252,180 Q220,150 204,172 M252,220 Q288,188 306,210" stroke="#2a3620" stroke-width="9" fill="none" stroke-linecap="round"></path><path d="M222,160 V240 M292,200 V270" stroke="#222d1a" stroke-width="3" fill="none" stroke-linecap="round" opacity="0.8"></path><ellipse cx="208" cy="168" rx="26" ry="16" fill="#23351c" opacity="0.95"></ellipse><ellipse cx="304" cy="206" rx="28" ry="17" fill="#23351c" opacity="0.95"></ellipse><ellipse cx="252" cy="154" rx="30" ry="18" fill="#26381f" opacity="0.9"></ellipse><path d="M24,150 V188" stroke="#4a6b46" stroke-width="2.6" fill="none" stroke-linecap="round" opacity="0.55"></path><path d="M54,150 V241" stroke="#4a6b46" stroke-width="2.6" fill="none" stroke-linecap="round" opacity="0.55"></path><path d="M84,150 V238" stroke="#4a6b46" stroke-width="2.6" fill="none" stroke-linecap="round" opacity="0.55"></path><path d="M114,150 V235" stroke="#4a6b46" stroke-width="2.6" fill="none" stroke-linecap="round" opacity="0.55"></path><path d="M144,150 V232" stroke="#4a6b46" stroke-width="2.6" fill="none" stroke-linecap="round" opacity="0.55"></path><path d="M174,150 V229" stroke="#4a6b46" stroke-width="2.6" fill="none" stroke-linecap="round" opacity="0.55"></path><path d="M204,150 V226" stroke="#4a6b46" stroke-width="2.6" fill="none" stroke-linecap="round" opacity="0.55"></path><path d="M234,150 V223" stroke="#4a6b46" stroke-width="2.6" fill="none" stroke-linecap="round" opacity="0.55"></path><path d="M264,150 V220" stroke="#4a6b46" stroke-width="2.6" fill="none" stroke-linecap="round" opacity="0.55"></path><path d="M294,150 V217" stroke="#4a6b46" stroke-width="2.6" fill="none" stroke-linecap="round" opacity="0.55"></path><ellipse cx="118" cy="378" rx="24" ry="9.600000000000001" fill="#3a5a40"></ellipse><path d="M118,378 L134.8,370.8" stroke="#4f7d5a" stroke-width="2" fill="none" stroke-linecap="round"></path><ellipse cx="208" cy="402" rx="26" ry="10.4" fill="#3a5a40"></ellipse><path d="M208,402 L226.2,394.2" stroke="#4f7d5a" stroke-width="2" fill="none" stroke-linecap="round"></path><ellipse cx="158" cy="420" rx="19" ry="7.6000000000000005" fill="#3a5a40"></ellipse><path d="M158,420 L171.3,414.3" stroke="#4f7d5a" stroke-width="2" fill="none" stroke-linecap="round"></path><ellipse cx="250" cy="388" rx="16" ry="6.4" fill="#3a5a40"></ellipse><path d="M250,388 L261.2,383.2" stroke="#4f7d5a" stroke-width="2" fill="none" stroke-linecap="round"></path><rect x="116" y="352" width="96" height="15" fill="#2e2418"></rect><ellipse cx="116" cy="359" rx="8" ry="8" fill="#382c1d"></ellipse><ellipse cx="212" cy="359" rx="8" ry="8" fill="#382c1d"></ellipse><circle cx="92" cy="250" r="2" fill="#d6ee8a" opacity="0.85"></circle><circle cx="232" cy="240" r="2" fill="#d6ee8a" opacity="0.85"></circle><circle cx="58" cy="300" r="2" fill="#d6ee8a" opacity="0.85"></circle><circle cx="268" cy="280" r="2" fill="#d6ee8a" opacity="0.85"></circle><circle cx="150" cy="210" r="2" fill="#d6ee8a" opacity="0.85"></circle></svg>