<svg xmlns="http://www.w3.org/2000/svg" viewBox="0 0 320 480" preserveAspectRatio="xMidYMid slice" role="img" aria-label="tundra habitat"><defs><linearGradient id="tun-sky" x1="0" y1="0" x2="0" y2="1"><stop offset="0" stop-color="#1b2740"></stop><stop offset="0.5" stop-color="#27395a"></stop><stop offset="1" stop-color="#3c4f6e"></stop></linearGradient></defs><rect x="0" y="0" width="320" height="480" fill="url(#tun-sky)"></rect><path d="M-10,150 Q90,90 170,140 Q250,185 330,120 V60 Q250,120 170,80 Q90,40 -10,90 Z" fill="#4fd7a8" opacity="0.28"></path><path d="M-10,190 Q100,130 200,180 Q280,215 330,170 V120 Q260,160 190,130 Q100,95 -10,140 Z" fill="#6fa8e0" opacity="0.22"></path><circle cx="0" cy="0" r="1.1" fill="#dce8ff" opacity="0.8"></circle><circle cx="73" cy="47" r="1.1" fill="#dce8ff" opacity="0.8"></circle><circle cx="146" cy="94" r="1.1" fill="#dce8ff" opacity="0.8"></circle><circle cx="219" cy="141" r="1.1" fill="#dce8ff" opacity="0.8"></circle><circle cx="292" cy="38" r="1.1" fill="#dce8ff" opacity="0.8"></circle><circle cx="45" cy="85" r="1.1" fill="#dce8ff" opacity="0.8"></circle><circle cx="118" cy="132" r="1.1" fill="#dce8ff" opacity="0.8"></circle><circle cx="191" cy="29" r="1.1" fill="#dce8ff" opacity="0.8"></circle><circle cx="264" cy="76" r="1.1" fill="#dce8ff" opacity="0.8"></circle><circle cx="17" cy="123" r="1.1" fill="#dce8ff" opacity="0.8"></circle><circle cx="90" cy="20" r="1.1" fill="#dce8ff" opacity="0.8"></circle><circle cx="163" cy="67" r="1.1" fill="#dce8ff" opacity="0.8"></circle><circle cx="236" cy="114" r="1.1" fill="#dce8ff" opacity="0.8"></circle><circle cx="309" cy="11" r="1.1" fill="#dce8ff" opacity="0.8"></circle><circle cx="62" cy="58" r="1.1" fill="#dce8ff" opacity="0.8"></circle><circle cx="135" cy="105" r="1.1" fill="#dce8ff" opacity="0.8"></circle><circle cx="208" cy="2" r="1.1" fill="#dce8ff" opacity="0.8"></circle><circle cx="281" cy="49" r="1.1" fill="#dce8ff" opacity="0.8"></circle><circle cx="34" cy="96" r="1.1" fill="#dce8ff" opacity="0.8"></circle><circle cx="107" cy="143" r="1.1" fill="#dce8ff" opacity="0.8"></circle><circle cx="180" cy="40" r="1.1" fill="#dce8ff" opacity="0.8"></circle><circle cx="253" cy="87" r="1.1" fill="#dce8ff" opacity="0.8"></circle><circle cx="6" cy="134" r="1.1" fill="#dce8ff" opacity="0.8"></circle><circle cx="79" cy="31" r="1.1" fill="#dce8ff" opacity="0.8"></circle><circle cx="152" cy="78" r="1.1" fill="#dce8ff" opacity="0.8"></circle><circle cx="225" cy="125" r="1.1" fill="#dce8ff" opacity="0.8"></circle><path d="M0,300 Q160,278 320,302 V480 H0 Z" fill="#cdd9ea"></path><path d="M0,346 Q160,330 320,350 V480 H0 Z" fill="#b6c6dc" opacity="0.9"></path><path d="M0,400 Q160,386 320,404 V480 H0 Z" fill="#e6eef8" opacity="0.8"></path><polygon points="150,330 168,250 182,330" fill="#aecbe6" opacity="0.9"></polygon><polygon points="168,250 182,330 178,332 168,270" fill="#cfe2f2" opacity="0.8"></polygon><polygon points="196,335 208,288 218,335" fill="#bcd4ec" opacity="0.85"></polygon><circle cx="0" cy="30" r="2" fill="#eef4fc" opacity="0.85"></circle><circle cx="97" cy="91" r="2" fill="#eef4fc" opacity="0.85"></circle><circle cx="194" cy="152" r="2" fill="#eef4fc" opacity="0.85"></circle><circle cx="291" cy="213" r="2" fill="#eef4fc" opacity="0.85"></circle><circle cx="68" cy="274" r="2" fill="#eef4fc" opacity="0.85"></circle><circle cx="165" cy="75" r="2" fill="#eef4fc" opacity="0.85"></circle><circle cx="262" cy="136" r="2" fill="#eef4fc" opacity="0.85"></circle><circle cx="39" cy="197" r="2" fill="#eef4fc" opacity="0.85"></circle><circle cx="136" cy="258" r="2" fill="#eef4fc" opacity="0.85"></circle><circle cx="233" cy="59" r="2" fill="#eef4fc" opacity="0.85"></circle><circle cx="10" cy="120" r="2" fill="#eef4fc" opacity="0.85"></circle><circle cx="107" cy="181" r="2" fill="#eef4fc" opacity="0.85"></circle><circle cx="204" cy="242" r="2" fill="#eef4fc" opacity="0.85"></circle><circle cx="301" cy="43" r="2" fill="#eef4fc" opacity="0.85"></circle></svg>