<svg xmlns="http://www.w3.org/2000/svg" viewBox="0 0 320 480" preserveAspectRatio="xMidYMid slice" role="img" aria-label="volcano habitat"><defs><linearGradient id="vol-sky" x1="0" y1="0" x2="0" y2="1"><stop offset="0" stop-color="#2a1722"></stop><stop offset="0.55" stop-color="#3a1c1e"></stop><stop offset="1" stop-color="#1c1014"></stop></linearGradient></defs><rect x="0" y="0" width="320" height="480" fill="url(#vol-sky)"></rect><ellipse cx="160" cy="90" rx="70" ry="40" fill="#3a2a30" opacity="0.5"></ellipse><ellipse cx="140" cy="60" rx="46" ry="28" fill="#46343a" opacity="0.4"></ellipse><ellipse cx="190" cy="70" rx="40" ry="24" fill="#46343a" opacity="0.35"></ellipse><polygon points="40,440 160,150 280,440" fill="#2a2024"></polygon><polygon points="120,260 160,150 200,260" fill="#e06a30" opacity="0.5"></polygon><polygon points="130,238 160,158 190,238" fill="#f4b04a" opacity="0.7"></polygon><circle cx="160" cy="170" r="14" fill="#ffd06a" opacity="0.7"></circle><path d="M160,180 Q150,260 168,330 Q176,380 158,440" stroke="#e0541f" stroke-width="5" fill="none" stroke-linecap="round" opacity="0.9"></path><path d="M160,180 Q176,250 158,320 Q146,370 170,440" stroke="#f07a2a" stroke-width="3" fill="none" stroke-linecap="round" opacity="0.85"></path><path d="M0,420 Q160,400 320,422 V480 H0 Z" fill="#1a1012"></path><circle cx="10" cy="60" r="2" fill="#ff9a3c" opacity="0.8"></circle><circle cx="81" cy="157" r="2" fill="#ff9a3c" opacity="0.8"></circle><circle cx="152" cy="254" r="2" fill="#ff9a3c" opacity="0.8"></circle><circle cx="223" cy="351" r="2" fill="#ff9a3c" opacity="0.8"></circle><circle cx="294" cy="128" r="2" fill="#ff9a3c" opacity="0.8"></circle><circle cx="65" cy="225" r="2" fill="#ff9a3c" opacity="0.8"></circle><circle cx="136" cy="322" r="2" fill="#ff9a3c" opacity="0.8"></circle><circle cx="207" cy="99" r="2" fill="#ff9a3c" opacity="0.8"></circle><circle cx="278" cy="196" r="2" fill="#ff9a3c" opacity="0.8"></circle><circle cx="49" cy="293" r="2" fill="#ff9a3c" opacity="0.8"></circle><circle cx="120" cy="70" r="2" fill="#ff9a3c" opacity="0.8"></circle><circle cx="191" cy="167" r="2" fill="#ff9a3c" opacity="0.8"></circle><circle cx="262" cy="264" r="2" fill="#ff9a3c" opacity="0.8"></circle><circle cx="33" cy="361" r="2" fill="#ff9a3c" opacity="0.8"></circle><circle cx="104" cy="138" r="2" fill="#ff9a3c" opacity="0.8"></circle><circle cx="175" cy="235" r="2" fill="#ff9a3c" opacity="0.8"></circle></svg>