<svg xmlns="http://www.w3.org/2000/svg" viewBox="0 0 320 480" preserveAspectRatio="xMidYMid slice" role="img" aria-label="wetland habitat"><defs><linearGradient id="wet-sky" x1="0" y1="0" x2="0" y2="1"><stop offset="0" stop-color="#c9d6c2"></stop><stop offset="0.5" stop-color="#9fb6a8"></stop><stop offset="1" stop-color="#6f8e84"></stop></linearGradient></defs><rect x="0" y="0" width="320" height="480" fill="url(#wet-sky)"></rect><rect x="0" y="250" width="320" height="230" fill="#5f8077" opacity="0.9"></rect><rect x="0" y="250" width="320" height="230" fill="#cfe0d4" opacity="0.12"></rect><path d="M0,250 H320 V258 H0 Z" fill="#7da090" opacity="0.5"></path><ellipse cx="160" cy="250" rx="220" ry="26" fill="#dce8df" opacity="0.4"></ellipse><path d="M6,258 V218" stroke="#4f6b56" stroke-width="3" fill="none"></path><ellipse cx="6" cy="218" rx="3" ry="9" fill="#3f5a45"></ellipse><path d="M21,258 V199" stroke="#4f6b56" stroke-width="3" fill="none"></path><ellipse cx="21" cy="199" rx="3" ry="9" fill="#3f5a45"></ellipse><path d="M36,258 V214" stroke="#4f6b56" stroke-width="3" fill="none"></path><ellipse cx="36" cy="214" rx="3" ry="9" fill="#3f5a45"></ellipse><path d="M51,258 V195" stroke="#4f6b56" stroke-width="3" fill="none"></path><ellipse cx="51" cy="195" rx="3" ry="9" fill="#3f5a45"></ellipse><path d="M66,258 V210" stroke="#4f6b56" stroke-width="3" fill="none"></path><ellipse cx="66" cy="210" rx="3" ry="9" fill="#3f5a45"></ellipse><path d="M81,258 V191" stroke="#4f6b56" stroke-width="3" fill="none"></path><ellipse cx="81" cy="191" rx="3" ry="9" fill="#3f5a45"></ellipse><path d="M96,258 V206" stroke="#4f6b56" stroke-width="3" fill="none"></path><ellipse cx="96" cy="206" rx="3" ry="9" fill="#3f5a45"></ellipse><path d="M111,258 V187" stroke="#4f6b56" stroke-width="3" fill="none"></path><ellipse cx="111" cy="187" rx="3" ry="9" fill="#3f5a45"></ellipse><path d="M126,258 V202" stroke="#4f6b56" stroke-width="3" fill="none"></path><ellipse cx="126" cy="202" rx="3" ry="9" fill="#3f5a45"></ellipse><path d="M141,258 V217" stroke="#4f6b56" stroke-width="3" fill="none"></path><ellipse cx="141" cy="217" rx="3" ry="9" fill="#3f5a45"></ellipse><path d="M156,258 V198" stroke="#4f6b56" stroke-width="3" fill="none"></path><ellipse cx="156" cy="198" rx="3" ry="9" fill="#3f5a45"></ellipse><path d="M171,258 V213" stroke="#4f6b56" stroke-width="3" fill="none"></path><ellipse cx="171" cy="213" rx="3" ry="9" fill="#3f5a45"></ellipse><path d="M186,258 V194" stroke="#4f6b56" stroke-width="3" fill="none"></path><ellipse cx="186" cy="194" rx="3" ry="9" fill="#3f5a45"></ellipse><path d="M201,258 V209" stroke="#4f6b56" stroke-width="3" fill="none"></path><ellipse cx="201" cy="209" rx="3" ry="9" fill="#3f5a45"></ellipse><path d="M216,258 V190" stroke="#4f6b56" stroke-width="3" fill="none"></path><ellipse cx="216" cy="190" rx="3" ry="9" fill="#3f5a45"></ellipse><path d="M231,258 V205" stroke="#4f6b56" stroke-width="3" fill="none"></path><ellipse cx="231" cy="205" rx="3" ry="9" fill="#3f5a45"></ellipse><path d="M246,258 V186" stroke="#4f6b56" stroke-width="3" fill="none"></path><ellipse cx="246" cy="186" rx="3" ry="9" fill="#3f5a45"></ellipse><path d="M261,258 V201" stroke="#4f6b56" stroke-width="3" fill="none"></path><ellipse cx="261" cy="201" rx="3" ry="9" fill="#3f5a45"></ellipse><path d="M276,258 V216" stroke="#4f6b56" stroke-width="3" fill="none"></path><ellipse cx="276" cy="216" rx="3" ry="9" fill="#3f5a45"></ellipse><path d="M291,258 V197" stroke="#4f6b56" stroke-width="3" fill="none"></path><ellipse cx="291" cy="197" rx="3" ry="9" fill="#3f5a45"></ellipse><path d="M306,258 V212" stroke="#4f6b56" stroke-width="3" fill="none"></path><ellipse cx="306" cy="212" rx="3" ry="9" fill="#3f5a45"></ellipse><path d="M321,258 V193" stroke="#4f6b56" stroke-width="3" fill="none"></path><ellipse cx="321" cy="193" rx="3" ry="9" fill="#3f5a45"></ellipse><ellipse cx="80" cy="360" rx="22" ry="9.24" fill="#3f6b48"></ellipse><path d="M80,360 L95.4,353.84" fill="none"></path><path d="M80,360 L97.6,353.4" stroke="#5f8077" stroke-width="2" fill="none"></path><ellipse cx="180" cy="400" rx="26" ry="10.92" fill="#3f6b48"></ellipse><path d="M180,400 L198.2,392.72" fill="none"></path><path d="M180,400 L200.8,392.2" stroke="#5f8077" stroke-width="2" fill="none"></path><ellipse cx="250" cy="350" rx="18" ry="7.56" fill="#3f6b48"></ellipse><path d="M250,350 L262.6,344.96" fill="none"></path><path d="M250,350 L264.4,344.6" stroke="#5f8077" stroke-width="2" fill="none"></path><ellipse cx="130" cy="430" rx="20" ry="8.4" fill="#3f6b48"></ellipse><path d="M130,430 L144,424.4" fill="none"></path><path d="M130,430 L146,424" stroke="#5f8077" stroke-width="2" fill="none"></path><path d="M4,480 V410" stroke="#3a5440" stroke-width="4" fill="none"></path><ellipse cx="4" cy="410" rx="4" ry="12" fill="#314a37"></ellipse><path d="M32,480 V379" stroke="#3a5440" stroke-width="4" fill="none"></path><ellipse cx="32" cy="379" rx="4" ry="12" fill="#314a37"></ellipse><path d="M60,480 V388" stroke="#3a5440" stroke-width="4" fill="none"></path><ellipse cx="60" cy="388" rx="4" ry="12" fill="#314a37"></ellipse><path d="M88,480 V397" stroke="#3a5440" stroke-width="4" fill="none"></path><ellipse cx="88" cy="397" rx="4" ry="12" fill="#314a37"></ellipse><path d="M116,480 V406" stroke="#3a5440" stroke-width="4" fill="none"></path><ellipse cx="116" cy="406" rx="4" ry="12" fill="#314a37"></ellipse><path d="M144,480 V375" stroke="#3a5440" stroke-width="4" fill="none"></path><ellipse cx="144" cy="375" rx="4" ry="12" fill="#314a37"></ellipse><path d="M172,480 V384" stroke="#3a5440" stroke-width="4" fill="none"></path><ellipse cx="172" cy="384" rx="4" ry="12" fill="#314a37"></ellipse><path d="M200,480 V393" stroke="#3a5440" stroke-width="4" fill="none"></path><ellipse cx="200" cy="393" rx="4" ry="12" fill="#314a37"></ellipse><path d="M228,480 V402" stroke="#3a5440" stroke-width="4" fill="none"></path><ellipse cx="228" cy="402" rx="4" ry="12" fill="#314a37"></ellipse><path d="M256,480 V371" stroke="#3a5440" stroke-width="4" fill="none"></path><ellipse cx="256" cy="371" rx="4" ry="12" fill="#314a37"></ellipse><path d="M284,480 V380" stroke="#3a5440" stroke-width="4" fill="none"></path><ellipse cx="284" cy="380" rx="4" ry="12" fill="#314a37"></ellipse><path d="M312,480 V389" stroke="#3a5440" stroke-width="4" fill="none"></path><ellipse cx="312" cy="389" rx="4" ry="12" fill="#314a37"></ellipse></svg>